<?xml version="1.0" standalone="no"?>
<!DOCTYPE svg PUBLIC "-//W3C//DTD SVG 1.1//EN" "http://www.w3.org/Graphics/SVG/1.1/DTD/svg11.dtd" >
<svg>
<metadata>
Created by FontForge 20090914 at Thu Jun 17 16:27:38 2021
 By www-data
Copyright &#194;&#169; 2011 By Svetoslav Simov &#194;&#169; Fontfabric, LLC. All rights reserved.
</metadata>
<defs>
<font id="SolomonSans-SemiBold" horiz-adv-x="613" >
  <font-face 
    font-family="Solomon Sans SemBd"
    font-weight="600"
    font-stretch="normal"
    units-per-em="1000"
    panose-1="2 0 0 0 0 0 0 0 0 0"
    ascent="750"
    descent="-250"
    x-height="506.999"
    cap-height="700"
    bbox="-153 -226.001 1676 920.001"
    underline-thickness="50"
    underline-position="-100"
    unicode-range="U+0020-U+FB04"
  />
<missing-glyph horiz-adv-x="582" 
d="M35 0v700h512v-700h-512zM119 167l122 183l-32 48l-28 41.5l-28.5 43l-33.5 50.5v-366zM161 82h259l-33.5 49.5l-30.5 45l-31 46l-34 51.5l-33.5 -49.5l-30.5 -45l-31 -46zM291 426l129 192h-259l33.5 -49.5l31 -45l31.5 -46zM340 350l123 -183v366l-61 -90z" />
    <glyph glyph-name="uniFB00" unicode="ff" horiz-adv-x="609" 
d="M572 700l-0.00195312 -95c-11.333 0 -22.666 -0.333008 -33.999 -1s-21.5 -3 -30.5 -7s-16.5 -10 -22.5 -18s-9 -19.333 -9 -34v-38h96v-93h-96v-414h-109v414h-176v-414h-109v414h-55v93h55v38c0 52.667 16 92 48 118s73.333 39 124 39
c5.33301 0 10.833 -0.166992 16.5 -0.5s11.167 -0.833008 16.5 -1.5v-95c-11.333 0 -22.666 -0.333008 -33.999 -1s-21.5 -3 -30.5 -7s-16.5 -10 -22.5 -18s-9 -19.333 -9 -34v-38h176v38c0 52.667 16 92 48 118s73.333 39 124 39c5.33301 0 10.833 -0.166992 16.5 -0.5
s11.167 -0.833008 16.5 -1.5z" />
    <glyph glyph-name="uniFB01" unicode="fi" horiz-adv-x="521" 
d="M279 702l0.000976562 -95.002c-11.333 0 -22.5 -0.5 -33.5 -1.5s-20.667 -3.66699 -29 -8s-15.166 -10.666 -20.499 -18.999s-8 -19.5 -8 -33.5v-38h250v-507h-109v414h-141v-414h-109v414h-55v93h55v38c0 52.667 15.5 92.334 46.5 119.001s71.5 40 121.5 40
c5.33301 0 10.666 -0.166992 15.999 -0.5s10.666 -0.833008 15.999 -1.5zM328.001 594.998v108h111v-108h-111z" />
    <glyph glyph-name="uniFB02" unicode="fl" horiz-adv-x="555" 
d="M278 700l0.000976562 -94.999c-11.333 0 -22.333 -0.333008 -33 -1s-20.334 -2.83398 -29.001 -6.50098s-15.5 -9.66699 -20.5 -18s-7.5 -19.833 -7.5 -34.5v-38h90v-93h-90v-414h-109v414h-55v93h55v38c0 52.667 15.167 92 45.5 118s70.5 39 120.5 39
c5.33301 0 10.833 -0.166992 16.5 -0.5s11.167 -0.833008 16.5 -1.5zM537.001 -0.999023c-6 -0.666992 -11.833 -1.16699 -17.5 -1.5s-11.167 -0.5 -16.5 -0.5c-49.333 0 -86.666 13.333 -111.999 40s-38 66.334 -38 119.001v544h109v-544
c0 -14.667 1.66699 -25.834 5 -33.501s8.33301 -13.5 15 -17.5s14.667 -6.33301 24 -7s19.666 -1 30.999 -1v-98z" />
    <glyph glyph-name="uniFB03" unicode="ffi" horiz-adv-x="826" 
d="M572 700l0.000976562 -94.999c-11.333 0 -22.5 -0.333008 -33.5 -1s-20.833 -3 -29.5 -7s-15.834 -10 -21.501 -18s-8.5 -19.333 -8.5 -34v-38h257v-507h-109v414h-148v-414h-109v414h-176v-414h-109v414h-55v93h55v38c0 52.667 15.5 92 46.5 118s71.5 39 121.5 39
c5.33301 0 10.833 -0.166992 16.5 -0.5s11.167 -0.833008 16.5 -1.5v-95c-11.333 0 -22.5 -0.333008 -33.5 -1s-20.833 -2.83398 -29.5 -6.50098s-15.667 -9.66699 -21 -18s-8 -19.833 -8 -34.5v-38h176v38c0 52.667 15.667 92 47 118s72 39 122 39
c5.33301 0 10.833 -0.166992 16.5 -0.5s11.167 -0.833008 16.5 -1.5zM626.001 599.001v101h111v-101h-111z" />
    <glyph glyph-name="uniFB04" unicode="ffl" horiz-adv-x="838" 
d="M573 700l0.000976562 -94.999c-11.333 0 -22.5 -0.333008 -33.5 -1s-20.833 -3 -29.5 -7s-15.834 -10 -21.501 -18s-8.5 -19.333 -8.5 -34v-38h89l1 -93h-90v-414h-109v414h-176v-414h-109v414h-55v93h55v38c0 52.667 15.5 92 46.5 118s71.5 39 121.5 39
c5.33301 0 10.833 -0.166992 16.5 -0.5s11.167 -0.833008 16.5 -1.5v-95c-11.333 0 -22.5 -0.333008 -33.5 -1s-20.833 -2.83398 -29.5 -6.50098s-15.667 -9.66699 -21 -18s-8 -19.833 -8 -34.5v-38h176v38c0 52.667 15.667 92 47 118s72 39 122 39
c5.33301 0 10.833 -0.166992 16.5 -0.5s11.167 -0.833008 16.5 -1.5zM815.001 97.001v-98c-6 -0.666992 -11.833 -1.16699 -17.5 -1.5s-11.167 -0.5 -16.5 -0.5c-49.333 0 -86.666 13.333 -111.999 40s-38 66.334 -38 119.001v544h109v-544
c0 -14.667 1.66699 -25.834 5 -33.501s8.33301 -13.5 15 -17.5s14.667 -6.33301 24 -7s19.666 -1 30.999 -1z" />
    <glyph glyph-name="f_j" unicode="fj" horiz-adv-x="560" 
d="M289 -191l1 92c2 0 4.16699 -0.166992 6.5 -0.5s4.5 -0.5 6.5 -0.5c25.333 0 41.833 6.33301 49.5 19s11.5 28.667 11.5 48v443h-164v-410h-109v410h-53v97h53v38c0 52.667 15.667 92 47 118s72 39 122 39c5.33301 0 10.833 -0.166992 16.5 -0.5
s11.167 -0.833008 16.5 -1.5v-95c-11.333 0 -22.5 -0.333008 -33.5 -1s-20.833 -3 -29.5 -7s-15.834 -10 -21.501 -18s-8.5 -19.333 -8.5 -34v-38h273v-540c0 -106.667 -50.333 -160 -151 -160c-5.33301 0 -10.666 0.166992 -15.999 0.5s-11 0.833008 -17 1.5zM365 598v102
h109v-102h-109z" />
    <glyph glyph-name=".notdef" horiz-adv-x="582" 
d="M35 0v700h512v-700h-512zM119 167l122 183l-32 48l-28 41.5l-28.5 43l-33.5 50.5v-366zM161 82h259l-33.5 49.5l-30.5 45l-31 46l-34 51.5l-33.5 -49.5l-30.5 -45l-31 -46zM291 426l129 192h-259l33.5 -49.5l31 -45l31.5 -46zM340 350l123 -183v366l-61 -90z" />
    <glyph glyph-name="uni0020" unicode=" " horiz-adv-x="257" 
 />
    <glyph glyph-name="uni0021" unicode="!" horiz-adv-x="319" 
d="M216 0v115h-120v-115h120zM211 166l6 534h-125l7 -534h112z" />
    <glyph glyph-name="uni0022" unicode="&#x22;" horiz-adv-x="376" 
d="M52 484h101v217h-101v-217zM224 484h102v217h-102v-217z" />
    <glyph glyph-name="uni0023" unicode="#" horiz-adv-x="596" 
d="M556 497h-73l30 204h-104l-31 -204h-96l30 204h-106l-30 -204h-96l-1 -98h81l-16 -109h-96l-1 -99h82l-29 -191h104l30 191h97l-29 -191h103l30 191h87l1 99h-73l18 109h88v98zM372 406l-20 -123h-109l19 123h110z" />
    <glyph glyph-name="uni0024" unicode="$" horiz-adv-x="562" 
d="M168 503c-0.666992 -16.667 2.66992 -30.501 10.0029 -41.501s17 -20.333 29 -28s25.167 -13.834 39.5 -18.501s27.5 -8.66699 39.5 -12c26 -6.66699 52 -15.167 78 -25.5s49 -24 69 -41s36 -38.5 48 -64.5s17.333 -58.333 16 -97
c-1.33301 -28 -7.16602 -52.667 -17.499 -74s-23.5 -39.666 -39.5 -54.999s-34.333 -27.833 -55 -37.5s-42.334 -16.5 -65.001 -20.5v-87h-101v87c-38 7.33301 -73.5 24.333 -106.5 51s-58.167 63 -75.5 109l92 47c12 -30.667 30.167 -56.5 54.5 -77.5
s53.833 -31.5 88.5 -31.5c32.667 0 59.5 8.16699 80.5 24.5s32.5 39.5 34.5 69.5c1.33301 21.333 -2 39.166 -10 53.499s-18.5 26.333 -31.5 36s-27.5 17.334 -43.5 23.001s-31 10.5 -45 14.5c-21.333 6 -44 13.333 -68 22s-45.833 20.5 -65.5 35.5
s-35.834 34.167 -48.501 57.5s-18.334 52 -17.001 86c0.666992 26.667 5.5 50.5 14.5 71.5s20.833 39.5 35.5 55.5s31.5 29 50.5 39s39.167 17.333 60.5 22v87h101v-86c35.333 -8 66.833 -23 94.5 -45s49.167 -53.667 64.5 -95l-90 -41c-13.333 32 -30.333 53.833 -51 65.5
s-42.334 17.5 -65.001 17.5c-26 0 -49.5 -7.66699 -70.5 -23s-32.5 -39.666 -34.5 -72.999z" />
    <glyph glyph-name="uni0025" unicode="%" horiz-adv-x="865" 
d="M580 726h120l-444 -761h-119zM819 153c0 -24 -4.66699 -46.667 -14 -68s-22.166 -40 -38.499 -56s-35.333 -28.5 -57 -37.5s-44.5 -13.5 -68.5 -13.5c-24.667 0 -47.834 4.5 -69.501 13.5s-40.667 21.5 -57 37.5s-29.166 34.667 -38.499 56s-14 44 -14 68
s4.66699 46.667 14 68s22.166 40 38.499 56s35.333 28.667 57 38s44.834 14 69.501 14c24 0 46.833 -4.66699 68.5 -14s40.667 -22 57 -38s29.166 -34.667 38.499 -56s14 -44 14 -68zM723 153c0 28 -8.16699 49.5 -24.5 64.5s-35.5 22.5 -57.5 22.5
c-22.667 0 -42 -7.5 -58 -22.5s-24 -36.5 -24 -64.5s8 -49.167 24 -63.5s35.333 -21.5 58 -21.5c22 0 41.167 7.16699 57.5 21.5s24.5 35.5 24.5 63.5zM377 533c0 -24 -4.83301 -46.667 -14.5 -68s-22.667 -40 -39 -56s-35.333 -28.667 -57 -38s-44.5 -14 -68.5 -14
s-46.833 4.66699 -68.5 14s-40.667 22 -57 38s-29.166 34.667 -38.499 56s-14 44 -14 68c0 24.667 4.66699 47.667 14 69s22.166 40 38.499 56s35.333 28.5 57 37.5s44.5 13.5 68.5 13.5s46.833 -4.5 68.5 -13.5s40.667 -21.5 57 -37.5s29.333 -34.667 39 -56
s14.5 -44.333 14.5 -69zM281 533c0 28 -8.16699 49.5 -24.5 64.5s-35.5 22.5 -57.5 22.5c-22.667 0 -42 -7.5 -58 -22.5s-24 -36.5 -24 -64.5s8 -49.167 24 -63.5s35.333 -21.5 58 -21.5c22 0 41.167 7.16699 57.5 21.5s24.5 35.5 24.5 63.5z" />
    <glyph glyph-name="uni0026" unicode="&#x26;" horiz-adv-x="662" 
d="M342 366l99.999 -107.002l41 76l90 -47l-60 -112l32.5 -36l35.5 -40.5l35 -40l30 -34.5h-143l-52 61c-24.667 -28 -52 -51.333 -82 -70s-65.667 -28 -107 -28c-30 0 -58 5.16699 -84 15.5s-48.833 24.666 -68.5 42.999s-35.167 40.5 -46.5 66.5s-17 55 -17 87
c0 22 3.33301 42 10 60s15.834 34.833 27.501 50.5s25 29.834 40 42.501s30.833 24.334 47.5 35.001c-16 20 -29.833 41.333 -41.5 64s-17.5 48 -17.5 76c0 26.667 5 50.5 15 71.5s23.5 38.667 40.5 53s36.5 25.333 58.5 33s44.667 11.5 68 11.5c22 0 43 -3.83301 63 -11.5
s37.667 -18.5 53 -32.5s27.666 -30.667 36.999 -50s14 -41 14 -65c0 -22.667 -3.33301 -42.667 -10 -60s-15.5 -32.833 -26.5 -46.5s-23.667 -25.667 -38 -36s-29.166 -20.166 -44.499 -29.499zM378.999 163.998l-136.999 147.999c-22.667 -10 -42.667 -25 -60 -45
s-26 -41.667 -26 -65c0 -35.333 10.167 -62.166 30.5 -80.499s44.5 -27.5 72.5 -27.5c21.333 0 42.666 5.66699 63.999 17s40 29 56 53zM291 599.997c-19.333 0 -36 -6.50195 -50 -19.502s-21 -29.833 -21 -50.5c0 -15.333 5 -32 15 -50s21.333 -34.333 34 -49
c10 5.33301 20.333 11.5 31 18.5s20.167 14.833 28.5 23.5s15.333 18.334 21 29.001s8.5 22.334 8.5 35.001c0 18 -6.5 33 -19.5 45s-28.833 18 -47.5 18z" />
    <glyph glyph-name="uni0027" unicode="'" horiz-adv-x="221" 
d="M54 488h101v213h-101v-213z" />
    <glyph glyph-name="uni0028" unicode="(" horiz-adv-x="395" 
d="M172 351c0 -37.333 4.50195 -74.1709 13.502 -110.504s22.167 -70.833 39.5 -103.5s38.333 -62.5 63 -89.5s53 -50.167 85 -69.5v-124c-68.667 34 -125.834 77.5 -171.501 130.5s-79.834 110.833 -102.501 173.5s-34 127.334 -34 194.001s11.5 131.334 34.5 194.001
s57.333 120.5 103 173.5s102.5 96.5 170.5 130.5v-123c-31.333 -17.333 -59.5 -39.166 -84.5 -65.499s-46.167 -55.666 -63.5 -87.999s-30.5 -67.5 -39.5 -105.5s-13.5 -77 -13.5 -117z" />
    <glyph glyph-name="uni0029" unicode=")" horiz-adv-x="408" 
d="M224 345c0 36.667 -4.5 73.333 -13.5 110s-22.167 71.667 -39.5 105s-38.5 64.166 -63.5 92.499s-53.167 51.833 -84.5 70.5v121c68.667 -34.667 126 -78.5 172 -131.5s80.5 -110.667 103.5 -173s34.5 -126.833 34.5 -193.5s-11.5 -131.167 -34.5 -193.5
s-57.5 -120 -103.5 -173s-103.333 -96.833 -172 -131.5v121c31.333 18.667 59.5 41.834 84.5 69.501s46.167 58 63.5 91s30.5 67.833 39.5 104.5s13.5 73.667 13.5 111z" />
    <glyph glyph-name="uni002A" unicode="*" horiz-adv-x="470" 
d="M417 521l-31 92l-121 -45l6 131h-100l3 -131l-120 45l-31 -92l125 -35l-82 -104l82 -58l72 108l71 -108l83 58l-82 104z" />
    <glyph glyph-name="uni002B" unicode="+" horiz-adv-x="652" 
d="M70 273h196v-195h107v195h188v103h-188v193h-107v-193h-196v-103z" />
    <glyph glyph-name="uni002C" unicode="," horiz-adv-x="263" 
d="M9 -131h105l90 236h-124z" />
    <glyph glyph-name="uni002D" unicode="-" horiz-adv-x="458" 
d="M79 256h287v105h-287v-105z" />
    <glyph glyph-name="uni002E" unicode="." horiz-adv-x="264" 
d="M184 -2v119h-122v-119h122z" />
    <glyph glyph-name="uni002F" unicode="/" horiz-adv-x="422" 
d="M406 760h-113l-280 -821h114z" />
    <glyph glyph-name="uni0030" unicode="0" horiz-adv-x="611" 
d="M55 499c0 34.667 6.49805 65.168 19.498 91.501s30.667 48.333 53 66s48 31.167 77 40.5s59.5 14 91.5 14c30 0 59.333 -4.33301 88 -13s54.334 -21.834 77.001 -39.501s40.834 -39.834 54.501 -66.501s20.5 -57.667 20.5 -93v-296
c0 -35.333 -6.66699 -66.166 -20 -92.499s-31.166 -48.5 -53.499 -66.5s-48.166 -31.5 -77.499 -40.5s-60.333 -13.5 -93 -13.5c-32 0 -62.333 4.83301 -91 14.5s-53.834 23.5 -75.501 41.5s-38.834 40.167 -51.501 66.5s-19 56.5 -19 90.5v296zM166.998 203.001
c0 -17.333 3.66797 -32.833 11.001 -46.5s17.166 -25.167 29.499 -34.5s26.166 -16.5 41.499 -21.5s31 -7.5 47 -7.5s31.667 2.5 47 7.5s29 12.167 41 21.5s21.667 20.833 29 34.5s11 29.167 11 46.5v296c0 17.333 -3.66699 32.666 -11 45.999
s-17.166 24.666 -29.499 33.999s-26.333 16.5 -42 21.5s-31.5 7.5 -47.5 7.5s-31.5 -2.5 -46.5 -7.5s-28.5 -12.167 -40.5 -21.5s-21.667 -20.666 -29 -33.999s-11 -28.666 -11 -45.999v-296z" />
    <glyph glyph-name="uni0031" unicode="1" horiz-adv-x="336" 
d="M121 598v-598h113v700h-198v-102h85z" />
    <glyph glyph-name="uni0032" unicode="2" horiz-adv-x="569" 
d="M268 600c-29.333 0 -55.665 -8.99805 -78.998 -26.998s-41.333 -42 -54 -72l-91 42c20.667 52.667 50.667 92 90 118s87 39 143 39c33.333 -0.666992 63.333 -6.83398 90 -18.501s49.5 -26.667 68.5 -45s33.667 -39.5 44 -63.5s15.833 -49 16.5 -75
c0 -30 -6.66699 -58.5 -20 -85.5s-32.333 -53.833 -57 -80.5l-226 -227h308v-105h-432l-30 76l303 327c15.333 15.333 26.666 31.666 33.999 48.999s10.666 34.333 9.99902 51c0 16.667 -3.5 31 -10.5 43s-15.833 22 -26.5 30s-23 14 -37 18s-28.667 6 -44 6z" />
    <glyph glyph-name="uni0033" unicode="3" horiz-adv-x="559" 
d="M29 148l85.0039 47.998c18.667 -38.667 40.667 -65.5 66 -80.5s52.666 -22.5 81.999 -22.5c14 0 28 2 42 6s26.5 10.5 37.5 19.5s19.833 20.667 26.5 35s10 31.833 10 52.5c0 17.333 -2.83301 32.833 -8.5 46.5s-13.334 25.5 -23.001 35.5s-21 17.667 -34 23
s-26.5 8 -40.5 8h-68v100h68c25.333 0 46.5 7.5 63.5 22.5s25.5 36.833 25.5 65.5c0 16 -2.83301 30 -8.5 42s-13.334 21.833 -23.001 29.5s-20.5 13.334 -32.5 17.001s-24.333 5.5 -37 5.5c-23.333 0 -46.166 -5.5 -68.499 -16.5s-40.166 -30.833 -53.499 -59.5l-81 44
c10 23.333 22.5 43.5 37.5 60.5s31.5 31.167 49.5 42.5s37 19.666 57 24.999s40 8 60 8c26 0 51.667 -3.83301 77 -11.5s48 -19.5 68 -35.5s36.167 -36.5 48.5 -61.5s18.5 -54.833 18.5 -89.5c0 -12 -1.83301 -24.833 -5.5 -38.5s-9 -26.667 -16 -39
s-15.5 -23.666 -25.5 -33.999s-21.333 -17.833 -34 -22.5c34 -17.333 58.833 -40.666 74.5 -69.999s23.5 -62 23.5 -98c0 -36.667 -6.83301 -68.5 -20.5 -95.5s-31.334 -49.5 -53.001 -67.5s-46.167 -31.333 -73.5 -40s-55.333 -13 -84 -13c-22 0 -44.333 3.33301 -67 10
s-44.334 16.667 -65.001 30s-39.334 30 -56.001 50s-30.667 43 -42 69z" />
    <glyph glyph-name="uni0034" unicode="4" horiz-adv-x="582" 
d="M475 700h-126l-339 -474l71 -96h284v-130h110v130h76v105h-76v465zM370 569h3l-8 -144v-190h-231z" />
    <glyph glyph-name="uni0035" unicode="5" horiz-adv-x="582" 
d="M41 138l88.999 47.998c15.333 -31.333 36.333 -55 63 -71s53.667 -24 81 -24c22 0 41.333 4 58 12s30.834 18.5 42.501 31.5s20.334 28 26.001 45s8.5 34.5 8.5 52.5c0 44.667 -12.833 78.667 -38.5 102s-60.167 35 -103.5 35c-23.333 0 -46.5 -4 -69.5 -12
s-44.5 -19.333 -64.5 -34h-65l53 377h356v-100h-266l-20 -145c34 10 66.333 15 97 15c34 0 65.167 -5.66699 93.5 -17s52.666 -27.333 72.999 -48s36.333 -45.667 48 -75s17.5 -62 17.5 -98c0 -30 -5.33301 -59.667 -16 -89s-26.334 -55.666 -47.001 -78.999
s-46.5 -42.166 -77.5 -56.499s-66.833 -21.5 -107.5 -21.5c-47.333 0 -91.666 12.333 -132.999 37s-74 63 -98 115z" />
    <glyph glyph-name="uni0036" unicode="6" horiz-adv-x="602" 
d="M295 -11c-40.667 0 -76.165 7 -106.498 21s-55.833 32.333 -76.5 55s-36.167 48.5 -46.5 77.5s-15.5 58.5 -15.5 88.5c0 23.333 3.5 46.666 10.5 69.999s17.167 45.333 30.5 66l206 333h129l-156 -251c10 2 19.667 3.66699 29 5s18.666 2 27.999 2
c35.333 0 66.166 -7 92.499 -21s48.5 -32 66.5 -54s31.5 -46.167 40.5 -72.5s13.5 -52.166 13.5 -77.499c0 -30 -5.16699 -59.5 -15.5 -88.5s-25.666 -54.833 -45.999 -77.5s-45.833 -41 -76.5 -55s-66.334 -21 -107.001 -21zM295.002 361
c-18.667 0 -36.167 -3.16699 -52.5 -9.5s-30.5 -15.333 -42.5 -27s-21.333 -25.334 -28 -41.001s-10 -33.167 -10 -52.5c0 -16.667 2.83301 -33.167 8.5 -49.5s14 -31 25 -44s24.833 -23.5 41.5 -31.5s36 -12 58 -12s41.5 4 58.5 12s31 18.5 42 31.5s19.333 27.667 25 44
s8.5 32.833 8.5 49.5s-2.83301 32.834 -8.5 48.501s-14.167 29.5 -25.5 41.5s-25.333 21.667 -42 29s-36 11 -58 11z" />
    <glyph glyph-name="uni0037" unicode="7" horiz-adv-x="497" 
d="M335 595l-308 -595h127l319 623l-62 78h-387v-106h311z" />
    <glyph glyph-name="uni0038" unicode="8" horiz-adv-x="587" 
d="M282 -14c-28.667 0 -56.9971 4.66699 -84.9971 14s-52.833 23.166 -74.5 41.499s-39.167 41.166 -52.5 68.499s-20 58.666 -20 93.999c-0.666992 36 9.16602 68.833 29.499 98.5s45.5 53.5 75.5 71.5c-12.667 6 -24 14.5 -34 25.5s-18.333 22.833 -25 35.5
s-11.667 25.834 -15 39.501s-5 26.167 -5 37.5c0 31.333 5.83301 59.333 17.5 84s27.167 45.5 46.5 62.5s41.333 29.833 66 38.5s50 13 76 13s51.333 -4.33301 76 -13s46.5 -21.5 65.5 -38.5s34.333 -37.833 46 -62.5s17.5 -52.667 17.5 -84
c0 -25.333 -6.83301 -51 -20.5 -77s-32.834 -46 -57.501 -60c32.667 -16.667 58.5 -39.334 77.5 -68.001s28.167 -63 27.5 -103c0 -35.333 -6.66699 -66.666 -20 -93.999s-30.833 -50.166 -52.5 -68.499s-46.334 -32.166 -74.001 -41.499s-56.167 -14 -85.5 -14z
M282.003 324c-20 0 -37.333 -3.49902 -52 -10.499s-27 -16.333 -37 -28s-17.5 -24.667 -22.5 -39s-7.5 -28.833 -7.5 -43.5c0 -14 2.5 -28 7.5 -42s12.333 -26.5 22 -37.5s22 -19.833 37 -26.5s32.5 -10 52.5 -10s37.5 3.5 52.5 10.5s27.667 16 38 27s18 23.667 23 38
s7.5 28.5 7.5 42.5s-2.5 28.167 -7.5 42.5s-12.667 27.166 -23 38.499s-23 20.5 -38 27.5s-32.5 10.5 -52.5 10.5zM282.003 610.001c-15.333 0 -28.833 -3 -40.5 -9s-21.5 -13.5 -29.5 -22.5s-14 -19.167 -18 -30.5s-6 -22.666 -6 -33.999c0 -10.667 2 -21.5 6 -32.5
s10 -21 18 -30s17.833 -16.167 29.5 -21.5s25.167 -8 40.5 -8s28.833 2.66699 40.5 8s21.334 12.5 29.001 21.5s13.5 19 17.5 30s6 21.833 6 32.5c0 11.333 -2 22.666 -6 33.999s-9.83301 21.5 -17.5 30.5s-17.334 16.5 -29.001 22.5s-25.167 9 -40.5 9z" />
    <glyph glyph-name="uni0039" unicode="9" horiz-adv-x="605" 
d="M293 711c40.667 0 76.334 -7.00195 107.001 -21.002s56.167 -32.333 76.5 -55s35.666 -48.5 45.999 -77.5s15.5 -58.5 15.5 -88.5c0 -23.333 -3.5 -46.666 -10.5 -69.999s-17.167 -45.333 -30.5 -66l-206 -333h-129l156 251c-10 -2 -19.667 -3.66699 -29 -5
s-18.666 -2 -27.999 -2c-34.667 0 -65.334 7 -92.001 21s-49 32 -67 54s-31.5 46.333 -40.5 73s-13.5 52.334 -13.5 77.001c0 30 5.16699 59.5 15.5 88.5s25.833 54.833 46.5 77.5s46.167 41 76.5 55s65.833 21 106.5 21zM293 338.998c18.667 0 36.167 3.16797 52.5 9.50098
s30.5 15.333 42.5 27s21.333 25.5 28 41.5s10 33.333 10 52c0 16.667 -2.83301 33.167 -8.5 49.5s-14 31 -25 44s-24.833 23.5 -41.5 31.5s-36 12 -58 12s-41.5 -4 -58.5 -12s-31 -18.5 -42 -31.5s-19.333 -27.667 -25 -44s-8.5 -32.833 -8.5 -49.5
s2.83301 -32.834 8.5 -48.501s14.167 -29.5 25.5 -41.5s25.333 -21.667 42 -29s36 -11 58 -11z" />
    <glyph glyph-name="uni003A" unicode=":" horiz-adv-x="302" 
d="M204 -2v119h-122v-119h122zM204 378v119h-122v-119h122z" />
    <glyph glyph-name="uni003B" unicode=";" horiz-adv-x="303" 
d="M204 378v119h-122v-119h122zM14 -131h105l90 236h-124z" />
    <glyph glyph-name="uni003C" unicode="&#x3c;" horiz-adv-x="494" 
d="M428 540l-396 -218v-76l396 -214v120l-266 132l266 133v123z" />
    <glyph glyph-name="uni003D" unicode="=" horiz-adv-x="631" 
d="M87 320h440v102h-440v-102zM87 133h440v102h-440v-102z" />
    <glyph glyph-name="uni003E" unicode="&#x3e;" horiz-adv-x="496" 
d="M53 415l266 -131l-266 -132v-120l396 214v76l-396 216v-123z" />
    <glyph glyph-name="uni003F" unicode="?" horiz-adv-x="530" 
d="M265 0h-115v115h115v-115zM8 593c32 41.333 66.5039 70.999 103.504 88.999s74.167 27 111.5 27c29.333 0 57.833 -4.33301 85.5 -13s52.334 -21.834 74.001 -39.501s39 -40.167 52 -67.5s19.5 -59.666 19.5 -96.999c-0.666992 -52 -16.834 -96.167 -48.501 -132.5
s-78.167 -60.166 -139.5 -71.499l-7 -123h-99l-5 197c23.333 0 46.166 2.83301 68.499 8.5s42.166 13.834 59.499 24.501s31.166 24.167 41.499 40.5s15.5 35.5 15.5 57.5c-0.666992 20 -4.16699 37.167 -10.5 51.5s-14.833 26.166 -25.5 35.499
s-22.834 16.166 -36.501 20.499s-28.167 6.5 -43.5 6.5c-25.333 0 -51 -6.16699 -77 -18.5s-46.667 -30.166 -62 -53.499z" />
    <glyph glyph-name="uni0040" unicode="@" horiz-adv-x="813" 
d="M462 -19l37.0107 -74.999c-28.667 -11.333 -56.334 -19.5 -83.001 -24.5s-52.334 -7.5 -77.001 -7.5c-46 0 -87.667 8.16699 -125 24.5s-69 39.5 -95 69.5s-45.833 65.833 -59.5 107.5s-19.5 87.5 -17.5 137.5c2 48 12 95 30 141s43 86.667 75 122
s70.333 63.833 115 85.5s94.334 32.5 149.001 32.5c47.333 0 91 -6.33301 131 -19s74.833 -31.5 104.5 -56.5s53.167 -56.333 70.5 -94s26.666 -81.167 27.999 -130.5c1.33301 -40 -4.5 -77.5 -17.5 -112.5s-30.333 -65.333 -52 -91s-46.334 -46 -74.001 -61
s-55.5 -22.5 -83.5 -22.5c-13.333 0 -26.833 4.83301 -40.5 14.5s-22.167 27.5 -25.5 53.5c-14.667 -24.667 -31.334 -40.834 -50.001 -48.501s-36.667 -11.5 -54 -11.5c-20.667 0 -39.834 4.16699 -57.501 12.5s-33 19.666 -46 33.999s-23.333 31.5 -31 51.5
s-11.834 42 -12.501 66c-0.666992 34 4 66.667 14 98s24.833 58.833 44.5 82.5s43.167 42.667 70.5 57s58 21.5 92 21.5c16 0 32.833 -4.66699 50.5 -14s29.834 -22.333 36.501 -39l3.5 7l5.5 11c2 4 3.83301 7.83301 5.5 11.5s2.5 5.83398 2.5 6.50098l71 -9l-54 -279
c-3.33301 -11.333 -3.83301 -19.5 -1.5 -24.5s6.16602 -7.5 11.499 -7.5c7.33301 0 16.666 4.66699 27.999 14s22.166 22.5 32.499 39.5s19.166 37.5 26.499 61.5s10.666 50.333 9.99902 79c-1.33301 42.667 -9.33301 77.5 -24 104.5s-33.334 48.333 -56.001 64
s-47.834 26.334 -75.501 32.001s-55.5 8.5 -83.5 8.5c-41.333 0 -78.666 -8.66699 -111.999 -26s-61.666 -39.833 -84.999 -67.5s-41.333 -58.834 -54 -93.501s-19.667 -69.667 -21 -105c-2.66699 -80 14.166 -141.833 50.499 -185.5s87.833 -65.5 154.5 -65.5
c18 0 36.833 1.5 56.5 4.5s40.167 8.16699 61.5 15.5zM297.011 180.001c0.666992 -19.333 6.33398 -35.3301 17.001 -47.9971s23.334 -19 38.001 -19c17.333 0 33.333 5.66699 48 17s27.5 25.666 38.5 42.999s19.5 36 25.5 56s8.66699 38.667 8 56
c-0.666992 19.333 -5.83398 35.166 -15.501 47.499s-21.834 18.5 -36.501 18.5c-22 0 -40.833 -5.33301 -56.5 -16s-28.5 -24.334 -38.5 -41.001s-17.333 -35 -22 -55s-6.66699 -39.667 -6 -59z" />
    <glyph glyph-name="uni0041" unicode="A" horiz-adv-x="636" 
d="M-1 0h121l75 213h233l78 -213h120l-254 705h-122zM229 313l62 200l16 72h5l16 -72l65 -200h-164z" />
    <glyph glyph-name="uni0042" unicode="B" horiz-adv-x="609" 
d="M518 511c0 -24 -6.32812 -48.833 -18.9951 -74.5s-34.334 -45.5 -65.001 -59.5c20 -7.33301 37.167 -17.333 51.5 -30s26.166 -26.667 35.499 -42s16.166 -31.5 20.499 -48.5s6.5 -33.167 6.5 -48.5c0 -36 -6.66699 -67.167 -20 -93.5s-31.333 -48 -54 -65
s-48.334 -29.5 -77.001 -37.5s-58.667 -12 -90 -12h-221v704h223c29.333 0 56.666 -4.5 81.999 -13.5s47.333 -21.667 66 -38s33.5 -36.5 44.5 -60.5s16.5 -51 16.5 -81zM309.005 323l-109.002 -0.000976562v-223h109c22 0 41.167 3.33301 57.5 10
s29.833 15.334 40.5 26.001s18.5 22.667 23.5 36s7.5 26.333 7.5 39c0 13.333 -2.66699 26.5 -8 39.5s-13.166 25 -23.499 36s-23.666 19.833 -39.999 26.5s-35.5 10 -57.5 10zM200.003 417.999h109c17.333 0 32.333 2.83301 45 8.5s23 13 31 22s14 19.167 18 30.5
s6 22.333 6 33s-2 21.667 -6 33s-10 21.5 -18 30.5s-18.333 16.5 -31 22.5s-27.667 9 -45 9h-109v-189z" />
    <glyph glyph-name="uni0043" unicode="C" horiz-adv-x="729" 
d="M663 598l-71.9951 -66.999c-52 54.667 -116 82 -192 82c-40 -0.666992 -75.167 -8.83398 -105.5 -24.501s-55.5 -36 -75.5 -61s-35.167 -53.167 -45.5 -84.5s-15.5 -63 -15.5 -95s5.16699 -63.333 15.5 -94s25.666 -58.334 45.999 -83.001s45.666 -44.5 75.999 -59.5
s65.166 -22.5 104.499 -22.5c36 0 72.667 8.33301 110 25s69.666 41.334 96.999 74.001l80 -62c-38 -46 -80.833 -81 -128.5 -105s-100.5 -36 -158.5 -36s-109.333 10.333 -154 31s-82 48 -112 82s-52.667 72.833 -68 116.5s-23 88.167 -23 133.5s7.66699 90 23 134
s38 83.333 68 118s67.333 62.667 112 84s96 32 154 32c52 0 100.167 -9 144.5 -27s84.166 -48.333 119.499 -91z" />
    <glyph glyph-name="uni0044" unicode="D" horiz-adv-x="725" 
d="M327 705c58 0 108.334 -9.66895 151.001 -29.002s78 -45 106 -77s48.833 -68.667 62.5 -110s20.5 -83.666 20.5 -126.999c0 -44.667 -6.33301 -88.667 -19 -132s-32.667 -82.166 -60 -116.499s-62.333 -61.833 -105 -82.5s-94.334 -31 -155.001 -31h-240v705h239z
M327.001 103.998c38 0 71.3301 6.16895 99.9971 18.502s52.334 29.666 71.001 51.999s32.667 48.833 42 79.5s14 64 14 100c0 31.333 -4.33301 61.666 -13 90.999s-22.167 55.5 -40.5 78.5s-41.666 41.5 -69.999 55.5s-62.166 21 -101.499 21h-127v-496h125z" />
    <glyph glyph-name="uni0045" unicode="E" horiz-adv-x="537" 
d="M462 701h-393v-701h393v98h-278v204h274v99h-274v201h278v99z" />
    <glyph glyph-name="uni0046" unicode="F" horiz-adv-x="541" 
d="M478 701h-393v-701h115v294h274v103h-274v200h278v104z" />
    <glyph glyph-name="uni0047" unicode="G" horiz-adv-x="836" 
d="M416 715c55.333 0 107.663 -12.168 156.996 -36.501s92 -57.833 128 -100.5l-82 -67c-27.333 32 -59 56.667 -95 74s-72 26 -108 26c-39.333 0 -74.166 -7.83301 -104.499 -23.5s-55.666 -36 -75.999 -61s-35.833 -53 -46.5 -84s-16 -62.167 -16 -93.5
s5.33301 -62.333 16 -93s26.167 -58.167 46.5 -82.5s45.666 -44 75.999 -59s65.166 -22.5 104.499 -22.5c25.333 0 50.333 3.33301 75 10s47.334 17 68.001 31s38.334 32 53.001 54s24.334 48.333 29.001 79h-280v104h401c2 -59.333 -5 -112.833 -21 -160.5
s-39.167 -88 -69.5 -121s-67.166 -58.333 -110.499 -76s-91.666 -26.5 -144.999 -26.5c-58 0 -109.333 10.333 -154 31s-82 48 -112 82s-52.833 72.833 -68.5 116.5s-23.5 88.167 -23.5 133.5s7.66699 89.833 23 133.5s38.166 82.834 68.499 117.501s67.833 62.5 112.5 83.5
s96 31.5 154 31.5z" />
    <glyph glyph-name="uni0048" unicode="H" horiz-adv-x="688" 
d="M471 0h115v703h-115v-302h-269v302h-115v-703h115v297h269v-297z" />
    <glyph glyph-name="uni0049" unicode="I" horiz-adv-x="284" 
d="M82 0h114v703h-114v-703z" />
    <glyph glyph-name="uni004A" unicode="J" horiz-adv-x="545" 
d="M14 183l102 21.999c8 -39.333 23 -68.166 45 -86.499s50 -27.5 84 -27.5c12.667 0 25.167 2.5 37.5 7.5s23.5 12.167 33.5 21.5s18 21.166 24 35.499s9 30.5 9 48.5v393h-129v103h241v-496c0 -36 -6.16699 -67.5 -18.5 -94.5s-28.5 -49.5 -48.5 -67.5
s-42.833 -31.5 -68.5 -40.5s-52.167 -13.5 -79.5 -13.5c-59.333 0 -109.333 15.333 -150 46s-68 80.334 -82 149.001z" />
    <glyph glyph-name="uni004B" unicode="K" horiz-adv-x="630" 
d="M87 705v-705h115v257l62 62l225 -319h132l-282 394l275 311h-136l-276 -307v307h-115z" />
    <glyph glyph-name="uni004C" unicode="L" horiz-adv-x="478" 
d="M457 105h-257v595h-115v-700h372v105z" />
    <glyph glyph-name="uni004D" unicode="M" horiz-adv-x="851" 
d="M416 245l-197 459h-130v-704h115v353l-16 166l5 1l52 -150l121 -263h100l121 263l52 150l5 -1l-16 -166v-353h115v704h-130z" />
    <glyph glyph-name="uni004E" unicode="N" horiz-adv-x="733" 
d="M220 704h-133v-704h115v430l-16 130l3 1l49 -105l259 -456h131v704h-115v-430l15 -130l-3 -1l-48 105z" />
    <glyph glyph-name="uni004F" unicode="O" horiz-adv-x="820" 
d="M400 715c49.333 0 95.666 -9.33203 138.999 -27.999s81.333 -44.334 114 -77.001s58.334 -71.334 77.001 -116.001s28 -93 28 -145c0 -52.667 -9.33301 -101.167 -28 -145.5s-44.334 -82.666 -77.001 -114.999s-70.667 -57.666 -114 -75.999
s-89.666 -27.5 -138.999 -27.5s-95.666 9 -138.999 27s-81.333 43 -114 75s-58.334 70.333 -77.001 115s-28 93.667 -28 147s9.33301 102.333 28 147s44.334 83.167 77.001 115.5s70.667 57.666 114 75.999s89.666 27.5 138.999 27.5zM158 349.001
c0 -42 6.83301 -79.1689 20.5 -111.502s31.834 -59.5 54.501 -81.5s48.5 -38.667 77.5 -50s58.833 -17 89.5 -17c30 0 59.667 5.66699 89 17s55.333 28 78 50s41 49.167 55 81.5s21 69.5 21 111.5s-7 79.167 -21 111.5s-32.5 59.833 -55.5 82.5s-49 39.667 -78 51
s-58.833 17 -89.5 17c-30 0 -59.5 -6 -88.5 -18s-54.833 -29.167 -77.5 -51.5s-40.834 -49.666 -54.501 -81.999s-20.5 -69.166 -20.5 -110.499z" />
    <glyph glyph-name="uni0050" unicode="P" horiz-adv-x="595" 
d="M200 243v-243.998h-114v704h218c40.667 0 76.167 -6.66699 106.5 -20s55.5 -31 75.5 -53s35 -46.833 45 -74.5s15 -55.834 15 -84.501s-5 -56.834 -15 -84.501s-25 -52 -45 -73s-45.167 -38 -75.5 -51s-65.5 -19.5 -105.5 -19.5h-105zM304 347.002
c21.333 0 40 3.66699 56 11s29.333 17 40 29s18.667 25.333 24 40s8 29.334 8 44.001s-2.66699 29.667 -8 45s-13.5 29.166 -24.5 41.499s-24.333 22.333 -40 30s-34.167 11.5 -55.5 11.5h-104v-252h104z" />
    <glyph glyph-name="uni0051" unicode="Q" horiz-adv-x="832" 
d="M689 132l64 -63.999l-77 -75l-64 64c-30 -23.333 -62.667 -41 -98 -53s-73 -18 -113 -18c-49.333 0 -95.666 9 -138.999 27s-81.333 43 -114 75s-58.334 70.167 -77.001 114.5s-28 92.833 -28 145.5c0 53.333 9.33301 102.166 28 146.499s44.334 82.666 77.001 114.999
s70.667 57.5 114 75.5s89.666 27 138.999 27s95.833 -9 139.5 -27s81.667 -43.167 114 -75.5s58 -70.666 77 -114.999s28.5 -93.166 28.5 -146.499c0 -40 -5.83301 -78.833 -17.5 -116.5s-29.5 -70.834 -53.5 -99.501zM432 238.001l77.9971 76.002l100 -102
c12.667 18.667 22 39.5 28 62.5s9 47.5 9 73.5c0 42 -7.16699 79.167 -21.5 111.5s-33.166 59.666 -56.499 81.999s-49.833 39.166 -79.5 50.499s-59.834 17 -90.501 17c-30 0 -59.5 -5.83301 -88.5 -17.5s-54.667 -28.5 -77 -50.5s-40.333 -49.167 -54 -81.5
s-20.5 -69.5 -20.5 -111.5s6.83301 -79 20.5 -111s31.834 -59 54.501 -81s48.5 -38.667 77.5 -50s58.833 -17 89.5 -17c24.667 0 48.334 4 71.001 12s44.334 18.667 65.001 32z" />
    <glyph glyph-name="uni0052" unicode="R" horiz-adv-x="630" 
d="M382 275l210.996 -275h-136l-206 271h-49v-271h-115v701h230c34.667 0 66.834 -4 96.501 -12s55.334 -20.833 77.001 -38.5s38.834 -40.167 51.501 -67.5s19.334 -60.333 20.001 -99c0 -32 -4.5 -60.167 -13.5 -84.5s-21.667 -45 -38 -62s-35.5 -30.667 -57.5 -41
s-45.667 -17.5 -71 -21.5zM201.996 372h116c40 0 71.5 9.66699 94.5 29s34.5 47 34.5 83c0 37.333 -12 65.5 -36 84.5s-55 28.5 -93 28.5h-116v-225z" />
    <glyph glyph-name="uni0053" unicode="S" horiz-adv-x="569" 
d="M170 517c-0.666992 -16.667 2.83105 -30.832 10.498 -42.499s17.5 -21.667 29.5 -30s25.167 -15.166 39.5 -20.499s27.833 -9.66602 40.5 -12.999c27.333 -6.66699 54.333 -15 81 -25s50.5 -23.5 71.5 -40.5s37.667 -38.667 50 -65s17.833 -59.166 16.5 -98.499
c-2 -33.333 -10.333 -62.333 -25 -87s-33.334 -45.334 -56.001 -62.001s-48 -29 -76 -37s-55.667 -12 -83 -12c-23.333 0 -46.666 3.33301 -69.999 10s-45.166 16.667 -65.499 30s-39 30.166 -56 50.499s-30.5 44.166 -40.5 71.499l95 47
c14 -30.667 32.333 -55.834 55 -75.501s51.667 -29.5 87 -29.5c34 0 62.167 9.33301 84.5 28s34.166 42.667 35.499 72c1.33301 21.333 -2.16699 39 -10.5 53s-19.166 25.5 -32.499 34.5s-28.166 16.167 -44.499 21.5s-31.833 10 -46.5 14c-22 6 -45.167 13.667 -69.5 23
s-46.5 21.833 -66.5 37.5s-36.333 35.5 -49 59.5s-18.334 53.667 -17.001 89c0.666992 34 7.66699 63.5 21 88.5s30.333 45.5 51 61.5s44 27.833 70 35.5s52.333 11.5 79 11.5c46 0 88.833 -13 128.5 -39s68.834 -65 87.501 -117l-90 -41c-11.333 27.333 -28 50 -50 68
s-48.333 27 -79 27c-26 0 -49.667 -8 -71 -24s-33 -40.667 -35 -74z" />
    <glyph glyph-name="uni0054" unicode="T" horiz-adv-x="467" 
d="M3 702v-105h166v-597h115v597h165v105h-446z" />
    <glyph glyph-name="uni0055" unicode="U" horiz-adv-x="655" 
d="M77 700h115.003v-490c0 -20.667 3.66699 -38.667 11 -54s16.833 -27.666 28.5 -36.999s25.167 -16.333 40.5 -21s31 -7 47 -7s31.667 2.33301 47 7s29.166 11.667 41.499 21s22.166 21.666 29.499 36.999s11 33.333 11 54v490h115v-490
c0 -39.333 -7 -73.166 -21 -101.499s-32.5 -51.5 -55.5 -69.5s-49.167 -31.167 -78.5 -39.5s-59 -12.5 -89 -12.5c-30.667 0 -60.5 4.16699 -89.5 12.5s-54.833 21.5 -77.5 39.5s-40.834 41.167 -54.501 69.5s-20.5 62.166 -20.5 101.499v490z" />
    <glyph glyph-name="uni0056" unicode="V" horiz-adv-x="627" 
d="M332 205l-21 -109h-5l-26 109l-164 499h-123l247 -705h137l243 705h-122z" />
    <glyph glyph-name="uni0057" unicode="W" horiz-adv-x="954" 
d="M469 488h4l25 -137l95 -354h138l185 705h-119l-119 -486l-16 -120h-4l-19 120l-105 402h-126l-105 -402l-19 -120h-4l-16 120l-119 486h-119l185 -705h138l95 354z" />
    <glyph glyph-name="uni0058" unicode="X" horiz-adv-x="643" 
d="M626 700h-135l-172 -265l-172 265h-135l231 -350l-233 -349h137l172 269l172 -269h136l-232 349z" />
    <glyph glyph-name="uni0059" unicode="Y" horiz-adv-x="589" 
d="M584 705h-133l-164 -306l-166 306h-131l240 -423v-282h113v281z" />
    <glyph glyph-name="uni005A" unicode="Z" horiz-adv-x="568" 
d="M514 705h-458v-103h338l-96 -132l-249 -369v-101h466v105h-342l341 505v95z" />
    <glyph glyph-name="uni005B" unicode="[" horiz-adv-x="311" 
d="M279 786v-85.002h-80v-172c0 -59.333 -0.166992 -119.166 -0.5 -179.499s-0.5 -120.166 -0.5 -179.499v-172h80v-95h-191l1 883h191z" />
    <glyph glyph-name="uni005C" unicode="\" horiz-adv-x="423" 
d="M281 -61h112l-280 821h-112z" />
    <glyph glyph-name="uni005D" unicode="]" horiz-adv-x="312" 
d="M19 701v85.002h191l1 -883h-191v95h80v172c0 59.333 -0.166992 119.166 -0.5 179.499s-0.5 120.166 -0.5 179.499v172h-80z" />
    <glyph glyph-name="uni005E" unicode="^" horiz-adv-x="568" 
d="M47 317l202 377h68l201 -377h-115l-120 238l-61 -119.5l-61 -118.5h-114z" />
    <glyph glyph-name="uni005F" unicode="_" horiz-adv-x="563" 
d="M23 2v-93h512v93h-512z" />
    <glyph glyph-name="uni0060" unicode="`" horiz-adv-x="509" 
d="M254 711h94l-75 133h-118z" />
    <glyph glyph-name="uni0061" unicode="a" horiz-adv-x="555" 
d="M480 0l-84.001 -0.00292969l-18 61c-18.667 -28 -40 -46.333 -64 -55s-50.667 -13 -80 -13c-34 0 -63.333 5.16699 -88 15.5s-45 23.666 -61 39.999s-28 35 -36 56s-12 42.5 -12 64.5c0 22.667 4.5 44.334 13.5 65.001s22.5 38.834 40.5 54.501s40.667 28.167 68 37.5
s59.333 14 96 14c8.66699 0 18.667 -0.333008 30 -1s22.666 -2.16699 33.999 -4.5s22 -5.5 32 -9.5s18.333 -9 25 -15v20c0 19.333 -3.33301 35.5 -10 48.5s-15.5 23.5 -26.5 31.5s-24 13.667 -39 17s-31.167 5 -48.5 5c-27.333 -0.666992 -52.166 -4.66699 -74.499 -12
s-44.166 -17.666 -65.499 -30.999l-44 69c26.667 22.667 57.167 39.834 91.5 51.501s68.833 17.5 103.5 17.5c28 0 55.167 -4 81.5 -12s49.5 -20 69.5 -36s36 -36.333 48 -61s18 -54 18 -88v-330zM259.999 85.9971c19.333 0 40.333 4.5 63 13.5s40.667 20.833 54 35.5v86
c-14.667 12.667 -32 21.5 -52 26.5s-39.667 7.5 -59 7.5c-16.667 0 -32.5 -1.66699 -47.5 -5s-28.167 -8.5 -39.5 -15.5s-20.5 -15.833 -27.5 -26.5s-10.5 -23.667 -10.5 -39c0 -28.667 9.33301 -49.667 28 -63s49 -20 91 -20z" />
    <glyph glyph-name="uni0062" unicode="b" horiz-adv-x="583" 
d="M522 257c0 -40 -5.66602 -76.333 -16.999 -109s-27.333 -60.667 -48 -84s-45.334 -41.333 -74.001 -54s-60 -18.667 -94 -18c-23.333 0.666992 -45.833 4.66699 -67.5 12s-42.5 24 -62.5 50l-12 -54h-79v700h107v-229c17.333 14.667 36.333 25.167 57 31.5
s42.334 9.5 65.001 9.5c30.667 -0.666992 59.667 -7 87 -19s51.166 -29 71.499 -51s36.5 -48.5 48.5 -79.5s18 -66.167 18 -105.5zM281.001 88c22 0 41.5 4.50195 58.5 13.502s31.167 21 42.5 36s19.833 32 25.5 51s8.5 38.5 8.5 58.5c0 23.333 -2.83301 45.166 -8.5 65.499
s-14.334 38.166 -26.001 53.499s-26.5 27.5 -44.5 36.5s-39.333 13.833 -64 14.5c-16 0 -32.667 -2.33301 -50 -7s-33.666 -12 -48.999 -22v-241c13.333 -24 29 -39.833 47 -47.5s38 -11.5 60 -11.5z" />
    <glyph glyph-name="uni0063" unicode="c" horiz-adv-x="522" 
d="M482 435l-61.0039 -68.001c-20 19.333 -41.167 32.5 -63.5 39.5s-44.166 10.5 -65.499 10.5c-19.333 0 -38.166 -3.33301 -56.499 -10s-34.666 -17 -48.999 -31s-26 -31.5 -35 -52.5s-13.5 -45.167 -13.5 -72.5c0 -22 3.33301 -42.833 10 -62.5s16.5 -37 29.5 -52
s29.167 -26.833 48.5 -35.5s41.666 -13 66.999 -13c24.667 0 46.834 3.66699 66.501 11s41.167 21.666 64.5 42.999l62 -67c-27.333 -27.333 -57.333 -48.5 -90 -63.5s-67 -22.5 -103 -22.5c-43.333 0 -81.333 7.33301 -114 22s-60 34.167 -82 58.5s-38.667 52.333 -50 84
s-17 64.834 -17 99.501s5.83301 67.834 17.5 99.501s28.667 59.667 51 84s49.833 43.833 82.5 58.5s70 22 112 22c36 0 69.333 -6.66699 100 -20s60.334 -34 89.001 -62z" />
    <glyph glyph-name="uni0064" unicode="d" horiz-adv-x="569" 
d="M39 251c0 34.667 5.50098 67.834 16.501 99.501s26.833 59.5 47.5 83.5s45.667 43 75 57s62.333 21 99 21c18 0 36.333 -2.33301 55 -7s36.667 -14.334 54 -29.001v224h107v-700h-79l-12 54c-20 -26 -40.833 -42.667 -62.5 -50s-44.167 -11.333 -67.5 -12
c-34 -0.666992 -65.333 6 -94 20s-53.334 33 -74.001 57s-36.667 51.833 -48 83.5s-17 64.5 -17 98.5zM280.001 88c22 0 41.999 3.83105 59.999 11.498s33.667 23.5 47 47.5v241c-28.667 19.333 -60 29 -94 29c-19.333 0 -37.833 -3.5 -55.5 -10.5
s-33.334 -17.167 -47.001 -30.5s-24.667 -30.166 -33 -50.499s-12.5 -44.166 -12.5 -71.499c0 -22.667 2.83301 -44.167 8.5 -64.5s14.334 -38 26.001 -53s25.834 -26.833 42.501 -35.5s36 -13 58 -13z" />
    <glyph glyph-name="uni0065" unicode="e" horiz-adv-x="599" 
d="M294 89c11.333 0 23.168 0.662109 35.501 1.99512s24.666 4.33301 36.999 9s24.5 11.334 36.5 20.001s23.333 20.334 34 35.001l77 -49c-30 -40 -63.667 -69 -101 -87s-77 -27 -119 -27c-43.333 0 -81.166 7.5 -113.499 22.5s-59.333 34.833 -81 59.5
s-37.834 52.834 -48.501 84.501s-16 63.834 -16 96.501s5.5 64.834 16.5 96.501s27.5 59.834 49.5 84.501s49 44.667 81 60s69 23 111 23c42.667 0 80.667 -8.5 114 -25.5s61 -39.833 83 -68.5s37.167 -61.834 45.5 -99.501s8.83301 -76.5 1.5 -116.5h-393
c3.33301 -16 9 -31.167 17 -45.5s18.333 -27 31 -38s27.5 -19.833 44.5 -26.5s36.167 -10 57.5 -10zM146.002 291.995l290 -0.00195312c-0.666992 22 -5.33398 41.333 -14.001 58s-19.667 30.334 -33 41.001s-28.5 18.667 -45.5 24s-34.5 8 -52.5 8
c-18.667 0 -36.667 -2.83301 -54 -8.5s-32.666 -14 -45.999 -25s-24 -24.667 -32 -41s-12.333 -35.166 -13 -56.499z" />
    <glyph glyph-name="uni0066" unicode="f" horiz-adv-x="302" 
d="M291 700v-92c-6.66699 1.33301 -13.167 2.33301 -19.5 3s-12.833 1 -19.5 1c-23.333 -1.33301 -40.333 -8.33301 -51 -21s-16 -28 -16 -46v-38h104v-90h-104v-417h-109v417h-72v90h72v38c0 50.667 14.833 90 44.5 118s70.5 41.667 122.5 41c7.33301 0 15 -0.333008 23 -1
s16.333 -1.66699 25 -3z" />
    <glyph glyph-name="uni0067" unicode="g" horiz-adv-x="568" 
d="M39 251c0 34 5.49805 66.6699 16.498 98.0029s26.5 59.166 46.5 83.499s44.5 43.666 73.5 57.999s61.5 21.5 97.5 21.5c19.333 0 39.833 -3.83301 61.5 -11.5s40.167 -21.834 55.5 -42.501l19 49h84v-503c0 -34.667 -6.33301 -65 -19 -91s-29.5 -47.5 -50.5 -64.5
s-45.167 -29.667 -72.5 -38s-55.666 -12.5 -84.999 -12.5c-38.667 0 -76.667 7.33301 -114 22s-69.666 37 -96.999 67l56 69c42.667 -44.667 94.334 -67 155.001 -67c16 0 31.333 2 46 6s27.667 10.5 39 19.5s20.333 20.833 27 35.5s10 33 10 55v32
c-18 -18.667 -36.833 -30.667 -56.5 -36s-39.5 -8.33301 -59.5 -9c-34 -0.666992 -65.333 6 -94 20s-53.334 33 -74.001 57s-36.667 51.833 -48 83.5s-17 64.5 -17 98.5zM279.998 86.0029c22 0 40.832 2.83008 56.499 8.49707s32.5 18.5 50.5 38.5v238
c-13.333 16 -28.333 27.667 -45 35s-33 11 -49 11c-19.333 0 -37.833 -3.5 -55.5 -10.5s-33.334 -17.167 -47.001 -30.5s-24.667 -30.166 -33 -50.499s-12.5 -44.166 -12.5 -71.499c0 -22.667 2.83301 -44.167 8.5 -64.5s14.334 -38.166 26.001 -53.499
s25.834 -27.5 42.501 -36.5s36 -13.5 58 -13.5z" />
    <glyph glyph-name="uni0068" unicode="h" horiz-adv-x="604" 
d="M72 700l109.999 0.00292969v-229c19.333 16.667 40.166 28.167 62.499 34.5s42.166 9.5 59.499 9.5c32 0 61.833 -4.83301 89.5 -14.5s51.5 -23.834 71.5 -42.501s35.667 -41.5 47 -68.5s17 -58.167 17 -93.5v-296h-109v296c0 19.333 -3.5 36.666 -10.5 51.999
s-16.667 28.166 -29 38.499s-26.666 18.333 -42.999 24s-33.833 8.5 -52.5 8.5c-17.333 0 -35.166 -3.33301 -53.499 -10s-35.166 -14.667 -50.499 -24v-385h-109v700z" />
    <glyph glyph-name="uni0069" unicode="i" horiz-adv-x="250" 
d="M69 509v-509h109v509h-109zM179 578v122h-111v-122h111z" />
    <glyph glyph-name="uni006A" unicode="j" horiz-adv-x="247" 
d="M-8 -191l-0.000976562 92c2 0 4.16699 -0.166992 6.5 -0.5s4.5 -0.5 6.5 -0.5c25.333 0 41.833 6.33301 49.5 19s11.5 28.667 11.5 48v540h109v-540c0 -106.667 -50 -160 -150 -160c-5.33301 0 -10.666 0.166992 -15.999 0.5s-11 0.833008 -17 1.5zM175.999 578h-111v122
h111v-122z" />
    <glyph glyph-name="uni006B" unicode="k" horiz-adv-x="531" 
d="M68 700v-700h106v187l37 35l174 -222h126l-228 283l221 225h-133l-197 -198v390h-106z" />
    <glyph glyph-name="uni006C" unicode="l" horiz-adv-x="272" 
d="M242 97v-98c-6 -0.666992 -11.833 -1.16699 -17.5 -1.5s-11.167 -0.5 -16.5 -0.5c-49.333 0 -86.666 13.333 -111.999 40s-38 66.334 -38 119.001v544h109v-544c0 -14.667 1.66699 -25.834 5 -33.501s8.33301 -13.5 15 -17.5s14.667 -6.33301 24 -7s19.666 -1 30.999 -1z
" />
    <glyph glyph-name="uni006D" unicode="m" horiz-adv-x="905" 
d="M303 513c29.333 0 57.6738 -6.66504 85.0068 -19.998s47.666 -34.666 60.999 -63.999c18.667 32 42.667 54.167 72 66.5s59 18.5 89 18.5c29.333 0 57.166 -3.83301 83.499 -11.5s49.166 -20.167 68.499 -37.5s34.666 -39.833 45.999 -67.5s17 -61.834 17 -102.501v-295
h-107v297c0 22 -3 40.833 -9 56.5s-14 28.5 -24 38.5s-21.5 17.167 -34.5 21.5s-26.5 6.5 -40.5 6.5c-28.667 0 -53.834 -9.33301 -75.501 -28s-32.834 -49.334 -33.501 -92.001v-300h-104v300c1.33301 21.333 -1 40 -7 56s-14 29.333 -24 40s-21.833 18.5 -35.5 23.5
s-28.167 7.5 -43.5 7.5c-19.333 0 -38.333 -4 -57 -12s-35.334 -20 -50.001 -36v-379h-109v507h90l14 -54c8 12.667 17.5 23 28.5 31s22.5 14.167 34.5 18.5s23.667 7.16602 35 8.49902s21.333 2 30 2z" />
    <glyph glyph-name="uni006E" unicode="n" horiz-adv-x="607" 
d="M70 507l90.001 0.000976562l14 -62c8 12.667 17.5 23.5 28.5 32.5s22.5 16.167 34.5 21.5s23.667 9.33301 35 12s21.333 4 30 4c71.333 0 127.5 -19 168.5 -57s61.5 -92.333 61.5 -163v-295h-109v295c0 20 -3.5 37.667 -10.5 53s-16.5 28.166 -28.5 38.499
s-25.667 18.333 -41 24s-31.333 8.5 -48 8.5c-20.667 0 -41.334 -4.33301 -62.001 -13s-38.667 -22.667 -54 -42v-364h-109v507z" />
    <glyph glyph-name="uni006F" unicode="o" 
d="M560 253c0 -36.667 -6.5 -71 -19.5 -103s-31.333 -60 -55 -84s-51.667 -42.833 -84 -56.5s-67.5 -20.5 -105.5 -20.5s-73.167 6.83301 -105.5 20.5s-60.333 32.5 -84 56.5s-42.167 52 -55.5 84s-20 66.333 -20 103c0 37.333 6.66699 72 20 104s31.833 59.667 55.5 83
s51.667 41.833 84 55.5s67.5 20.5 105.5 20.5s73.167 -6.83301 105.5 -20.5s60.333 -32.167 84 -55.5s42 -51 55 -83s19.5 -66.667 19.5 -104zM140 253c0 -28 4.66699 -52.333 14 -73s21.333 -38 36 -52s31.334 -24.333 50.001 -31s37.334 -10 56.001 -10
c19.333 0 38.333 3.33301 57 10s35.167 17 49.5 31s26 31.333 35 52s13.5 45 13.5 73s-4.5 52.333 -13.5 73s-20.667 37.667 -35 51s-30.833 23.333 -49.5 30s-37.667 10 -57 10c-18.667 0 -37.334 -3.33301 -56.001 -10s-35.334 -16.667 -50.001 -30
s-26.667 -30.333 -36 -51s-14 -45 -14 -73z" />
    <glyph glyph-name="uni0070" unicode="p" horiz-adv-x="582" 
d="M527 251c0 -34 -6 -66.8359 -18 -98.5029s-28.5 -59.5 -49.5 -83.5s-46.167 -43 -75.5 -57s-61 -20.667 -95 -20c-20.667 0.666992 -41 3.83398 -61 9.50098s-38.667 18.834 -56 39.501v-234h-104v700h89l16 -49c16 18.667 34.5 32.167 55.5 40.5s44.167 12.5 69.5 12.5
c28.667 0 56.667 -5.5 84 -16.5s51.833 -27.333 73.5 -49s39 -48.667 52 -81s19.5 -70.166 19.5 -113.499zM281 87.9971c22 0 41.665 4.33301 58.998 13s32 20.5 44 35.5s21.167 32.667 27.5 53s9.5 41.833 9.5 64.5c0 30 -4.33301 55.333 -13 76s-20.167 37.5 -34.5 50.5
s-30.666 22.333 -48.999 28s-37.166 8.5 -56.499 8.5c-16 0 -32.5 -3.16699 -49.5 -9.5s-31.833 -17.5 -44.5 -33.5v-231c12 -22.667 27.833 -37.5 47.5 -44.5s39.5 -10.5 59.5 -10.5z" />
    <glyph glyph-name="uni0071" unicode="q" horiz-adv-x="576" 
d="M41 251c0 43.333 6.5 81.1689 19.5 113.502s30.333 59.333 52 81s46.167 38 73.5 49s55.333 16.5 84 16.5c25.333 0 48.5 -4.16699 69.5 -12.5s39.5 -21.833 55.5 -40.5l16 49h89v-700h-104v234c-17.333 -20.667 -36 -33.834 -56 -39.501s-40.333 -8.83398 -61 -9.50098
c-34 -0.666992 -65.667 6 -95 20s-54.5 33 -75.5 57s-37.5 51.833 -49.5 83.5s-18 64.5 -18 98.5zM287 88.0029c20 0 39.8311 3.5 59.498 10.5s35.5 21.833 47.5 44.5v231c-12.667 16 -27.5 27.167 -44.5 33.5s-33.5 9.5 -49.5 9.5c-19.333 0 -38.166 -2.83301 -56.499 -8.5
s-34.666 -15 -48.999 -28s-25.833 -29.833 -34.5 -50.5s-13 -46 -13 -76c0 -22.667 3.16699 -44.167 9.5 -64.5s15.5 -38 27.5 -53s26.667 -26.833 44 -35.5s37 -13 59 -13z" />
    <glyph glyph-name="uni0072" unicode="r" horiz-adv-x="415" 
d="M66 509l90 -0.00390625l11 -56c8 14.667 17.167 26.334 27.5 35.001s21 15.334 32 20.001s21.667 7.83398 32 9.50098s19.833 2.5 28.5 2.5c17.333 0 36.5 -2.66699 57.5 -8s40.5 -13.666 58.5 -24.999l-46 -88c-12 7.33301 -24.5 12.833 -37.5 16.5
s-25.833 5.5 -38.5 5.5c-28.667 0 -53.667 -8.83301 -75 -26.5s-32 -43.5 -32 -77.5v-317h-108v509z" />
    <glyph glyph-name="uni0073" unicode="s" horiz-adv-x="439" 
d="M227 305c21.333 -4 42.1699 -9.99609 62.5029 -17.9961s38.333 -18.333 54 -31s28.167 -28.167 37.5 -46.5s14 -39.833 14 -64.5c0 -28.667 -6 -53 -18 -73s-27.167 -36.167 -45.5 -48.5s-38.666 -21.166 -60.999 -26.499s-43.833 -8 -64.5 -8
c-34.667 0 -67.334 7.5 -98.001 22.5s-57.667 38.833 -81 71.5l68 66c14 -18 30.5 -32.5 49.5 -43.5s38.5 -17.167 58.5 -18.5c8.66699 0 18.167 0.666992 28.5 2s19.666 4 27.999 8s15.333 9.66699 21 17s8.5 16.666 8.5 27.999c0 12 -2.83301 22.167 -8.5 30.5
s-12.834 15.166 -21.501 20.499s-18 9.5 -28 12.5s-19.333 5.16699 -28 6.5c-20.667 3.33301 -40.834 8.66602 -60.501 15.999s-37 17 -52 29s-27 26.667 -36 44s-13.5 38 -13.5 62c0 25.333 5.16699 47.5 15.5 66.5s24 35.167 41 48.5s36.667 23.333 59 30
s45.166 10 68.499 10c26 0 52.667 -4.83301 80 -14.5s53.333 -27.167 78 -52.5l-60 -67c-16 12.667 -31.667 22.167 -47 28.5s-31.666 9.5 -48.999 9.5c-8 0 -16.833 -1 -26.5 -3s-18.5 -5.33301 -26.5 -10s-14.5 -10.834 -19.5 -18.501s-7.5 -17.167 -7.5 -28.5
c0 -10.667 2.66699 -19.334 8 -26.001s12 -12 20 -16s16.667 -7 26 -9s18 -4 26 -6z" />
    <glyph glyph-name="uni0074" unicode="t" horiz-adv-x="327" 
d="M288 94v-95.001c-6 -0.666992 -11.833 -1.16699 -17.5 -1.5s-11.167 -0.5 -16.5 -0.5c-50 0 -90.5 13 -121.5 39s-46.5 66.333 -46.5 121v258h-76v92h76v129l105 12v-141h95v-92h-95v-255c0 -17.333 5.33301 -33.166 16 -47.499s28.667 -21.5 54 -21.5c8 0 17 1 27 3z
" />
    <glyph glyph-name="uni0075" unicode="u" horiz-adv-x="602" 
d="M527 0h-90.0029l-14 56c-8 -12.667 -17.5 -23.167 -28.5 -31.5s-22.5 -14.833 -34.5 -19.5s-23.667 -8 -35 -10s-21.333 -3 -30 -3c-32 0 -62 5.33301 -90 16s-52.333 26 -73 46s-37 44.167 -49 72.5s-18 59.833 -18 94.5v286h109v-286
c0 -20.667 3.83301 -39.167 11.5 -55.5s17.834 -30.333 30.501 -42s27.334 -20.5 44.001 -26.5s33.667 -9 51 -9c19.333 0 38.333 3.83301 57 11.5s35.334 20.167 50.001 37.5v370h109v-507z" />
    <glyph glyph-name="uni0076" unicode="v" horiz-adv-x="484" 
d="M113 509h-116l174 -511h130l173 511h-116l-87 -284l-31 -137h-4l-33 136z" />
    <glyph glyph-name="uni0077" unicode="w" horiz-adv-x="727" 
d="M347 398h3l24 -168l54 -230h142l124 510h-111l-56 -251l-26 -175h-4l-25 175l-63 248h-120l-63 -248l-25 -175h-4l-26 175l-56 251h-111l124 -510h142l54 230z" />
    <glyph glyph-name="uni0078" unicode="x" horiz-adv-x="514" 
d="M251 316l-120 192h-127l170 -254l-173 -254h117l132 192l128 -192h119l-172 254l170 254h-118z" />
    <glyph glyph-name="uni0079" unicode="y" horiz-adv-x="510" 
d="M73 -191l1 86.999c3.33301 -0.666992 6.5 -1 9.5 -1h9.5c24 0 41.333 4.83301 52 14.5s18.334 20.167 23.001 31.5l31 76l-204 490h117l144 -364l129 364h117l-235 -604c-15.333 -37.333 -36.666 -62.666 -63.999 -75.999s-57.333 -20 -90 -20
c-6.66699 0 -13.334 0.166992 -20.001 0.5s-13.334 0.833008 -20.001 1.5z" />
    <glyph glyph-name="uni007A" unicode="z" horiz-adv-x="478" 
d="M41 0h379v94h-260l257 343v71h-374v-96h245l-87 -106l-160 -218v-88z" />
    <glyph glyph-name="uni007B" unicode="{" horiz-adv-x="312" 
d="M282 797l-0.000976562 -97.0029h-31c-14 0 -23.667 -2.83301 -29 -8.5s-8 -15.5 -8 -29.5v-180c0 -10.667 -1.33301 -22.5 -4 -35.5s-6.66699 -26 -12 -39s-12.5 -25.167 -21.5 -36.5s-20.167 -20.666 -33.5 -27.999c15.333 -7.33301 27.5 -16.666 36.5 -27.999
s16.167 -23.5 21.5 -36.5s8.83301 -26 10.5 -39s2.5 -24.833 2.5 -35.5v-172c0 -13.333 2.16699 -21.833 6.5 -25.5s12.5 -5.5 24.5 -5.5h37v-98h-62c-38 0 -67.167 11.333 -87.5 34s-30.5 53 -30.5 91v158c0 13.333 -1 26.333 -3 39s-5.33301 23.834 -10 33.501
s-11 17.5 -19 23.5s-18.333 9 -31 9v103c12.667 0 23 3 31 9s14.333 14 19 24s8 21.333 10 34s3 25.667 3 39v165c0 18.667 2.83301 36 8.5 52s13.834 30 24.501 42s23.5 21.333 38.5 28s31.833 10 50.5 10h58z" />
    <glyph glyph-name="uni007C" unicode="|" horiz-adv-x="285" 
d="M85 -156h105v929h-105v-929z" />
    <glyph glyph-name="uni007D" unicode="}" horiz-adv-x="312" 
d="M20 700l-0.000976562 97.0029h58c18.667 0 35.5 -3.33301 50.5 -10s27.833 -16 38.5 -28s18.834 -26 24.501 -42s8.5 -33.333 8.5 -52v-165c0 -13.333 1 -26.333 3 -39s5.33301 -24 10 -34s11 -18 19 -24s18.333 -9 31 -9v-103c-12.667 0 -23 -3 -31 -9
s-14.333 -13.833 -19 -23.5s-8 -20.834 -10 -33.501s-3 -25.667 -3 -39v-158c0 -38 -10.167 -68.333 -30.5 -91s-49.5 -34 -87.5 -34h-62v98h37c12 0 20.167 1.83301 24.5 5.5s6.5 12.167 6.5 25.5v172c0 10.667 0.833008 22.5 2.5 35.5s5.16699 26 10.5 39
s12.666 25.167 21.999 36.5s21.333 20.666 36 27.999c-12.667 7.33301 -23.667 16.666 -33 27.999s-16.666 23.5 -21.999 36.5s-9.33301 26 -12 39s-4 24.833 -4 35.5v180c0 14 -2.66699 23.833 -8 29.5s-15 8.5 -29 8.5h-31z" />
    <glyph glyph-name="uni007E" unicode="~" horiz-adv-x="592" 
d="M468 383l60 -57.999c-19.333 -36.667 -41.833 -63.5 -67.5 -80.5s-52.834 -25.5 -81.501 -25.5c-2 0 -4 0.166992 -6 0.5s-4 0.5 -6 0.5c-36.667 2 -72.667 16.667 -108 44c-24.667 19.333 -44.667 29.333 -60 30c-20.667 0 -39 -6.5 -55 -19.5s-30 -27.167 -42 -42.5
l-60 57c20 31.333 43 57.666 69 78.999s58.667 32 98 32c36 -2.66699 74.667 -20 116 -52c19.333 -14.667 35.333 -22.667 48 -24c21.333 0 39.333 5.83301 54 17.5s28.334 25.5 41.001 41.5z" />
    <glyph glyph-name="uni00A0" unicode="&#xa0;" horiz-adv-x="257" 
 />
    <glyph glyph-name="uni00A1" unicode="&#xa1;" horiz-adv-x="291" 
d="M84 340l-6 -534h125l-7 534h-112zM79 506v-115h120v115h-120z" />
    <glyph glyph-name="uni00A2" unicode="&#xa2;" horiz-adv-x="565" 
d="M263 -6l-0.000976562 81.001c-50 6.66699 -91.5 23.5 -124.5 50.5s-57.5 59.167 -73.5 96.5s-23.833 77.166 -23.5 119.499s8.83301 82.333 25.5 120s41.5 70.334 74.5 98.001s73.5 45.5 121.5 53.5v86h92v-87c25.333 -4.66699 49.5 -12.667 72.5 -24s45.5 -28 67.5 -50
l-62 -74c-20 19.333 -41 32.666 -63 39.999s-43.667 11 -65 11c-19.333 0 -38.333 -3.66699 -57 -11s-35.334 -18.333 -50.001 -33s-26.667 -33 -36 -55s-14 -47.667 -14 -77c0 -20 3.5 -40 10.5 -60s17.333 -37.667 31 -53s30.334 -27.833 50.001 -37.5
s41.834 -14.5 66.501 -14.5c21.333 0 43.5 4.5 66.5 13.5s44.5 22.5 64.5 40.5l63 -71c-44 -44 -92.333 -70.667 -145 -80v-83h-92z" />
    <glyph glyph-name="uni00A3" unicode="&#xa3;" horiz-adv-x="592" 
d="M535 523l-99.999 -15.998c-3.33301 19.333 -8.83301 35.166 -16.5 47.499s-16.834 22 -27.501 29s-22 12 -34 15s-24.333 4.5 -37 4.5s-25.334 -2.16699 -38.001 -6.5s-24 -11 -34 -20s-18.167 -20 -24.5 -33s-9.5 -28.5 -9.5 -46.5v-115h205v-88h-205v-196h326v-98h-496
v98h59v196h-57v88h57v115c0 35.333 6.16699 66.166 18.5 92.499s28.5 48.333 48.5 66s43 31 69 40s52.333 13.5 79 13.5c24 0 47.5 -3.33301 70.5 -10s44.167 -17.5 63.5 -32.5s36.333 -34.333 51 -58s25.334 -52.167 32.001 -85.5z" />
    <glyph glyph-name="uni00A5" unicode="&#xa5;" 
d="M599 700l-166 -297h68v-85h-113l-30 -53h143v-83h-146v-182h-108v182h-145v83h143l-28 53h-115v85h66l-164 297h129l169 -321c6 10.667 12.667 23.5 20 38.5l29.5 59l47 90.5l70.5 133h130z" />
    <glyph glyph-name="uni00A6" unicode="&#xa6;" horiz-adv-x="272" 
d="M84 -148h108v416h-108v-416zM192 773h-108v-414h108v414z" />
    <glyph glyph-name="uni00A7" unicode="&#xa7;" horiz-adv-x="472" 
d="M45 352c0 19.333 4.50098 37.3311 13.501 53.998s22.833 30.334 41.5 41.001c-13.333 12.667 -23.333 28 -30 46s-10 36.333 -10 55c0 25.333 5.16699 48 15.5 68s24 36.833 41 50.5s36.5 24 58.5 31s44.667 10.5 68 10.5c26.667 0 53.5 -5.16699 80.5 -15.5
s52.833 -29.166 77.5 -56.499l-58 -64c-10.667 14 -24.667 24.667 -42 32s-35 11 -53 11c-21.333 0 -40.333 -5.33301 -57 -16s-25 -26.667 -25 -48c0 -11.333 2.66699 -20.5 8 -27.5s12 -12.5 20 -16.5s16.667 -6.83301 26 -8.5s18 -3.5 26 -5.5
c21.333 -4 42.166 -10.167 62.499 -18.5s38.333 -19.166 54 -32.499s28.167 -29.166 37.5 -47.499s14 -39.833 14 -64.5c0 -19.333 -4.5 -37.333 -13.5 -54s-21.833 -30 -38.5 -40c12.667 -12 22 -25.167 28 -39.5s9 -32.5 9 -54.5c0 -29.333 -6 -54.166 -18 -74.499
s-27.167 -36.833 -45.5 -49.5s-38.666 -21.667 -60.999 -27s-43.833 -8 -64.5 -8c-34.667 0 -68 7.5 -100 22.5s-59.667 38.5 -83 70.5l67 64c15.333 -18.667 33 -33 53 -43s42 -15 66 -15c9.33301 0 18.666 1.16699 27.999 3.5s17.833 6 25.5 11s13.834 11.333 18.501 19
s7 16.5 7 26.5c0 8.66699 -2.83301 16.5 -8.5 23.5s-12.667 13 -21 18s-17.5 9 -27.5 12s-19 5.5 -27 7.5c-20.667 4 -40.834 9.16699 -60.501 15.5s-37.167 15.166 -52.5 26.499s-27.5 25.666 -36.5 42.999s-13.5 38.666 -13.5 63.999zM231.001 294.998
l-1.00195 -0.00195312c11.333 -2 21.833 -4.33301 31.5 -7s19.834 -5.66699 30.501 -9c7.33301 5.33301 13.333 12 18 20s7 17.667 7 29c0 10 -3.16699 19 -9.5 27s-14.166 14.833 -23.499 20.5s-19.5 10.334 -30.5 14.001s-21.5 6.5 -31.5 8.5
c-8.66699 1.33301 -17 3 -25 5s-16.667 4.66699 -26 8c-20.667 -14 -30.334 -33.333 -29.001 -58c0 -10 3 -18.333 9 -25s13.333 -12.167 22 -16.5s18.334 -7.66602 29.001 -9.99902z" />
    <glyph glyph-name="uni00A8" unicode="&#xa8;" horiz-adv-x="509" 
d="M203 755v96h-104v-96h104zM393 755v96h-105v-96h105z" />
    <glyph glyph-name="uni00A9" unicode="&#xa9;" horiz-adv-x="831" 
d="M51 344c0 49.333 9.16699 95.666 27.5 138.999s43.166 81.166 74.499 113.499s68.166 57.833 110.499 76.5s87.833 28 136.5 28c49.333 0 95.333 -9.33301 138 -28s79.834 -44.167 111.501 -76.5s56.667 -70.166 75 -113.499s27.5 -89.666 27.5 -138.999
c0 -50 -9.16699 -96.667 -27.5 -140s-43.333 -81.166 -75 -113.499s-68.834 -57.833 -111.501 -76.5s-88.667 -28 -138 -28c-48.667 0 -94.167 9.33301 -136.5 28s-79.166 44.167 -110.499 76.5s-56.166 70.166 -74.499 113.499s-27.5 90 -27.5 140zM143 344
c0 -38.667 6.5 -74.667 19.5 -108s31 -62.333 54 -87s50.167 -44 81.5 -58s65.333 -21 102 -21c37.333 0 71.833 7 103.5 21s59.167 33.333 82.5 58s41.666 53.667 54.999 87s20 69.333 20 108c0 38 -6.66699 73.667 -20 107s-31.666 62.333 -54.999 87s-50.833 44 -82.5 58
s-66.167 21 -103.5 21c-36.667 0 -70.667 -7 -102 -21s-58.5 -33.333 -81.5 -58s-41 -53.667 -54 -87s-19.5 -69 -19.5 -107zM562 489l-51.998 -63c-16 15.333 -32.333 25.166 -49 29.499s-33.667 6.5 -51 6.5c-24 0 -44.333 -5.83301 -61 -17.5s-29.5 -26.167 -38.5 -43.5
s-13.667 -36 -14 -56s3.5 -38.667 11.5 -56s20.5 -31.833 37.5 -43.5s38.833 -17.5 65.5 -17.5c17.333 0 33.666 2.83301 48.999 8.5s31.333 15.5 48 29.5l58 -65c-21.333 -21.333 -45.333 -38.166 -72 -50.499s-54.334 -18.5 -83.001 -18.5c-34.667 0 -65.167 6 -91.5 18
s-48.333 27.833 -66 47.5s-31 42.167 -40 67.5s-13.5 51.333 -13.5 78s4.66699 52.667 14 78s23 47.833 41 67.5s40 35.667 66 48s56 18.5 90 18.5c56.667 0 107 -22 151 -66z" />
    <glyph glyph-name="uni00AA" unicode="&#xaa;" horiz-adv-x="486" 
d="M406 250v-104h-348v104h348zM324 309l-14.0039 48.001c-11.333 -17.333 -25.666 -30.166 -42.999 -38.499s-35 -12.5 -53 -12.5c-26 0 -49.667 5.66699 -71 17s-39.666 26.166 -54.999 44.499s-27.166 39.166 -35.499 62.499s-12.5 47.333 -12.5 72
c0 31.333 5.5 59.333 16.5 84s25.833 45.5 44.5 62.5s40.334 30.167 65.001 39.5s50.667 14.333 78 15c4.66699 0.666992 9.16699 1 13.5 1h12.5c47.333 0 93 -10.333 137 -31v-364h-83zM304.996 426.001l1.00098 188.002c-10 1.33301 -19.833 2.16602 -29.5 2.49902
s-19.5 0.5 -29.5 0.5c-14 -1.33301 -27.333 -4.5 -40 -9.5s-24 -12 -34 -21s-17.833 -20.5 -23.5 -34.5s-8.5 -30.667 -8.5 -50c0 -12.667 2.66699 -25.167 8 -37.5s12.666 -23.333 21.999 -33s20 -17.5 32 -23.5s24.333 -9 37 -9c12 0 23.833 2.16699 35.5 6.5
s21.5 11.166 29.5 20.499z" />
    <glyph glyph-name="uni00AB" unicode="&#xab;" horiz-adv-x="558" 
d="M200 72h128l-166 208l166 209h-128l-167 -209zM221 280l167 -208h128l-167 208l167 209h-128z" />
    <glyph glyph-name="uni00AC" unicode="&#xac;" horiz-adv-x="624" 
d="M53 322h378v-181h103v283h-481v-102z" />
    <glyph glyph-name="uni00AD" unicode="&#xad;" horiz-adv-x="441" 
d="M60 231h308v102h-308v-102z" />
    <glyph glyph-name="uni00AE" unicode="&#xae;" horiz-adv-x="831" 
d="M51 344c0 49.333 9.16699 95.666 27.5 138.999s43.166 81.166 74.499 113.499s68.166 57.833 110.499 76.5s87.833 28 136.5 28c49.333 0 95.333 -9.33301 138 -28s79.834 -44.167 111.501 -76.5s56.667 -70.166 75 -113.499s27.5 -89.666 27.5 -138.999
c0 -50 -9.16699 -96.667 -27.5 -140s-43.333 -81.166 -75 -113.499s-68.834 -57.833 -111.501 -76.5s-88.667 -28 -138 -28c-48.667 0 -94.167 9.33301 -136.5 28s-79.166 44.167 -110.499 76.5s-56.166 70.166 -74.499 113.499s-27.5 90 -27.5 140zM143 344
c0 -38.667 6.5 -74.667 19.5 -108s31 -62.333 54 -87s50.167 -44 81.5 -58s65.333 -21 102 -21c37.333 0 71.833 7 103.5 21s59.167 33.333 82.5 58s41.666 53.667 54.999 87s20 69.333 20 108c0 38 -6.66699 73.667 -20 107s-31.666 62.333 -54.999 87s-50.833 44 -82.5 58
s-66.167 21 -103.5 21c-36.667 0 -70.667 -7 -102 -21s-58.5 -33.333 -81.5 -58s-41 -53.667 -54 -87s-19.5 -69 -19.5 -107zM566 413c0 -36 -8.66504 -64.833 -25.998 -86.5s-38.333 -34.167 -63 -37.5c7.33301 -8.66699 16.166 -20.5 26.499 -35.5l30.5 -45.5l35 -54h-102
l-96 130h-22v-130h-92v390h145c19.333 0 38.666 -2.16699 57.999 -6.5s36.833 -11.5 52.5 -21.5s28.5 -23.333 38.5 -40s15 -37.667 15 -63zM349.002 361h53.999c26.667 0 44.334 5 53.001 15s13 22 13 36c0 10 -4.5 20.167 -13.5 30.5s-26.5 15.5 -52.5 15.5h-54v-97z" />
    <glyph glyph-name="uni00AF" unicode="&#xaf;" horiz-adv-x="509" 
d="M109 708h274v95h-274v-95z" />
    <glyph glyph-name="uni00B0" unicode="&#xb0;" horiz-adv-x="400" 
d="M193 422c-20.667 0 -40 3.83301 -58 11.5s-33.667 18 -47 31s-23.833 28.167 -31.5 45.5s-11.5 36 -11.5 56c0 19.333 3.83301 37.833 11.5 55.5s18.167 33 31.5 46s29 23.333 47 31s37.333 11.5 58 11.5c20 0 39 -3.83301 57 -11.5s33.833 -18 47.5 -31
s24.334 -28.333 32.001 -46s11.5 -36.167 11.5 -55.5c0 -20 -3.83301 -38.667 -11.5 -56s-18.334 -32.5 -32.001 -45.5s-29.5 -23.333 -47.5 -31s-37 -11.5 -57 -11.5zM193 502c18 0 33 6.16699 45 18.5s18 27.5 18 45.5s-6 33.333 -18 46s-27 19 -45 19
c-17.333 0 -32.333 -6.33301 -45 -19s-19 -28 -19 -46s6.33301 -33.167 19 -45.5s27.667 -18.5 45 -18.5z" />
    <glyph glyph-name="uni00B1" unicode="&#xb1;" horiz-adv-x="691" 
d="M92 102v-102h484v102h-484zM85 349h196v-194h108v194h187v104h-187v192h-108v-192h-196v-104z" />
    <glyph glyph-name="uni00B2" unicode="&#xb2;" horiz-adv-x="405" 
d="M305 504l-127.003 -118.002h187v-92h-293l-42 72l205 199c12 10.667 19.5 22 22.5 34s2.5 23.167 -1.5 33.5s-11 18.833 -21 25.5s-22.667 10 -38 10s-30.166 -5.16699 -44.499 -15.5s-26.166 -24.166 -35.499 -41.499l-82 29c14 40 34 69.833 60 89.5
s60.333 29.5 103 29.5c23.333 0 45 -3.16699 65 -9.5s37.333 -15.5 52 -27.5s26.167 -26.667 34.5 -44s12.5 -37.666 12.5 -60.999c0 -22 -5.16699 -42 -15.5 -60s-24.166 -35.667 -41.499 -53z" />
    <glyph glyph-name="uni00B3" unicode="&#xb3;" horiz-adv-x="425" 
d="M358 621c0 -6 -1.00098 -13.001 -3.00098 -21.001s-5.16699 -16 -9.5 -24s-10 -15.333 -17 -22s-15.833 -12 -26.5 -16c28 -12 47.333 -27 58 -45s16 -37.667 16 -59c0 -25.333 -5.16699 -47.333 -15.5 -66s-23.666 -34.167 -39.999 -46.5s-34.833 -21.5 -55.5 -27.5
s-41.667 -9 -63 -9c-34 0 -65.667 8.5 -95 25.5s-52.666 44.167 -69.999 81.5l69 46c11.333 -19.333 26.166 -34 44.499 -44s35.833 -15 52.5 -15s32.167 4.33301 46.5 13s21.5 23 21.5 43c0 16 -6 29.667 -18 41s-25.667 17 -41 17h-46v79h46
c12.667 0 23.667 4.33301 33 13s14 19.667 14 33c0 14.667 -6.33301 26.667 -19 36s-25.667 14 -39 14s-27 -2.16699 -41 -6.5s-25.667 -15.166 -35 -32.499l-71 41c16.667 33.333 38 55.833 64 67.5s54 17.5 84 17.5c20 0 39.5 -2.5 58.5 -7.5s35.667 -13 50 -24
s25.833 -24.833 34.5 -41.5s13 -37 13 -61z" />
    <glyph glyph-name="uni00B4" unicode="&#xb4;" horiz-adv-x="509" 
d="M346 844h-118l-75 -133h94z" />
    <glyph glyph-name="uni00B5" unicode="&#xb5;" horiz-adv-x="545" 
d="M471 507l2.00195 -507h-98l-14 76c-8.66699 -28 -23.667 -49.333 -45 -64s-43.666 -22 -66.999 -22c-16.667 0 -32.334 4 -47.001 12s-26 20 -34 36v-231h-102v700h108v-308c0 -30 9.66699 -52.5 29 -67.5s40.666 -22.5 63.999 -22.5c11.333 0 22.666 1.83301 33.999 5.5
s21.333 9.33398 30 17.001s15.667 17.167 21 28.5s8 24.666 8 39.999v307h111z" />
    <glyph glyph-name="uni00B5" unicode="&#x3bc;" horiz-adv-x="545" 
d="M471 507l2.00195 -507h-98l-14 76c-8.66699 -28 -23.667 -49.333 -45 -64s-43.666 -22 -66.999 -22c-16.667 0 -32.334 4 -47.001 12s-26 20 -34 36v-231h-102v700h108v-308c0 -30 9.66699 -52.5 29 -67.5s40.666 -22.5 63.999 -22.5c11.333 0 22.666 1.83301 33.999 5.5
s21.333 9.33398 30 17.001s15.667 17.167 21 28.5s8 24.666 8 39.999v307h111z" />
    <glyph glyph-name="uni00B6" unicode="&#xb6;" horiz-adv-x="641" 
d="M230 -75v348.001c-33.333 0 -62.5 6.16699 -87.5 18.5s-45.833 28.5 -62.5 48.5s-29.167 42.5 -37.5 67.5s-12.5 49.833 -12.5 74.5c0 27.333 5.16699 54.166 15.5 80.499s25.833 49.833 46.5 70.5s46 37.167 76 49.5s65 18.5 105 18.5h264v-776h-108v678h-91v-678h-108z
" />
    <glyph glyph-name="uni00B7" unicode="&#xb7;" horiz-adv-x="270" 
d="M74 231h121v122h-121v-122z" />
    <glyph glyph-name="uni00B8" unicode="&#xb8;" horiz-adv-x="509" 
d="M312 48l-31.998 -66c16.667 -3.33301 29.667 -8.33301 39 -15s16.333 -14.167 21 -22.5s7.16699 -17.333 7.5 -27s-0.166992 -18.5 -1.5 -26.5c-4.66699 -27.333 -18.167 -48 -40.5 -62s-47.5 -21 -75.5 -21c-16.667 0 -33.334 2.5 -50.001 7.5s-31.667 12.833 -45 23.5
l22 49c21.333 -10.667 42.333 -16 63 -16c11.333 0 20.833 2.33301 28.5 7s11.834 11.667 12.501 21c1.33301 13.333 -2.83398 22.833 -12.501 28.5s-19.834 8.5 -30.501 8.5c-12 0 -20.667 -2.66699 -26 -8l-18 18l50 101h88z" />
    <glyph glyph-name="uni00B9" unicode="&#xb9;" horiz-adv-x="304" 
d="M97 290h104v460h-164v-93h60v-367z" />
    <glyph glyph-name="uni00BA" unicode="&#xba;" horiz-adv-x="477" 
d="M62 219v94h327v-94h-327zM230 366c-24 0 -46.335 4 -67.002 12s-38.667 19.333 -54 34s-27.333 32.167 -36 52.5s-13 42.833 -13 67.5c0 23.333 4.33301 45 13 65s20.667 37.333 36 52s33.333 26.167 54 34.5s42.667 12.5 66 12.5c24 0 46.333 -4.16699 67 -12.5
s38.834 -19.833 54.501 -34.5s27.834 -32 36.501 -52s13 -41.667 13 -65c0 -24.667 -4.5 -47.167 -13.5 -67.5s-21.167 -37.833 -36.5 -52.5s-33.333 -26 -54 -34s-42.667 -12 -66 -12zM229.998 449c21.333 0 39.5 7.83301 54.5 23.5s22.5 35.5 22.5 59.5
c0 23.333 -7.5 42.666 -22.5 57.999s-33.167 23 -54.5 23s-39.5 -7.66699 -54.5 -23s-22.5 -34.666 -22.5 -57.999c0 -24 7.5 -43.833 22.5 -59.5s33.167 -23.5 54.5 -23.5z" />
    <glyph glyph-name="uni00BB" unicode="&#xbb;" horiz-adv-x="558" 
d="M24 72h127l167 208l-167 209h-127l166 -209zM213 72h127l167 208l-167 209h-127l166 -209z" />
    <glyph glyph-name="uni00BC" unicode="&#xbc;" horiz-adv-x="960" 
d="M307 -30l366 768h-109l-366 -768h109zM845 450h-158l-175 -285l65 -88h166v-77h102v77h45v94h-45v279zM750 369h6l-12 -110v-92h-118zM133 606h-60v93h164v-418h-104v325z" />
    <glyph glyph-name="uni00BD" unicode="&#xbd;" horiz-adv-x="970" 
d="M293 -30h-109l366 768h109zM707 91l186.997 -0.00195312v-92h-293l-42 72l205 199c12 10.667 19.5 22 22.5 34s2.5 23.167 -1.5 33.5s-11 18.833 -21 25.5s-22.667 10 -38 10s-30.166 -5.16699 -44.499 -15.5s-26.166 -24.166 -35.499 -41.499l-82 29
c14 40 34 69.833 60 89.5s60.333 29.5 103 29.5c23.333 0 45 -3.16699 65 -9.5s37.333 -15.5 52 -27.5s26.167 -26.667 34.5 -44s12.5 -37.666 12.5 -60.999c0 -22 -5.16699 -42 -15.5 -60s-24.166 -35.667 -41.499 -53zM134.997 605.998h-60v93h162v-418h-102v325z" />
    <glyph glyph-name="uni00BE" unicode="&#xbe;" horiz-adv-x="1042" 
d="M406 -30h-109l366 768h109zM934 442v-271h45v-94h-45v-77h-102v77h-166l-65 88l174 277h159zM839 369l-124 -202h118v92l12 110h-6zM369 571c0 -6 -1.00098 -13.001 -3.00098 -21.001s-5.16699 -16 -9.5 -24s-10 -15.333 -17 -22s-15.833 -12 -26.5 -16
c28 -12 47.333 -27 58 -45s16 -37.667 16 -59c0 -25.333 -5.16699 -47.333 -15.5 -66s-23.666 -34.167 -39.999 -46.5s-34.833 -21.5 -55.5 -27.5s-41.667 -9 -63 -9c-34 0 -65.667 8.5 -95 25.5s-52.666 44.167 -69.999 81.5l69 46c11.333 -19.333 26.166 -34 44.499 -44
s35.833 -15 52.5 -15s32.167 4.33301 46.5 13s21.5 23 21.5 43c0 16 -6 29.667 -18 41s-25.667 17 -41 17h-46v79h46c12.667 0 23.667 4.33301 33 13s14 19.667 14 33c0 14.667 -6.33301 26.667 -19 36s-25.667 14 -39 14s-27 -2.16699 -41 -6.5
s-25.667 -15.166 -35 -32.499l-71 41c16.667 33.333 38 55.833 64 67.5s54 17.5 84 17.5c20 0 39.5 -2.5 58.5 -7.5s35.667 -13 50 -24s25.833 -24.833 34.5 -41.5s13 -37 13 -61z" />
    <glyph glyph-name="uni00BF" unicode="&#xbf;" horiz-adv-x="517" 
d="M490 -86c-32 -41.333 -66.5 -70.999 -103.5 -88.999s-74.167 -27 -111.5 -27c-29.333 0 -57.833 4.33301 -85.5 13s-52.334 21.834 -74.001 39.501s-39 40.167 -52 67.5s-19.5 59.666 -19.5 96.999c0 24 4.16699 47.167 12.5 69.5s20.333 42.5 36 60.5s35 33.5 58 46.5
s49.833 22.167 80.5 27.5l7 123h102l5 -197c-23.333 0 -46.333 -2.83301 -69 -8.5s-42.667 -13.834 -60 -24.501s-31.333 -24.167 -42 -40.5s-16 -35.5 -16 -57.5c0.666992 -20 4.5 -36.833 11.5 -50.5s16 -24.667 27 -33s23.667 -14.333 38 -18s28.833 -5.5 43.5 -5.5
c22.667 0 45.834 6.33301 69.501 19s44.167 29.667 61.5 51zM230 507.001h120v-115h-120v115z" />
    <glyph glyph-name="uni00C0" unicode="&#xc0;" horiz-adv-x="636" 
d="M-1 0h121l75 213h233l78 -213h120l-254 705h-122zM268 757h94l-75 133h-118zM229 313l62 200l16 72h5l16 -72l65 -200h-164z" />
    <glyph glyph-name="uni00C1" unicode="&#xc1;" horiz-adv-x="636" 
d="M-1 0h121l75 213h233l78 -213h120l-254 705h-122zM453 900h-118l-75 -133h94zM229 313l62 200l16 72h5l16 -72l65 -200h-164z" />
    <glyph glyph-name="uni00C2" unicode="&#xc2;" horiz-adv-x="636" 
d="M-1 0h121l75 213h233l78 -213h120l-254 705h-122zM151 761h95l63 75l63 -75h97l-101 130h-115zM229 313l62 200l16 72h5l16 -72l65 -200h-164z" />
    <glyph glyph-name="uni00C3" unicode="&#xc3;" horiz-adv-x="636" 
d="M-1 0l251 705h122l254 -705h-120l-78 213h-233l-75 -213h-121zM229 313h164l-65 200l-16 72h-5l-16 -72zM428 887l53.998 -42.999c-13.333 -26 -28.166 -45 -44.499 -57s-34.166 -18 -53.499 -18c-26.667 0 -55.334 11.333 -86.001 34
c-9.33301 6.66699 -18.666 10 -27.999 10s-18.5 -3.5 -27.5 -10.5s-19.167 -17.167 -30.5 -30.5l-58 46c13.333 22 29.5 40.833 48.5 56.5s42.167 23.5 69.5 23.5c8.66699 -0.666992 17.167 -2.83398 25.5 -6.50098s16.5 -8 24.5 -13l23.5 -14.5
c7.66699 -4.66699 15.5 -8 23.5 -10c2 -0.666992 5.33301 -1 10 -1c16.667 0 33 11.333 49 34z" />
    <glyph glyph-name="uni00C4" unicode="&#xc4;" horiz-adv-x="636" 
d="M-1 0h121l75 213h233l78 -213h120l-254 705h-122zM270 761v96h-104v-96h104zM460 761v96h-105v-96h105zM229 313l62 200l16 72h5l16 -72l65 -200h-164z" />
    <glyph glyph-name="uni00C5" unicode="&#xc5;" horiz-adv-x="636" 
d="M365 705h7.00098l254 -705h-120l-78 213h-233l-75 -213h-121l251 705c-12.667 7.33301 -22.834 17.333 -30.501 30s-11.5 27.667 -11.5 45c0 28 9.83301 50 29.5 66s43.167 24 70.5 24c13.333 0 26 -2 38 -6s22.5 -10 31.5 -18s16.333 -17.5 22 -28.5
s8.5 -23.5 8.5 -37.5c0 -17.333 -4 -32.333 -12 -45s-18.333 -22.667 -31 -30zM229.001 313h164l-65 200l-16 72h-5l-16 -72zM267.001 780c0 -10 3.66699 -18.5 11 -25.5s17 -10.5 29 -10.5c12.667 0 22.667 3.66699 30 11s11 16 11 26c0 11.333 -3.66699 20.333 -11 27
s-17.333 10 -30 10c-12 0 -21.667 -3.5 -29 -10.5s-11 -16.167 -11 -27.5z" />
    <glyph glyph-name="uni00C6" unicode="&#xc6;" horiz-adv-x="877" 
d="M-4 0l358 706h462v-106h-276v-198h274v-100h-274c0 -33.333 -0.166992 -65.833 -0.5 -97.5s-0.5 -64.5 -0.5 -98.5h277v-106h-391v197h-201l-102 -197h-126zM425 307v207l11 115h-5l-154 -322h148z" />
    <glyph glyph-name="uni00C7" unicode="&#xc7;" horiz-adv-x="729" 
d="M663 598l-71.9922 -67c-52 54.667 -116 82 -192 82c-40 -0.666992 -75.167 -8.83398 -105.5 -24.501s-55.5 -36 -75.5 -61s-35.167 -53.167 -45.5 -84.5s-15.5 -63 -15.5 -95s5.16699 -63.333 15.5 -94s25.666 -58.334 45.999 -83.001s45.666 -44.5 75.999 -59.5
s65.166 -22.5 104.499 -22.5c36 0 72.667 8.33301 110 25s69.666 41.334 96.999 74.001l80 -62c-34.667 -42 -73 -74.667 -115 -98s-88.333 -37 -139 -41l-18 -39c16.667 -3.33301 29.667 -8.33301 39 -15s16.333 -14.167 21 -22.5s7.16699 -17.333 7.5 -27
s-0.166992 -18.5 -1.5 -26.5c-4.66699 -27.333 -18.167 -48 -40.5 -62s-47.5 -21 -75.5 -21c-16.667 0 -33.334 2.5 -50.001 7.5s-31.667 12.833 -45 23.5l22 49c21.333 -10.667 42.333 -16 63 -16c11.333 0 20.833 2.33301 28.5 7s11.834 11.667 12.501 21
c1.33301 13.333 -2.83398 22.833 -12.501 28.5s-19.834 8.5 -30.501 8.5c-12 0 -20.667 -2.66699 -26 -8l-18 18l37 76c-49.333 6 -92.833 20.333 -130.5 43s-69.334 50.334 -95.001 83.001s-45 69.167 -58 109.5s-19.5 81.5 -19.5 123.5c0 45.333 7.66699 90 23 134
s38 83.333 68 118s67.333 62.667 112 84s96 32 154 32c52 0 100.167 -9 144.5 -27s84.166 -48.333 119.499 -91z" />
    <glyph glyph-name="uni00C8" unicode="&#xc8;" horiz-adv-x="537" 
d="M462 701h-393v-701h393v98h-278v204h274v99h-274v201h278v99zM249 766h94l-75 133h-118z" />
    <glyph glyph-name="uni00C9" unicode="&#xc9;" horiz-adv-x="537" 
d="M462 701h-393v-701h393v98h-278v204h274v99h-274v201h278v99zM405 897h-118l-75 -133h94z" />
    <glyph glyph-name="uni00CA" unicode="&#xca;" horiz-adv-x="537" 
d="M462 701h-393v-701h393v98h-278v204h274v99h-274v201h278v99zM113 762h95l63 75l63 -75h97l-101 130h-115z" />
    <glyph glyph-name="uni00CB" unicode="&#xcb;" horiz-adv-x="537" 
d="M462 701h-393v-701h393v98h-278v204h274v99h-274v201h278v99zM241 770v96h-104v-96h104zM431 770v96h-105v-96h105z" />
    <glyph glyph-name="uni00CC" unicode="&#xcc;" horiz-adv-x="284" 
d="M82 0h114v703h-114v-703zM104 764h94l-75 133h-118z" />
    <glyph glyph-name="uni00CD" unicode="&#xcd;" horiz-adv-x="284" 
d="M82 0h114v703h-114v-703zM273 902h-118l-75 -133h94z" />
    <glyph glyph-name="uni00CE" unicode="&#xce;" horiz-adv-x="284" 
d="M82 0h114v703h-114v-703zM-16 761h95l63 75l63 -75h97l-101 130h-115z" />
    <glyph glyph-name="uni00CF" unicode="&#xcf;" horiz-adv-x="284" 
d="M82 0h114v703h-114v-703zM93 765v96h-104v-96h104zM283 765v96h-105v-96h105z" />
    <glyph glyph-name="uni00D0" unicode="&#xd0;" horiz-adv-x="731" 
d="M35 299l-0.00195312 99.001h58v307h223c57.333 0.666992 107.833 -8.83301 151.5 -28.5s80.167 -45.667 109.5 -78s51.666 -69.333 66.999 -111s23.333 -84.5 24 -128.5c1.33301 -44.667 -5.16699 -88.5 -19.5 -131.5s-36.166 -81.333 -65.499 -115
s-66.166 -60.834 -110.499 -81.501s-96.166 -31 -155.499 -31h-224v299h-58zM315.998 103.001l4.99902 0.000976562c40 0 74.833 7.33301 104.5 22s54.334 34 74.001 58s34.167 51.167 43.5 81.5s13.333 61.166 12 92.499c-0.666992 30 -6.16699 59.667 -16.5 89
s-25.5 55.5 -45.5 78.5s-44.5 41.667 -73.5 56s-62.833 21.5 -101.5 21.5h-111v-204h125v-99h-125v-196h109z" />
    <glyph glyph-name="uni00D1" unicode="&#xd1;" horiz-adv-x="733" 
d="M220 704l257 -456l48 -105l3 1l-15 130v430h115v-704h-131l-259 456l-49 105l-3 -1l16 -130v-430h-115v704h133zM476 909l53.998 -42.999c-13.333 -26 -28.166 -45 -44.499 -57s-34.166 -18 -53.499 -18c-26.667 0 -55.334 11.333 -86.001 34
c-9.33301 6.66699 -18.666 10 -27.999 10s-18.5 -3.5 -27.5 -10.5s-19.167 -17.167 -30.5 -30.5l-58 46c13.333 22 29.5 40.833 48.5 56.5s42.167 23.5 69.5 23.5c8.66699 -0.666992 17.167 -2.83398 25.5 -6.50098s16.5 -8 24.5 -13l23.5 -14.5
c7.66699 -4.66699 15.5 -8 23.5 -10c2 -0.666992 5.33301 -1 10 -1c16.667 0 33 11.333 49 34z" />
    <glyph glyph-name="uni00D2" unicode="&#xd2;" horiz-adv-x="820" 
d="M400 715c49.333 0 95.666 -9.33203 138.999 -27.999s81.333 -44.334 114 -77.001s58.334 -71.334 77.001 -116.001s28 -93 28 -145c0 -52.667 -9.33301 -101.167 -28 -145.5s-44.334 -82.666 -77.001 -114.999s-70.667 -57.666 -114 -75.999
s-89.666 -27.5 -138.999 -27.5s-95.666 9 -138.999 27s-81.333 43 -114 75s-58.334 70.333 -77.001 115s-28 93.667 -28 147s9.33301 102.333 28 147s44.334 83.167 77.001 115.5s70.667 57.666 114 75.999s89.666 27.5 138.999 27.5zM158 349.001
c0 -42 6.83301 -79.1689 20.5 -111.502s31.834 -59.5 54.501 -81.5s48.5 -38.667 77.5 -50s58.833 -17 89.5 -17c30 0 59.667 5.66699 89 17s55.333 28 78 50s41 49.167 55 81.5s21 69.5 21 111.5s-7 79.167 -21 111.5s-32.5 59.833 -55.5 82.5s-49 39.667 -78 51
s-58.833 17 -89.5 17c-30 0 -59.5 -6 -88.5 -18s-54.833 -29.167 -77.5 -51.5s-40.834 -49.666 -54.501 -81.999s-20.5 -69.166 -20.5 -110.499zM359 780.999l-99 133h118l75 -133h-94z" />
    <glyph glyph-name="uni00D3" unicode="&#xd3;" horiz-adv-x="820" 
d="M400 715c49.333 0 95.666 -9.33203 138.999 -27.999s81.333 -44.334 114 -77.001s58.334 -71.334 77.001 -116.001s28 -93 28 -145c0 -52.667 -9.33301 -101.167 -28 -145.5s-44.334 -82.666 -77.001 -114.999s-70.667 -57.666 -114 -75.999
s-89.666 -27.5 -138.999 -27.5s-95.666 9 -138.999 27s-81.333 43 -114 75s-58.334 70.333 -77.001 115s-28 93.667 -28 147s9.33301 102.333 28 147s44.334 83.167 77.001 115.5s70.667 57.666 114 75.999s89.666 27.5 138.999 27.5zM158 349.001
c0 -42 6.83301 -79.1689 20.5 -111.502s31.834 -59.5 54.501 -81.5s48.5 -38.667 77.5 -50s58.833 -17 89.5 -17c30 0 59.667 5.66699 89 17s55.333 28 78 50s41 49.167 55 81.5s21 69.5 21 111.5s-7 79.167 -21 111.5s-32.5 59.833 -55.5 82.5s-49 39.667 -78 51
s-58.833 17 -89.5 17c-30 0 -59.5 -6 -88.5 -18s-54.833 -29.167 -77.5 -51.5s-40.834 -49.666 -54.501 -81.999s-20.5 -69.166 -20.5 -110.499zM538 910.999l-99 -133h-94l75 133h118z" />
    <glyph glyph-name="uni00D4" unicode="&#xd4;" horiz-adv-x="820" 
d="M400 715c49.333 0 95.666 -9.33203 138.999 -27.999s81.333 -44.334 114 -77.001s58.334 -71.334 77.001 -116.001s28 -93 28 -145c0 -52.667 -9.33301 -101.167 -28 -145.5s-44.334 -82.666 -77.001 -114.999s-70.667 -57.666 -114 -75.999
s-89.666 -27.5 -138.999 -27.5s-95.666 9 -138.999 27s-81.333 43 -114 75s-58.334 70.333 -77.001 115s-28 93.667 -28 147s9.33301 102.333 28 147s44.334 83.167 77.001 115.5s70.667 57.666 114 75.999s89.666 27.5 138.999 27.5zM158 349.001
c0 -42 6.83301 -79.1689 20.5 -111.502s31.834 -59.5 54.501 -81.5s48.5 -38.667 77.5 -50s58.833 -17 89.5 -17c30 0 59.667 5.66699 89 17s55.333 28 78 50s41 49.167 55 81.5s21 69.5 21 111.5s-7 79.167 -21 111.5s-32.5 59.833 -55.5 82.5s-49 39.667 -78 51
s-58.833 17 -89.5 17c-30 0 -59.5 -6 -88.5 -18s-54.833 -29.167 -77.5 -51.5s-40.834 -49.666 -54.501 -81.999s-20.5 -69.166 -20.5 -110.499zM244 771.999l102 130h115l101 -130h-97l-63 75l-63 -75h-95z" />
    <glyph glyph-name="uni00D5" unicode="&#xd5;" horiz-adv-x="820" 
d="M400 715c49.333 0 95.666 -9.33203 138.999 -27.999s81.333 -44.334 114 -77.001s58.334 -71.334 77.001 -116.001s28 -93 28 -145c0 -52.667 -9.33301 -101.167 -28 -145.5s-44.334 -82.666 -77.001 -114.999s-70.667 -57.666 -114 -75.999
s-89.666 -27.5 -138.999 -27.5s-95.666 9 -138.999 27s-81.333 43 -114 75s-58.334 70.333 -77.001 115s-28 93.667 -28 147s9.33301 102.333 28 147s44.334 83.167 77.001 115.5s70.667 57.666 114 75.999s89.666 27.5 138.999 27.5zM158 349.001
c0 -42 6.83301 -79.1689 20.5 -111.502s31.834 -59.5 54.501 -81.5s48.5 -38.667 77.5 -50s58.833 -17 89.5 -17c30 0 59.667 5.66699 89 17s55.333 28 78 50s41 49.167 55 81.5s21 69.5 21 111.5s-7 79.167 -21 111.5s-32.5 59.833 -55.5 82.5s-49 39.667 -78 51
s-58.833 17 -89.5 17c-30 0 -59.5 -6 -88.5 -18s-54.833 -29.167 -77.5 -51.5s-40.834 -49.666 -54.501 -81.999s-20.5 -69.166 -20.5 -110.499zM518 893.999l53.998 -42.999c-13.333 -26 -28.166 -45 -44.499 -57s-34.166 -18 -53.499 -18
c-26.667 0 -55.334 11.333 -86.001 34c-9.33301 6.66699 -18.666 10 -27.999 10s-18.5 -3.5 -27.5 -10.5s-19.167 -17.167 -30.5 -30.5l-58 46c13.333 22 29.5 40.833 48.5 56.5s42.167 23.5 69.5 23.5c8.66699 -0.666992 17.167 -2.83398 25.5 -6.50098s16.5 -8 24.5 -13
l23.5 -14.5c7.66699 -4.66699 15.5 -8 23.5 -10c2 -0.666992 5.33301 -1 10 -1c16.667 0 33 11.333 49 34z" />
    <glyph glyph-name="uni00D6" unicode="&#xd6;" horiz-adv-x="820" 
d="M400 715c49.333 0 95.666 -9.33203 138.999 -27.999s81.333 -44.334 114 -77.001s58.334 -71.334 77.001 -116.001s28 -93 28 -145c0 -52.667 -9.33301 -101.167 -28 -145.5s-44.334 -82.666 -77.001 -114.999s-70.667 -57.666 -114 -75.999
s-89.666 -27.5 -138.999 -27.5s-95.666 9 -138.999 27s-81.333 43 -114 75s-58.334 70.333 -77.001 115s-28 93.667 -28 147s9.33301 102.333 28 147s44.334 83.167 77.001 115.5s70.667 57.666 114 75.999s89.666 27.5 138.999 27.5zM158 349.001
c0 -42 6.83301 -79.1689 20.5 -111.502s31.834 -59.5 54.501 -81.5s48.5 -38.667 77.5 -50s58.833 -17 89.5 -17c30 0 59.667 5.66699 89 17s55.333 28 78 50s41 49.167 55 81.5s21 69.5 21 111.5s-7 79.167 -21 111.5s-32.5 59.833 -55.5 82.5s-49 39.667 -78 51
s-58.833 17 -89.5 17c-30 0 -59.5 -6 -88.5 -18s-54.833 -29.167 -77.5 -51.5s-40.834 -49.666 -54.501 -81.999s-20.5 -69.166 -20.5 -110.499zM356 781.999h-104v96h104v-96zM546 781.999h-105v96h105v-96z" />
    <glyph glyph-name="uni00D7" unicode="&#xd7;" horiz-adv-x="539" 
d="M53 417l134 -134l-132 -130l73 -73l131 131l128 -127l73 72l-128 129l130 129l-72 72l-130 -130l-134 135z" />
    <glyph glyph-name="uni00D8" unicode="&#xd8;" horiz-adv-x="820" 
d="M400 713c51.333 0 99.6689 -10.3301 145.002 -30.9971l46 76h114l-78 -128c40 -34.667 72.5 -76.334 97.5 -125.001s37.5 -100.667 37.5 -156c0 -53.333 -9.66699 -102.166 -29 -146.499s-45.5 -82.5 -78.5 -114.5s-71.333 -56.833 -115 -74.5
s-90.167 -26.5 -139.5 -26.5c-48.667 0 -95.334 9.33301 -140.001 28c-6 -10.667 -13.5 -23.167 -22.5 -37.5s-16.167 -26.166 -21.5 -35.499h-115l75 126c-40.667 33.333 -73.834 73.666 -99.501 120.999s-38.5 100.666 -38.5 159.999c0 53.333 9.66699 102.166 29 146.499
s45.5 82.666 78.5 114.999s71.333 57.5 115 75.5s90.167 27 139.5 27zM150.003 349.003c0 -44 8 -81.499 24 -112.499s34.667 -57.167 56 -78.5l130 216l130 218c-15.333 6.66699 -30.333 11.167 -45 13.5s-30 3.5 -46 3.5c-30 0 -60 -5.33301 -90 -16
s-56.667 -26.834 -80 -48.501s-42.333 -48.667 -57 -81s-22 -70.5 -22 -114.5zM650.003 349.004c0 38.667 -8.00098 74.501 -24.001 107.501s-34 60.167 -54 81.5l-127.5 -215l-129.5 -217c14.667 -4.66699 29 -8.33398 43 -11.001s28 -4 42 -4c30 0 60 5.16699 90 15.5
s56.833 26 80.5 47s42.834 47.833 57.501 80.5s22 71 22 115z" />
    <glyph glyph-name="uni00D9" unicode="&#xd9;" horiz-adv-x="655" 
d="M77 700h115.003v-490c0 -20.667 3.66699 -38.667 11 -54s16.833 -27.666 28.5 -36.999s25.167 -16.333 40.5 -21s31 -7 47 -7s31.667 2.33301 47 7s29.166 11.667 41.499 21s22.166 21.666 29.499 36.999s11 33.333 11 54v490h115v-490
c0 -39.333 -7 -73.166 -21 -101.499s-32.5 -51.5 -55.5 -69.5s-49.167 -31.167 -78.5 -39.5s-59 -12.5 -89 -12.5c-30.667 0 -60.5 4.16699 -89.5 12.5s-54.833 21.5 -77.5 39.5s-40.834 41.167 -54.501 69.5s-20.5 62.166 -20.5 101.499v490zM295.003 763l-99 133h118
l75 -133h-94z" />
    <glyph glyph-name="uni00DA" unicode="&#xda;" horiz-adv-x="655" 
d="M77 700h115.003v-490c0 -20.667 3.66699 -38.667 11 -54s16.833 -27.666 28.5 -36.999s25.167 -16.333 40.5 -21s31 -7 47 -7s31.667 2.33301 47 7s29.166 11.667 41.499 21s22.166 21.666 29.499 36.999s11 33.333 11 54v490h115v-490
c0 -39.333 -7 -73.166 -21 -101.499s-32.5 -51.5 -55.5 -69.5s-49.167 -31.167 -78.5 -39.5s-59 -12.5 -89 -12.5c-30.667 0 -60.5 4.16699 -89.5 12.5s-54.833 21.5 -77.5 39.5s-40.834 41.167 -54.501 69.5s-20.5 62.166 -20.5 101.499v490zM461.003 901l-99 -133h-94
l75 133h118z" />
    <glyph glyph-name="uni00DB" unicode="&#xdb;" horiz-adv-x="655" 
d="M77 700h115.003v-490c0 -20.667 3.66699 -38.667 11 -54s16.833 -27.666 28.5 -36.999s25.167 -16.333 40.5 -21s31 -7 47 -7s31.667 2.33301 47 7s29.166 11.667 41.499 21s22.166 21.666 29.499 36.999s11 33.333 11 54v490h115v-490
c0 -39.333 -7 -73.166 -21 -101.499s-32.5 -51.5 -55.5 -69.5s-49.167 -31.167 -78.5 -39.5s-59 -12.5 -89 -12.5c-30.667 0 -60.5 4.16699 -89.5 12.5s-54.833 21.5 -77.5 39.5s-40.834 41.167 -54.501 69.5s-20.5 62.166 -20.5 101.499v490zM158.003 764l102 130h115
l101 -130h-97l-63 75l-63 -75h-95z" />
    <glyph glyph-name="uni00DC" unicode="&#xdc;" horiz-adv-x="655" 
d="M77 700h115.003v-490c0 -20.667 3.66699 -38.667 11 -54s16.833 -27.666 28.5 -36.999s25.167 -16.333 40.5 -21s31 -7 47 -7s31.667 2.33301 47 7s29.166 11.667 41.499 21s22.166 21.666 29.499 36.999s11 33.333 11 54v490h115v-490
c0 -39.333 -7 -73.166 -21 -101.499s-32.5 -51.5 -55.5 -69.5s-49.167 -31.167 -78.5 -39.5s-59 -12.5 -89 -12.5c-30.667 0 -60.5 4.16699 -89.5 12.5s-54.833 21.5 -77.5 39.5s-40.834 41.167 -54.501 69.5s-20.5 62.166 -20.5 101.499v490zM277.003 776h-104v96h104v-96z
M467.003 776h-105v96h105v-96z" />
    <glyph glyph-name="uni00DD" unicode="&#xdd;" horiz-adv-x="589" 
d="M584 705h-133l-164 -306l-166 306h-131l240 -423v-282h113v281zM417 903h-118l-75 -133h94z" />
    <glyph glyph-name="uni00DE" unicode="&#xde;" horiz-adv-x="583" 
d="M200 136v-135.997h-114v700h114v-108h103c40.667 0 76.167 -6.66699 106.5 -20s55.5 -30.833 75.5 -52.5s35 -46.334 45 -74.001s15 -55.834 15 -84.501s-5 -56.667 -15 -84s-25 -51.333 -45 -72s-45.167 -37.334 -75.5 -50.001s-65.5 -19 -105.5 -19h-104zM303 238.003
c21.333 0 40 3.66602 56 10.999s29.333 16.833 40 28.5s18.667 24.834 24 39.501s8 29.334 8 44.001c0 15.333 -2.66699 30.666 -8 45.999s-13.333 29.5 -24 42.5s-24 23.5 -40 31.5s-34.667 12 -56 12h-103v-255h103z" />
    <glyph glyph-name="uni00DF" unicode="&#xdf;" horiz-adv-x="581" 
d="M212 1v105.998c11.333 -5.33301 22.5 -9.16602 33.5 -11.499s22.167 -3.5 33.5 -3.5c17.333 0 33.666 2.83301 48.999 8.5s28.833 13.834 40.5 24.501s21 23.167 28 37.5s10.5 30.5 10.5 48.5c0 14 -2.66699 27.833 -8 41.5s-13.333 25.834 -24 36.501
s-23.834 19.334 -39.501 26.001s-34.167 10 -55.5 10h-66v102h66c15.333 0 28.833 3 40.5 9s21.334 13.667 29.001 23s13.334 19.833 17.001 31.5s5.16699 22.834 4.5 33.501c-2 31.333 -12.833 53.166 -32.5 65.499s-41.167 18.5 -64.5 18.5
c-12 0 -23.667 -2.16699 -35 -6.5s-21.5 -10.333 -30.5 -18s-16.167 -17 -21.5 -28s-8 -23.167 -8 -36.5v-519h-113v519c0 31.333 5.83301 59 17.5 83s27 44.167 46 60.5s41.167 28.833 66.5 37.5s51.333 13 78 13c27.333 0 53.333 -3.83301 78 -11.5s46.5 -19.5 65.5 -35.5
s34 -35.833 45 -59.5s16.5 -51.5 16.5 -83.5c0 -12 -1.5 -24.667 -4.5 -38s-7.83301 -26.333 -14.5 -39s-15.167 -24.5 -25.5 -35.5s-22.833 -20.167 -37.5 -27.5c21.333 -8.66699 40 -19.5 56 -32.5s29.333 -27.167 40 -42.5s18.667 -31.333 24 -48s8 -33 8 -49
c0.666992 -36.667 -5 -68.834 -17 -96.501s-28.5 -50.834 -49.5 -69.501s-45.5 -32.5 -73.5 -41.5s-57.333 -13.5 -88 -13.5c-14 0 -28.167 0.833008 -42.5 2.5s-28.5 4.5 -42.5 8.5z" />
    <glyph glyph-name="uni00E0" unicode="&#xe0;" horiz-adv-x="555" 
d="M480 0l-84.001 -0.00292969l-18 61c-18.667 -28 -40 -46.333 -64 -55s-50.667 -13 -80 -13c-34 0 -63.333 5.16699 -88 15.5s-45 23.666 -61 39.999s-28 35 -36 56s-12 42.5 -12 64.5c0 22.667 4.5 44.334 13.5 65.001s22.5 38.834 40.5 54.501s40.667 28.167 68 37.5
s59.333 14 96 14c8.66699 0 18.667 -0.333008 30 -1s22.666 -2.16699 33.999 -4.5s22 -5.5 32 -9.5s18.333 -9 25 -15v20c0 19.333 -3.33301 35.5 -10 48.5s-15.5 23.5 -26.5 31.5s-24 13.667 -39 17s-31.167 5 -48.5 5c-27.333 -0.666992 -52.166 -4.66699 -74.499 -12
s-44.166 -17.666 -65.499 -30.999l-44 69c26.667 22.667 57.167 39.834 91.5 51.501s68.833 17.5 103.5 17.5c28 0 55.167 -4 81.5 -12s49.5 -20 69.5 -36s36 -36.333 48 -61s18 -54 18 -88v-330zM259.999 85.9971c19.333 0 40.333 4.5 63 13.5s40.667 20.833 54 35.5v86
c-14.667 12.667 -32 21.5 -52 26.5s-39.667 7.5 -59 7.5c-16.667 0 -32.5 -1.66699 -47.5 -5s-28.167 -8.5 -39.5 -15.5s-20.5 -15.833 -27.5 -26.5s-10.5 -23.667 -10.5 -39c0 -28.667 9.33301 -49.667 28 -63s49 -20 91 -20zM252.999 619.997l-99 133h118l75 -133h-94z
" />
    <glyph glyph-name="uni00E1" unicode="&#xe1;" horiz-adv-x="555" 
d="M480 0l-84.001 -0.00292969l-18 61c-18.667 -28 -40 -46.333 -64 -55s-50.667 -13 -80 -13c-34 0 -63.333 5.16699 -88 15.5s-45 23.666 -61 39.999s-28 35 -36 56s-12 42.5 -12 64.5c0 22.667 4.5 44.334 13.5 65.001s22.5 38.834 40.5 54.501s40.667 28.167 68 37.5
s59.333 14 96 14c8.66699 0 18.667 -0.333008 30 -1s22.666 -2.16699 33.999 -4.5s22 -5.5 32 -9.5s18.333 -9 25 -15v20c0 19.333 -3.33301 35.5 -10 48.5s-15.5 23.5 -26.5 31.5s-24 13.667 -39 17s-31.167 5 -48.5 5c-27.333 -0.666992 -52.166 -4.66699 -74.499 -12
s-44.166 -17.666 -65.499 -30.999l-44 69c26.667 22.667 57.167 39.834 91.5 51.501s68.833 17.5 103.5 17.5c28 0 55.167 -4 81.5 -12s49.5 -20 69.5 -36s36 -36.333 48 -61s18 -54 18 -88v-330zM259.999 85.9971c19.333 0 40.333 4.5 63 13.5s40.667 20.833 54 35.5v86
c-14.667 12.667 -32 21.5 -52 26.5s-39.667 7.5 -59 7.5c-16.667 0 -32.5 -1.66699 -47.5 -5s-28.167 -8.5 -39.5 -15.5s-20.5 -15.833 -27.5 -26.5s-10.5 -23.667 -10.5 -39c0 -28.667 9.33301 -49.667 28 -63s49 -20 91 -20zM400.999 747.997l-99 -133h-94l75 133h118z
" />
    <glyph glyph-name="uni00E2" unicode="&#xe2;" horiz-adv-x="555" 
d="M480 0l-84.001 -0.00292969l-18 61c-18.667 -28 -40 -46.333 -64 -55s-50.667 -13 -80 -13c-34 0 -63.333 5.16699 -88 15.5s-45 23.666 -61 39.999s-28 35 -36 56s-12 42.5 -12 64.5c0 22.667 4.5 44.334 13.5 65.001s22.5 38.834 40.5 54.501s40.667 28.167 68 37.5
s59.333 14 96 14c8.66699 0 18.667 -0.333008 30 -1s22.666 -2.16699 33.999 -4.5s22 -5.5 32 -9.5s18.333 -9 25 -15v20c0 19.333 -3.33301 35.5 -10 48.5s-15.5 23.5 -26.5 31.5s-24 13.667 -39 17s-31.167 5 -48.5 5c-27.333 -0.666992 -52.166 -4.66699 -74.499 -12
s-44.166 -17.666 -65.499 -30.999l-44 69c26.667 22.667 57.167 39.834 91.5 51.501s68.833 17.5 103.5 17.5c28 0 55.167 -4 81.5 -12s49.5 -20 69.5 -36s36 -36.333 48 -61s18 -54 18 -88v-330zM259.999 85.9971c19.333 0 40.333 4.5 63 13.5s40.667 20.833 54 35.5v86
c-14.667 12.667 -32 21.5 -52 26.5s-39.667 7.5 -59 7.5c-16.667 0 -32.5 -1.66699 -47.5 -5s-28.167 -8.5 -39.5 -15.5s-20.5 -15.833 -27.5 -26.5s-10.5 -23.667 -10.5 -39c0 -28.667 9.33301 -49.667 28 -63s49 -20 91 -20zM125.999 618.997l102 130h115l101 -130h-97
l-63 75l-63 -75h-95z" />
    <glyph glyph-name="uni00E3" unicode="&#xe3;" horiz-adv-x="555" 
d="M480 0l-84.001 -0.00292969l-18 61c-18.667 -28 -40 -46.333 -64 -55s-50.667 -13 -80 -13c-34 0 -63.333 5.16699 -88 15.5s-45 23.666 -61 39.999s-28 35 -36 56s-12 42.5 -12 64.5c0 22.667 4.5 44.334 13.5 65.001s22.5 38.834 40.5 54.501s40.667 28.167 68 37.5
s59.333 14 96 14c8.66699 0 18.667 -0.333008 30 -1s22.666 -2.16699 33.999 -4.5s22 -5.5 32 -9.5s18.333 -9 25 -15v20c0 19.333 -3.33301 35.5 -10 48.5s-15.5 23.5 -26.5 31.5s-24 13.667 -39 17s-31.167 5 -48.5 5c-27.333 -0.666992 -52.166 -4.66699 -74.499 -12
s-44.166 -17.666 -65.499 -30.999l-44 69c26.667 22.667 57.167 39.834 91.5 51.501s68.833 17.5 103.5 17.5c28 0 55.167 -4 81.5 -12s49.5 -20 69.5 -36s36 -36.333 48 -61s18 -54 18 -88v-330zM259.999 85.9971c19.333 0 40.333 4.5 63 13.5s40.667 20.833 54 35.5v86
c-14.667 12.667 -32 21.5 -52 26.5s-39.667 7.5 -59 7.5c-16.667 0 -32.5 -1.66699 -47.5 -5s-28.167 -8.5 -39.5 -15.5s-20.5 -15.833 -27.5 -26.5s-10.5 -23.667 -10.5 -39c0 -28.667 9.33301 -49.667 28 -63s49 -20 91 -20zM384.999 733.997l51.998 -41.998
c-13.333 -25.333 -28 -43.833 -44 -55.5s-33 -17.5 -51 -17.5c-25.333 0 -53.333 11 -84 33c-9.33301 6.66699 -18.666 10 -27.999 10s-18.166 -3.5 -26.499 -10.5s-18.166 -16.833 -29.499 -29.5l-57 45c13.333 22 29.166 40.333 47.499 55s40.833 22 67.5 22
c8.66699 -0.666992 17 -2.83398 25 -6.50098s16 -7.83398 24 -12.501l23.5 -13.5c7.66699 -4.33301 15.167 -7.5 22.5 -9.5c2 -0.666992 5.33301 -1 10 -1c16 0 32 11 48 33z" />
    <glyph glyph-name="uni00E4" unicode="&#xe4;" horiz-adv-x="555" 
d="M480 0l-84.001 -0.00292969l-18 61c-18.667 -28 -40 -46.333 -64 -55s-50.667 -13 -80 -13c-34 0 -63.333 5.16699 -88 15.5s-45 23.666 -61 39.999s-28 35 -36 56s-12 42.5 -12 64.5c0 22.667 4.5 44.334 13.5 65.001s22.5 38.834 40.5 54.501s40.667 28.167 68 37.5
s59.333 14 96 14c8.66699 0 18.667 -0.333008 30 -1s22.666 -2.16699 33.999 -4.5s22 -5.5 32 -9.5s18.333 -9 25 -15v20c0 19.333 -3.33301 35.5 -10 48.5s-15.5 23.5 -26.5 31.5s-24 13.667 -39 17s-31.167 5 -48.5 5c-27.333 -0.666992 -52.166 -4.66699 -74.499 -12
s-44.166 -17.666 -65.499 -30.999l-44 69c26.667 22.667 57.167 39.834 91.5 51.501s68.833 17.5 103.5 17.5c28 0 55.167 -4 81.5 -12s49.5 -20 69.5 -36s36 -36.333 48 -61s18 -54 18 -88v-330zM259.999 85.9971c19.333 0 40.333 4.5 63 13.5s40.667 20.833 54 35.5v86
c-14.667 12.667 -32 21.5 -52 26.5s-39.667 7.5 -59 7.5c-16.667 0 -32.5 -1.66699 -47.5 -5s-28.167 -8.5 -39.5 -15.5s-20.5 -15.833 -27.5 -26.5s-10.5 -23.667 -10.5 -39c0 -28.667 9.33301 -49.667 28 -63s49 -20 91 -20zM234.999 642.997h-104v95h104v-95z
M426.999 642.997h-106v95h106v-95z" />
    <glyph glyph-name="uni00E5" unicode="&#xe5;" horiz-adv-x="555" 
d="M480 0l-84.001 -0.00292969l-18 61c-18.667 -28 -40 -46.333 -64 -55s-50.667 -13 -80 -13c-34 0 -63.333 5.16699 -88 15.5s-45 23.666 -61 39.999s-28 35 -36 56s-12 42.5 -12 64.5c0 22.667 4.5 44.334 13.5 65.001s22.5 38.834 40.5 54.501s40.667 28.167 68 37.5
s59.333 14 96 14c8.66699 0 18.667 -0.333008 30 -1s22.666 -2.16699 33.999 -4.5s22 -5.5 32 -9.5s18.333 -9 25 -15v20c0 19.333 -3.33301 35.5 -10 48.5s-15.5 23.5 -26.5 31.5s-24 13.667 -39 17s-31.167 5 -48.5 5c-27.333 -0.666992 -52.166 -4.66699 -74.499 -12
s-44.166 -17.666 -65.499 -30.999l-44 69c26.667 22.667 57.167 39.834 91.5 51.501s68.833 17.5 103.5 17.5c28 0 55.167 -4 81.5 -12s49.5 -20 69.5 -36s36 -36.333 48 -61s18 -54 18 -88v-330zM259.999 85.9971c19.333 0 40.333 4.5 63 13.5s40.667 20.833 54 35.5v86
c-14.667 12.667 -32 21.5 -52 26.5s-39.667 7.5 -59 7.5c-16.667 0 -32.5 -1.66699 -47.5 -5s-28.167 -8.5 -39.5 -15.5s-20.5 -15.833 -27.5 -26.5s-10.5 -23.667 -10.5 -39c0 -28.667 9.33301 -49.667 28 -63s49 -20 91 -20zM274.999 581.997
c-27.333 0 -50.833 8 -70.5 24s-29.5 38 -29.5 66s9.83301 50 29.5 66s43.167 24 70.5 24c13.333 0 26 -2 38 -6s22.5 -10 31.5 -18s16.333 -17.5 22 -28.5s8.5 -23.5 8.5 -37.5s-2.83301 -26.5 -8.5 -37.5s-13 -20.5 -22 -28.5s-19.5 -14 -31.5 -18s-24.667 -6 -38 -6z
M233.999 671.997c0 -10 3.66699 -18.5 11 -25.5s17 -10.5 29 -10.5c12.667 0 22.667 3.66699 30 11s11 16 11 26c0 11.333 -3.66699 20.333 -11 27s-17.333 10 -30 10c-12 0 -21.667 -3.5 -29 -10.5s-11 -16.167 -11 -27.5z" />
    <glyph glyph-name="uni00E6" unicode="&#xe6;" horiz-adv-x="952" 
d="M635 85c24 0 47.9932 4.49902 71.9932 13.499s47 27.5 69 55.5l79 -48c-29.333 -40 -63.166 -69.333 -101.499 -88s-78.5 -28 -120.5 -28s-77.5 6 -106.5 18s-54.167 29.667 -75.5 53c-24.667 -22.667 -52.667 -40.167 -84 -52.5s-63.666 -18.5 -96.999 -18.5
c-38 0 -71.167 5 -99.5 15s-52 23.167 -71 39.5s-33.167 35.166 -42.5 56.499s-14 43 -14 65c0 32 7.33301 58.833 22 80.5s33.334 39.167 56.001 52.5s47.834 22.833 75.501 28.5s54.834 8.5 81.501 8.5c17.333 0 34.5 -1.83301 51.5 -5.5s33.5 -8.83398 49.5 -15.501
c0 21.333 -3.33301 39.5 -10 54.5s-15.667 27.167 -27 36.5s-24.5 16.333 -39.5 21s-30.833 7 -47.5 7c-24 0 -48.167 -4.5 -72.5 -13.5s-45.166 -21.5 -62.499 -37.5l-54 64c27.333 26.667 57.833 46 91.5 58s67.834 18 102.501 18c40 0 76.333 -8.83301 109 -26.5
s58.334 -42.834 77.001 -75.501c21.333 30 47.666 53.333 78.999 70s67.666 25.334 108.999 26.001c36.667 0 70.334 -6.16699 101.001 -18.5s57 -29.666 79 -51.999s39 -48.666 51 -78.999s18 -63.166 18 -98.499c0 -7.33301 -0.333008 -15.833 -1 -25.5
s-1.66699 -20.834 -3 -33.501h-394c1.33301 -16.667 5.83301 -32.667 13.5 -48s18.167 -28.666 31.5 -39.999s28.833 -20.333 46.5 -27s37.167 -10 58.5 -10zM268.993 84.999c10 0 21.0039 0.500977 33.0039 1.50098s24.333 3.16699 37 6.5s25.167 7.83301 37.5 13.5
s23.5 13.5 33.5 23.5c-8.66699 16 -14.834 33 -18.501 51s-6.16699 34.667 -7.5 50c-14.667 7.33301 -31.834 12.666 -51.501 15.999s-37.5 5 -53.5 5c-44 -0.666992 -77.333 -9.66699 -100 -27s-34 -36.333 -34 -57c0 -10 2.66699 -19.833 8 -29.5
s13.166 -18.5 23.499 -26.5s23.166 -14.5 38.499 -19.5s33.333 -7.5 54 -7.5zM485.997 299l289.999 0.00195312c-9.33301 42 -25.166 72.167 -47.499 90.5s-53.5 28.166 -93.5 29.499c-42.667 -0.666992 -76.167 -11.834 -100.5 -33.501s-40.5 -50.5 -48.5 -86.5z" />
    <glyph glyph-name="uni00E7" unicode="&#xe7;" horiz-adv-x="526" 
d="M482 435l-61.0068 -71.9971c-20 19.333 -41.167 33.166 -63.5 41.499s-44.166 12.5 -65.499 12.5c-19.333 0 -38.166 -3.33301 -56.499 -10s-34.666 -17 -48.999 -31s-26 -31.5 -35 -52.5s-13.5 -45.167 -13.5 -72.5c0 -22 3.33301 -42.833 10 -62.5s16.5 -37 29.5 -52
s29.167 -26.833 48.5 -35.5s41.666 -13 66.999 -13c21.333 0 43.333 5.16699 66 15.5s44.334 24.5 65.001 42.5l62 -71c-25.333 -25.333 -53.166 -45.333 -83.499 -60s-62.166 -23 -95.499 -25l-15 -31c31.333 -5.33301 52.5 -15.833 63.5 -31.5s14.5 -32.167 10.5 -49.5
c-4.66699 -24 -18 -42.167 -40 -54.5s-46.667 -18.5 -74 -18.5c-16 0 -31.833 2.16699 -47.5 6.5s-30.167 11.166 -43.5 20.499l21 43c22 -9.33301 42 -14 60 -14c11.333 0 20.833 2 28.5 6s11.834 10.333 12.501 19c1.33301 12 -2.83398 20.5 -12.501 25.5
s-19.5 7.5 -29.5 7.5c-5.33301 0 -10.166 -0.5 -14.499 -1.5s-7.83301 -2.83301 -10.5 -5.5l-17 16l35 66c-34 6 -63.667 17.167 -89 33.5s-46.5 36.166 -63.5 59.499s-29.833 49.166 -38.5 77.499s-13 57.833 -13 88.5c0 34.667 5.83301 67.834 17.5 99.501
s28.667 59.667 51 84s49.833 43.833 82.5 58.5s70 22 112 22c36 0 69.333 -6.66699 100 -20s60.334 -34 89.001 -62z" />
    <glyph glyph-name="uni00E8" unicode="&#xe8;" horiz-adv-x="599" 
d="M294 89c11.333 0 23.168 0.662109 35.501 1.99512s24.666 4.33301 36.999 9s24.5 11.334 36.5 20.001s23.333 20.334 34 35.001l77 -49c-30 -40 -63.667 -69 -101 -87s-77 -27 -119 -27c-43.333 0 -81.166 7.5 -113.499 22.5s-59.333 34.833 -81 59.5
s-37.834 52.834 -48.501 84.501s-16 63.834 -16 96.501s5.5 64.834 16.5 96.501s27.5 59.834 49.5 84.501s49 44.667 81 60s69 23 111 23c42.667 0 80.667 -8.5 114 -25.5s61 -39.833 83 -68.5s37.167 -61.834 45.5 -99.501s8.83301 -76.5 1.5 -116.5h-393
c3.33301 -16 9 -31.167 17 -45.5s18.333 -27 31 -38s27.5 -19.833 44.5 -26.5s36.167 -10 57.5 -10zM146.002 291.995l290 -0.00195312c-0.666992 22 -5.33398 41.333 -14.001 58s-19.667 30.334 -33 41.001s-28.5 18.667 -45.5 24s-34.5 8 -52.5 8
c-18.667 0 -36.667 -2.83301 -54 -8.5s-32.666 -14 -45.999 -25s-24 -24.667 -32 -41s-12.333 -35.166 -13 -56.499zM271.002 618.993l-99 133h118l75 -133h-94z" />
    <glyph glyph-name="uni00E9" unicode="&#xe9;" horiz-adv-x="599" 
d="M294 89c11.333 0 23.168 0.662109 35.501 1.99512s24.666 4.33301 36.999 9s24.5 11.334 36.5 20.001s23.333 20.334 34 35.001l77 -49c-30 -40 -63.667 -69 -101 -87s-77 -27 -119 -27c-43.333 0 -81.166 7.5 -113.499 22.5s-59.333 34.833 -81 59.5
s-37.834 52.834 -48.501 84.501s-16 63.834 -16 96.501s5.5 64.834 16.5 96.501s27.5 59.834 49.5 84.501s49 44.667 81 60s69 23 111 23c42.667 0 80.667 -8.5 114 -25.5s61 -39.833 83 -68.5s37.167 -61.834 45.5 -99.501s8.83301 -76.5 1.5 -116.5h-393
c3.33301 -16 9 -31.167 17 -45.5s18.333 -27 31 -38s27.5 -19.833 44.5 -26.5s36.167 -10 57.5 -10zM146.002 291.995l290 -0.00195312c-0.666992 22 -5.33398 41.333 -14.001 58s-19.667 30.334 -33 41.001s-28.5 18.667 -45.5 24s-34.5 8 -52.5 8
c-18.667 0 -36.667 -2.83301 -54 -8.5s-32.666 -14 -45.999 -25s-24 -24.667 -32 -41s-12.333 -35.166 -13 -56.499zM419.002 746.993l-99 -133h-94l75 133h118z" />
    <glyph glyph-name="uni00EA" unicode="&#xea;" horiz-adv-x="599" 
d="M294 89c11.333 0 23.168 0.662109 35.501 1.99512s24.666 4.33301 36.999 9s24.5 11.334 36.5 20.001s23.333 20.334 34 35.001l77 -49c-30 -40 -63.667 -69 -101 -87s-77 -27 -119 -27c-43.333 0 -81.166 7.5 -113.499 22.5s-59.333 34.833 -81 59.5
s-37.834 52.834 -48.501 84.501s-16 63.834 -16 96.501s5.5 64.834 16.5 96.501s27.5 59.834 49.5 84.501s49 44.667 81 60s69 23 111 23c42.667 0 80.667 -8.5 114 -25.5s61 -39.833 83 -68.5s37.167 -61.834 45.5 -99.501s8.83301 -76.5 1.5 -116.5h-393
c3.33301 -16 9 -31.167 17 -45.5s18.333 -27 31 -38s27.5 -19.833 44.5 -26.5s36.167 -10 57.5 -10zM146.002 291.995l290 -0.00195312c-0.666992 22 -5.33398 41.333 -14.001 58s-19.667 30.334 -33 41.001s-28.5 18.667 -45.5 24s-34.5 8 -52.5 8
c-18.667 0 -36.667 -2.83301 -54 -8.5s-32.666 -14 -45.999 -25s-24 -24.667 -32 -41s-12.333 -35.166 -13 -56.499zM140.002 618.993l102 130h115l101 -130h-97l-63 75l-63 -75h-95z" />
    <glyph glyph-name="uni00EB" unicode="&#xeb;" horiz-adv-x="599" 
d="M294 89c11.333 0 23.168 0.662109 35.501 1.99512s24.666 4.33301 36.999 9s24.5 11.334 36.5 20.001s23.333 20.334 34 35.001l77 -49c-30 -40 -63.667 -69 -101 -87s-77 -27 -119 -27c-43.333 0 -81.166 7.5 -113.499 22.5s-59.333 34.833 -81 59.5
s-37.834 52.834 -48.501 84.501s-16 63.834 -16 96.501s5.5 64.834 16.5 96.501s27.5 59.834 49.5 84.501s49 44.667 81 60s69 23 111 23c42.667 0 80.667 -8.5 114 -25.5s61 -39.833 83 -68.5s37.167 -61.834 45.5 -99.501s8.83301 -76.5 1.5 -116.5h-393
c3.33301 -16 9 -31.167 17 -45.5s18.333 -27 31 -38s27.5 -19.833 44.5 -26.5s36.167 -10 57.5 -10zM146.002 291.995l290 -0.00195312c-0.666992 22 -5.33398 41.333 -14.001 58s-19.667 30.334 -33 41.001s-28.5 18.667 -45.5 24s-34.5 8 -52.5 8
c-18.667 0 -36.667 -2.83301 -54 -8.5s-32.666 -14 -45.999 -25s-24 -24.667 -32 -41s-12.333 -35.166 -13 -56.499zM260.002 645.993h-104v96h104v-96zM450.002 645.993h-105v96h105v-96z" />
    <glyph glyph-name="uni00EC" unicode="&#xec;" horiz-adv-x="240" 
d="M171 0v512h-109v-512h109zM92 618h94l-75 133h-118z" />
    <glyph glyph-name="uni00ED" unicode="&#xed;" horiz-adv-x="240" 
d="M171 0v512h-109v-512h109zM240 750h-118l-75 -133h94z" />
    <glyph glyph-name="uni00EE" unicode="&#xee;" horiz-adv-x="240" 
d="M171 0v512h-109v-512h109zM-19 618h81l54 73l54 -73h84l-87 127h-99z" />
    <glyph glyph-name="uni00EF" unicode="&#xef;" horiz-adv-x="240" 
d="M171 0v512h-109v-512h109zM77 636v103h-96v-103h96zM254 636v103h-98v-103h98z" />
    <glyph glyph-name="uni00F0" unicode="&#xf0;" 
d="M243 497l-46.999 67.001l44 31c-21.333 8.66699 -40.5 14.334 -57.5 17.001s-38.833 4 -65.5 4l8 92c45.333 0 86.5 -4.66699 123.5 -14s69.833 -21 98.5 -35l93 58l44 -67l-63 -40c46 -40 79.167 -92.167 99.5 -156.5s29.166 -136.833 26.499 -217.5
c-0.666992 -31.333 -6.16699 -61.833 -16.5 -91.5s-26 -56 -47 -79s-47.5 -41.5 -79.5 -55.5s-69.667 -21 -113 -21s-81.166 7.16699 -113.499 21.5s-59 33.166 -80 56.499s-36.667 49.666 -47 78.999s-15.166 59 -14.499 89c0.666992 29.333 6.5 58.166 17.5 86.499
s27.167 53.5 48.5 75.5s47.666 39.667 78.999 53s68 20 110 20c23.333 -0.666992 47 -6.16699 71 -16.5s45 -25.166 63 -44.499c-7.33301 30 -19.833 57.833 -37.5 83.5s-37.834 46.167 -60.501 61.5c-10 -6 -18.167 -11.333 -24.5 -16l-18 -13l-18 -12.5zM291.001 370.001
c-24 0 -44.999 -4.00195 -62.999 -12.002s-32.833 -18.333 -44.5 -31s-20.5 -27.167 -26.5 -43.5s-9.33301 -32.833 -10 -49.5c0 -17.333 2.66699 -34.5 8 -51.5s13.833 -32.333 25.5 -46s26.667 -24.667 45 -33s40.166 -12.5 65.499 -12.5s47.5 4.33301 66.5 13
s34.5 19.834 46.5 33.501s21 29 27 46s8.66699 34.167 8 51.5c-0.666992 16.667 -4.16699 33.167 -10.5 49.5s-15.5 30.833 -27.5 43.5s-27.167 22.834 -45.5 30.501s-39.833 11.5 -64.5 11.5z" />
    <glyph glyph-name="uni00F1" unicode="&#xf1;" horiz-adv-x="607" 
d="M70 507l90.001 0.000976562l14 -62c8 12.667 17.5 23.5 28.5 32.5s22.5 16.167 34.5 21.5s23.667 9.33301 35 12s21.333 4 30 4c71.333 0 127.5 -19 168.5 -57s61.5 -92.333 61.5 -163v-295h-109v295c0 20 -3.5 37.667 -10.5 53s-16.5 28.166 -28.5 38.499
s-25.667 18.333 -41 24s-31.333 8.5 -48 8.5c-20.667 0 -41.334 -4.33301 -62.001 -13s-38.667 -22.667 -54 -42v-364h-109v507zM408.001 746.001l53.998 -42.999c-13.333 -26 -28.166 -45 -44.499 -57s-34.166 -18 -53.499 -18c-26.667 0 -55.334 11.333 -86.001 34
c-9.33301 6.66699 -18.666 10 -27.999 10s-18.5 -3.5 -27.5 -10.5s-19.167 -17.167 -30.5 -30.5l-58 46c13.333 22 29.5 40.833 48.5 56.5s42.167 23.5 69.5 23.5c8.66699 -0.666992 17.167 -2.83398 25.5 -6.50098s16.5 -8 24.5 -13l23.5 -14.5
c7.66699 -4.66699 15.5 -8 23.5 -10c2 -0.666992 5.33301 -1 10 -1c16.667 0 33 11.333 49 34z" />
    <glyph glyph-name="uni00F2" unicode="&#xf2;" 
d="M560 253c0 -36.667 -6.5 -71 -19.5 -103s-31.333 -60 -55 -84s-51.667 -42.833 -84 -56.5s-67.5 -20.5 -105.5 -20.5s-73.167 6.83301 -105.5 20.5s-60.333 32.5 -84 56.5s-42.167 52 -55.5 84s-20 66.333 -20 103c0 37.333 6.66699 72 20 104s31.833 59.667 55.5 83
s51.667 41.833 84 55.5s67.5 20.5 105.5 20.5s73.167 -6.83301 105.5 -20.5s60.333 -32.167 84 -55.5s42 -51 55 -83s19.5 -66.667 19.5 -104zM140 253c0 -28 4.66699 -52.333 14 -73s21.333 -38 36 -52s31.334 -24.333 50.001 -31s37.334 -10 56.001 -10
c19.333 0 38.333 3.33301 57 10s35.167 17 49.5 31s26 31.333 35 52s13.5 45 13.5 73s-4.5 52.333 -13.5 73s-20.667 37.667 -35 51s-30.833 23.333 -49.5 30s-37.667 10 -57 10c-18.667 0 -37.334 -3.33301 -56.001 -10s-35.334 -16.667 -50.001 -30
s-26.667 -30.333 -36 -51s-14 -45 -14 -73zM273 617l-99 133h118l75 -133h-94z" />
    <glyph glyph-name="uni00F3" unicode="&#xf3;" 
d="M560 253c0 -36.667 -6.5 -71 -19.5 -103s-31.333 -60 -55 -84s-51.667 -42.833 -84 -56.5s-67.5 -20.5 -105.5 -20.5s-73.167 6.83301 -105.5 20.5s-60.333 32.5 -84 56.5s-42.167 52 -55.5 84s-20 66.333 -20 103c0 37.333 6.66699 72 20 104s31.833 59.667 55.5 83
s51.667 41.833 84 55.5s67.5 20.5 105.5 20.5s73.167 -6.83301 105.5 -20.5s60.333 -32.167 84 -55.5s42 -51 55 -83s19.5 -66.667 19.5 -104zM140 253c0 -28 4.66699 -52.333 14 -73s21.333 -38 36 -52s31.334 -24.333 50.001 -31s37.334 -10 56.001 -10
c19.333 0 38.333 3.33301 57 10s35.167 17 49.5 31s26 31.333 35 52s13.5 45 13.5 73s-4.5 52.333 -13.5 73s-20.667 37.667 -35 51s-30.833 23.333 -49.5 30s-37.667 10 -57 10c-18.667 0 -37.334 -3.33301 -56.001 -10s-35.334 -16.667 -50.001 -30
s-26.667 -30.333 -36 -51s-14 -45 -14 -73zM432 748l-99 -133h-94l75 133h118z" />
    <glyph glyph-name="uni00F4" unicode="&#xf4;" 
d="M560 253c0 -36.667 -6.5 -71 -19.5 -103s-31.333 -60 -55 -84s-51.667 -42.833 -84 -56.5s-67.5 -20.5 -105.5 -20.5s-73.167 6.83301 -105.5 20.5s-60.333 32.5 -84 56.5s-42.167 52 -55.5 84s-20 66.333 -20 103c0 37.333 6.66699 72 20 104s31.833 59.667 55.5 83
s51.667 41.833 84 55.5s67.5 20.5 105.5 20.5s73.167 -6.83301 105.5 -20.5s60.333 -32.167 84 -55.5s42 -51 55 -83s19.5 -66.667 19.5 -104zM140 253c0 -28 4.66699 -52.333 14 -73s21.333 -38 36 -52s31.334 -24.333 50.001 -31s37.334 -10 56.001 -10
c19.333 0 38.333 3.33301 57 10s35.167 17 49.5 31s26 31.333 35 52s13.5 45 13.5 73s-4.5 52.333 -13.5 73s-20.667 37.667 -35 51s-30.833 23.333 -49.5 30s-37.667 10 -57 10c-18.667 0 -37.334 -3.33301 -56.001 -10s-35.334 -16.667 -50.001 -30
s-26.667 -30.333 -36 -51s-14 -45 -14 -73zM141 615l102 130h115l101 -130h-97l-63 75l-63 -75h-95z" />
    <glyph glyph-name="uni00F5" unicode="&#xf5;" 
d="M560 253c0 -36.667 -6.5 -71 -19.5 -103s-31.333 -60 -55 -84s-51.667 -42.833 -84 -56.5s-67.5 -20.5 -105.5 -20.5s-73.167 6.83301 -105.5 20.5s-60.333 32.5 -84 56.5s-42.167 52 -55.5 84s-20 66.333 -20 103c0 37.333 6.66699 72 20 104s31.833 59.667 55.5 83
s51.667 41.833 84 55.5s67.5 20.5 105.5 20.5s73.167 -6.83301 105.5 -20.5s60.333 -32.167 84 -55.5s42 -51 55 -83s19.5 -66.667 19.5 -104zM140 253c0 -28 4.66699 -52.333 14 -73s21.333 -38 36 -52s31.334 -24.333 50.001 -31s37.334 -10 56.001 -10
c19.333 0 38.333 3.33301 57 10s35.167 17 49.5 31s26 31.333 35 52s13.5 45 13.5 73s-4.5 52.333 -13.5 73s-20.667 37.667 -35 51s-30.833 23.333 -49.5 30s-37.667 10 -57 10c-18.667 0 -37.334 -3.33301 -56.001 -10s-35.334 -16.667 -50.001 -30
s-26.667 -30.333 -36 -51s-14 -45 -14 -73zM407 733l53.998 -42.999c-13.333 -26 -28.166 -45 -44.499 -57s-34.166 -18 -53.499 -18c-26.667 0 -55.334 11.333 -86.001 34c-9.33301 6.66699 -18.666 10 -27.999 10s-18.5 -3.5 -27.5 -10.5s-19.167 -17.167 -30.5 -30.5
l-58 46c13.333 22 29.5 40.833 48.5 56.5s42.167 23.5 69.5 23.5c8.66699 -0.666992 17.167 -2.83398 25.5 -6.50098s16.5 -8 24.5 -13l23.5 -14.5c7.66699 -4.66699 15.5 -8 23.5 -10c2 -0.666992 5.33301 -1 10 -1c16.667 0 33 11.333 49 34z" />
    <glyph glyph-name="uni00F6" unicode="&#xf6;" 
d="M560 253c0 -36.667 -6.5 -71 -19.5 -103s-31.333 -60 -55 -84s-51.667 -42.833 -84 -56.5s-67.5 -20.5 -105.5 -20.5s-73.167 6.83301 -105.5 20.5s-60.333 32.5 -84 56.5s-42.167 52 -55.5 84s-20 66.333 -20 103c0 37.333 6.66699 72 20 104s31.833 59.667 55.5 83
s51.667 41.833 84 55.5s67.5 20.5 105.5 20.5s73.167 -6.83301 105.5 -20.5s60.333 -32.167 84 -55.5s42 -51 55 -83s19.5 -66.667 19.5 -104zM140 253c0 -28 4.66699 -52.333 14 -73s21.333 -38 36 -52s31.334 -24.333 50.001 -31s37.334 -10 56.001 -10
c19.333 0 38.333 3.33301 57 10s35.167 17 49.5 31s26 31.333 35 52s13.5 45 13.5 73s-4.5 52.333 -13.5 73s-20.667 37.667 -35 51s-30.833 23.333 -49.5 30s-37.667 10 -57 10c-18.667 0 -37.334 -3.33301 -56.001 -10s-35.334 -16.667 -50.001 -30
s-26.667 -30.333 -36 -51s-14 -45 -14 -73zM259 651h-104v96h104v-96zM449 651h-105v96h105v-96z" />
    <glyph glyph-name="uni00F7" unicode="&#xf7;" horiz-adv-x="615" 
d="M238 92h105v105h-105v-105zM238 457h105v105h-105v-105zM58 275h476v103h-476v-103z" />
    <glyph glyph-name="uni00F8" unicode="&#xf8;" horiz-adv-x="605" 
d="M553 253c0 -36.667 -6.5 -70.998 -19.5 -102.998s-31 -60 -54 -84s-50.5 -42.833 -82.5 -56.5s-67 -20.5 -105 -20.5c-36.667 0 -70 6 -100 18l-20.5 -32c-8.33301 -12.667 -14.833 -23 -19.5 -31h-103l68 110c-26 24.667 -46.833 54.167 -62.5 88.5
s-23.5 71.166 -23.5 110.499c0 37.333 6.5 72 19.5 104s31 59.667 54 83s50.5 41.833 82.5 55.5s67 20.5 105 20.5c36 0 69 -6 99 -18l39 61h103l-66 -108c27.333 -24 48.5 -52.833 63.5 -86.5s22.5 -70.834 22.5 -111.501zM135 253.002
c0 -23.333 3.83301 -44.166 11.5 -62.499s16.5 -34.166 26.5 -47.499l166 268c-8 2 -16 3.66699 -24 5s-16 2 -24 2c-20 0 -39.333 -3.33301 -58 -10s-35.167 -16.834 -49.5 -30.501s-26 -30.834 -35 -51.501s-13.5 -45 -13.5 -73zM448 253.002
c0 23.333 -3.66895 44 -11.002 62s-15.666 33.667 -24.999 47l-83.5 -135l-83.5 -137c15.333 -4 31 -6 47 -6c19.333 0 38.333 3.5 57 10.5s35.334 17.667 50.001 32s26.5 32 35.5 53s13.5 45.5 13.5 73.5z" />
    <glyph glyph-name="uni00F9" unicode="&#xf9;" horiz-adv-x="602" 
d="M527 0h-90.0029l-14 56c-8 -12.667 -17.5 -23.167 -28.5 -31.5s-22.5 -14.833 -34.5 -19.5s-23.667 -8 -35 -10s-21.333 -3 -30 -3c-32 0 -62 5.33301 -90 16s-52.333 26 -73 46s-37 44.167 -49 72.5s-18 59.833 -18 94.5v286h109v-286
c0 -20.667 3.83301 -39.167 11.5 -55.5s17.834 -30.333 30.501 -42s27.334 -20.5 44.001 -26.5s33.667 -9 51 -9c19.333 0 38.333 3.83301 57 11.5s35.334 20.167 50.001 37.5v370h109v-507zM276.997 614l-99 133h118l75 -133h-94z" />
    <glyph glyph-name="uni00FA" unicode="&#xfa;" horiz-adv-x="602" 
d="M527 0h-90.0029l-14 56c-8 -12.667 -17.5 -23.167 -28.5 -31.5s-22.5 -14.833 -34.5 -19.5s-23.667 -8 -35 -10s-21.333 -3 -30 -3c-32 0 -62 5.33301 -90 16s-52.333 26 -73 46s-37 44.167 -49 72.5s-18 59.833 -18 94.5v286h109v-286
c0 -20.667 3.83301 -39.167 11.5 -55.5s17.834 -30.333 30.501 -42s27.334 -20.5 44.001 -26.5s33.667 -9 51 -9c19.333 0 38.333 3.83301 57 11.5s35.334 20.167 50.001 37.5v370h109v-507zM421.997 748l-99 -133h-94l75 133h118z" />
    <glyph glyph-name="uni00FB" unicode="&#xfb;" horiz-adv-x="602" 
d="M527 0h-90.0029l-14 56c-8 -12.667 -17.5 -23.167 -28.5 -31.5s-22.5 -14.833 -34.5 -19.5s-23.667 -8 -35 -10s-21.333 -3 -30 -3c-32 0 -62 5.33301 -90 16s-52.333 26 -73 46s-37 44.167 -49 72.5s-18 59.833 -18 94.5v286h109v-286
c0 -20.667 3.83301 -39.167 11.5 -55.5s17.834 -30.333 30.501 -42s27.334 -20.5 44.001 -26.5s33.667 -9 51 -9c19.333 0 38.333 3.83301 57 11.5s35.334 20.167 50.001 37.5v370h109v-507zM141.997 620l102 130h115l101 -130h-97l-63 75l-63 -75h-95z" />
    <glyph glyph-name="uni00FC" unicode="&#xfc;" horiz-adv-x="602" 
d="M527 0h-90.0029l-14 56c-8 -12.667 -17.5 -23.167 -28.5 -31.5s-22.5 -14.833 -34.5 -19.5s-23.667 -8 -35 -10s-21.333 -3 -30 -3c-32 0 -62 5.33301 -90 16s-52.333 26 -73 46s-37 44.167 -49 72.5s-18 59.833 -18 94.5v286h109v-286
c0 -20.667 3.83301 -39.167 11.5 -55.5s17.834 -30.333 30.501 -42s27.334 -20.5 44.001 -26.5s33.667 -9 51 -9c19.333 0 38.333 3.83301 57 11.5s35.334 20.167 50.001 37.5v370h109v-507zM264.997 645h-104v96h104v-96zM454.997 645h-105v96h105v-96z" />
    <glyph glyph-name="uni00FD" unicode="&#xfd;" horiz-adv-x="510" 
d="M73 -191l1 86.999c3.33301 -0.666992 6.5 -1 9.5 -1h9.5c24 0 41.333 4.83301 52 14.5s18.334 20.167 23.001 31.5l31 76l-204 490h117l144 -364l129 364h117l-235 -604c-15.333 -37.333 -36.666 -62.666 -63.999 -75.999s-57.333 -20 -90 -20
c-6.66699 0 -13.334 0.166992 -20.001 0.5s-13.334 0.833008 -20.001 1.5zM381 744.999l-99 -133h-94l75 133h118z" />
    <glyph glyph-name="uni00FE" unicode="&#xfe;" horiz-adv-x="582" 
d="M68 -193v891.997h104v-233l1 -2c16 18.667 34.5 31.167 55.5 37.5s44.167 9.5 69.5 9.5c28.667 0 56.667 -5.5 84 -16.5s51.833 -27.333 73.5 -49s39 -48.667 52 -81s19.5 -70.166 19.5 -113.499c0 -34 -6 -66.833 -18 -98.5s-28.5 -59.5 -49.5 -83.5
s-46.167 -43 -75.5 -57s-61 -20.667 -95 -20c-20.667 0.666992 -41 3.83398 -61 9.50098s-38.667 18.834 -56 39.501v-234h-104zM281 87.9971c22 0 41.665 4.33496 58.998 13.002s32 20.5 44 35.5s21.167 32.667 27.5 53s9.5 41.833 9.5 64.5c0 30 -4.33301 55.667 -13 77
s-20.167 38.666 -34.5 51.999s-30.666 23.166 -48.999 29.499s-37.166 9.5 -56.499 9.5c-16 0 -32.5 -3.16699 -49.5 -9.5s-31.833 -17.5 -44.5 -33.5v-236c12 -22.667 27.833 -37.5 47.5 -44.5s39.5 -10.5 59.5 -10.5z" />
    <glyph glyph-name="uni00FF" unicode="&#xff;" horiz-adv-x="510" 
d="M73 -191l1 86.999c3.33301 -0.666992 6.5 -1 9.5 -1h9.5c24 0 41.333 4.83301 52 14.5s18.334 20.167 23.001 31.5l31 76l-204 490h117l144 -364l129 364h117l-235 -604c-15.333 -37.333 -36.666 -62.666 -63.999 -75.999s-57.333 -20 -90 -20
c-6.66699 0 -13.334 0.166992 -20.001 0.5s-13.334 0.833008 -20.001 1.5zM213 640.999h-104v96h104v-96zM403 640.999h-105v96h105v-96z" />
    <glyph glyph-name="uni0100" unicode="&#x100;" horiz-adv-x="636" 
d="M-1 0h121l75 213h233l78 -213h120l-254 705h-122zM168 756h275v92h-275v-92zM229 313l62 200l16 72h5l16 -72l65 -200h-164z" />
    <glyph glyph-name="uni0101" unicode="&#x101;" horiz-adv-x="556" 
d="M480 0l-86.001 0.00195312l-16 52c-21.333 -24 -43.333 -40 -66 -48s-48.667 -12 -78 -12c-46 0 -84.167 8.66699 -114.5 26s-52.666 38.833 -66.999 64.5s-20.833 53.667 -19.5 84s11.166 58.333 29.499 84s44.833 47.167 79.5 64.5s77.667 26 129 26
c16 0 33.833 -2.66699 53.5 -8s35.834 -12.666 48.501 -21.999c0 40 -10.333 69.833 -31 89.5s-50.667 29.5 -90 29.5c-27.333 -0.666992 -52.166 -4.33398 -74.499 -11.001s-44.166 -16.667 -65.499 -30l-43 65c26.667 21.333 56.667 37.833 90 49.5s67 17.5 101 17.5
c28.667 0 56.167 -4.16699 82.5 -12.5s49.666 -21.333 69.999 -39s36.666 -39.834 48.999 -66.501s18.5 -58.334 18.5 -95.001v-308zM259.999 92.002c19.333 0 39.832 3.50098 61.499 10.501s39.167 17.833 52.5 32.5v86c-16 11.333 -32.667 19 -50 23s-34.666 6 -51.999 6
c-42 -0.666992 -75 -8.83398 -99 -24.501s-36 -34.5 -36 -56.5c0 -24 10 -42.833 30 -56.5s51 -20.5 93 -20.5zM130.998 597.003v76h265v-76h-265z" />
    <glyph glyph-name="uni0102" unicode="&#x102;" horiz-adv-x="636" 
d="M-1 0l251 705h122l254 -705h-120l-77 213h-235l-74 -213h-121zM228 313h166l-66 200l-16 72h-5l-16 -72zM310 751c-18 0 -35.167 2.50195 -51.5 7.50195s-30.5 12.667 -42.5 23s-21.5 23.666 -28.5 39.999s-10.5 35.5 -10.5 57.5h76
c0 -18.667 6.16699 -32.334 18.5 -41.001s25.5 -13 39.5 -13c15.333 0 28.5 4.16699 39.5 12.5s16.5 22.166 16.5 41.499h75c0 -22 -3.5 -41.167 -10.5 -57.5s-16.5 -29.666 -28.5 -39.999s-26 -18 -42 -23s-33 -7.5 -51 -7.5z" />
    <glyph glyph-name="uni0103" unicode="&#x103;" horiz-adv-x="556" 
d="M480 0l-86.001 0.00195312l-16 52c-21.333 -24 -43.333 -40 -66 -48s-48.667 -12 -78 -12c-46 0 -84.167 8.66699 -114.5 26s-52.666 38.833 -66.999 64.5s-20.833 53.667 -19.5 84s11.166 58.333 29.499 84s44.833 47.167 79.5 64.5s77.667 26 129 26
c16 0 33.833 -2.66699 53.5 -8s35.834 -12.666 48.501 -21.999c0 40 -10.333 69.833 -31 89.5s-50.667 29.5 -90 29.5c-27.333 -0.666992 -52.166 -4.33398 -74.499 -11.001s-44.166 -16.667 -65.499 -30l-43 65c26.667 21.333 56.667 37.833 90 49.5s67 17.5 101 17.5
c28.667 0 56.167 -4.16699 82.5 -12.5s49.666 -21.333 69.999 -39s36.666 -39.834 48.999 -66.501s18.5 -58.334 18.5 -95.001v-308zM259.999 92.002c19.333 0 39.832 3.50098 61.499 10.501s39.167 17.833 52.5 32.5v86c-16 11.333 -32.667 19 -50 23s-34.666 6 -51.999 6
c-42 -0.666992 -75 -8.83398 -99 -24.501s-36 -34.5 -36 -56.5c0 -24 10 -42.833 30 -56.5s51 -20.5 93 -20.5zM258.998 573.003c-18 0 -35.167 2.33301 -51.5 7s-30.5 12 -42.5 22s-21.5 22.833 -28.5 38.5s-10.5 34.5 -10.5 56.5h76c0 -18.667 6.16699 -31.667 18.5 -39
s25.5 -11 39.5 -11c15.333 0 28.5 3.5 39.5 10.5s16.5 20.167 16.5 39.5h75c0 -22 -3.5 -40.833 -10.5 -56.5s-16.5 -28.5 -28.5 -38.5s-26 -17.333 -42 -22s-33 -7 -51 -7z" />
    <glyph glyph-name="uni0104" unicode="&#x104;" horiz-adv-x="636" 
d="M-1 0l250.999 705.002h122l254 -705c-17.333 -3.33301 -32.333 -11.333 -45 -24s-20.5 -25.834 -23.5 -39.501s0.166992 -26 9.5 -37s27 -16.833 53 -17.5l-40 -68c-14 0 -28.333 1.16699 -43 3.5s-28.167 6.5 -40.5 12.5s-23 14.167 -32 24.5s-14.833 23.5 -17.5 39.5
c-2 9.33301 -1.66699 19.166 1 29.499s6.83398 20.333 12.501 30s12.5 18.667 20.5 27s16 15.5 24 21.5l-77 211h-233l-75 -213h-121zM228.999 313.002h164l-65 200l-16 72h-5l-16 -72z" />
    <glyph glyph-name="uni0105" unicode="&#x105;" horiz-adv-x="556" 
d="M480 0c-16.667 -6 -30.334 -14.9971 -41.001 -26.9971s-17 -23.667 -19 -35s1 -21.333 9 -30s22 -13 42 -13c3.33301 0 7 0.166992 11 0.5s8.33301 0.833008 13 1.5l-39 -60c-12.667 0 -25.834 0.833008 -39.501 2.5s-26.5 5 -38.5 10s-22.167 12.167 -30.5 21.5
s-13.833 21.666 -16.5 36.999c-3.33301 19.333 1.83398 37.5 15.501 54.5s29.167 29.833 46.5 38.5l-15 51c-21.333 -24 -43.333 -40 -66 -48s-48.667 -12 -78 -12c-46 0 -84.167 8.66699 -114.5 26s-52.666 38.833 -66.999 64.5s-20.833 53.667 -19.5 84
s11.166 58.333 29.499 84s44.833 47.167 79.5 64.5s77.667 26 129 26c16 0 33.833 -2.66699 53.5 -8s35.834 -12.666 48.501 -21.999c0 40 -10.333 69.833 -31 89.5s-50.667 29.5 -90 29.5c-27.333 -0.666992 -52.166 -4.33398 -74.499 -11.001s-44.166 -16.667 -65.499 -30
l-43 65c26.667 21.333 56.667 37.833 90 49.5s67 17.5 101 17.5c28.667 0 56.167 -4.16699 82.5 -12.5s49.666 -21.333 69.999 -39s36.666 -39.834 48.999 -66.501s18.5 -58.334 18.5 -95.001v-308zM260 92.0029c19.333 0 39.832 3.50098 61.499 10.501
s39.167 17.833 52.5 32.5v86c-16 11.333 -32.667 19 -50 23s-34.666 6 -51.999 6c-42 -0.666992 -75 -8.83398 -99 -24.501s-36 -34.5 -36 -56.5c0 -24 10 -42.833 30 -56.5s51 -20.5 93 -20.5z" />
    <glyph glyph-name="uni0106" unicode="&#x106;" horiz-adv-x="729" 
d="M663 598l-71.9951 -66.999c-52 54.667 -116 82 -192 82c-40 -0.666992 -75.167 -8.83398 -105.5 -24.501s-55.5 -36 -75.5 -61s-35.167 -53.167 -45.5 -84.5s-15.5 -63 -15.5 -95s5.16699 -63.333 15.5 -94s25.666 -58.334 45.999 -83.001s45.666 -44.5 75.999 -59.5
s65.166 -22.5 104.499 -22.5c36 0 72.667 8.33301 110 25s69.666 41.334 96.999 74.001l80 -62c-38 -46 -80.833 -81 -128.5 -105s-100.5 -36 -158.5 -36s-109.333 10.333 -154 31s-82 48 -112 82s-52.667 72.833 -68 116.5s-23 88.167 -23 133.5s7.66699 90 23 134
s38 83.333 68 118s67.333 62.667 112 84s96 32 154 32c52 0 100.167 -9 144.5 -27s84.166 -48.333 119.499 -91zM529.005 898.001l-99 -133h-94l75 133h118z" />
    <glyph glyph-name="uni0107" unicode="&#x107;" horiz-adv-x="527" 
d="M482 435l-61.0039 -72.001c-20 19.333 -41.167 33.166 -63.5 41.499s-44.166 12.5 -65.499 12.5c-19.333 0 -38.166 -3.33301 -56.499 -10s-34.666 -17 -48.999 -31s-26 -31.5 -35 -52.5s-13.5 -45.167 -13.5 -72.5c0 -22 3.33301 -42.833 10 -62.5s16.5 -37 29.5 -52
s29.167 -26.833 48.5 -35.5s41.666 -13 66.999 -13c21.333 0 43.333 5.16699 66 15.5s44.334 24.5 65.001 42.5l62 -71c-27.333 -27.333 -57.333 -48.5 -90 -63.5s-67 -22.5 -103 -22.5c-43.333 0 -81.333 7.33301 -114 22s-60 34.167 -82 58.5s-38.667 52.333 -50 84
s-17 64.834 -17 99.501s5.83301 67.834 17.5 99.501s28.667 59.667 51 84s49.833 43.833 82.5 58.5s70 22 112 22c36 0 69.333 -6.66699 100 -20s60.334 -34 89.001 -62zM411.996 697.999l-99 -133h-94l75 133h118z" />
    <glyph glyph-name="uni0108" unicode="&#x108;" horiz-adv-x="729" 
d="M663 598l-71.9951 -66.999c-52 54.667 -116 82 -192 82c-40 -0.666992 -75.167 -8.83398 -105.5 -24.501s-55.5 -36 -75.5 -61s-35.167 -53.167 -45.5 -84.5s-15.5 -63 -15.5 -95s5.16699 -63.333 15.5 -94s25.666 -58.334 45.999 -83.001s45.666 -44.5 75.999 -59.5
s65.166 -22.5 104.499 -22.5c36 0 72.667 8.33301 110 25s69.666 41.334 96.999 74.001l80 -62c-38 -46 -80.833 -81 -128.5 -105s-100.5 -36 -158.5 -36s-109.333 10.333 -154 31s-82 48 -112 82s-52.667 72.833 -68 116.5s-23 88.167 -23 133.5s7.66699 90 23 134
s38 83.333 68 118s67.333 62.667 112 84s96 32 154 32c52 0 100.167 -9 144.5 -27s84.166 -48.333 119.499 -91zM235.005 756.001l102 130h115l101 -130h-97l-63 75l-63 -75h-95z" />
    <glyph glyph-name="uni0109" unicode="&#x109;" horiz-adv-x="527" 
d="M482 435l-61.0039 -72.001c-20 19.333 -41.167 33.166 -63.5 41.499s-44.166 12.5 -65.499 12.5c-19.333 0 -38.166 -3.33301 -56.499 -10s-34.666 -17 -48.999 -31s-26 -31.5 -35 -52.5s-13.5 -45.167 -13.5 -72.5c0 -22 3.33301 -42.833 10 -62.5s16.5 -37 29.5 -52
s29.167 -26.833 48.5 -35.5s41.666 -13 66.999 -13c21.333 0 43.333 5.16699 66 15.5s44.334 24.5 65.001 42.5l62 -71c-27.333 -27.333 -57.333 -48.5 -90 -63.5s-67 -22.5 -103 -22.5c-43.333 0 -81.333 7.33301 -114 22s-60 34.167 -82 58.5s-38.667 52.333 -50 84
s-17 64.834 -17 99.501s5.83301 67.834 17.5 99.501s28.667 59.667 51 84s49.833 43.833 82.5 58.5s70 22 112 22c36 0 69.333 -6.66699 100 -20s60.334 -34 89.001 -62zM126.996 564.999l102 130h115l101 -130h-97l-63 75l-63 -75h-95z" />
    <glyph glyph-name="uni010A" unicode="&#x10a;" horiz-adv-x="729" 
d="M663 598l-71.9951 -66.999c-52 54.667 -116 82 -192 82c-40 -0.666992 -75.167 -8.83398 -105.5 -24.501s-55.5 -36 -75.5 -61s-35.167 -53.167 -45.5 -84.5s-15.5 -63 -15.5 -95s5.16699 -63.333 15.5 -94s25.666 -58.334 45.999 -83.001s45.666 -44.5 75.999 -59.5
s65.166 -22.5 104.499 -22.5c36 0 72.667 8.33301 110 25s69.666 41.334 96.999 74.001l80 -62c-38 -46 -80.833 -81 -128.5 -105s-100.5 -36 -158.5 -36s-109.333 10.333 -154 31s-82 48 -112 82s-52.667 72.833 -68 116.5s-23 88.167 -23 133.5s7.66699 90 23 134
s38 83.333 68 118s67.333 62.667 112 84s96 32 154 32c52 0 100.167 -9 144.5 -27s84.166 -48.333 119.499 -91zM345.005 763.001v98h98v-98h-98z" />
    <glyph glyph-name="uni010B" unicode="&#x10b;" horiz-adv-x="527" 
d="M482 435l-61.0039 -72.001c-20 19.333 -41.167 33.166 -63.5 41.499s-44.166 12.5 -65.499 12.5c-19.333 0 -38.166 -3.33301 -56.499 -10s-34.666 -17 -48.999 -31s-26 -31.5 -35 -52.5s-13.5 -45.167 -13.5 -72.5c0 -22 3.33301 -42.833 10 -62.5s16.5 -37 29.5 -52
s29.167 -26.833 48.5 -35.5s41.666 -13 66.999 -13c21.333 0 43.333 5.16699 66 15.5s44.334 24.5 65.001 42.5l62 -71c-27.333 -27.333 -57.333 -48.5 -90 -63.5s-67 -22.5 -103 -22.5c-43.333 0 -81.333 7.33301 -114 22s-60 34.167 -82 58.5s-38.667 52.333 -50 84
s-17 64.834 -17 99.501s5.83301 67.834 17.5 99.501s28.667 59.667 51 84s49.833 43.833 82.5 58.5s70 22 112 22c36 0 69.333 -6.66699 100 -20s60.334 -34 89.001 -62zM238.996 583.999v98h98v-98h-98z" />
    <glyph glyph-name="uni010C" unicode="&#x10c;" horiz-adv-x="729" 
d="M663 598l-71.9951 -66.999c-52 54.667 -116 82 -192 82c-40 -0.666992 -75.167 -8.83398 -105.5 -24.501s-55.5 -36 -75.5 -61s-35.167 -53.167 -45.5 -84.5s-15.5 -63 -15.5 -95s5.16699 -63.333 15.5 -94s25.666 -58.334 45.999 -83.001s45.666 -44.5 75.999 -59.5
s65.166 -22.5 104.499 -22.5c36 0 72.667 8.33301 110 25s69.666 41.334 96.999 74.001l80 -62c-38 -46 -80.833 -81 -128.5 -105s-100.5 -36 -158.5 -36s-109.333 10.333 -154 31s-82 48 -112 82s-52.667 72.833 -68 116.5s-23 88.167 -23 133.5s7.66699 90 23 134
s38 83.333 68 118s67.333 62.667 112 84s96 32 154 32c52 0 100.167 -9 144.5 -27s84.166 -48.333 119.499 -91zM555.005 891.001l-102 -130h-115l-101 130h97l63 -75l63 75h95z" />
    <glyph glyph-name="uni010D" unicode="&#x10d;" horiz-adv-x="527" 
d="M482 435l-61.0039 -72.001c-20 19.333 -41.167 33.166 -63.5 41.499s-44.166 12.5 -65.499 12.5c-19.333 0 -38.166 -3.33301 -56.499 -10s-34.666 -17 -48.999 -31s-26 -31.5 -35 -52.5s-13.5 -45.167 -13.5 -72.5c0 -22 3.33301 -42.833 10 -62.5s16.5 -37 29.5 -52
s29.167 -26.833 48.5 -35.5s41.666 -13 66.999 -13c21.333 0 43.333 5.16699 66 15.5s44.334 24.5 65.001 42.5l62 -71c-27.333 -27.333 -57.333 -48.5 -90 -63.5s-67 -22.5 -103 -22.5c-43.333 0 -81.333 7.33301 -114 22s-60 34.167 -82 58.5s-38.667 52.333 -50 84
s-17 64.834 -17 99.501s5.83301 67.834 17.5 99.501s28.667 59.667 51 84s49.833 43.833 82.5 58.5s70 22 112 22c36 0 69.333 -6.66699 100 -20s60.334 -34 89.001 -62zM438.996 689.999l-102 -130h-115l-101 130h97l63 -75l63 75h95z" />
    <glyph glyph-name="uni010E" unicode="&#x10e;" horiz-adv-x="728" 
d="M311 705c59.333 0.666992 111.167 -9.16895 155.5 -29.502s81.333 -47 111 -80s52 -70.5 67 -112.5s22.5 -85.167 22.5 -129.5s-7.33301 -87.666 -22 -129.999s-36.667 -80.166 -66 -113.499s-66.333 -60 -111 -80s-96.667 -30 -156 -30h-224v705h223zM311.001 103.997
c54.667 -0.666992 99.833 11 135.5 35s62.5 54.333 80.5 91s27 76.5 27 119.5s-9 83.167 -27 120.5s-44.833 68.333 -80.5 93s-80.167 37 -133.5 37h-111v-496h109zM455 882.997l-102 -130h-115l-101 130h97l63 -75l63 75h95z" />
    <glyph glyph-name="uni010F" unicode="&#x10f;" horiz-adv-x="633" 
d="M39 251c0 34.667 5.50098 67.834 16.501 99.501s26.833 59.5 47.5 83.5s45.667 43 75 57s62.333 21 99 21c18 0 36.333 -2.33301 55 -7s36.667 -14.334 54 -29.001v224h107v-700h-79l-12 54c-20 -26 -40.833 -42.667 -62.5 -50s-44.167 -11.333 -67.5 -12
c-34 -0.666992 -65.333 6 -94 20s-53.334 33 -74.001 57s-36.667 51.833 -48 83.5s-17 64.5 -17 98.5zM280.001 88c22 0 41.999 3.83105 59.999 11.498s33.667 23.5 47 47.5v241c-28.667 19.333 -60 29 -94 29c-19.333 0 -37.833 -3.5 -55.5 -10.5
s-33.334 -17.167 -47.001 -30.5s-24.667 -30.166 -33 -50.499s-12.5 -44.166 -12.5 -71.499c0 -22.667 2.83301 -44.167 8.5 -64.5s14.334 -38 26.001 -53s25.834 -26.833 42.501 -35.5s36 -13 58 -13zM559 700.998l90 0.000976562c4 -18 6.66699 -34.5 8 -49.5
s1 -29.5 -1 -43.5s-6.33301 -28 -13 -42s-16.334 -29 -29.001 -45h-60c11.333 28 17.833 57.167 19.5 87.5s-3.16602 61.166 -14.499 92.499z" />
    <glyph glyph-name="uni0110" unicode="&#x110;" horiz-adv-x="731" 
d="M36 300l0.000976562 100.997h57v304h223c59.333 0.666992 111.166 -9.16602 155.499 -29.499s81.333 -47 111 -80s52 -70.5 67 -112.5s22.5 -85.167 22.5 -129.5s-7.33301 -87.666 -22 -129.999s-36.667 -80.166 -66 -113.499s-66.333 -60 -111 -80s-96.667 -30 -156 -30
h-224v300h-57zM316.001 103.997c54.667 -0.666992 99.833 11 135.5 35s62.5 54.333 80.5 91s27 76.5 27 119.5s-9 83.167 -27 120.5s-44.833 68.333 -80.5 93s-80.167 37 -133.5 37h-111v-199h125v-101h-125v-196h109z" />
    <glyph glyph-name="uni0111" unicode="&#x111;" horiz-adv-x="569" 
d="M292 567l0.000976562 72h94v61h107v-61h69v-72h-69v-567h-79l-12 54c-20 -26 -40.833 -42.667 -62.5 -50s-44.167 -11.333 -67.5 -12c-34 -0.666992 -65.333 6 -94 20s-53.334 33 -74.001 57s-36.667 51.833 -48 83.5s-17 64.5 -17 98.5c0 34.667 5.5 67.834 16.5 99.501
s26.833 59.5 47.5 83.5s45.667 43 75 57s62.333 21 99 21c18 0 36.333 -2.33301 55 -7s36.667 -14.334 54 -29.001v91h-94zM280.001 88c22 0 41.999 3.83105 59.999 11.498s33.667 23.5 47 47.5v241c-28.667 19.333 -60 29 -94 29c-19.333 0 -37.833 -3.5 -55.5 -10.5
s-33.334 -17.167 -47.001 -30.5s-24.667 -30.166 -33 -50.499s-12.5 -44.166 -12.5 -71.499c0 -22.667 2.83301 -44.167 8.5 -64.5s14.334 -38 26.001 -53s25.834 -26.833 42.501 -35.5s36 -13 58 -13z" />
    <glyph glyph-name="uni0112" unicode="&#x112;" horiz-adv-x="531" 
d="M478 704v-103.001h-278v-198h274v-103h-274c0 -33.333 -0.166992 -65.666 -0.5 -96.999s-0.5 -64 -0.5 -98h279v-104h-393v703h393zM149 755.999v84h276v-84h-276z" />
    <glyph glyph-name="uni0113" unicode="&#x113;" horiz-adv-x="600" 
d="M294 89c11.333 0 22.998 0.662109 34.998 1.99512s24 4.33301 36 9s23.833 11.334 35.5 20.001s22.834 20.334 33.501 35.001l80 -49c-30 -40 -63.667 -69 -101 -87s-77 -27 -119 -27c-43.333 0 -81.166 7.5 -113.499 22.5s-59.333 34.833 -81 59.5
s-37.834 52.834 -48.501 84.501s-16 63.834 -16 96.501s5.5 64.834 16.5 96.501s27.5 59.834 49.5 84.501s49 44.667 81 60s69 23 111 23c36.667 0 70.334 -6.33301 101.001 -19s57 -30.334 79 -53.001s39 -49.5 51 -80.5s18 -64.167 18 -99.5
c0 -7.33301 -0.333008 -16 -1 -26s-1.66699 -20.667 -3 -32h-394c3.33301 -16 9 -31.167 17 -45.5s18.333 -27 31 -38s27.5 -19.833 44.5 -26.5s36.167 -10 57.5 -10zM145.998 298.995l289.999 0.000976562c-7.33301 38 -23.166 67.667 -47.499 89
s-55.833 32.666 -94.5 33.999c-43.333 -0.666992 -77 -12.167 -101 -34.5s-39.667 -51.833 -47 -88.5zM151.997 588.996v90h271v-90h-271z" />
    <glyph glyph-name="uni0114" unicode="&#x114;" horiz-adv-x="531" 
d="M478 704v-103.001h-278v-198h274v-103h-274c0 -33.333 -0.166992 -65.666 -0.5 -96.999s-0.5 -64 -0.5 -98h279v-104h-393v703h393zM290 746.999c-18 0 -35.167 2.50195 -51.5 7.50195s-30.5 12.667 -42.5 23s-21.5 23.666 -28.5 39.999s-10.5 35.5 -10.5 57.5h76
c0 -18.667 6.16699 -32.334 18.5 -41.001s25.5 -13 39.5 -13c15.333 0 28.5 4.16699 39.5 12.5s16.5 22.166 16.5 41.499h75c0 -22 -3.5 -41.167 -10.5 -57.5s-16.5 -29.666 -28.5 -39.999s-26 -18 -42 -23s-33 -7.5 -51 -7.5z" />
    <glyph glyph-name="uni0115" unicode="&#x115;" horiz-adv-x="600" 
d="M294 89c11.333 0 22.998 0.662109 34.998 1.99512s24 4.33301 36 9s23.833 11.334 35.5 20.001s22.834 20.334 33.501 35.001l80 -49c-30 -40 -63.667 -69 -101 -87s-77 -27 -119 -27c-43.333 0 -81.166 7.5 -113.499 22.5s-59.333 34.833 -81 59.5
s-37.834 52.834 -48.501 84.501s-16 63.834 -16 96.501s5.5 64.834 16.5 96.501s27.5 59.834 49.5 84.501s49 44.667 81 60s69 23 111 23c36.667 0 70.334 -6.33301 101.001 -19s57 -30.334 79 -53.001s39 -49.5 51 -80.5s18 -64.167 18 -99.5
c0 -7.33301 -0.333008 -16 -1 -26s-1.66699 -20.667 -3 -32h-394c3.33301 -16 9 -31.167 17 -45.5s18.333 -27 31 -38s27.5 -19.833 44.5 -26.5s36.167 -10 57.5 -10zM145.998 298.995l289.999 0.000976562c-7.33301 38 -23.166 67.667 -47.499 89
s-55.833 32.666 -94.5 33.999c-43.333 -0.666992 -77 -12.167 -101 -34.5s-39.667 -51.833 -47 -88.5zM290.997 567.996c-18 0 -35.167 2.50195 -51.5 7.50195s-30.5 12.667 -42.5 23s-21.5 23.666 -28.5 39.999s-10.5 35.5 -10.5 57.5h76
c0 -18.667 6.16699 -32.334 18.5 -41.001s25.5 -13 39.5 -13c15.333 0 28.5 4.16699 39.5 12.5s16.5 22.166 16.5 41.499h75c0 -22 -3.5 -41.167 -10.5 -57.5s-16.5 -29.666 -28.5 -39.999s-26 -18 -42 -23s-33 -7.5 -51 -7.5z" />
    <glyph glyph-name="uni0116" unicode="&#x116;" horiz-adv-x="531" 
d="M478 704v-103.001h-278v-198h274v-103h-274c0 -33.333 -0.166992 -65.666 -0.5 -96.999s-0.5 -64 -0.5 -98h279v-104h-393v703h393zM237 750.999v99h108v-99h-108z" />
    <glyph glyph-name="uni0117" unicode="&#x117;" horiz-adv-x="600" 
d="M294 89c11.333 0 22.998 0.662109 34.998 1.99512s24 4.33301 36 9s23.833 11.334 35.5 20.001s22.834 20.334 33.501 35.001l80 -49c-30 -40 -63.667 -69 -101 -87s-77 -27 -119 -27c-43.333 0 -81.166 7.5 -113.499 22.5s-59.333 34.833 -81 59.5
s-37.834 52.834 -48.501 84.501s-16 63.834 -16 96.501s5.5 64.834 16.5 96.501s27.5 59.834 49.5 84.501s49 44.667 81 60s69 23 111 23c36.667 0 70.334 -6.33301 101.001 -19s57 -30.334 79 -53.001s39 -49.5 51 -80.5s18 -64.167 18 -99.5
c0 -7.33301 -0.333008 -16 -1 -26s-1.66699 -20.667 -3 -32h-394c3.33301 -16 9 -31.167 17 -45.5s18.333 -27 31 -38s27.5 -19.833 44.5 -26.5s36.167 -10 57.5 -10zM145.998 298.995l289.999 0.000976562c-7.33301 38 -23.166 67.667 -47.499 89
s-55.833 32.666 -94.5 33.999c-43.333 -0.666992 -77 -12.167 -101 -34.5s-39.667 -51.833 -47 -88.5zM239.997 586.996v99h108v-99h-108z" />
    <glyph glyph-name="uni0118" unicode="&#x118;" horiz-adv-x="531" 
d="M478 704v-103.001h-278v-198h274v-103h-274c0 -33.333 -0.166992 -65.666 -0.5 -96.999s-0.5 -64 -0.5 -98h279v-104c-20 -7.33301 -34.833 -16.833 -44.5 -28.5s-14.5 -23 -14.5 -34s5 -20.5 15 -28.5s25 -12 45 -12h8l-35 -65c-24 0.666992 -46 3.66699 -66 9
c-18 5.33301 -34.167 13.166 -48.5 23.499s-22.833 25.166 -25.5 44.499c-2.66699 16.667 1 33.334 11 50.001s24 30.334 42 41.001h-280v703h393z" />
    <glyph glyph-name="uni0119" unicode="&#x119;" horiz-adv-x="600" 
d="M294 89c11.333 0 23.002 0.662109 35.002 1.99512s24 4.33301 36 9s23.833 11.334 35.5 20.001s22.834 20.334 33.501 35.001l80 -49c-15.333 -20 -31.5 -37.333 -48.5 -52s-34.833 -26.667 -53.5 -36c-14 -10 -22.667 -20.667 -26 -32s-3 -21.833 1 -31.5
s11.167 -17.5 21.5 -23.5s22.5 -9 36.5 -9h4l-32 -60c-2 0 -4 -0.333008 -6 -1h-17c-8.66699 0 -18.834 0.666992 -30.501 2s-22.834 4.33301 -33.501 9s-20.334 11.5 -29.001 20.5s-14.334 20.833 -17.001 35.5c-2 10 -0.333008 21.167 5 33.5s14.333 22.833 27 31.5
c-3.33301 -0.666992 -7 -1 -11 -1h-11c-43.333 0 -81.166 7.5 -113.499 22.5s-59.333 34.833 -81 59.5s-37.834 52.834 -48.501 84.501s-16 63.834 -16 96.501s5.5 64.834 16.5 96.501s27.5 59.834 49.5 84.501s49 44.667 81 60s69 23 111 23
c36.667 0 70.334 -6.33301 101.001 -19s57 -30.334 79 -53.001s39 -49.5 51 -80.5s18 -64.167 18 -99.5c0 -7.33301 -0.333008 -16 -1 -26s-1.66699 -20.667 -3 -32h-394c3.33301 -16 9 -31.167 17 -45.5s18.333 -27 31 -38s27.5 -19.833 44.5 -26.5s36.167 -10 57.5 -10z
M146.002 298.995l289.999 0.000976562c-7.33301 38 -23.166 67.667 -47.499 89s-55.833 32.666 -94.5 33.999c-43.333 -0.666992 -77 -12.167 -101 -34.5s-39.667 -51.833 -47 -88.5z" />
    <glyph glyph-name="uni011A" unicode="&#x11a;" horiz-adv-x="531" 
d="M478 704v-103.001h-278v-198h274v-103h-274c0 -33.333 -0.166992 -65.666 -0.5 -96.999s-0.5 -64 -0.5 -98h279v-104h-393v703h393zM449 881.999l-102 -130h-115l-101 130h97l63 -75l63 75h95z" />
    <glyph glyph-name="uni011B" unicode="&#x11b;" horiz-adv-x="600" 
d="M294 89c11.333 0 22.998 0.662109 34.998 1.99512s24 4.33301 36 9s23.833 11.334 35.5 20.001s22.834 20.334 33.501 35.001l80 -49c-30 -40 -63.667 -69 -101 -87s-77 -27 -119 -27c-43.333 0 -81.166 7.5 -113.499 22.5s-59.333 34.833 -81 59.5
s-37.834 52.834 -48.501 84.501s-16 63.834 -16 96.501s5.5 64.834 16.5 96.501s27.5 59.834 49.5 84.501s49 44.667 81 60s69 23 111 23c36.667 0 70.334 -6.33301 101.001 -19s57 -30.334 79 -53.001s39 -49.5 51 -80.5s18 -64.167 18 -99.5
c0 -7.33301 -0.333008 -16 -1 -26s-1.66699 -20.667 -3 -32h-394c3.33301 -16 9 -31.167 17 -45.5s18.333 -27 31 -38s27.5 -19.833 44.5 -26.5s36.167 -10 57.5 -10zM145.998 298.995l289.999 0.000976562c-7.33301 38 -23.166 67.667 -47.499 89
s-55.833 32.666 -94.5 33.999c-43.333 -0.666992 -77 -12.167 -101 -34.5s-39.667 -51.833 -47 -88.5zM448.997 700.996l-102 -130h-115l-101 130h97l63 -75l63 75h95z" />
    <glyph glyph-name="uni011C" unicode="&#x11c;" horiz-adv-x="822" 
d="M412 715c55.333 0 107.663 -12.168 156.996 -36.501s92 -57.833 128 -100.5l-82 -67c-27.333 32 -59 56.667 -95 74s-72 26 -108 26c-39.333 0 -74.166 -7.83301 -104.499 -23.5s-55.666 -36 -75.999 -61s-35.833 -53 -46.5 -84s-16 -62.167 -16 -93.5
s5.33301 -62.333 16 -93s26.167 -58.167 46.5 -82.5s45.666 -44 75.999 -59s65.166 -22.5 104.499 -22.5c25.333 0 50.333 3.33301 75 10s47.334 17 68.001 31s38.334 32 53.001 54s24.334 48.333 29.001 79h-280v104h401c2 -59.333 -5 -112.833 -21 -160.5
s-39.167 -88 -69.5 -121s-67.166 -58.333 -110.499 -76s-91.666 -26.5 -144.999 -26.5c-58 0 -109.333 10.333 -154 31s-82 48 -112 82s-52.833 72.833 -68.5 116.5s-23.5 88.167 -23.5 133.5s7.66699 89.833 23 133.5s38.166 82.834 68.499 117.501s67.833 62.5 112.5 83.5
s96 31.5 154 31.5zM249.997 755.999l102 130h115l101 -130h-97l-63 75l-63 -75h-95z" />
    <glyph glyph-name="uni011D" unicode="&#x11d;" horiz-adv-x="568" 
d="M39 251c0 34 5.5 66.6719 16.5 98.0049s26.5 59.166 46.5 83.499s44.5 43.666 73.5 57.999s61.5 21.5 97.5 21.5c19.333 0 39.833 -3.83301 61.5 -11.5s40.167 -21.834 55.5 -42.501l19 49h84v-503c0 -34.667 -6.33301 -64.834 -19 -90.501s-29.5 -47 -50.5 -64
s-45 -29.833 -72 -38.5s-55.167 -13 -84.5 -13c-39.333 0 -77.666 7.33301 -114.999 22s-69.666 37 -96.999 67l56 69c21.333 -22 45 -37.833 71 -47.5s54.333 -14.5 85 -14.5c16 0 31.167 1.66699 45.5 5s27.166 9.33301 38.499 18s20.333 20.167 27 34.5
s10 32.166 10 53.499v32c-18 -18.667 -36.833 -30.667 -56.5 -36s-39.5 -8.33301 -59.5 -9c-34 -0.666992 -65.333 6 -94 20s-53.334 33 -74.001 57s-36.667 51.833 -48 83.5s-17 64.5 -17 98.5zM280 86.0049c22 0 40.832 2.83008 56.499 8.49707s32.5 18.5 50.5 38.5v238
c-13.333 16 -28.333 27.667 -45 35s-33 11 -49 11c-19.333 0 -37.833 -3.5 -55.5 -10.5s-33.334 -17.167 -47.001 -30.5s-24.667 -30.166 -33 -50.499s-12.5 -44.166 -12.5 -71.499c0 -22.667 2.83301 -44.167 8.5 -64.5s14.334 -38.166 26.001 -53.499
s25.834 -27.5 42.501 -36.5s36 -13.5 58 -13.5zM148.999 571.002l102 130h115l101 -130h-97l-63 75l-63 -75h-95z" />
    <glyph glyph-name="uni011E" unicode="&#x11e;" horiz-adv-x="822" 
d="M423 715c55.333 0 107.663 -12.168 156.996 -36.501s92 -57.833 128 -100.5l-82 -67c-27.333 32 -59 56.667 -95 74s-72 26 -108 26c-39.333 0 -74.166 -7.83301 -104.499 -23.5s-55.666 -36 -75.999 -61s-35.833 -53 -46.5 -84s-16 -62.167 -16 -93.5
s5.33301 -62.333 16 -93s26.167 -58.167 46.5 -82.5s45.666 -44 75.999 -59s65.166 -22.5 104.499 -22.5c25.333 0 50.333 3.33301 75 10s47.334 17 68.001 31s38.334 32 53.001 54s24.334 48.333 29.001 79h-280v104h401c2 -59.333 -5 -112.833 -21 -160.5
s-39.167 -88 -69.5 -121s-67.166 -58.333 -110.499 -76s-91.666 -26.5 -144.999 -26.5c-58 0 -109.333 10.333 -154 31s-82 48 -112 82s-52.833 72.833 -68.5 116.5s-23.5 88.167 -23.5 133.5s7.66699 89.833 23 133.5s38.166 82.834 68.499 117.501s67.833 62.5 112.5 83.5
s96 31.5 154 31.5zM421.997 749.999c-18 0 -35.167 2.50195 -51.5 7.50195s-30.5 12.667 -42.5 23s-21.5 23.666 -28.5 39.999s-10.5 35.5 -10.5 57.5h76c0 -18.667 6.16699 -32.334 18.5 -41.001s25.5 -13 39.5 -13c15.333 0 28.5 4.16699 39.5 12.5
s16.5 22.166 16.5 41.499h75c0 -22 -3.5 -41.167 -10.5 -57.5s-16.5 -29.666 -28.5 -39.999s-26 -18 -42 -23s-33 -7.5 -51 -7.5z" />
    <glyph glyph-name="uni011F" unicode="&#x11f;" horiz-adv-x="568" 
d="M39 251c0 34 5.5 66.6719 16.5 98.0049s26.5 59.166 46.5 83.499s44.5 43.666 73.5 57.999s61.5 21.5 97.5 21.5c19.333 0 39.833 -3.83301 61.5 -11.5s40.167 -21.834 55.5 -42.501l19 49h84v-503c0 -34.667 -6.33301 -64.834 -19 -90.501s-29.5 -47 -50.5 -64
s-45 -29.833 -72 -38.5s-55.167 -13 -84.5 -13c-39.333 0 -77.666 7.33301 -114.999 22s-69.666 37 -96.999 67l56 69c21.333 -22 45 -37.833 71 -47.5s54.333 -14.5 85 -14.5c16 0 31.167 1.66699 45.5 5s27.166 9.33301 38.499 18s20.333 20.167 27 34.5
s10 32.166 10 53.499v32c-18 -18.667 -36.833 -30.667 -56.5 -36s-39.5 -8.33301 -59.5 -9c-34 -0.666992 -65.333 6 -94 20s-53.334 33 -74.001 57s-36.667 51.833 -48 83.5s-17 64.5 -17 98.5zM280 86.0049c22 0 40.832 2.83008 56.499 8.49707s32.5 18.5 50.5 38.5v238
c-13.333 16 -28.333 27.667 -45 35s-33 11 -49 11c-19.333 0 -37.833 -3.5 -55.5 -10.5s-33.334 -17.167 -47.001 -30.5s-24.667 -30.166 -33 -50.499s-12.5 -44.166 -12.5 -71.499c0 -22.667 2.83301 -44.167 8.5 -64.5s14.334 -38.166 26.001 -53.499
s25.834 -27.5 42.501 -36.5s36 -13.5 58 -13.5zM299.999 572.002c-18 0 -35.167 2.50195 -51.5 7.50195s-30.5 12.667 -42.5 23s-21.5 23.666 -28.5 39.999s-10.5 35.5 -10.5 57.5h76c0 -18.667 6.16699 -32.334 18.5 -41.001s25.5 -13 39.5 -13
c15.333 0 28.5 4.16699 39.5 12.5s16.5 22.166 16.5 41.499h75c0 -22 -3.5 -41.167 -10.5 -57.5s-16.5 -29.666 -28.5 -39.999s-26 -18 -42 -23s-33 -7.5 -51 -7.5z" />
    <glyph glyph-name="uni0120" unicode="&#x120;" horiz-adv-x="822" 
d="M415 715c55.333 0 107.663 -12.168 156.996 -36.501s92 -57.833 128 -100.5l-82 -67c-27.333 32 -59 56.667 -95 74s-72 26 -108 26c-39.333 0 -74.166 -7.83301 -104.499 -23.5s-55.666 -36 -75.999 -61s-35.833 -53 -46.5 -84s-16 -62.167 -16 -93.5
s5.33301 -62.333 16 -93s26.167 -58.167 46.5 -82.5s45.666 -44 75.999 -59s65.166 -22.5 104.499 -22.5c25.333 0 50.333 3.33301 75 10s47.334 17 68.001 31s38.334 32 53.001 54s24.334 48.333 29.001 79h-280v104h401c2 -59.333 -5 -112.833 -21 -160.5
s-39.167 -88 -69.5 -121s-67.166 -58.333 -110.499 -76s-91.666 -26.5 -144.999 -26.5c-58 0 -109.333 10.333 -154 31s-82 48 -112 82s-52.833 72.833 -68.5 116.5s-23.5 88.167 -23.5 133.5s7.66699 89.833 23 133.5s38.166 82.834 68.499 117.501s67.833 62.5 112.5 83.5
s96 31.5 154 31.5zM363.997 759.999v101h101v-101h-101z" />
    <glyph glyph-name="uni0121" unicode="&#x121;" horiz-adv-x="568" 
d="M39 251c0 34 5.49902 66.6709 16.499 98.0039s26.5 59.166 46.5 83.499s44.5 43.666 73.5 57.999s61.5 21.5 97.5 21.5c19.333 0 39.833 -3.83301 61.5 -11.5s40.167 -21.834 55.5 -42.501l19 49h84v-503c0 -34.667 -6.33301 -64.834 -19 -90.501s-29.5 -47 -50.5 -64
s-45 -29.833 -72 -38.5s-55.167 -13 -84.5 -13c-39.333 0 -77.666 7.33301 -114.999 22s-69.666 37 -96.999 67l56 69c20.667 -22 44 -38.833 70 -50.5s54.333 -17.5 85 -17.5c16 0 31.333 2 46 6s27.667 10.667 39 20s20.333 21.333 27 36s10 33 10 55v32
c-18 -18.667 -36.833 -30.667 -56.5 -36s-39.5 -8.33301 -59.5 -9c-34 -0.666992 -65.333 6 -94 20s-53.334 33 -74.001 57s-36.667 51.833 -48 83.5s-17 64.5 -17 98.5zM279.999 86.0039c22 0 40.832 2.83008 56.499 8.49707s32.5 18.5 50.5 38.5v238
c-13.333 16 -28.333 27.667 -45 35s-33 11 -49 11c-19.333 0 -37.833 -3.5 -55.5 -10.5s-33.334 -17.167 -47.001 -30.5s-24.667 -30.166 -33 -50.499s-12.5 -44.166 -12.5 -71.499c0 -22.667 2.83301 -44.167 8.5 -64.5s14.334 -38.166 26.001 -53.499
s25.834 -27.5 42.501 -36.5s36 -13.5 58 -13.5zM255.998 598.001v101h101v-101h-101z" />
    <glyph glyph-name="uni0122" unicode="&#x122;" horiz-adv-x="822" 
d="M407 715c55.333 0 107.663 -12.168 156.996 -36.501s92 -57.833 128 -100.5l-82 -67c-27.333 32 -59 56.667 -95 74s-72 26 -108 26c-39.333 0 -74.166 -7.83301 -104.499 -23.5s-55.666 -36 -75.999 -61s-35.833 -53 -46.5 -84s-16 -62.167 -16 -93.5
s5.33301 -62.333 16 -93s26.167 -58.167 46.5 -82.5s45.666 -44 75.999 -59s65.166 -22.5 104.499 -22.5c25.333 0 50.333 3.33301 75 10s47.334 17 68.001 31s38.334 32 53.001 54s24.334 48.333 29.001 79h-280v104h401c2 -59.333 -5 -112.833 -21 -160.5
s-39.167 -88 -69.5 -121s-67.166 -58.333 -110.499 -76s-91.666 -26.5 -144.999 -26.5c-58 0 -109.333 10.333 -154 31s-82 48 -112 82s-52.833 72.833 -68.5 116.5s-23.5 88.167 -23.5 133.5s7.66699 89.833 23 133.5s38.166 82.834 68.499 117.501s67.833 62.5 112.5 83.5
s96 31.5 154 31.5zM349.997 -45.001h104.001c10 -34 13.5 -64 10.5 -90s-16.167 -53.667 -39.5 -83l-81 1c5.33301 13.333 9.66602 26 12.999 38s5.5 24.5 6.5 37.5s0.5 27.167 -1.5 42.5s-6 33.333 -12 54z" />
    <glyph glyph-name="uni0123" unicode="&#x123;" horiz-adv-x="568" 
d="M39 251c0 34 5.5 66.6719 16.5 98.0049s26.5 59.166 46.5 83.499s44.5 43.666 73.5 57.999s61.5 21.5 97.5 21.5c19.333 0 39.833 -3.83301 61.5 -11.5s40.167 -21.834 55.5 -42.501l19 49h84v-503c0 -34.667 -6.33301 -64.834 -19 -90.501s-29.5 -47 -50.5 -64
s-45 -29.833 -72 -38.5s-55.167 -13 -84.5 -13c-39.333 0 -77.666 7.33301 -114.999 22s-69.666 37 -96.999 67l56 69c21.333 -22 45 -37.833 71 -47.5s54.333 -14.5 85 -14.5c16 0 31.167 1.66699 45.5 5s27.166 9.33301 38.499 18s20.333 20.167 27 34.5
s10 32.166 10 53.499v32c-18 -18.667 -36.833 -30.667 -56.5 -36s-39.5 -8.33301 -59.5 -9c-34 -0.666992 -65.333 6 -94 20s-53.334 33 -74.001 57s-36.667 51.833 -48 83.5s-17 64.5 -17 98.5zM280 86.0049c22 0 40.832 2.83008 56.499 8.49707s32.5 18.5 50.5 38.5v238
c-13.333 16 -28.333 27.667 -45 35s-33 11 -49 11c-19.333 0 -37.833 -3.5 -55.5 -10.5s-33.334 -17.167 -47.001 -30.5s-24.667 -30.166 -33 -50.499s-12.5 -44.166 -12.5 -71.499c0 -22.667 2.83301 -44.167 8.5 -64.5s14.334 -38.166 26.001 -53.499
s25.834 -27.5 42.501 -36.5s36 -13.5 58 -13.5zM363.999 553.002l-102.999 0.000976562c-7.33301 24 -9.83301 48.167 -7.5 72.5s11.5 51.5 27.5 81.5h85c-6.66699 -14.667 -11.334 -28.334 -14.001 -41.001s-4 -25 -4 -37s1.5 -24.167 4.5 -36.5s6.83301 -25.5 11.5 -39.5z
" />
    <glyph glyph-name="uni0124" unicode="&#x124;" horiz-adv-x="688" 
d="M471 0h115v700h-115v-299h-269v299h-115v-700h115v297h269v-297zM169 750h95l63 75l63 -75h97l-101 130h-115z" />
    <glyph glyph-name="uni0125" unicode="&#x125;" horiz-adv-x="604" 
d="M72 700h109.999v-223c19.333 16.667 39.333 27.167 60 31.5s39.667 6.5 57 6.5c32 0 62 -5.33301 90 -16s52.333 -26 73 -46s37 -44 49 -72s18 -59.667 18 -95v-286h-109v286c0 21.333 -3.83301 40.333 -11.5 57s-18 30.667 -31 42s-28.333 19.833 -46 25.5
s-36.5 8.5 -56.5 8.5c-33.333 0 -64.666 -9.33301 -93.999 -28v-391h-109v700zM-28.001 745l102 130h115l101 -130h-97l-63 75l-63 -75h-95z" />
    <glyph glyph-name="uni0126" unicode="&#x126;" horiz-adv-x="688" 
d="M30 498h57v-498h115v297h269v-297h115v498h58v90h-58v115h-115v-115h-269v115h-115v-115h-57v-90zM202 401v97h269v-97h-269z" />
    <glyph glyph-name="uni0127" unicode="&#x127;" horiz-adv-x="604" 
d="M72 700h109.999v-59h110v-71h-110v-93c19.333 16.667 39.333 27.167 60 31.5s39.667 6.5 57 6.5c32 0 62 -5.33301 90 -16s52.333 -26 73 -46s37 -44 49 -72s18 -59.667 18 -95v-286h-109v286c0 21.333 -3.83301 40.333 -11.5 57s-18 30.667 -31 42
s-28.333 19.833 -46 25.5s-36.5 8.5 -56.5 8.5c-33.333 0 -64.666 -9.33301 -93.999 -28v-391h-109v570h-64v71h64v59z" />
    <glyph glyph-name="uni0128" unicode="&#x128;" horiz-adv-x="284" 
d="M82 0v703h114v-703h-114zM239 858l47.998 -40c-23.333 -46.667 -52.666 -70 -87.999 -70c-12 0 -24.667 2.83301 -38 8.5s-26.666 13.5 -39.999 23.5c-8.66699 6 -17 9 -25 9c-8.66699 0 -17 -3.33301 -25 -10s-17.333 -16 -28 -28l-53 43
c12.667 20.667 27.334 37.5 44.001 50.5s37.667 19.5 63 19.5c9.33301 -0.666992 17.666 -2.66699 24.999 -6s14.5 -7 21.5 -11l20.5 -11.5c6.66699 -3.66699 13.667 -6.5 21 -8.5c2 -0.666992 5 -1 9 -1c14.667 0 29.667 10.667 45 32z" />
    <glyph glyph-name="uni0129" unicode="&#x129;" horiz-adv-x="240" 
d="M60 509h109v-509h-109v509zM218 686l47.998 -40c-23.333 -46.667 -52.666 -70 -87.999 -70c-12 0 -24.667 2.83301 -38 8.5s-26.666 13.5 -39.999 23.5c-8.66699 6 -17 9 -25 9c-8.66699 0 -17 -3.33301 -25 -10s-17.333 -16 -28 -28l-53 43
c12.667 20.667 27.334 37.5 44.001 50.5s37.667 19.5 63 19.5c9.33301 -0.666992 17.666 -2.66699 24.999 -6s14.5 -7 21.5 -11l20.5 -11.5c6.66699 -3.66699 13.667 -6.5 21 -8.5c2 -0.666992 5 -1 9 -1c14.667 0 29.667 10.667 45 32z" />
    <glyph glyph-name="uni012A" unicode="&#x12a;" horiz-adv-x="284" 
d="M82 0h114v703h-114v-703zM1 754h278v87h-278v-87z" />
    <glyph glyph-name="uni012B" unicode="&#x12b;" horiz-adv-x="240" 
d="M172 0v512h-110v-512h110zM-5 580h247v87h-247v-87z" />
    <glyph glyph-name="uni012C" unicode="&#x12c;" horiz-adv-x="284" 
d="M82 0v701h114v-701h-114zM139 746c-18 0 -35.167 2.50195 -51.5 7.50195s-30.5 12.667 -42.5 23s-21.5 23.666 -28.5 39.999s-10.5 35.5 -10.5 57.5h76c0 -18.667 6.16699 -32.334 18.5 -41.001s25.5 -13 39.5 -13c15.333 0 28.5 4.16699 39.5 12.5
s16.5 22.166 16.5 41.499h75c0 -22 -3.5 -41.167 -10.5 -57.5s-16.5 -29.666 -28.5 -39.999s-26 -18 -42 -23s-33 -7.5 -51 -7.5z" />
    <glyph glyph-name="uni012D" unicode="&#x12d;" horiz-adv-x="240" 
d="M171 0h-109v512h109v-512zM117 569c-18 0 -35.167 2.50195 -51.5 7.50195s-30.5 12.667 -42.5 23s-21.5 23.666 -28.5 39.999s-10.5 35.5 -10.5 57.5h76c0 -18.667 6.16699 -32.334 18.5 -41.001s25.5 -13 39.5 -13c15.333 0 28.5 4.16699 39.5 12.5
s16.5 22.166 16.5 41.499h75c0 -22 -3.5 -41.167 -10.5 -57.5s-16.5 -29.666 -28.5 -39.999s-26 -18 -42 -23s-33 -7.5 -51 -7.5z" />
    <glyph glyph-name="uni012E" unicode="&#x12e;" horiz-adv-x="285" 
d="M81 14l-0.000976562 688.999h114v-693c-21.333 -10 -36.833 -21.167 -46.5 -33.5s-14 -24.166 -13 -35.499s7.33301 -20.833 19 -28.5s27.834 -11.5 48.501 -11.5h5l-43 -63c-13.333 0 -27.333 0.833008 -42 2.5s-28.5 5 -41.5 10s-24 12.5 -33 22.5
s-14.167 23.333 -15.5 40c-2.66699 22.667 1 42.167 11 58.5s22.333 30.5 37 42.5z" />
    <glyph glyph-name="uni012F" unicode="&#x12f;" horiz-adv-x="240" 
d="M29 -83c-2.66699 12 -1.16602 25.999 4.50098 41.999s15.167 30.667 28.5 44v509h109l-1 -504c-18 -8 -30.667 -18 -38 -30s-10.333 -23.667 -9 -35s7 -21 17 -29s23.333 -12 40 -12h3l-39 -69c-4 0.666992 -11.667 1.83398 -23 3.50098s-23.333 5.16699 -36 10.5
s-24.334 13.5 -35.001 24.5s-17.667 26.167 -21 45.5zM61.001 576.999v122h113v-122h-113z" />
    <glyph glyph-name="uni0130" unicode="&#x130;" horiz-adv-x="283" 
d="M82 0h114v703h-114v-703zM80 751h116v114h-116v-114z" />
    <glyph glyph-name="uni0131" unicode="&#x131;" horiz-adv-x="240" 
d="M171 0v512h-109v-512h109z" />
    <glyph glyph-name="uni0132" unicode="&#x132;" horiz-adv-x="616" 
d="M85 0v703h114v-703h-114zM266 -6l-0.000976562 103.004c19.333 0 38.166 1.16699 56.499 3.5s34.666 7.16602 48.999 14.499s25.833 18.166 34.5 32.499s13 33.166 13 56.499v393h-126v103h241v-496c0 -34.667 -5.83301 -65.334 -17.5 -92.001s-28.167 -48.667 -49.5 -66
s-46.666 -30.5 -75.999 -39.5s-61.666 -13.5 -96.999 -13.5h-13.5c-4.33301 0 -9.16602 0.333008 -14.499 1z" />
    <glyph glyph-name="uni0133" unicode="&#x133;" horiz-adv-x="509" 
d="M179 0h-109v512h109v-512zM229 -191l-0.000976562 92c2 0 4.16699 -0.166992 6.5 -0.5s4.5 -0.5 6.5 -0.5c25.333 0 41.833 6.33301 49.5 19s11.5 28.667 11.5 48v540h109v-540c0 -106.667 -50 -160 -150 -160c-5.33301 0 -10.666 0.166992 -15.999 0.5
s-11 0.833008 -17 1.5zM68.999 580v120h114v-120h-114zM301.999 578v122h111v-122h-111z" />
    <glyph glyph-name="uni0134" unicode="&#x134;" horiz-adv-x="545" 
d="M15 183l99.998 21.9971c4 -19.333 10.667 -36.166 20 -50.499s20 -26.166 32 -35.499s24.833 -16.333 38.5 -21s26.834 -7 39.501 -7s25 2.5 37 7.5s22.833 12.167 32.5 21.5s17.334 21.166 23.001 35.499s8.5 30.5 8.5 48.5v393h-126v103h241v-496
c0 -36 -6.16699 -67.5 -18.5 -94.5s-28.5 -49.5 -48.5 -67.5s-42.833 -31.5 -68.5 -40.5s-52.167 -13.5 -79.5 -13.5c-24.667 0 -49.334 3.83301 -74.001 11.5s-47.5 19.334 -68.5 35.001s-39.167 35.834 -54.5 60.501s-26.666 54 -33.999 88zM143.998 747.997l102 130h115
l101 -130h-97l-63 75l-63 -75h-95z" />
    <glyph glyph-name="uni0135" unicode="&#x135;" horiz-adv-x="240" 
d="M-14 -191l-0.000976562 92c2 0 4.16699 -0.166992 6.5 -0.5s4.5 -0.5 6.5 -0.5c25.333 0 41.833 6.33301 49.5 19s11.5 28.667 11.5 48v540h109v-540c0 -106.667 -50 -160 -150 -160c-5.33301 0 -10.666 0.166992 -15.999 0.5s-11 0.833008 -17 1.5zM-46.001 566l102 130
h115l101 -130h-97l-63 75l-63 -75h-95z" />
    <glyph glyph-name="uni0136" unicode="&#x136;" horiz-adv-x="634" 
d="M87 705h115v-307l276 307h136l-275 -311l282 -394h-132l-225 319l-62 -62v-257h-115v705zM287 -12l103.998 -0.00292969c4.66699 -17.333 7.66699 -33.166 9 -47.499s0.833008 -28.333 -1.5 -42s-6.66602 -27.167 -12.999 -40.5s-15.166 -27.666 -26.499 -42.999h-84
c6 12.667 11.167 25.334 15.5 38.001s7.5 25.667 9.5 39s2.16699 27.833 0.5 43.5s-6.16699 33.167 -13.5 52.5z" />
    <glyph glyph-name="uni0137" unicode="&#x137;" horiz-adv-x="517" 
d="M68 700h106v-390l197 198h133l-221 -225l228 -283h-129l-171 212l-37 -35v-177h-106v700zM214 -11l103.998 -0.00292969c4.66699 -17.333 7.66699 -33.166 9 -47.499s0.833008 -28.333 -1.5 -42s-6.66602 -27.167 -12.999 -40.5s-15.166 -27.666 -26.499 -42.999h-84
c6 12.667 11.167 25.334 15.5 38.001s7.5 25.667 9.5 39s2.16699 27.833 0.5 43.5s-6.16699 33.167 -13.5 52.5z" />
    <glyph glyph-name="uni0138" unicode="&#x138;" horiz-adv-x="517" 
d="M68 508v-508h106v177l37 35l171 -212h129l-228 283l221 225h-133l-197 -198v198h-106z" />
    <glyph glyph-name="uni0139" unicode="&#x139;" horiz-adv-x="479" 
d="M457 105h-257v595h-115v-700h372v105zM285 885h-118l-75 -133h94z" />
    <glyph glyph-name="uni013A" unicode="&#x13a;" horiz-adv-x="272" 
d="M242 97v-98c-6 -0.666992 -11.833 -1.16699 -17.5 -1.5s-11.167 -0.5 -16.5 -0.5c-49.333 0 -86.666 13.333 -111.999 40s-38 66.334 -38 119.001v544h109v-544c0 -14.667 1.66699 -25.834 5 -33.501s8.33301 -13.5 15 -17.5s14.667 -6.33301 24 -7s19.666 -1 30.999 -1z
M256 886l-99 -133h-94l75 133h118z" />
    <glyph glyph-name="uni013B" unicode="&#x13b;" horiz-adv-x="479" 
d="M457 105v-105h-372v700h115v-595h257zM209 -29l110.998 -0.000976562c4.66699 -17.333 7.66699 -33.166 9 -47.499s1.33301 -28 0 -41s-4.5 -26.167 -9.5 -39.5s-11.5 -28 -19.5 -44h-97c6.66699 16.667 11.834 31.5 15.501 44.5s5.83398 25.833 6.50098 38.5
s-0.333008 26 -3 40s-7 30.333 -13 49z" />
    <glyph glyph-name="uni013C" unicode="&#x13c;" horiz-adv-x="272" 
d="M242 97v-98c-6 -0.666992 -11.833 -1.16699 -17.5 -1.5s-11.167 -0.5 -16.5 -0.5c-49.333 0 -86.666 13.333 -111.999 40s-38 66.334 -38 119.001v544h109v-544c0 -14.667 1.66699 -25.834 5 -33.501s8.33301 -13.5 15 -17.5s14.667 -6.33301 24 -7s19.666 -1 30.999 -1z
M112 -29l104.999 -0.000976562c4 -17.333 6.83301 -33 8.5 -47s1.66699 -27.667 0 -41s-4.83398 -26.666 -9.50098 -39.999s-11 -28 -19 -44h-91c6 16 10.667 31 14 45s5.33301 27.667 6 41s-0.166016 27 -2.49902 41s-6.16602 29 -11.499 45z" />
    <glyph glyph-name="uni013D" unicode="&#x13d;" horiz-adv-x="479" 
d="M457 105v-105h-372v700h115v-595h257zM263 700l105.999 -0.000976562c10 -33.333 12.667 -63.166 8 -89.499s-14.667 -53.833 -30 -82.5h-89c10.667 24 17.334 49.333 20.001 76s-2.33301 58.667 -15 96z" />
    <glyph glyph-name="uni013E" unicode="&#x13e;" horiz-adv-x="306" 
d="M242 97v-98c-6 -0.666992 -11.833 -1.16699 -17.5 -1.5s-11.167 -0.5 -16.5 -0.5c-49.333 0 -86.666 13.333 -111.999 40s-38 66.334 -38 119.001v544h109v-544c0 -14.667 1.66699 -25.834 5 -33.501s8.33301 -13.5 15 -17.5s14.667 -6.33301 24 -7s19.666 -1 30.999 -1z
M220 700l99.999 -0.000976562c10 -33.333 12.667 -63.166 8 -89.499s-14.667 -53.833 -30 -82.5h-83c10.667 24 17.334 49.333 20.001 76s-2.33301 58.667 -15 96z" />
    <glyph glyph-name="uni013F" unicode="&#x13f;" horiz-adv-x="478" 
d="M457 105h-257v595h-115v-700h372v105zM281 329h111v115h-111v-115z" />
    <glyph glyph-name="uni0140" unicode="&#x140;" horiz-adv-x="314" 
d="M242 97v-98c-6 -0.666992 -11.833 -1.16699 -17.5 -1.5s-11.167 -0.5 -16.5 -0.5c-49.333 0 -86.666 13.333 -111.999 40s-38 66.334 -38 119.001v544h109v-544c0 -14.667 1.66699 -25.834 5 -33.501s8.33301 -13.5 15 -17.5s14.667 -6.33301 24 -7s19.666 -1 30.999 -1z
M212 329v111h99v-111h-99z" />
    <glyph glyph-name="uni0141" unicode="&#x141;" horiz-adv-x="478" 
d="M457 105v-105.001h-372v271l-44.5 -24.5c-11.667 -6.33301 -17.5 -9.16602 -17.5 -8.49902v107l62 35v320h115v-254l111 63v-112l-33 -19l-36.5 -20l-41.5 -23v-230h257z" />
    <glyph glyph-name="uni0142" unicode="&#x142;" horiz-adv-x="272" 
d="M242 97v-98c-6 -0.666992 -11.833 -1.16699 -17.5 -1.5s-11.167 -0.5 -16.5 -0.5c-49.333 0 -86.666 13.333 -111.999 40s-38 66.334 -38 119.001v110l-44 -25v98l44 25v336h109v-272l81 47v-98l-81 -47v-174c0 -14.667 1.66699 -25.834 5 -33.501
s8.33301 -13.5 15 -17.5s14.667 -6.33301 24 -7s19.666 -1 30.999 -1z" />
    <glyph glyph-name="uni0143" unicode="&#x143;" horiz-adv-x="733" 
d="M220 704h-133v-704h115v430l-16 130l3 1l49 -105l259 -456h131v704h-115v-430l15 -130l-3 -1l-48 105zM492 891h-118l-75 -133h94z" />
    <glyph glyph-name="uni0144" unicode="&#x144;" horiz-adv-x="606" 
d="M70 507h90.0029l14 -56c8 12.667 17.5 23.167 28.5 31.5s22.5 14.833 34.5 19.5s23.667 8 35 10s21.333 3 30 3c32 0 62 -5.33301 90 -16s52.333 -26 73 -46s37 -44 49 -72s18 -59.667 18 -95v-286h-109v286c0 20.667 -3.83301 39.167 -11.5 55.5
s-17.834 30.333 -30.501 42s-27.334 20.5 -44.001 26.5s-33.667 9 -51 9c-19.333 0 -38.333 -3.83301 -57 -11.5s-35.334 -20.167 -50.001 -37.5v-370h-109v507zM433.003 699l-94 -127h-89l71 127h112z" />
    <glyph glyph-name="uni0145" unicode="&#x145;" horiz-adv-x="733" 
d="M220 704l257 -456l48 -105l3 1l-15 130v430h115v-704h-131l-259 456l-49 105l-3 -1l16 -130v-430h-115v704h133zM301 1l106.999 -0.000976562c11.333 -34 14.833 -64.167 10.5 -90.5s-14.166 -53.5 -29.499 -81.5h-93c5.33301 14.667 9.83301 28.334 13.5 41.001
s6 25.5 7 38.5s0.333008 26.833 -2 41.5s-6.83301 31.667 -13.5 51z" />
    <glyph glyph-name="uni0146" unicode="&#x146;" horiz-adv-x="606" 
d="M70 507h90.0029l14 -56c8 12.667 17.5 23.167 28.5 31.5s22.5 14.833 34.5 19.5s23.667 8 35 10s21.333 3 30 3c32 0 62 -5.33301 90 -16s52.333 -26 73 -46s37 -44 49 -72s18 -59.667 18 -95v-286h-109v286c0 20.667 -3.83301 39.167 -11.5 55.5
s-17.834 30.333 -30.501 42s-27.334 20.5 -44.001 26.5s-33.667 9 -51 9c-19.333 0 -38.333 -3.83301 -57 -11.5s-35.334 -20.167 -50.001 -37.5v-370h-109v507zM252.003 -4l99.999 -0.000976562c11.333 -34 14.833 -64.167 10.5 -90.5s-14.166 -53.5 -29.499 -81.5h-86
c5.33301 14.667 9.83301 28.334 13.5 41.001s6 25.5 7 38.5s0.333008 26.833 -2 41.5s-6.83301 31.667 -13.5 51z" />
    <glyph glyph-name="uni0147" unicode="&#x147;" horiz-adv-x="733" 
d="M220 704h-133v-704h115v430l-16 130l3 1l49 -105l259 -456h131v704h-115v-430l15 -130l-3 -1l-48 105zM529 882h-95l-63 -75l-63 75h-97l101 -130h115z" />
    <glyph glyph-name="uni0148" unicode="&#x148;" horiz-adv-x="606" 
d="M70 507h90.0029l14 -56c8 12.667 17.5 23.167 28.5 31.5s22.5 14.833 34.5 19.5s23.667 8 35 10s21.333 3 30 3c32 0 62 -5.33301 90 -16s52.333 -26 73 -46s37 -44 49 -72s18 -59.667 18 -95v-286h-109v286c0 20.667 -3.83301 39.167 -11.5 55.5
s-17.834 30.333 -30.501 42s-27.334 20.5 -44.001 26.5s-33.667 9 -51 9c-19.333 0 -38.333 -3.83301 -57 -11.5s-35.334 -20.167 -50.001 -37.5v-370h-109v507zM455.003 701l-101 -128h-113l-100 128h96l62 -74l62 74h94z" />
    <glyph glyph-name="uni0149" unicode="&#x149;" horiz-adv-x="628" 
d="M92 507h90.0029l14 -56c8 12.667 17.5 23.167 28.5 31.5s22.5 14.833 34.5 19.5s23.667 8 35 10s21.333 3 30 3c32 0 62 -5.33301 90 -16s52.333 -26 73 -46s37 -44 49 -72s18 -59.667 18 -95v-286h-109v286c0 20.667 -3.83301 39.167 -11.5 55.5
s-17.834 30.333 -30.501 42s-27.334 20.5 -44.001 26.5s-33.667 9 -51 9c-19.333 0 -38.333 -3.83301 -57 -11.5s-35.334 -20.167 -50.001 -37.5v-370h-109v507zM-16.9971 707l98.0029 -0.00195312c5.33301 -18 8.66602 -33.833 9.99902 -47.5s1.16602 -27 -0.500977 -40
s-4.83398 -25.833 -9.50098 -38.5s-10.667 -27 -18 -43h-86c9.33301 26.667 15.833 52.834 19.5 78.501s-0.833008 55.834 -13.5 90.501z" />
    <glyph glyph-name="uni014A" unicode="&#x14a;" horiz-adv-x="733" 
d="M220 704l256.996 -439l48 -105l3 1l-15 130v413h115v-733c0 -53.333 -16.667 -93.5 -50 -120.5s-75.666 -40.5 -126.999 -40.5c-5.33301 0 -10.666 0.166992 -15.999 0.5s-10.666 0.833008 -15.999 1.5v99c11.333 0 22.333 0.5 33 1.5s20.334 3.5 29.001 7.5
s15.667 10 21 18s8 19 8 33v29h-3l-269 456l-49 105l-3 -1l16 -130v-430h-115v704h133z" />
    <glyph glyph-name="uni014B" unicode="&#x14b;" horiz-adv-x="606" 
d="M70 507l90.002 0.000976562l14 -56c8 12.667 17.5 23.167 28.5 31.5s22.5 14.833 34.5 19.5s23.667 8 35 10s21.333 3 30 3c32 0 62 -5.33301 90 -16s52.333 -26 73 -46s37 -44 49 -72s18 -59.667 18 -95v-315c0 -53.333 -15.167 -92.833 -45.5 -118.5
s-71.166 -38.5 -122.499 -38.5h-15.5c-5 0 -10.167 0.333008 -15.5 1v85c13.333 0 25.666 0.833008 36.999 2.5s21 5 29 10s14.167 12.167 18.5 21.5s6.5 21.666 6.5 36.999v315c0 20.667 -3.83301 39.167 -11.5 55.5s-17.834 30.333 -30.501 42s-27.334 20.5 -44.001 26.5
s-33.667 9 -51 9c-19.333 0 -38.5 -3.83301 -57.5 -11.5s-35.833 -20.167 -50.5 -37.5v-370h-109v507z" />
    <glyph glyph-name="uni014C" unicode="&#x14c;" horiz-adv-x="820" 
d="M400 715c49.333 0 95.666 -9.33203 138.999 -27.999s81.333 -44.334 114 -77.001s58.334 -71.334 77.001 -116.001s28 -93 28 -145c0 -52.667 -9.33301 -101.167 -28 -145.5s-44.334 -82.666 -77.001 -114.999s-70.667 -57.666 -114 -75.999
s-89.666 -27.5 -138.999 -27.5s-95.666 9 -138.999 27s-81.333 43 -114 75s-58.334 70.333 -77.001 115s-28 93.667 -28 147s9.33301 102.333 28 147s44.334 83.167 77.001 115.5s70.667 57.666 114 75.999s89.666 27.5 138.999 27.5zM158 349.001
c0 -42 6.83301 -79.1689 20.5 -111.502s31.834 -59.5 54.501 -81.5s48.5 -38.667 77.5 -50s58.833 -17 89.5 -17c30 0 59.667 5.66699 89 17s55.333 28 78 50s41 49.167 55 81.5s21 69.5 21 111.5s-7 79.167 -21 111.5s-32.5 59.833 -55.5 82.5s-49 39.667 -78 51
s-58.833 17 -89.5 17c-30 0 -59.5 -6 -88.5 -18s-54.833 -29.167 -77.5 -51.5s-40.834 -49.666 -54.501 -81.999s-20.5 -69.166 -20.5 -110.499zM259 761.999v83h279v-83h-279z" />
    <glyph glyph-name="uni014D" unicode="&#x14d;" 
d="M560 253c0 -36.667 -6.5 -71 -19.5 -103s-31.333 -60 -55 -84s-51.667 -42.833 -84 -56.5s-67.5 -20.5 -105.5 -20.5s-73.167 6.83301 -105.5 20.5s-60.333 32.5 -84 56.5s-42.167 52 -55.5 84s-20 66.333 -20 103c0 37.333 6.66699 72 20 104s31.833 59.667 55.5 83
s51.667 41.833 84 55.5s67.5 20.5 105.5 20.5s73.167 -6.83301 105.5 -20.5s60.333 -32.167 84 -55.5s42 -51 55 -83s19.5 -66.667 19.5 -104zM140 253c0 -28 4.66699 -52.333 14 -73s21.333 -38 36 -52s31.334 -24.333 50.001 -31s37.334 -10 56.001 -10
c19.333 0 38.333 3.33301 57 10s35.167 17 49.5 31s26 31.333 35 52s13.5 45 13.5 73s-4.5 52.333 -13.5 73s-20.667 37.667 -35 51s-30.833 23.333 -49.5 30s-37.667 10 -57 10c-18.667 0 -37.334 -3.33301 -56.001 -10s-35.334 -16.667 -50.001 -30
s-26.667 -30.333 -36 -51s-14 -45 -14 -73zM152 589v85h274v-85h-274z" />
    <glyph glyph-name="uni014E" unicode="&#x14e;" horiz-adv-x="820" 
d="M400 715c49.333 0 95.666 -9.33203 138.999 -27.999s81.333 -44.334 114 -77.001s58.334 -71.334 77.001 -116.001s28 -93 28 -145c0 -52.667 -9.33301 -101.167 -28 -145.5s-44.334 -82.666 -77.001 -114.999s-70.667 -57.666 -114 -75.999
s-89.666 -27.5 -138.999 -27.5s-95.666 9 -138.999 27s-81.333 43 -114 75s-58.334 70.333 -77.001 115s-28 93.667 -28 147s9.33301 102.333 28 147s44.334 83.167 77.001 115.5s70.667 57.666 114 75.999s89.666 27.5 138.999 27.5zM158 349.001
c0 -42 6.83301 -79.1689 20.5 -111.502s31.834 -59.5 54.501 -81.5s48.5 -38.667 77.5 -50s58.833 -17 89.5 -17c30 0 59.667 5.66699 89 17s55.333 28 78 50s41 49.167 55 81.5s21 69.5 21 111.5s-7 79.167 -21 111.5s-32.5 59.833 -55.5 82.5s-49 39.667 -78 51
s-58.833 17 -89.5 17c-30 0 -59.5 -6 -88.5 -18s-54.833 -29.167 -77.5 -51.5s-40.834 -49.666 -54.501 -81.999s-20.5 -69.166 -20.5 -110.499zM401 757.999c-18 0 -35.167 2.50195 -51.5 7.50195s-30.5 12.667 -42.5 23s-21.5 23.666 -28.5 39.999s-10.5 35.5 -10.5 57.5
h76c0 -18.667 6.16699 -32.334 18.5 -41.001s25.5 -13 39.5 -13c15.333 0 28.5 4.16699 39.5 12.5s16.5 22.166 16.5 41.499h75c0 -22 -3.5 -41.167 -10.5 -57.5s-16.5 -29.666 -28.5 -39.999s-26 -18 -42 -23s-33 -7.5 -51 -7.5z" />
    <glyph glyph-name="uni014F" unicode="&#x14f;" 
d="M560 253c0 -36.667 -6.5 -71 -19.5 -103s-31.333 -60 -55 -84s-51.667 -42.833 -84 -56.5s-67.5 -20.5 -105.5 -20.5s-73.167 6.83301 -105.5 20.5s-60.333 32.5 -84 56.5s-42.167 52 -55.5 84s-20 66.333 -20 103c0 37.333 6.66699 72 20 104s31.833 59.667 55.5 83
s51.667 41.833 84 55.5s67.5 20.5 105.5 20.5s73.167 -6.83301 105.5 -20.5s60.333 -32.167 84 -55.5s42 -51 55 -83s19.5 -66.667 19.5 -104zM140 253c0 -28 4.66699 -52.333 14 -73s21.333 -38 36 -52s31.334 -24.333 50.001 -31s37.334 -10 56.001 -10
c19.333 0 38.333 3.33301 57 10s35.167 17 49.5 31s26 31.333 35 52s13.5 45 13.5 73s-4.5 52.333 -13.5 73s-20.667 37.667 -35 51s-30.833 23.333 -49.5 30s-37.667 10 -57 10c-18.667 0 -37.334 -3.33301 -56.001 -10s-35.334 -16.667 -50.001 -30
s-26.667 -30.333 -36 -51s-14 -45 -14 -73zM296 568c-18 0 -35.167 2.50195 -51.5 7.50195s-30.5 12.667 -42.5 23s-21.5 23.666 -28.5 39.999s-10.5 35.5 -10.5 57.5h76c0 -18.667 6.16699 -32.334 18.5 -41.001s25.5 -13 39.5 -13c15.333 0 28.5 4.16699 39.5 12.5
s16.5 22.166 16.5 41.499h75c0 -22 -3.5 -41.167 -10.5 -57.5s-16.5 -29.666 -28.5 -39.999s-26 -18 -42 -23s-33 -7.5 -51 -7.5z" />
    <glyph glyph-name="uni0150" unicode="&#x150;" horiz-adv-x="820" 
d="M400 715c49.333 0 95.666 -9.33203 138.999 -27.999s81.333 -44.334 114 -77.001s58.334 -71.334 77.001 -116.001s28 -93 28 -145c0 -52.667 -9.33301 -101.167 -28 -145.5s-44.334 -82.666 -77.001 -114.999s-70.667 -57.666 -114 -75.999
s-89.666 -27.5 -138.999 -27.5s-95.666 9 -138.999 27s-81.333 43 -114 75s-58.334 70.333 -77.001 115s-28 93.667 -28 147s9.33301 102.333 28 147s44.334 83.167 77.001 115.5s70.667 57.666 114 75.999s89.666 27.5 138.999 27.5zM158 349.001
c0 -42 6.83301 -79.1689 20.5 -111.502s31.834 -59.5 54.501 -81.5s48.5 -38.667 77.5 -50s58.833 -17 89.5 -17c30 0 59.667 5.66699 89 17s55.333 28 78 50s41 49.167 55 81.5s21 69.5 21 111.5s-7 79.167 -21 111.5s-32.5 59.833 -55.5 82.5s-49 39.667 -78 51
s-58.833 17 -89.5 17c-30 0 -59.5 -6 -88.5 -18s-54.833 -29.167 -77.5 -51.5s-40.834 -49.666 -54.501 -81.999s-20.5 -69.166 -20.5 -110.499zM270 758.999l70 124h103l-85 -124h-88zM421 758.999l70 124h103l-85 -124h-88z" />
    <glyph glyph-name="uni0151" unicode="&#x151;" 
d="M560 253c0 -36.667 -6.5 -71 -19.5 -103s-31.333 -60 -55 -84s-51.667 -42.833 -84 -56.5s-67.5 -20.5 -105.5 -20.5s-73.167 6.83301 -105.5 20.5s-60.333 32.5 -84 56.5s-42.167 52 -55.5 84s-20 66.333 -20 103c0 37.333 6.66699 72 20 104s31.833 59.667 55.5 83
s51.667 41.833 84 55.5s67.5 20.5 105.5 20.5s73.167 -6.83301 105.5 -20.5s60.333 -32.167 84 -55.5s42 -51 55 -83s19.5 -66.667 19.5 -104zM140 253c0 -28 4.66699 -52.333 14 -73s21.333 -38 36 -52s31.334 -24.333 50.001 -31s37.334 -10 56.001 -10
c19.333 0 38.333 3.33301 57 10s35.167 17 49.5 31s26 31.333 35 52s13.5 45 13.5 73s-4.5 52.333 -13.5 73s-20.667 37.667 -35 51s-30.833 23.333 -49.5 30s-37.667 10 -57 10c-18.667 0 -37.334 -3.33301 -56.001 -10s-35.334 -16.667 -50.001 -30
s-26.667 -30.333 -36 -51s-14 -45 -14 -73zM162 563l76 134h103l-91 -134h-88zM309 563l76 134h103l-91 -134h-88z" />
    <glyph glyph-name="uni0152" unicode="&#x152;" horiz-adv-x="949" 
d="M407 713c16.667 0 32.6689 -0.833008 48.002 -2.5s30.666 -4.83398 45.999 -9.50098h371v-108h-285v-188h282v-107h-282c0 -33.333 -0.166992 -64.666 -0.5 -93.999s-0.5 -61 -0.5 -95h286v-108h-366c-30.667 -10 -63.667 -15 -99 -15
c-54 0 -103.167 8.16699 -147.5 24.5s-82.333 40 -114 71s-56.334 69 -74.001 114s-26.5 96.167 -26.5 153.5c0 56.667 9.66699 107.5 29 152.5s45.5 83.167 78.5 114.5s71.5 55.333 115.5 72s90.333 25 139 25zM483.002 93l-0.00195312 512.999
c-11.333 3.33301 -23.333 5.83301 -36 7.5s-24.334 2.5 -35.001 2.5c-36 0 -69.333 -5.83301 -100 -17.5s-57.167 -28.834 -79.5 -51.501s-40 -50.5 -53 -83.5s-19.5 -71.167 -19.5 -114.5c0 -44 6.33301 -82.667 19 -116s30.334 -61.166 53.001 -83.499
s49.334 -39.166 80.001 -50.499s64 -17 100 -17c10.667 0 22.334 1 35.001 3s24.667 4.66699 36 8z" />
    <glyph glyph-name="uni0153" unicode="&#x153;" horiz-adv-x="1046" 
d="M718 87c24 0 49.332 5.33496 75.999 16.002s49 27.667 67 51l75 -54c-30 -40 -63.667 -68.167 -101 -84.5s-77 -24.5 -119 -24.5c-19.333 0 -38.833 2 -58.5 6s-38.5 10.667 -56.5 20s-34.667 21.833 -50 37.5s-28.666 35.167 -39.999 58.5
c-10 -23.333 -22.5 -43 -37.5 -59s-31.5 -28.833 -49.5 -38.5s-37.167 -16.834 -57.5 -21.501s-40.5 -7 -60.5 -7c-44 -0.666992 -82.667 6.83301 -116 22.5s-61 36.167 -83 61.5s-38.5 54.333 -49.5 87s-16.167 66 -15.5 100c0.666992 33.333 6.66699 65.833 18 97.5
s28.333 59.667 51 84s50.5 44 83.5 59s71.167 22.5 114.5 22.5c40.667 0 80.167 -9.66699 118.5 -29s68.166 -49.333 89.499 -90c18 34 44.5 62.167 79.5 84.5s75.833 33.5 122.5 33.5c38.667 0 73.5 -6.5 104.5 -19.5s57.333 -31 79 -54s38.334 -50.5 50.001 -82.5
s17.5 -67.333 17.5 -106v-21.5c0 -7.66699 -0.333008 -16.834 -1 -27.501l-399 -1c4 -15.333 10.167 -30.333 18.5 -45s18.833 -27.667 31.5 -39s27.167 -20.333 43.5 -27s34.5 -10 54.5 -10zM147.999 255.002c0 -32 4.66699 -58.833 14 -80.5s21.5 -39.167 36.5 -52.5
s31.833 -23 50.5 -29s37.334 -9 56.001 -9c19.333 0 38.5 4 57.5 12s36.167 19.5 51.5 34.5s27.833 33.5 37.5 55.5s14.5 47 14.5 75s-4.5 52.167 -13.5 72.5s-21 37 -36 50s-31.833 22.5 -50.5 28.5s-37.667 9 -57 9c-18.667 0 -37.5 -3.33301 -56.5 -10
s-36.333 -16.667 -52 -30s-28.334 -30.5 -38.001 -51.5s-14.5 -45.833 -14.5 -74.5zM570.999 297.002l289 -0.00195312c-3.33301 40.667 -17.5 71.834 -42.5 93.501s-57.833 32.834 -98.5 33.501c-42 0 -75.833 -12.167 -101.5 -36.5s-41.167 -54.5 -46.5 -90.5z" />
    <glyph glyph-name="uni0154" unicode="&#x154;" horiz-adv-x="616" 
d="M382 275l210.996 -275h-136l-206 271h-49v-271h-115v701h230c34.667 0 66.834 -4 96.501 -12s55.334 -20.833 77.001 -38.5s38.834 -40.167 51.501 -67.5s19.334 -60.333 20.001 -99c0 -32 -4.5 -60.167 -13.5 -84.5s-21.667 -45 -38 -62s-35.5 -30.667 -57.5 -41
s-45.667 -17.5 -71 -21.5zM201.996 372h116c40 0 71.5 9.66699 94.5 29s34.5 47 34.5 83c0 37.333 -12 65.5 -36 84.5s-55 28.5 -93 28.5h-116v-225zM416.996 881l-99 -133h-94l75 133h118z" />
    <glyph glyph-name="uni0155" unicode="&#x155;" horiz-adv-x="415" 
d="M66 509l94 -0.000976562l7 -54c8 14.667 17.167 26.167 27.5 34.5s21 14.833 32 19.5s21.667 7.66699 32 9s19.833 2 28.5 2c17.333 0 36.5 -2.66699 57.5 -8s40.5 -13.666 58.5 -24.999l-46 -88c-23.333 14.667 -49 22 -77 22s-52.667 -8.66699 -74 -26s-32 -43 -32 -77
v-318h-108v509zM347 703.999l-99 -133h-94l75 133h118z" />
    <glyph glyph-name="uni0156" unicode="&#x156;" horiz-adv-x="616" 
d="M382 275l210.996 -275h-136l-206 271h-49v-271h-115v701h230c34.667 0 66.834 -4 96.501 -12s55.334 -20.833 77.001 -38.5s38.834 -40.167 51.501 -67.5s19.334 -60.333 20.001 -99c0 -32 -4.5 -60.167 -13.5 -84.5s-21.667 -45 -38 -62s-35.5 -30.667 -57.5 -41
s-45.667 -17.5 -71 -21.5zM201.996 372h116c40 0 71.5 9.66699 94.5 29s34.5 47 34.5 83c0 37.333 -12 65.5 -36 84.5s-55 28.5 -93 28.5h-116v-225zM266.996 -8l104.998 0.000976562c3.33301 -19.333 5.33301 -36.333 6 -51s0.333984 -28.667 -0.999023 -42
s-4.16602 -26.333 -8.49902 -39s-9.83301 -26 -16.5 -40h-91c10 28.667 15.5 55.667 16.5 81s-2.5 55.666 -10.5 90.999z" />
    <glyph glyph-name="uni0157" unicode="&#x157;" horiz-adv-x="415" 
d="M66 509l94 -0.000976562l7 -54c8 14.667 17.167 26.167 27.5 34.5s21 14.833 32 19.5s21.667 7.66699 32 9s19.833 2 28.5 2c17.333 0 36.5 -2.66699 57.5 -8s40.5 -13.666 58.5 -24.999l-46 -88c-23.333 14.667 -49 22 -77 22s-52.667 -8.66699 -74 -26s-32 -43 -32 -77
v-318h-108v509zM69 -32.001l104.999 -0.00292969c3.33301 -19.333 5.33301 -36.166 6 -50.499s0.333984 -27.666 -0.999023 -39.999s-4.16602 -24.666 -8.49902 -36.999s-9.83301 -25.5 -16.5 -39.5h-91c5.33301 14 9.33301 27.333 12 40s4.16699 25.5 4.5 38.5
s-0.333984 26.5 -2.00098 40.5s-4.5 30 -8.5 48z" />
    <glyph glyph-name="uni0158" unicode="&#x158;" horiz-adv-x="616" 
d="M382 275l210.996 -275h-136l-206 271h-49v-271h-115v701h230c34.667 0 66.834 -4 96.501 -12s55.334 -20.833 77.001 -38.5s38.834 -40.167 51.501 -67.5s19.334 -60.333 20.001 -99c0 -32 -4.5 -60.167 -13.5 -84.5s-21.667 -45 -38 -62s-35.5 -30.667 -57.5 -41
s-45.667 -17.5 -71 -21.5zM201.996 372h116c40 0 71.5 9.66699 94.5 29s34.5 47 34.5 83c0 37.333 -12 65.5 -36 84.5s-55 28.5 -93 28.5h-116v-225zM459.996 880l-102 -130h-115l-101 130h97l63 -75l63 75h95z" />
    <glyph glyph-name="uni0159" unicode="&#x159;" horiz-adv-x="415" 
d="M66 509l94 -0.000976562l7 -54c8 14.667 17.167 26.167 27.5 34.5s21 14.833 32 19.5s21.667 7.66699 32 9s19.833 2 28.5 2c17.333 0 36.5 -2.66699 57.5 -8s40.5 -13.666 58.5 -24.999l-46 -88c-23.333 14.667 -49 22 -77 22s-52.667 -8.66699 -74 -26s-32 -43 -32 -77
v-318h-108v509zM388 699.999l-99 -126h-111l-98 126h94l61 -73l61 73h92z" />
    <glyph glyph-name="uni015A" unicode="&#x15a;" horiz-adv-x="558" 
d="M161 517c-0.666992 -16.667 2.83105 -30.8359 10.498 -42.5029s17.5 -21.667 29.5 -30s25.167 -15.166 39.5 -20.499s27.833 -9.66602 40.5 -12.999c27.333 -6.66699 54.166 -15.167 80.499 -25.5s49.666 -24.166 69.999 -41.499s36.5 -39.166 48.5 -65.499
s17.333 -59.166 16 -98.499c-2 -33.333 -10.167 -62.333 -24.5 -87s-32.666 -45 -54.999 -61s-47.166 -28 -74.499 -36s-54.666 -12 -81.999 -12c-23.333 0 -46.666 3.33301 -69.999 10s-45.166 16.667 -65.499 30s-39 30.166 -56 50.499s-30.5 44.166 -40.5 71.499l87 45
c14.667 -32 34.5 -57.167 59.5 -75.5s55.5 -27.5 91.5 -27.5c34 0 61.667 9 83 27s32.666 41.667 33.999 71c1.33301 21.333 -2 39 -10 53s-18.667 25.833 -32 35.5s-28 17.167 -44 22.5s-31.333 10 -46 14c-22 6 -45.167 13.667 -69.5 23s-46.5 21.833 -66.5 37.5
s-36.333 35.5 -49 59.5s-18.334 53.667 -17.001 89c0.666992 34 7.66699 63.5 21 88.5s30.333 45.5 51 61.5s44 27.833 70 35.5s52.333 11.5 79 11.5c46 0 88.833 -13 128.5 -39s68.834 -65 87.501 -117l-90 -41c-11.333 27.333 -28 50 -50 68s-48.333 27 -79 27
c-26 0 -49.667 -8 -71 -24s-33 -40.667 -35 -74zM411.998 894.998l-99 -133h-94l75 133h118z" />
    <glyph glyph-name="uni015B" unicode="&#x15b;" horiz-adv-x="439" 
d="M227 305c21.333 -4 42.1699 -9.99609 62.5029 -17.9961s38.333 -18.333 54 -31s28.167 -28.167 37.5 -46.5s14 -39.833 14 -64.5c0 -28.667 -6 -53 -18 -73s-27.167 -36.167 -45.5 -48.5s-38.666 -21.166 -60.999 -26.499s-43.833 -8 -64.5 -8
c-34.667 0 -67.334 7.5 -98.001 22.5s-57.667 38.833 -81 71.5l68 66c14 -18 30.5 -32.5 49.5 -43.5s38.5 -17.167 58.5 -18.5c8.66699 0 18.167 0.666992 28.5 2s19.666 4 27.999 8s15.333 9.66699 21 17s8.5 16.666 8.5 27.999c0 12 -2.83301 22.167 -8.5 30.5
s-12.834 15.166 -21.501 20.499s-18 9.5 -28 12.5s-19.333 5.16699 -28 6.5c-20.667 3.33301 -40.834 8.66602 -60.501 15.999s-37 17 -52 29s-27 26.667 -36 44s-13.5 38 -13.5 62c0 25.333 5.16699 47.5 15.5 66.5s24 35.167 41 48.5s36.667 23.333 59 30
s45.166 10 68.499 10c26 0 52.667 -4.83301 80 -14.5s53.333 -27.167 78 -52.5l-60 -67c-16 12.667 -31.667 22.167 -47 28.5s-31.666 9.5 -48.999 9.5c-8 0 -16.833 -1 -26.5 -3s-18.5 -5.33301 -26.5 -10s-14.5 -10.834 -19.5 -18.501s-7.5 -17.167 -7.5 -28.5
c0 -10.667 2.66699 -19.334 8 -26.001s12 -12 20 -16s16.667 -7 26 -9s18 -4 26 -6zM350.004 698.004l-96 -133h-94l72 133h118z" />
    <glyph glyph-name="uni015C" unicode="&#x15c;" horiz-adv-x="559" 
d="M161 517c-0.666992 -16.667 2.83105 -30.8359 10.498 -42.5029s17.5 -21.667 29.5 -30s25.167 -15.166 39.5 -20.499s27.833 -9.66602 40.5 -12.999c27.333 -6.66699 54.166 -15.167 80.499 -25.5s49.666 -24.166 69.999 -41.499s36.5 -39.166 48.5 -65.499
s17.333 -59.166 16 -98.499c-2 -33.333 -10.167 -62.333 -24.5 -87s-32.666 -45 -54.999 -61s-47.166 -28 -74.499 -36s-54.666 -12 -81.999 -12c-23.333 0 -46.666 3.33301 -69.999 10s-45.166 16.667 -65.499 30s-39 30.166 -56 50.499s-30.5 44.166 -40.5 71.499l87 45
c14.667 -32 34.5 -57.167 59.5 -75.5s55.5 -27.5 91.5 -27.5c34 0 61.667 9 83 27s32.666 41.667 33.999 71c1.33301 21.333 -2 39 -10 53s-18.667 25.833 -32 35.5s-28 17.167 -44 22.5s-31.333 10 -46 14c-22 6 -45.167 13.667 -69.5 23s-46.5 21.833 -66.5 37.5
s-36.333 35.5 -49 59.5s-18.334 53.667 -17.001 89c0.666992 34 7.66699 63.5 21 88.5s30.333 45.5 51 61.5s44 27.833 70 35.5s52.333 11.5 79 11.5c46 0 88.833 -13 128.5 -39s68.834 -65 87.501 -117l-90 -41c-11.333 27.333 -28 50 -50 68s-48.333 27 -79 27
c-26 0 -49.667 -8 -71 -24s-33 -40.667 -35 -74zM113.998 759.998l102 130h115l101 -130h-97l-63 75l-63 -75h-95z" />
    <glyph glyph-name="uni015D" unicode="&#x15d;" horiz-adv-x="439" 
d="M227 305c21.333 -4 42.1699 -9.99609 62.5029 -17.9961s38.333 -18.333 54 -31s28.167 -28.167 37.5 -46.5s14 -39.833 14 -64.5c0 -28.667 -6 -53 -18 -73s-27.167 -36.167 -45.5 -48.5s-38.666 -21.166 -60.999 -26.499s-43.833 -8 -64.5 -8
c-34.667 0 -67.334 7.5 -98.001 22.5s-57.667 38.833 -81 71.5l68 66c14 -18 30.5 -32.5 49.5 -43.5s38.5 -17.167 58.5 -18.5c8.66699 0 18.167 0.666992 28.5 2s19.666 4 27.999 8s15.333 9.66699 21 17s8.5 16.666 8.5 27.999c0 12 -2.83301 22.167 -8.5 30.5
s-12.834 15.166 -21.501 20.499s-18 9.5 -28 12.5s-19.333 5.16699 -28 6.5c-20.667 3.33301 -40.834 8.66602 -60.501 15.999s-37 17 -52 29s-27 26.667 -36 44s-13.5 38 -13.5 62c0 25.333 5.16699 47.5 15.5 66.5s24 35.167 41 48.5s36.667 23.333 59 30
s45.166 10 68.499 10c26 0 52.667 -4.83301 80 -14.5s53.333 -27.167 78 -52.5l-60 -67c-16 12.667 -31.667 22.167 -47 28.5s-31.666 9.5 -48.999 9.5c-8 0 -16.833 -1 -26.5 -3s-18.5 -5.33301 -26.5 -10s-14.5 -10.834 -19.5 -18.501s-7.5 -17.167 -7.5 -28.5
c0 -10.667 2.66699 -19.334 8 -26.001s12 -12 20 -16s16.667 -7 26 -9s18 -4 26 -6zM79.0039 569.004l95 121h108l94 -121h-91l-58 70l-59 -70h-89z" />
    <glyph glyph-name="uni015E" unicode="&#x15e;" horiz-adv-x="558" 
d="M161 517c-0.666992 -16.667 2.83789 -30.8408 10.5049 -42.5078s17.5 -21.667 29.5 -30s25.167 -15.166 39.5 -20.499s27.833 -9.66602 40.5 -12.999c27.333 -6.66699 54.166 -15.167 80.499 -25.5s49.666 -24.166 69.999 -41.499s36.5 -39.166 48.5 -65.499
s17.333 -59.166 16 -98.499c-1.33301 -29.333 -7.33301 -55.166 -18 -77.499s-24.5 -41.5 -41.5 -57.5s-36.333 -28.833 -58 -38.5s-44.5 -16.167 -68.5 -19.5l-16 -34c16.667 -3.33301 30 -8.16602 40 -14.499s17.5 -13.5 22.5 -21.5s8 -16.5 9 -25.5
s0.833008 -17.5 -0.5 -25.5c-4.66699 -26.667 -17.667 -46.667 -39 -60s-45.666 -20 -72.999 -20c-16.667 0 -33.5 2.66699 -50.5 8s-32.5 13.333 -46.5 24l22 49c12 -5.33301 23.667 -9.66602 35 -12.999s21.666 -5 30.999 -5c10.667 0 19.167 2 25.5 6
s9.83301 10.667 10.5 20c1.33301 12.667 -1.66699 21.667 -9 27s-15.333 8 -24 8c-10.667 0 -19.334 -3.33301 -26.001 -10l-18 18l34 68c-21.333 2.66699 -42.5 8 -63.5 16s-40.833 18.667 -59.5 32s-35.334 29.333 -50.001 48s-26.667 40 -36 64l87 45
c14.667 -32 34.5 -57.167 59.5 -75.5s55.5 -27.5 91.5 -27.5c34 0 61.667 9 83 27s32.666 41.667 33.999 71c1.33301 21.333 -2 39 -10 53s-18.667 25.833 -32 35.5s-28 17.167 -44 22.5s-31.333 10 -46 14c-22 6 -45.167 13.667 -69.5 23s-46.5 21.833 -66.5 37.5
s-36.333 35.5 -49 59.5s-18.334 53.667 -17.001 89c0.666992 34 7.66699 63.5 21 88.5s30.333 45.5 51 61.5s44 27.833 70 35.5s52.333 11.5 79 11.5c46 0 88.833 -13 128.5 -39s68.834 -65 87.501 -117l-90 -41c-11.333 27.333 -28 50 -50 68s-48.333 27 -79 27
c-26 0 -49.667 -8 -71 -24s-33 -40.667 -35 -74z" />
    <glyph glyph-name="uni015F" unicode="&#x15f;" horiz-adv-x="438" 
d="M227 305c21.333 -4 42.1719 -9.99512 62.5049 -17.9951s38.333 -18.333 54 -31s28.167 -28.167 37.5 -46.5s14 -39.833 14 -64.5c0 -24 -4.33301 -45 -13 -63s-20 -33.167 -34 -45.5s-29.833 -22 -47.5 -29s-35.5 -11.833 -53.5 -14.5l-16 -28
c16.667 -2 30.334 -6 41.001 -12s19 -13.167 25 -21.5s9.66699 -16.833 11 -25.5s1 -16.334 -1 -23.001c-5.33301 -19.333 -17.5 -33.666 -36.5 -42.999s-40.167 -14 -63.5 -14c-34 0 -65 8.33301 -93 25l21 38c22.667 -9.33301 44.667 -14 66 -14
c11.333 0 20.666 1.83301 27.999 5.5s11.333 9.5 12 17.5c1.33301 11.333 -3.83398 19.666 -15.501 24.999s-23.167 8 -34.5 8c-8.66699 0 -15.334 -1.66699 -20.001 -5l-16 13l31 51c-30.667 2.66699 -59.667 11.334 -87 26.001s-51.333 37 -72 67l68 66
c14 -18 30.5 -32.5 49.5 -43.5s38.5 -17.167 58.5 -18.5c8.66699 0 18.167 0.666992 28.5 2s19.666 4 27.999 8s15.333 9.66699 21 17s8.5 16.666 8.5 27.999c0 12 -2.83301 22.167 -8.5 30.5s-12.834 15.166 -21.501 20.499s-18 9.5 -28 12.5s-19.333 5.16699 -28 6.5
c-20.667 3.33301 -40.834 8.66602 -60.501 15.999s-37 17 -52 29s-27 26.667 -36 44s-13.5 38 -13.5 62c0 25.333 5.16699 47.5 15.5 66.5s24 35.167 41 48.5s36.667 23.333 59 30s45.166 10 68.499 10c26 0 52.667 -4.83301 80 -14.5s53.333 -27.167 78 -52.5l-60 -67
c-16 12.667 -31.667 22.167 -47 28.5s-31.666 9.5 -48.999 9.5c-8 0 -16.833 -1 -26.5 -3s-18.5 -5.33301 -26.5 -10s-14.5 -10.834 -19.5 -18.501s-7.5 -17.167 -7.5 -28.5c0 -10.667 2.66699 -19.334 8 -26.001s12 -12 20 -16s16.667 -7 26 -9s18 -4 26 -6z" />
    <glyph glyph-name="uni0160" unicode="&#x160;" horiz-adv-x="560" 
d="M161 517c-0.666992 -16.667 2.83105 -30.8359 10.498 -42.5029s17.5 -21.667 29.5 -30s25.167 -15.166 39.5 -20.499s27.833 -9.66602 40.5 -12.999c27.333 -6.66699 54.166 -15.167 80.499 -25.5s49.666 -24.166 69.999 -41.499s36.5 -39.166 48.5 -65.499
s17.333 -59.166 16 -98.499c-2 -33.333 -10.167 -62.333 -24.5 -87s-32.666 -45 -54.999 -61s-47.166 -28 -74.499 -36s-54.666 -12 -81.999 -12c-23.333 0 -46.666 3.33301 -69.999 10s-45.166 16.667 -65.499 30s-39 30.166 -56 50.499s-30.5 44.166 -40.5 71.499l87 45
c14.667 -32 34.5 -57.167 59.5 -75.5s55.5 -27.5 91.5 -27.5c34 0 61.667 9 83 27s32.666 41.667 33.999 71c1.33301 21.333 -2 39 -10 53s-18.667 25.833 -32 35.5s-28 17.167 -44 22.5s-31.333 10 -46 14c-22 6 -45.167 13.667 -69.5 23s-46.5 21.833 -66.5 37.5
s-36.333 35.5 -49 59.5s-18.334 53.667 -17.001 89c0.666992 34 7.66699 63.5 21 88.5s30.333 45.5 51 61.5s44 27.833 70 35.5s52.333 11.5 79 11.5c46 0 88.833 -13 128.5 -39s68.834 -65 87.501 -117l-90 -41c-11.333 27.333 -28 50 -50 68s-48.333 27 -79 27
c-26 0 -49.667 -8 -71 -24s-33 -40.667 -35 -74zM425.998 904.998l-99 -126h-111l-98 126h94l61 -72l61 72h92z" />
    <glyph glyph-name="uni0161" unicode="&#x161;" horiz-adv-x="439" 
d="M227 305c21.333 -4 42.1699 -9.99609 62.5029 -17.9961s38.333 -18.333 54 -31s28.167 -28.167 37.5 -46.5s14 -39.833 14 -64.5c0 -28.667 -6 -53 -18 -73s-27.167 -36.167 -45.5 -48.5s-38.666 -21.166 -60.999 -26.499s-43.833 -8 -64.5 -8
c-34.667 0 -67.334 7.5 -98.001 22.5s-57.667 38.833 -81 71.5l68 66c14 -18 30.5 -32.5 49.5 -43.5s38.5 -17.167 58.5 -18.5c8.66699 0 18.167 0.666992 28.5 2s19.666 4 27.999 8s15.333 9.66699 21 17s8.5 16.666 8.5 27.999c0 12 -2.83301 22.167 -8.5 30.5
s-12.834 15.166 -21.501 20.499s-18 9.5 -28 12.5s-19.333 5.16699 -28 6.5c-20.667 3.33301 -40.834 8.66602 -60.501 15.999s-37 17 -52 29s-27 26.667 -36 44s-13.5 38 -13.5 62c0 25.333 5.16699 47.5 15.5 66.5s24 35.167 41 48.5s36.667 23.333 59 30
s45.166 10 68.499 10c26 0 52.667 -4.83301 80 -14.5s53.333 -27.167 78 -52.5l-60 -67c-16 12.667 -31.667 22.167 -47 28.5s-31.666 9.5 -48.999 9.5c-8 0 -16.833 -1 -26.5 -3s-18.5 -5.33301 -26.5 -10s-14.5 -10.834 -19.5 -18.501s-7.5 -17.167 -7.5 -28.5
c0 -10.667 2.66699 -19.334 8 -26.001s12 -12 20 -16s16.667 -7 26 -9s18 -4 26 -6zM371.004 702.004l-96 -118h-106l-94 118h90l59 -68l58 68h89z" />
    <glyph glyph-name="uni0162" unicode="&#x162;" horiz-adv-x="467" 
d="M197 0l-27.999 0.000976562v597h-166v105h446v-105h-165v-597l-18 -61c14 -2 25.167 -6.33301 33.5 -13s14.5 -14.334 18.5 -23.001s5.83301 -18 5.5 -28s-2.83301 -20 -7.5 -30c-8.66699 -18 -23.5 -33 -44.5 -45s-45.5 -18 -73.5 -18c-29.333 0 -59 7.66699 -89 23
l22 46c11.333 -5.33301 22.666 -9.16602 33.999 -11.499s22 -3.5 32 -3.5c12.667 0 23.5 2 32.5 6s14.833 10.333 17.5 19c2.66699 7.33301 0 14.666 -8 21.999s-18.333 11 -31 11c-7.33301 0 -14 -1.33301 -20 -4l-18 17z" />
    <glyph glyph-name="uni0163" unicode="&#x163;" horiz-adv-x="307" 
d="M221 -2l-6 -37.002c14 -2 25.833 -6.33301 35.5 -13s17.167 -14.5 22.5 -23.5s8.33301 -18.667 9 -29s-1.33301 -20.5 -6 -30.5c-8.66699 -19.333 -22.5 -34.666 -41.5 -45.999s-41.167 -17 -66.5 -17c-14 0 -28.667 1.83301 -44 5.5s-31.333 10.167 -48 19.5l22 46
c11.333 -5.33301 22.333 -9.16602 33 -11.499s20.667 -3.5 30 -3.5c11.333 0 21.166 2 29.499 6s13.833 10.333 16.5 19c2.66699 7.33301 0.166992 15.333 -7.5 24s-17.834 13 -30.501 13c-6.66699 0 -12.667 -1.33301 -18 -4l-16 13l19 84
c-25.333 11.333 -45.333 28.833 -60 52.5s-22 54.167 -22 91.5v254h-60v96h60v193h108v-193h94v-96h-94v-251c0 -19.333 6.83301 -34.833 20.5 -46.5s33.5 -17.5 59.5 -17.5c2 0 4.16699 0.166992 6.5 0.5s4.83301 0.5 7.5 0.5v-98
c-5.33301 -0.666992 -10.666 -1.16699 -15.999 -1.5s-10.666 -0.5 -15.999 -0.5c-3.33301 0 -6.83301 0.166992 -10.5 0.5s-7.16699 0.5 -10.5 0.5z" />
    <glyph glyph-name="uni0164" unicode="&#x164;" horiz-adv-x="467" 
d="M3 702v-105h166v-597h115v597h165v105h-446zM386 882h-95l-63 -75l-63 75h-97l101 -130h115z" />
    <glyph glyph-name="uni0165" unicode="&#x165;" horiz-adv-x="314" 
d="M249 704l91.999 0.00195312c3.33301 -10.667 5 -22.5 5 -35.5s-1 -26.167 -3 -39.5s-4.83301 -26.5 -8.5 -39.5s-7.83398 -24.5 -12.501 -34.5h-80c6.66699 15.333 11.834 36.666 15.501 63.999s0.833984 55.666 -8.49902 84.999zM273.999 -0.998047
c-6 -0.666992 -11.833 -1.16699 -17.5 -1.5s-11.167 -0.5 -16.5 -0.5c-50 0 -90.5 13 -121.5 39s-46.5 66.333 -46.5 121v251h-60v96h60v196h108v-196h94v-96h-94v-248c0 -19.333 6.83301 -34.833 20.5 -46.5s33.5 -17.5 59.5 -17.5c2 0 4.16699 0.166992 6.5 0.5
s4.83301 0.5 7.5 0.5v-98z" />
    <glyph glyph-name="uni0166" unicode="&#x166;" horiz-adv-x="464" 
d="M45 300h124v-300h115v300h126v89h-126v208h165v105h-446v-105h166v-208h-124v-89z" />
    <glyph glyph-name="uni0167" unicode="&#x167;" horiz-adv-x="307" 
d="M274 97v-98c-6 -0.666992 -11.833 -1.16699 -17.5 -1.5s-11.167 -0.5 -16.5 -0.5c-50 0 -90.5 13 -121.5 39s-46.5 66.333 -46.5 121v60h-48v79h48v115h-60v96h60v193h108v-193h94v-96h-94v-115h83v-79h-83v-57c0 -19.333 6.83301 -34.833 20.5 -46.5
s33.5 -17.5 59.5 -17.5c2 0 4.16699 0.166992 6.5 0.5s4.83301 0.5 7.5 0.5z" />
    <glyph glyph-name="uni0168" unicode="&#x168;" horiz-adv-x="654" 
d="M77 700h115.003v-490c0 -20.667 3.66699 -38.667 11 -54s16.833 -27.666 28.5 -36.999s25.167 -16.333 40.5 -21s31 -7 47 -7s31.667 2.33301 47 7s29.166 11.667 41.499 21s22.166 21.666 29.499 36.999s11 33.333 11 54v490h115v-490
c0 -39.333 -7 -73.166 -21 -101.499s-32.5 -51.5 -55.5 -69.5s-49.167 -31.167 -78.5 -39.5s-59 -12.5 -89 -12.5c-30.667 0 -60.5 4.16699 -89.5 12.5s-54.833 21.5 -77.5 39.5s-40.834 41.167 -54.501 69.5s-20.5 62.166 -20.5 101.499v490zM433.003 862l53.999 -41.998
c-13.333 -25.333 -28.166 -43.666 -44.499 -54.999s-33.833 -17 -52.5 -17c-26 0 -54.667 11 -86 33c-10 6 -19.333 9 -28 9c-9.33301 0 -18.333 -3.33301 -27 -10s-18.667 -16.334 -30 -29.001l-58 44c13.333 21.333 29.5 39.5 48.5 54.5s41.833 22.5 68.5 22.5
c8.66699 -0.666992 17.167 -2.83398 25.5 -6.50098s16.5 -7.83398 24.5 -12.501l23.5 -13.5c7.66699 -4.33301 15.5 -7.5 23.5 -9.5c2 -0.666992 5.33301 -1 10 -1c16 0 32 11 48 33z" />
    <glyph glyph-name="uni0169" unicode="&#x169;" horiz-adv-x="602" 
d="M527 0h-90.0029l-14 56c-8 -12.667 -17.5 -23.167 -28.5 -31.5s-22.5 -14.833 -34.5 -19.5s-23.667 -8 -35 -10s-21.333 -3 -30 -3c-32 0 -62 5.33301 -90 16s-52.333 26 -73 46s-37 44.167 -49 72.5s-18 59.833 -18 94.5v286h109v-286
c0 -20.667 3.83301 -39.167 11.5 -55.5s17.834 -30.333 30.501 -42s27.334 -20.5 44.001 -26.5s33.667 -9 51 -9c19.333 0 38.333 3.83301 57 11.5s35.334 20.167 50.001 37.5v370h109v-507zM407.997 695l53 -39.998c-13.333 -24.667 -27.833 -42.5 -43.5 -53.5
s-32.5 -16.5 -50.5 -16.5c-26.667 0 -54.667 10.667 -84 32c-10 6 -19 9 -27 9c-9.33301 0 -18.166 -3.33301 -26.499 -10s-18.166 -16.334 -29.499 -29.001l-56 43c13.333 21.333 29.166 39.166 47.499 53.499s40.5 21.5 66.5 21.5c8.66699 -0.666992 17 -2.66699 25 -6
s15.833 -7.33301 23.5 -12l23 -13.5c7.66699 -4.33301 15.167 -7.5 22.5 -9.5c2 -0.666992 5.33301 -1 10 -1c15.333 0 30.666 10.667 45.999 32z" />
    <glyph glyph-name="uni016A" unicode="&#x16a;" horiz-adv-x="654" 
d="M77 700h115.003v-490c0 -20.667 3.66699 -38.667 11 -54s16.833 -27.666 28.5 -36.999s25.167 -16.333 40.5 -21s31 -7 47 -7s31.667 2.33301 47 7s29.166 11.667 41.499 21s22.166 21.666 29.499 36.999s11 33.333 11 54v490h115v-490
c0 -39.333 -7 -73.166 -21 -101.499s-32.5 -51.5 -55.5 -69.5s-49.167 -31.167 -78.5 -39.5s-59 -12.5 -89 -12.5c-30.667 0 -60.5 4.16699 -89.5 12.5s-54.833 21.5 -77.5 39.5s-40.834 41.167 -54.501 69.5s-20.5 62.166 -20.5 101.499v490zM181.003 756v86h279v-86h-279z
" />
    <glyph glyph-name="uni016B" unicode="&#x16b;" horiz-adv-x="602" 
d="M527 0h-90.0029l-14 56c-8 -12.667 -17.5 -23.167 -28.5 -31.5s-22.5 -14.833 -34.5 -19.5s-23.667 -8 -35 -10s-21.333 -3 -30 -3c-32 0 -62 5.33301 -90 16s-52.333 26 -73 46s-37 44.167 -49 72.5s-18 59.833 -18 94.5v286h109v-286
c0 -20.667 3.83301 -39.167 11.5 -55.5s17.834 -30.333 30.501 -42s27.334 -20.5 44.001 -26.5s33.667 -9 51 -9c19.333 0 38.333 3.83301 57 11.5s35.334 20.167 50.001 37.5v370h109v-507zM165.997 608v86h269v-86h-269z" />
    <glyph glyph-name="uni016C" unicode="&#x16c;" horiz-adv-x="655" 
d="M77 700h115.003v-490c0 -20.667 3.66699 -38.667 11 -54s16.833 -27.666 28.5 -36.999s25.167 -16.333 40.5 -21s31 -7 47 -7s31.667 2.33301 47 7s29.166 11.667 41.499 21s22.166 21.666 29.499 36.999s11 33.333 11 54v490h115v-490
c0 -39.333 -7 -73.166 -21 -101.499s-32.5 -51.5 -55.5 -69.5s-49.167 -31.167 -78.5 -39.5s-59 -12.5 -89 -12.5c-30.667 0 -60.5 4.16699 -89.5 12.5s-54.833 21.5 -77.5 39.5s-40.834 41.167 -54.501 69.5s-20.5 62.166 -20.5 101.499v490zM319.003 748
c-18 0 -35.167 2.50195 -51.5 7.50195s-30.5 12.667 -42.5 23s-21.5 23.666 -28.5 39.999s-10.5 35.5 -10.5 57.5h76c0 -18.667 6.16699 -32.334 18.5 -41.001s25.5 -13 39.5 -13c15.333 0 28.5 4.16699 39.5 12.5s16.5 22.166 16.5 41.499h75
c0 -22 -3.5 -41.167 -10.5 -57.5s-16.5 -29.666 -28.5 -39.999s-26 -18 -42 -23s-33 -7.5 -51 -7.5z" />
    <glyph glyph-name="uni016D" unicode="&#x16d;" horiz-adv-x="602" 
d="M527 0h-90.0029l-14 56c-8 -12.667 -17.5 -23.167 -28.5 -31.5s-22.5 -14.833 -34.5 -19.5s-23.667 -8 -35 -10s-21.333 -3 -30 -3c-32 0 -62 5.33301 -90 16s-52.333 26 -73 46s-37 44.167 -49 72.5s-18 59.833 -18 94.5v286h109v-286
c0 -20.667 3.83301 -39.167 11.5 -55.5s17.834 -30.333 30.501 -42s27.334 -20.5 44.001 -26.5s33.667 -9 51 -9c19.333 0 38.333 3.83301 57 11.5s35.334 20.167 50.001 37.5v370h109v-507zM297.997 571c-18 0 -35.167 2.50195 -51.5 7.50195s-30.5 12.667 -42.5 23
s-21.5 23.666 -28.5 39.999s-10.5 35.5 -10.5 57.5h76c0 -18.667 6.16699 -32.334 18.5 -41.001s25.5 -13 39.5 -13c15.333 0 28.5 4.16699 39.5 12.5s16.5 22.166 16.5 41.499h75c0 -22 -3.5 -41.167 -10.5 -57.5s-16.5 -29.666 -28.5 -39.999s-26 -18 -42 -23
s-33 -7.5 -51 -7.5z" />
    <glyph glyph-name="uni016E" unicode="&#x16e;" horiz-adv-x="655" 
d="M77 700h115.003v-490c0 -20.667 3.66699 -38.667 11 -54s16.833 -27.666 28.5 -36.999s25.167 -16.333 40.5 -21s31 -7 47 -7s31.667 2.33301 47 7s29.166 11.667 41.499 21s22.166 21.666 29.499 36.999s11 33.333 11 54v490h115v-490
c0 -39.333 -7 -73.166 -21 -101.499s-32.5 -51.5 -55.5 -69.5s-49.167 -31.167 -78.5 -39.5s-59 -12.5 -89 -12.5c-30.667 0 -60.5 4.16699 -89.5 12.5s-54.833 21.5 -77.5 39.5s-40.834 41.167 -54.501 69.5s-20.5 62.166 -20.5 101.499v490zM322.003 733
c-27.333 0 -50.833 8 -70.5 24s-29.5 38 -29.5 66s9.83301 50 29.5 66s43.167 24 70.5 24c13.333 0 26 -2 38 -6s22.5 -10 31.5 -18s16.333 -17.5 22 -28.5s8.5 -23.5 8.5 -37.5s-2.83301 -26.5 -8.5 -37.5s-13 -20.5 -22 -28.5s-19.5 -14 -31.5 -18s-24.667 -6 -38 -6z
M281.003 823c0 -10 3.66699 -18.5 11 -25.5s17 -10.5 29 -10.5c12.667 0 22.667 3.66699 30 11s11 16 11 26c0 11.333 -3.66699 20.333 -11 27s-17.333 10 -30 10c-12 0 -21.667 -3.5 -29 -10.5s-11 -16.167 -11 -27.5z" />
    <glyph glyph-name="uni016F" unicode="&#x16f;" horiz-adv-x="602" 
d="M527 0h-90.0029l-14 56c-8 -12.667 -17.5 -23.167 -28.5 -31.5s-22.5 -14.833 -34.5 -19.5s-23.667 -8 -35 -10s-21.333 -3 -30 -3c-32 0 -62 5.33301 -90 16s-52.333 26 -73 46s-37 44.167 -49 72.5s-18 59.833 -18 94.5v286h109v-286
c0 -20.667 3.83301 -39.167 11.5 -55.5s17.834 -30.333 30.501 -42s27.334 -20.5 44.001 -26.5s33.667 -9 51 -9c19.333 0 38.333 3.83301 57 11.5s35.334 20.167 50.001 37.5v370h109v-507zM297.997 532c-27.333 0 -50.833 8 -70.5 24s-29.5 38 -29.5 66
s9.83301 50 29.5 66s43.167 24 70.5 24c13.333 0 26 -2 38 -6s22.5 -10 31.5 -18s16.333 -17.5 22 -28.5s8.5 -23.5 8.5 -37.5s-2.83301 -26.5 -8.5 -37.5s-13 -20.5 -22 -28.5s-19.5 -14 -31.5 -18s-24.667 -6 -38 -6zM256.997 622c0 -10 3.66699 -18.5 11 -25.5
s17 -10.5 29 -10.5c12.667 0 22.667 3.66699 30 11s11 16 11 26c0 11.333 -3.66699 20.333 -11 27s-17.333 10 -30 10c-12 0 -21.667 -3.5 -29 -10.5s-11 -16.167 -11 -27.5z" />
    <glyph glyph-name="uni0170" unicode="&#x170;" horiz-adv-x="655" 
d="M77 700h115.003v-490c0 -20.667 3.66699 -38.667 11 -54s16.833 -27.666 28.5 -36.999s25.167 -16.333 40.5 -21s31 -7 47 -7s31.667 2.33301 47 7s29.166 11.667 41.499 21s22.166 21.666 29.499 36.999s11 33.333 11 54v490h115v-490
c0 -39.333 -7 -73.166 -21 -101.499s-32.5 -51.5 -55.5 -69.5s-49.167 -31.167 -78.5 -39.5s-59 -12.5 -89 -12.5c-30.667 0 -60.5 4.16699 -89.5 12.5s-54.833 21.5 -77.5 39.5s-40.834 41.167 -54.501 69.5s-20.5 62.166 -20.5 101.499v490zM188.003 751l70 124h103
l-85 -124h-88zM339.003 751l70 124h103l-85 -124h-88z" />
    <glyph glyph-name="uni0171" unicode="&#x171;" horiz-adv-x="602" 
d="M527 0h-90.0029l-14 56c-8 -12.667 -17.5 -23.167 -28.5 -31.5s-22.5 -14.833 -34.5 -19.5s-23.667 -8 -35 -10s-21.333 -3 -30 -3c-32 0 -62 5.33301 -90 16s-52.333 26 -73 46s-37 44.167 -49 72.5s-18 59.833 -18 94.5v286h109v-286
c0 -20.667 3.83301 -39.167 11.5 -55.5s17.834 -30.333 30.501 -42s27.334 -20.5 44.001 -26.5s33.667 -9 51 -9c19.333 0 38.333 3.83301 57 11.5s35.334 20.167 50.001 37.5v370h109v-507zM164.997 578l70 124h103l-85 -124h-88zM315.997 578l70 124h103l-85 -124h-88z
" />
    <glyph glyph-name="uni0172" unicode="&#x172;" horiz-adv-x="655" 
d="M77 700l115.004 -0.000976562v-490c0 -20.667 3.66699 -38.667 11 -54s16.833 -27.666 28.5 -36.999s25.167 -16.333 40.5 -21s31 -7 47 -7s31.667 2.33301 47 7s29.166 11.667 41.499 21s22.166 21.666 29.499 36.999s11 33.333 11 54v490h115v-490
c0 -48.667 -10.333 -88.667 -31 -120s-47 -55.666 -79 -72.999l1 1c-18 -11.333 -30.5 -23.333 -37.5 -36s-9.16699 -24.167 -6.5 -34.5s9.16699 -18.833 19.5 -25.5s23.5 -10 39.5 -10c5.33301 0 9.66602 0.333008 12.999 1l-31 -78
c-5.33301 -0.666992 -10.5 -1.16699 -15.5 -1.5s-10.167 -0.5 -15.5 -0.5c-24 0 -44.667 3.83301 -62 11.5s-30 18.334 -38 32.001s-10.833 30 -8.5 49s10.833 39.5 25.5 61.5h-18c-30.667 0 -60.5 4.16699 -89.5 12.5s-54.833 21.5 -77.5 39.5s-40.834 41.167 -54.501 69.5
s-20.5 62.166 -20.5 101.499v490z" />
    <glyph glyph-name="uni0173" unicode="&#x173;" horiz-adv-x="602" 
d="M527 0c-20 -6.66699 -33.8359 -15.333 -41.5029 -26s-10.5 -21.167 -8.5 -31.5s8.16699 -19.333 18.5 -27s23.833 -11.5 40.5 -11.5h5l-26 -57c-3.33301 -0.666992 -6.66602 -1 -9.99902 -1h-10c-20.667 0 -39.5 4.16699 -56.5 12.5s-29.333 19.666 -37 33.999
s-9.33398 30.833 -5.00098 49.5s17.833 38.334 40.5 59.001l-14 55c-8 -12.667 -17.5 -23.167 -28.5 -31.5s-22.5 -14.833 -34.5 -19.5s-23.667 -8 -35 -10s-21.333 -3 -30 -3c-32 0 -62 5.33301 -90 16s-52.333 26 -73 46s-37 44.167 -49 72.5s-18 59.833 -18 94.5v286h109
v-286c0 -20.667 3.83301 -39.167 11.5 -55.5s17.834 -30.333 30.501 -42s27.334 -20.5 44.001 -26.5s33.667 -9 51 -9c19.333 0 38.333 3.83301 57 11.5s35.334 20.167 50.001 37.5v370h109v-507z" />
    <glyph glyph-name="uni0174" unicode="&#x174;" horiz-adv-x="954" 
d="M469 488h4l25 -137l95 -354h138l185 705h-119l-119 -486l-16 -120h-4l-19 120l-105 402h-126l-105 -402l-19 -120h-4l-16 120l-119 486h-119l185 -705h138l95 354zM317 748h95l63 75l63 -75h97l-101 130h-115z" />
    <glyph glyph-name="uni0175" unicode="&#x175;" horiz-adv-x="728" 
d="M347 398h3l24 -168l54 -230h142l124 510h-111l-56 -251l-26 -165h-4l-25 165l-63 248h-120l-63 -248l-25 -165h-4l-26 165l-56 251h-111l124 -510h142l54 230zM192 570h95l63 75l63 -75h97l-101 130h-115z" />
    <glyph glyph-name="uni0176" unicode="&#x176;" horiz-adv-x="589" 
d="M584 705h-133l-164 -306l-166 306h-131l240 -423v-282h113v281zM126 751h95l63 75l63 -75h97l-101 130h-115z" />
    <glyph glyph-name="uni0177" unicode="&#x177;" horiz-adv-x="511" 
d="M73 -191v88.999c3.33301 -0.666992 6.83301 -1 10.5 -1h10.5c23.333 0 40.333 4.5 51 13.5s18.334 19.167 23.001 30.5l30 74l-203 492h117l143 -359l130 359h117l-235 -604c-15.333 -37.333 -36.666 -62.666 -63.999 -75.999s-57.333 -20 -90 -20
c-6.66699 0 -13.334 0.166992 -20.001 0.5s-13.334 0.833008 -20.001 1.5zM95 570.999l102 130h115l101 -130h-97l-63 75l-63 -75h-95z" />
    <glyph glyph-name="uni0178" unicode="&#x178;" horiz-adv-x="589" 
d="M584 705h-133l-164 -306l-166 306h-131l240 -423v-282h113v281zM243 750v102h-108v-102h108zM432 750v102h-108v-102h108z" />
    <glyph glyph-name="uni0179" unicode="&#x179;" horiz-adv-x="568" 
d="M514 705h-458v-103h338l-96 -132l-249 -369v-101h466v105h-342l341 505v95zM423 885h-118l-75 -133h94z" />
    <glyph glyph-name="uni017A" unicode="&#x17a;" horiz-adv-x="468" 
d="M41 0h379v94h-260l257 343v71h-374v-96h245l-87 -106l-160 -218v-88zM357 700h-114l-73 -133h90z" />
    <glyph glyph-name="uni017B" unicode="&#x17b;" horiz-adv-x="568" 
d="M514 705h-458v-103h338l-96 -132l-249 -369v-101h466v105h-342l341 505v95zM241 755h102v96h-102v-96z" />
    <glyph glyph-name="uni017C" unicode="&#x17c;" horiz-adv-x="468" 
d="M41 0h379v94h-260l257 343v71h-374v-96h245l-87 -106l-160 -218v-88zM178 565h98v94h-98v-94z" />
    <glyph glyph-name="uni017D" unicode="&#x17d;" horiz-adv-x="568" 
d="M514 705h-458v-103h338l-96 -132l-249 -369v-101h466v105h-342l341 505v95zM457 907h-92l-61 -72l-61 72h-94l98 -126h111z" />
    <glyph glyph-name="uni017E" unicode="&#x17e;" horiz-adv-x="478" 
d="M41 0h379v94h-260l257 343v71h-374v-96h245l-87 -106l-160 -218v-88zM403 742h-92l-61 -72l-61 72h-94l98 -126h111z" />
    <glyph glyph-name="uni017F" unicode="&#x17f;" horiz-adv-x="270" 
d="M281 700l-0.000976562 -95c-11.333 0 -22.666 -0.333008 -33.999 -1s-21.5 -3 -30.5 -7s-16.5 -10 -22.5 -18s-9 -19.333 -9 -34v-545h-109v414h-55v93h55v38c0 52.667 16 92 48 118s73.333 39 124 39c5.33301 0 10.833 -0.166992 16.5 -0.5s11.167 -0.833008 16.5 -1.5z
" />
    <glyph glyph-name="uni0192" unicode="&#x192;" horiz-adv-x="541" 
d="M517 714l-17 -95c-4.66699 0.666992 -9 1.16699 -13 1.5s-8 0.5 -12 0.5c-17.333 0 -31.5 -2.83301 -42.5 -8.5s-20 -13.5 -27 -23.5s-12.5 -22 -16.5 -36s-7 -29.667 -9 -47h100l-17 -104h-102l-88 -459c-8.66699 -52.667 -28.834 -93 -60.501 -121
s-71.5 -42 -119.5 -42c-13.333 0 -27.333 1 -42 3s-29.667 5.66699 -45 11l17 85c7.33301 -2 14.5 -3.33301 21.5 -4s13.5 -1 19.5 -1c50.667 0 82.334 29 95.001 87l43.5 220.5l43.5 220.5h-88l18 104h90l9 46c4 22.667 10.667 44.167 20 64.5s22 38 38 53
s35.167 26.833 57.5 35.5s48.5 13 78.5 13c7.33301 0 15 -0.333008 23 -1s16.333 -1.66699 25 -3z" />
    <glyph glyph-name="uni0218" unicode="&#x218;" horiz-adv-x="558" 
d="M161 517c-0.666992 -16.667 2.83105 -30.8359 10.498 -42.5029s17.5 -21.667 29.5 -30s25.167 -15.166 39.5 -20.499s27.833 -9.66602 40.5 -12.999c27.333 -6.66699 54.166 -15.167 80.499 -25.5s49.666 -24.166 69.999 -41.499s36.5 -39.166 48.5 -65.499
s17.333 -59.166 16 -98.499c-2 -33.333 -10.167 -62.333 -24.5 -87s-32.666 -45 -54.999 -61s-47.166 -28 -74.499 -36s-54.666 -12 -81.999 -12c-23.333 0 -46.666 3.33301 -69.999 10s-45.166 16.667 -65.499 30s-39 30.166 -56 50.499s-30.5 44.166 -40.5 71.499l87 45
c14.667 -32 34.5 -57.167 59.5 -75.5s55.5 -27.5 91.5 -27.5c34 0 61.667 9 83 27s32.666 41.667 33.999 71c1.33301 21.333 -2 39 -10 53s-18.667 25.833 -32 35.5s-28 17.167 -44 22.5s-31.333 10 -46 14c-22 6 -45.167 13.667 -69.5 23s-46.5 21.833 -66.5 37.5
s-36.333 35.5 -49 59.5s-18.334 53.667 -17.001 89c0.666992 34 7.66699 63.5 21 88.5s30.333 45.5 51 61.5s44 27.833 70 35.5s52.333 11.5 79 11.5c46 0 88.833 -13 128.5 -39s68.834 -65 87.501 -117l-90 -41c-11.333 27.333 -28 50 -50 68s-48.333 27 -79 27
c-26 0 -49.667 -8 -71 -24s-33 -40.667 -35 -74zM212.998 -55.002l103 0.000976562c7.33301 -30.667 9.33301 -58.167 6 -82.5s-11 -48.833 -23 -73.5h-93c11.333 27.333 17.833 52.666 19.5 75.999s-2.5 50 -12.5 80z" />
    <glyph glyph-name="uni0219" unicode="&#x219;" horiz-adv-x="439" 
d="M227 305c21.333 -4 42.1699 -9.99609 62.5029 -17.9961s38.333 -18.333 54 -31s28.167 -28.167 37.5 -46.5s14 -39.833 14 -64.5c0 -28.667 -6 -53 -18 -73s-27.167 -36.167 -45.5 -48.5s-38.666 -21.166 -60.999 -26.499s-43.833 -8 -64.5 -8
c-34.667 0 -67.334 7.5 -98.001 22.5s-57.667 38.833 -81 71.5l68 66c14 -18 30.5 -32.5 49.5 -43.5s38.5 -17.167 58.5 -18.5c8.66699 0 18.167 0.666992 28.5 2s19.666 4 27.999 8s15.333 9.66699 21 17s8.5 16.666 8.5 27.999c0 12 -2.83301 22.167 -8.5 30.5
s-12.834 15.166 -21.501 20.499s-18 9.5 -28 12.5s-19.333 5.16699 -28 6.5c-20.667 3.33301 -40.834 8.66602 -60.501 15.999s-37 17 -52 29s-27 26.667 -36 44s-13.5 38 -13.5 62c0 25.333 5.16699 47.5 15.5 66.5s24 35.167 41 48.5s36.667 23.333 59 30
s45.166 10 68.499 10c26 0 52.667 -4.83301 80 -14.5s53.333 -27.167 78 -52.5l-60 -67c-16 12.667 -31.667 22.167 -47 28.5s-31.666 9.5 -48.999 9.5c-8 0 -16.833 -1 -26.5 -3s-18.5 -5.33301 -26.5 -10s-14.5 -10.834 -19.5 -18.501s-7.5 -17.167 -7.5 -28.5
c0 -10.667 2.66699 -19.334 8 -26.001s12 -12 20 -16s16.667 -7 26 -9s18 -4 26 -6zM160.004 -44.9961l99 0.00195312c7.33301 -30.667 9.33301 -57.834 6 -81.501s-11 -47.834 -23 -72.501h-89c11.333 27.333 17.833 52.333 19.5 75s-2.5 49 -12.5 79z" />
    <glyph glyph-name="uni021A" unicode="&#x21a;" horiz-adv-x="451" 
d="M-3 702h446v-110h-165v-592h-115v592h-166v110zM174 -42l103 0.000976562c7.33301 -30.667 9.33301 -58.167 6 -82.5s-11 -48.833 -23 -73.5h-93c11.333 27.333 17.833 52.666 19.5 75.999s-2.5 50 -12.5 80z" />
    <glyph glyph-name="uni021B" unicode="&#x21b;" horiz-adv-x="307" 
d="M275 97l-0.000976562 -98c-5.33301 -0.666992 -10.666 -1.16699 -15.999 -1.5s-10.666 -0.5 -15.999 -0.5c-50.667 0 -92 13.167 -124 39.5s-48 65.833 -48 118.5v261h-49v91h49v179h108v-179h96v-91h-96v-261c0 -18.667 7 -33.167 21 -43.5s33.667 -15.5 59 -15.5
c2.66699 0 5.16699 0.166992 7.5 0.5s5.16602 0.5 8.49902 0.5zM132.999 -49l103 0.000976562c7.33301 -30.667 9.33301 -58.167 6 -82.5s-11 -48.833 -23 -73.5h-93c11.333 27.333 17.833 52.666 19.5 75.999s-2.5 50 -12.5 80z" />
    <glyph glyph-name="uni02C6" unicode="&#x2c6;" horiz-adv-x="509" 
d="M88 714h95l63 75l63 -75h97l-101 130h-115z" />
    <glyph glyph-name="uni02C7" unicode="&#x2c7;" horiz-adv-x="509" 
d="M401 842h-92l-61 -72l-61 72h-94l98 -126h111z" />
    <glyph glyph-name="uni02D8" unicode="&#x2d8;" horiz-adv-x="509" 
d="M247 708c-18 0 -35.167 2.50195 -51.5 7.50195s-30.5 12.667 -42.5 23s-21.5 23.666 -28.5 39.999s-10.5 35.5 -10.5 57.5h76c0 -18.667 6.16699 -32.334 18.5 -41.001s25.5 -13 39.5 -13c15.333 0 28.5 4.16699 39.5 12.5s16.5 22.166 16.5 41.499h75
c0 -22 -3.5 -41.167 -10.5 -57.5s-16.5 -29.666 -28.5 -39.999s-26 -18 -42 -23s-33 -7.5 -51 -7.5z" />
    <glyph glyph-name="uni02D9" unicode="&#x2d9;" horiz-adv-x="510" 
d="M197 741h99v99h-99v-99z" />
    <glyph glyph-name="uni02DA" unicode="&#x2da;" horiz-adv-x="510" 
d="M247 690c-27.333 0 -50.833 8 -70.5 24s-29.5 38 -29.5 66s9.83301 50 29.5 66s43.167 24 70.5 24c13.333 0 26 -2 38 -6s22.5 -10 31.5 -18s16.333 -17.5 22 -28.5s8.5 -23.5 8.5 -37.5s-2.83301 -26.5 -8.5 -37.5s-13 -20.5 -22 -28.5s-19.5 -14 -31.5 -18
s-24.667 -6 -38 -6zM206 780c0 -10 3.66699 -18.5 11 -25.5s17 -10.5 29 -10.5c12.667 0 22.667 3.66699 30 11s11 16 11 26c0 11.333 -3.66699 20.333 -11 27s-17.333 10 -30 10c-12 0 -21.667 -3.5 -29 -10.5s-11 -16.167 -11 -27.5z" />
    <glyph glyph-name="uni02DB" unicode="&#x2db;" horiz-adv-x="509" 
d="M155 -85c-3.33301 21.333 -0.332031 40.668 9.00098 58.001s20.666 32.333 33.999 45c14.667 14 32 26.667 52 38l65 -18c-16.667 -8.66699 -31.334 -20.667 -44.001 -36s-20.667 -30.5 -24 -45.5s-0.5 -27.833 8.5 -38.5s26.833 -16 53.5 -16h11c4 0 8 0.333008 12 1
l-37 -68c-4.66699 -0.666992 -9.66699 -1.33398 -15 -2.00098s-11.666 -1 -18.999 -1c-10 0 -20.833 1 -32.5 3s-22.5 6 -32.5 12s-18.667 14.5 -26 25.5s-12.333 25.167 -15 42.5z" />
    <glyph glyph-name="uni02DC" unicode="&#x2dc;" horiz-adv-x="490" 
d="M348 823l53.998 -42.999c-13.333 -26 -28.166 -45 -44.499 -57s-34.166 -18 -53.499 -18c-26.667 0 -55.334 11.333 -86.001 34c-9.33301 6.66699 -18.666 10 -27.999 10s-18.5 -3.5 -27.5 -10.5s-19.167 -17.167 -30.5 -30.5l-58 46c13.333 22 29.5 40.833 48.5 56.5
s42.167 23.5 69.5 23.5c8.66699 -0.666992 17.167 -2.83398 25.5 -6.50098s16.5 -8 24.5 -13l23.5 -14.5c7.66699 -4.66699 15.5 -8 23.5 -10c2 -0.666992 5.33301 -1 10 -1c16.667 0 33 11.333 49 34z" />
    <glyph glyph-name="uni02DD" unicode="&#x2dd;" horiz-adv-x="491" 
d="M61 699h95l96 145h-111zM231 699h95l96 145h-111z" />
    <glyph glyph-name="uni0384" unicode="&#x384;" horiz-adv-x="509" 
d="M346 844h-118l-75 -133h94z" />
    <glyph glyph-name="uni0385" unicode="&#x385;" horiz-adv-x="509" 
d="M167 649v93h-102v-93h102zM349 745h-104l-67 -137h79zM468 649v93h-102v-93h102z" />
    <glyph glyph-name="uni0386" unicode="&#x386;" horiz-adv-x="636" 
d="M-1 0h121l75 213h233l78 -213h120l-254 705h-122zM81 571h-84l66 131h112zM229 313l62 200l16 72h5l16 -72l65 -200h-164z" />
    <glyph glyph-name="uni0388" unicode="&#x388;" horiz-adv-x="591" 
d="M522 701h-393v-701h393v101h-278v199h274v103h-274v195h278v103zM110 702h-112l-66 -131h84z" />
    <glyph glyph-name="uni0389" unicode="&#x389;" horiz-adv-x="731" 
d="M514 0h115v703h-115v-302h-269v302h-115v-703h115v297h269v-297zM23 571h-84l66 131h112z" />
    <glyph glyph-name="uni038A" unicode="&#x38a;" horiz-adv-x="330" 
d="M128 0h114v703h-114v-703zM20 571h-84l66 131h112z" />
    <glyph glyph-name="uni038C" unicode="&#x38c;" horiz-adv-x="820" 
d="M400 715c49.333 0 95.666 -9.33203 138.999 -27.999s81.333 -44.334 114 -77.001s58.334 -71.334 77.001 -116.001s28 -93 28 -145c0 -52.667 -9.33301 -101.167 -28 -145.5s-44.334 -82.666 -77.001 -114.999s-70.667 -57.666 -114 -75.999
s-89.666 -27.5 -138.999 -27.5s-95.666 9 -138.999 27s-81.333 43 -114 75s-58.334 70.333 -77.001 115s-28 93.667 -28 147s9.33301 102.333 28 147s44.334 83.167 77.001 115.5s70.667 57.666 114 75.999s89.666 27.5 138.999 27.5zM158 349.001
c0 -42 6.83301 -79.1689 20.5 -111.502s31.834 -59.5 54.501 -81.5s48.5 -38.667 77.5 -50s58.833 -17 89.5 -17c30 0 59.667 5.66699 89 17s55.333 28 78 50s41 49.167 55 81.5s21 69.5 21 111.5s-7 79.167 -21 111.5s-32.5 59.833 -55.5 82.5s-49 39.667 -78 51
s-58.833 17 -89.5 17c-30 0 -59.5 -6 -88.5 -18s-54.833 -29.167 -77.5 -51.5s-40.834 -49.666 -54.501 -81.999s-20.5 -69.166 -20.5 -110.499zM45 570.999h-84l66 131h112z" />
    <glyph glyph-name="uni038E" unicode="&#x38e;" horiz-adv-x="736" 
d="M731 705h-133l-164 -306l-166 306h-131l240 -423v-282h113v281zM32 571h-84l66 131h112z" />
    <glyph glyph-name="uni038F" unicode="&#x38f;" horiz-adv-x="807" 
d="M396 607c-36 0 -69.1699 -6.33691 -99.5029 -19.0039s-56.5 -30.334 -78.5 -53.001s-39.167 -49.334 -51.5 -80.001s-18.5 -63.667 -18.5 -99c0 -66.667 18 -122.167 54 -166.5s83.333 -78.166 142 -101.499l-22 -88h-302v96l172 -1
c-24.667 9.33301 -46.5 23.333 -65.5 42s-35 40 -48 64s-22.833 49.5 -29.5 76.5s-10 53.167 -10 78.5c0 51.333 8.83301 98.5 26.5 141.5s42.167 80.333 73.5 112s68.833 56.334 112.5 74.001s91.834 26.5 144.501 26.5s100.834 -9 144.501 -27s81 -42.667 112 -74
s55.167 -68.666 72.5 -111.999s26 -90.333 26 -141c0 -24.667 -3.16699 -50 -9.5 -76s-15.666 -50.833 -27.999 -74.5s-27.833 -45.167 -46.5 -64.5s-40.667 -34.666 -66 -45.999h171v-95h-296l-17 88c57.333 26.667 102.5 60.834 135.5 102.501s49.5 96.834 49.5 165.501
c0 35.333 -6.16699 68.333 -18.5 99s-29.5 57.167 -51.5 79.5s-48.167 40 -78.5 53s-63.5 19.5 -99.5 19.5zM127.997 701.996l-94 -131h-84l66 131h112z" />
    <glyph glyph-name="uni0390" unicode="&#x390;" horiz-adv-x="293" 
d="M228 87v-87.002c-6.66699 -0.666992 -13 -1 -19 -1h-17c-20 0 -38.167 1.83301 -54.5 5.5s-30 10.334 -41 20.001s-19.5 22.834 -25.5 39.501s-9 38 -9 64v379h108v-379c0 -11.333 4 -21 12 -29s23.333 -12 46 -12zM59 605.998h-102v93h102v-93zM227 701.998l-92 -137
h-79l67 137h104zM331 605.998h-102v93h102v-93z" />
    <glyph glyph-name="uni0391" unicode="&#x391;" horiz-adv-x="636" 
d="M-1 0h121l75 213h233l78 -213h120l-254 705h-122zM229 313l62 200l16 72h5l16 -72l65 -200h-164z" />
    <glyph glyph-name="uni0392" unicode="&#x392;" horiz-adv-x="609" 
d="M518 511c0 -24 -6.32812 -48.833 -18.9951 -74.5s-34.334 -45.5 -65.001 -59.5c20 -7.33301 37.167 -17.333 51.5 -30s26.166 -26.667 35.499 -42s16.166 -31.5 20.499 -48.5s6.5 -33.167 6.5 -48.5c0 -36 -6.66699 -67.167 -20 -93.5s-31.333 -48 -54 -65
s-48.334 -29.5 -77.001 -37.5s-58.667 -12 -90 -12h-221v704h223c29.333 0 56.666 -4.5 81.999 -13.5s47.333 -21.667 66 -38s33.5 -36.5 44.5 -60.5s16.5 -51 16.5 -81zM309.005 323l-109.002 -0.000976562v-223h109c22 0 41.167 3.33301 57.5 10
s29.833 15.334 40.5 26.001s18.5 22.667 23.5 36s7.5 26.333 7.5 39c0 13.333 -2.66699 26.5 -8 39.5s-13.166 25 -23.499 36s-23.666 19.833 -39.999 26.5s-35.5 10 -57.5 10zM200.003 417.999h109c17.333 0 32.333 2.83301 45 8.5s23 13 31 22s14 19.167 18 30.5
s6 22.333 6 33s-2 21.667 -6 33s-10 21.5 -18 30.5s-18.333 16.5 -31 22.5s-27.667 9 -45 9h-109v-189z" />
    <glyph glyph-name="uni0393" unicode="&#x393;" horiz-adv-x="518" 
d="M475 700h-390v-700h112v602h278v98z" />
    <glyph glyph-name="uni0394" unicode="&#x394;" horiz-adv-x="636" 
d="M626 0l-254 705h-122l-251 -705h627zM291 513l16 72h5l16 -72l145 -415h-322z" />
    <glyph glyph-name="uni0395" unicode="&#x395;" horiz-adv-x="531" 
d="M462 701h-393v-701h393v101h-278v199h274v103h-274v195h278v103z" />
    <glyph glyph-name="uni0396" unicode="&#x396;" horiz-adv-x="568" 
d="M514 705h-458v-103h338l-96 -132l-249 -369v-101h466v105h-342l341 505v95z" />
    <glyph glyph-name="uni0397" unicode="&#x397;" horiz-adv-x="688" 
d="M471 0h115v703h-115v-302h-269v302h-115v-703h115v297h269v-297z" />
    <glyph glyph-name="uni0398" unicode="&#x398;" horiz-adv-x="820" 
d="M400 715c49.333 0 95.666 -9.33203 138.999 -27.999s81.333 -44.334 114 -77.001s58.334 -71.334 77.001 -116.001s28 -93 28 -145c0 -52.667 -9.33301 -101.167 -28 -145.5s-44.334 -82.666 -77.001 -114.999s-70.667 -57.666 -114 -75.999
s-89.666 -27.5 -138.999 -27.5s-95.666 9 -138.999 27s-81.333 43 -114 75s-58.334 70.333 -77.001 115s-28 93.667 -28 147s9.33301 102.333 28 147s44.334 83.167 77.001 115.5s70.667 57.666 114 75.999s89.666 27.5 138.999 27.5zM158 349.001
c0 -44 6.83301 -82.334 20.5 -115.001s31.834 -59.834 54.501 -81.501s48.5 -37.667 77.5 -48s58.833 -15.5 89.5 -15.5c30 0 59.667 5.16699 89 15.5s55.333 26 78 47s41 48 55 81s21 71.833 21 116.5c0 42 -7 79.167 -21 111.5s-32.5 59.833 -55.5 82.5s-49 39.667 -78 51
s-58.833 17 -89.5 17c-30 0 -59.5 -6 -88.5 -18s-54.833 -29.167 -77.5 -51.5s-40.834 -49.666 -54.501 -81.999s-20.5 -69.166 -20.5 -110.499zM215 305v103h366v-103h-366z" />
    <glyph glyph-name="uni0399" unicode="&#x399;" horiz-adv-x="284" 
d="M82 0h114v703h-114v-703z" />
    <glyph glyph-name="uni039A" unicode="&#x39a;" horiz-adv-x="630" 
d="M87 701v-701h115v257l62 62l225 -319h132l-282 394l274 307h-136l-275 -310v310h-115z" />
    <glyph glyph-name="uni039B" unicode="&#x39b;" horiz-adv-x="627" 
d="M282 497l21 109h5l26 -109l164 -499h123l-247 705h-137l-243 -705h122z" />
    <glyph glyph-name="uni039C" unicode="&#x39c;" horiz-adv-x="851" 
d="M416 245l-197 459h-130v-704h115v353l-16 166l5 1l52 -150l121 -263h100l121 263l52 150l5 -1l-16 -166v-353h115v704h-130z" />
    <glyph glyph-name="uni039D" unicode="&#x39d;" horiz-adv-x="733" 
d="M220 704h-133v-704h115v430l-16 130l3 1l49 -105l259 -456h131v704h-115v-430l15 -130l-3 -1l-48 105z" />
    <glyph glyph-name="uni039E" unicode="&#x39e;" horiz-adv-x="532" 
d="M24 101v-101h475v101h-475zM64 304h393v98h-393v-98zM494 600v100h-464v-100h464z" />
    <glyph glyph-name="uni039F" unicode="&#x39f;" horiz-adv-x="820" 
d="M400 715c49.333 0 95.666 -9.33203 138.999 -27.999s81.333 -44.334 114 -77.001s58.334 -71.334 77.001 -116.001s28 -93 28 -145c0 -52.667 -9.33301 -101.167 -28 -145.5s-44.334 -82.666 -77.001 -114.999s-70.667 -57.666 -114 -75.999
s-89.666 -27.5 -138.999 -27.5s-95.666 9 -138.999 27s-81.333 43 -114 75s-58.334 70.333 -77.001 115s-28 93.667 -28 147s9.33301 102.333 28 147s44.334 83.167 77.001 115.5s70.667 57.666 114 75.999s89.666 27.5 138.999 27.5zM158 349.001
c0 -42 6.83301 -79.1689 20.5 -111.502s31.834 -59.5 54.501 -81.5s48.5 -38.667 77.5 -50s58.833 -17 89.5 -17c30 0 59.667 5.66699 89 17s55.333 28 78 50s41 49.167 55 81.5s21 69.5 21 111.5s-7 79.167 -21 111.5s-32.5 59.833 -55.5 82.5s-49 39.667 -78 51
s-58.833 17 -89.5 17c-30 0 -59.5 -6 -88.5 -18s-54.833 -29.167 -77.5 -51.5s-40.834 -49.666 -54.501 -81.999s-20.5 -69.166 -20.5 -110.499z" />
    <glyph glyph-name="uni03A0" unicode="&#x3a0;" horiz-adv-x="653" 
d="M558 0v700h-472v-700h112v604h247v-604h113z" />
    </font>
</defs>
</svg>
