<?xml version="1.0" standalone="no"?>
<!DOCTYPE svg PUBLIC "-//W3C//DTD SVG 1.1//EN" "http://www.w3.org/Graphics/SVG/1.1/DTD/svg11.dtd" >
<svg>
<metadata>
Created by FontForge 20090914 at Thu Jun 17 16:27:10 2021
 By www-data
Copyright &#194;&#169; 2011 By Svetoslav Simov &#194;&#169; Fontfabric, LLC. All rights reserved.
</metadata>
<defs>
<font id="SolomonSans-Regular" horiz-adv-x="564" >
  <font-face 
    font-family="Solomon Sans"
    font-weight="400"
    font-stretch="normal"
    units-per-em="1000"
    panose-1="2 0 0 0 0 0 0 0 0 0"
    ascent="750"
    descent="-250"
    x-height="507"
    cap-height="700"
    bbox="-117 -206.001 1678 883.995"
    underline-thickness="50"
    underline-position="-100"
    unicode-range="U+0020-U+FB04"
  />
<missing-glyph horiz-adv-x="612" 
d="M58 0h498v699h-498v-699zM96 58v585l192 -293zM119 40l188 279l188 -279h-376zM307 376l-187 284h375zM325 350l195 293v-586z" />
    <glyph glyph-name="uniFB00" unicode="ff" horiz-adv-x="613" 
d="M572 701l-0.00195312 -44c-39.333 0 -66.5 -8.66699 -81.5 -26s-22.5 -41.333 -22.5 -72v-52h100v-46h-100v-461h-52v461h-252v-461h-52v461h-50v46h50v52c0 50 14.333 86.167 43 108.5s66.334 33.5 113.001 33.5v-44c-39.333 0 -66.5 -8.66699 -81.5 -26
s-22.5 -41.333 -22.5 -72v-52h252v52c0 50 14.333 86.167 43 108.5s66.334 33.5 113.001 33.5z" />
    <glyph glyph-name="uniFB01" unicode="fi" horiz-adv-x="525" 
d="M430 0h-53.001v461h-216v-461h-52v461h-50v46h50v52c0 50 14.333 86.167 43 108.5s66.334 33.5 113.001 33.5v-44c-39.333 0 -66.5 -8.66699 -81.5 -26s-22.5 -41.333 -22.5 -72v-52h269v-507zM430.999 699v-77h-55v77h55z" />
    <glyph glyph-name="uniFB02" unicode="fl" horiz-adv-x="542" 
d="M265 701l-0.000976562 -44c-39.333 0 -66.5 -8.66699 -81.5 -26s-22.5 -41.333 -22.5 -72v-52h100v-46h-100v-461h-52v461h-50v46h50v52c0 50 14.333 86.167 43 108.5s66.334 33.5 113.001 33.5zM504.999 45l-0.000976562 -46c-47.333 0 -81.5 12 -102.5 36
s-31.5 59.333 -31.5 106v559h53v-559c0 -30 5.33301 -53.5 16 -70.5s32.334 -25.5 65.001 -25.5z" />
    <glyph glyph-name="uniFB03" unicode="ffi" horiz-adv-x="830" 
d="M735 0h-53.002v461h-215v-461h-52v461h-252v-461h-52v461h-50v46h50v52c0 50 14.333 86.167 43 108.5s66.334 33.5 113.001 33.5v-44c-39.333 0 -66.5 -8.66699 -81.5 -26s-22.5 -41.333 -22.5 -72v-52h252v52c0 50 14.333 86.167 43 108.5s66.334 33.5 113.001 33.5v-44
c-39.333 0 -66.5 -8.66699 -81.5 -26s-22.5 -41.333 -22.5 -72v-52h268v-507zM735.998 699v-77h-55v77h55z" />
    <glyph glyph-name="uniFB04" unicode="ffl" horiz-adv-x="854" 
d="M561 701l-0.00195312 -44c-39.333 0 -66.5 -8.66699 -81.5 -26s-22.5 -41.333 -22.5 -72v-52h100v-46h-100v-461h-52v461h-242v-461h-52v461h-50v46h50v52c0 50 14.333 86.167 43 108.5s66.334 33.5 113.001 33.5v-44c-39.333 0 -66.5 -8.66699 -81.5 -26
s-22.5 -41.333 -22.5 -72v-52h242v52c0 50 14.333 86.167 43 108.5s66.334 33.5 113.001 33.5zM815.998 45l-0.000976562 -46c-47.333 0 -81.5 12 -102.5 36s-31.5 59.333 -31.5 106v559h53v-559c0 -30 5.33301 -53.5 16 -70.5s32.334 -25.5 65.001 -25.5z" />
    <glyph glyph-name="f_j" unicode="fj" 
d="M311 -189v45c34.667 0 60.5 8.83301 77.5 26.5s25.5 41.167 25.5 70.5v509h-239v-462h-52v462h-50v45h50v52c0 50 14.333 86.167 43 108.5s66.334 33.5 113.001 33.5v-44c-39.333 0 -66.5 -8.66699 -81.5 -26s-22.5 -41.333 -22.5 -72v-52h292v-554
c0 -50 -14.333 -86.167 -43 -108.5s-66.334 -33.5 -113.001 -33.5zM466 702v-73h-55v73h55z" />
    <glyph glyph-name=".notdef" horiz-adv-x="612" 
d="M58 0h498v699h-498v-699zM96 58v585l192 -293zM119 40l188 279l188 -279h-376zM307 376l-187 284h375zM325 350l195 293v-586z" />
    <glyph glyph-name="uni0020" unicode=" " horiz-adv-x="257" 
 />
    <glyph glyph-name="uni0021" unicode="!" horiz-adv-x="323" 
d="M192 0v78h-60v-78h60zM188 152l1 549h-53v-549h52z" />
    <glyph glyph-name="uni0022" unicode="&#x22;" horiz-adv-x="330" 
d="M83 517h50v184h-50v-184zM198 517h49v184h-49v-184z" />
    <glyph glyph-name="uni0023" unicode="#" horiz-adv-x="603" 
d="M545 486h-89l35 214h-44l-35 -214h-158l35 214h-46l-35 -214h-104v-48h97l-26 -174h-105v-45h98l-38 -219h46l38 219h158l-38 -219h43l38 219h95v45h-88l27 174h96v48zM405 438l-26 -174h-158l26 174h158z" />
    <glyph glyph-name="uni0024" unicode="$" horiz-adv-x="566" 
d="M140 530c-1.33301 -24.667 2.83203 -45.4932 12.499 -62.4932s22.167 -31.167 37.5 -42.5s32 -20.5 50 -27.5s34.667 -12.5 50 -16.5c25.333 -6.66699 50.5 -14.834 75.5 -24.501s47 -22.667 66 -39s34.167 -36.833 45.5 -61.5s16.333 -55.334 15 -92.001
c-1.33301 -26.667 -7.5 -50.334 -18.5 -71.001s-25.167 -38.334 -42.5 -53.001s-37 -26.334 -59 -35.001s-44.667 -14.334 -68 -17.001v-90h-47v89c-39.333 5.33301 -76 19.333 -110 42s-59.667 54 -77 94l43 22c15.333 -32 37.833 -58.333 67.5 -79s62.834 -31 99.501 -31
c46 -0.666992 83.167 10.833 111.5 34.5s43.833 56.167 46.5 97.5c2 28 -2 51.5 -12 70.5s-23.167 34.667 -39.5 47s-34.5 22.333 -54.5 30s-39 13.834 -57 18.501c-22 6 -44.333 13.833 -67 23.5s-43.334 22.167 -62.001 37.5s-33.5 34.333 -44.5 57s-16.167 50 -15.5 82
c0.666992 26.667 5.83398 50.5 15.501 71.5s22.334 39.167 38.001 54.5s33.667 27.666 54 36.999s41.5 15.666 63.5 18.999v89h47v-88c38 -5.33301 72.333 -18 103 -38s53.667 -47.667 69 -83l-40 -20c-15.333 28 -37.333 50 -66 66s-57.334 24.333 -86.001 25
c-17.333 0 -34.333 -2.83301 -51 -8.5s-31.667 -14.167 -45 -25.5s-24.333 -25.5 -33 -42.5s-13.667 -36.833 -15 -59.5z" />
    <glyph glyph-name="uni0025" unicode="%" horiz-adv-x="840" 
d="M610 732h58l-228 -379l-228 -380h-56l227.5 380zM771 158c0 -22 -4.16699 -42.667 -12.5 -62s-19.833 -36.333 -34.5 -51s-31.5 -26.167 -50.5 -34.5s-39.5 -12.5 -61.5 -12.5s-42.667 4.16699 -62 12.5s-36.333 19.833 -51 34.5s-26.167 31.667 -34.5 51
s-12.5 40 -12.5 62s4.16699 42.667 12.5 62s19.833 36.333 34.5 51s31.667 26.167 51 34.5s40 12.5 62 12.5s42.5 -4.16699 61.5 -12.5s35.833 -19.833 50.5 -34.5s26.167 -31.667 34.5 -51s12.5 -40 12.5 -62zM722 158c0 16 -2.83203 30.833 -8.49902 44.5
s-13.334 25.834 -23.001 36.501s-21.167 19 -34.5 25s-28 9 -44 9s-30.833 -3 -44.5 -9s-25.5 -14.333 -35.5 -25s-17.833 -22.834 -23.5 -36.501s-8.5 -28.5 -8.5 -44.5c0 -32 10.667 -58.833 32 -80.5s48 -32.5 80 -32.5s58.333 10.833 79 32.5s31 48.5 31 80.5z
M382.001 542c0 -22 -4.16699 -42.667 -12.5 -62s-19.833 -36.333 -34.5 -51s-31.5 -26.167 -50.5 -34.5s-39.5 -12.5 -61.5 -12.5s-42.5 4.16699 -61.5 12.5s-35.833 19.833 -50.5 34.5s-26.167 31.667 -34.5 51s-12.5 40 -12.5 62s4.16699 42.833 12.5 62.5
s19.833 36.834 34.5 51.501s31.5 26.167 50.5 34.5s39.5 12.5 61.5 12.5s42.5 -4.16699 61.5 -12.5s35.833 -19.833 50.5 -34.5s26.167 -31.834 34.5 -51.501s12.5 -40.5 12.5 -62.5zM336.001 542c0 32.667 -10.667 60 -32 82s-48.333 33 -81 33c-16 0 -30.833 -3 -44.5 -9
s-25.667 -14.167 -36 -24.5s-18.333 -22.5 -24 -36.5s-8.5 -29 -8.5 -45s2.83301 -30.833 8.5 -44.5s13.667 -25.667 24 -36s22.333 -18.5 36 -24.5s28.5 -9 44.5 -9s31 3 45 9s26 14.167 36 24.5s17.833 22.333 23.5 36s8.5 28.5 8.5 44.5z" />
    <glyph glyph-name="uni0026" unicode="&#x26;" horiz-adv-x="655" 
d="M300 376l164.001 -175l61 97c10 -5.33301 17.5 -9.5 22.5 -12.5s11.833 -6.83301 20.5 -11.5l-70 -107l131 -151h-67l-94 107c-28.667 -36.667 -58.334 -66 -89.001 -88s-67 -33 -109 -33c-38 0 -71.833 8 -101.5 24s-53.5 39.667 -71.5 71
c-16.667 28.667 -25.667 56.834 -27 84.501s3.66699 54 15 79s28.333 48.667 51 71s49.667 42.5 81 60.5c-19.333 22.667 -36.833 47 -52.5 73s-23.5 53.667 -23.5 83c0 24 4.5 45.5 13.5 64.5s21.167 35 36.5 48s32.833 23 52.5 30s39.834 10.5 60.501 10.5
c19.333 0 37.833 -3.5 55.5 -10.5s33.167 -16.667 46.5 -29s24.166 -27.333 32.499 -45s12.5 -37.167 12.5 -58.5c0 -22.667 -4.5 -43 -13.5 -61s-20.667 -34.333 -35 -49s-30.5 -27.834 -48.5 -39.501s-36 -22.5 -54 -32.5zM435.001 162l-182 195.002
c-22 -11.333 -42.667 -25 -62 -41s-35 -33.833 -47 -53.5s-19 -40.834 -21 -63.501s3.66699 -46 17 -70c13.333 -23.333 32.5 -41.833 57.5 -55.5s51.833 -20.5 80.5 -20.5c16.667 0 32.5 3.16699 47.5 9.5s29 14.666 42 24.999s25 22 36 35s21.5 26.167 31.5 39.5z
M301.001 653.002c-14 0 -27.5 -2.83203 -40.5 -8.49902s-24.5 -13.167 -34.5 -22.5s-18 -20.333 -24 -33s-9 -26 -9 -40c0 -10.667 2.33301 -22 7 -34s10.667 -24.333 18 -37s15.5 -24.834 24.5 -36.501s17.5 -22.167 25.5 -31.5l43.5 25c15.667 9.33301 30 20 43 32
s23.833 25.333 32.5 40s13 30.667 13 48c0 13.333 -2.66699 25.833 -8 37.5s-12.5 22 -21.5 31s-19.5 16.167 -31.5 21.5s-24.667 8 -38 8z" />
    <glyph glyph-name="uni0027" unicode="'" horiz-adv-x="212" 
d="M82 512h47v189h-47v-189z" />
    <glyph glyph-name="uni0028" unicode="(" horiz-adv-x="394" 
d="M142 352c0 -39.333 4.83301 -79.166 14.5 -119.499s23.667 -79.333 42 -117s41.166 -72.5 68.499 -104.5s58.666 -59.333 93.999 -82v-59c-41.333 24 -78.666 53.667 -111.999 89s-61.833 74 -85.5 116s-41.834 86.667 -54.501 134s-19 95 -19 143s6.33301 95.667 19 143
s30.834 92.166 54.501 134.499s52.167 81.166 85.5 116.499s70.666 65 111.999 89v-58c-36 -22.667 -67.667 -50.167 -95 -82.5s-50.166 -67.166 -68.499 -104.499s-32.166 -76.333 -41.499 -117s-14 -81 -14 -121z" />
    <glyph glyph-name="uni0029" unicode=")" horiz-adv-x="393" 
d="M248 352c0 40 -4.66699 80.333 -14 121s-23.166 79.667 -41.499 117s-41.166 72.166 -68.499 104.499s-59 59.833 -95 82.5v58c41.333 -24 78.833 -53.667 112.5 -89s62.167 -74.166 85.5 -116.499s41.333 -87.166 54 -134.499s19 -95 19 -143s-6.33301 -95.667 -19 -143
s-30.667 -92 -54 -134s-51.833 -80.667 -85.5 -116s-71.167 -65 -112.5 -89v59c35.333 22.667 66.666 50 93.999 82s50.166 66.833 68.499 104.5s32.333 76.667 42 117s14.5 80.166 14.5 119.499z" />
    <glyph glyph-name="uni002A" unicode="*" horiz-adv-x="474" 
d="M408 562l-14 40l-143 -49l3 151h-42l1 -151l-141 50l-14 -41l141 -43l-91 -126l34 -25l89 130l90 -129l36 24l-95 126z" />
    <glyph glyph-name="uni002B" unicode="+" horiz-adv-x="656" 
d="M97 307h212v-213h48v213h202v47h-202v209h-48v-209h-212v-47z" />
    <glyph glyph-name="uni002C" unicode="," horiz-adv-x="237" 
d="M36 -130h40l80 196h-61z" />
    <glyph glyph-name="uni002D" unicode="-" horiz-adv-x="462" 
d="M110 287h244v50h-244v-50z" />
    <glyph glyph-name="uni002E" unicode="." horiz-adv-x="268" 
d="M159 -1v78h-63v-78h63z" />
    <glyph glyph-name="uni002F" unicode="/" horiz-adv-x="415" 
d="M383 768l-281 -823h-52l141 411.5l141 411.5h51z" />
    <glyph glyph-name="uni0030" unicode="0" horiz-adv-x="615" 
d="M82 190v318.999c0 32 6.16699 60.333 18.5 85s28.833 45.5 49.5 62.5s44.667 29.833 72 38.5s56 13 86 13c28 0 55.5 -4.16699 82.5 -12.5s51 -20.666 72 -36.999s38 -37 51 -62s19.5 -54.167 19.5 -87.5v-319c0.666992 -33.333 -5.33301 -62.5 -18 -87.5
s-29.667 -45.833 -51 -62.5s-46 -29.167 -74 -37.5s-57 -12.5 -87 -12.5c-29.333 0 -57.5 4.33301 -84.5 13s-50.667 21.5 -71 38.5s-36.5 38 -48.5 63s-17.667 53.5 -17 85.5zM133 508.999l0.00195312 -319c0 -25.333 5.16699 -47.5 15.5 -66.5
s23.666 -34.833 39.999 -47.5s35 -22.167 56 -28.5s42.167 -9.5 63.5 -9.5s42.166 3.16699 62.499 9.5s38.833 15.833 55.5 28.5s30 28.5 40 47.5s15 41.167 15 66.5v319c0 24.667 -5.33301 46.5 -16 65.5s-24.334 34.833 -41.001 47.5s-35.5 22.167 -56.5 28.5
s-42.167 9.5 -63.5 9.5s-42.166 -3.33301 -62.499 -10s-38.5 -16.5 -54.5 -29.5s-29 -28.833 -39 -47.5s-15 -40 -15 -64z" />
    <glyph glyph-name="uni0031" unicode="1" horiz-adv-x="330" 
d="M159 652v-652h51v700h-143v-48h92z" />
    <glyph glyph-name="uni0032" unicode="2" horiz-adv-x="573" 
d="M288 662l0.999023 -0.00195312c-36.667 0 -69.5 -8.83301 -98.5 -26.5s-51.833 -42.834 -68.5 -75.501l-43 21c19.333 43.333 48.166 75.5 86.499 96.5s79.5 31.833 123.5 32.5c32.667 0 61.5 -5 86.5 -15s46.333 -23.667 64 -41s31 -37.5 40 -60.5
s13.833 -47.5 14.5 -73.5c0 -28 -7 -56.167 -21 -84.5s-32.333 -55.166 -55 -80.499l-277 -306h370v-49h-417c-3.33301 8.66699 -7.16602 16.834 -11.499 24.501s-8.16602 15.5 -11.499 23.5l311 344c18 20 32.5 41.167 43.5 63.5s16.167 43.5 15.5 63.5
c0 19.333 -3.5 37.5 -10.5 54.5s-17 32 -30 45s-29 23.333 -48 31s-40.5 11.834 -64.5 12.501z" />
    <glyph glyph-name="uni0033" unicode="3" horiz-adv-x="563" 
d="M61 118l42.999 23.002c21.333 -40 46.5 -67.167 75.5 -81.5s60.167 -21.5 93.5 -21.5c18.667 0 37.5 3.66699 56.5 11s36.333 18 52 32s28.334 30.833 38.001 50.5s14.5 41.834 14.5 66.501c0 22 -4.16699 42.5 -12.5 61.5s-19.5 35.5 -33.5 49.5s-30 24.833 -48 32.5
s-36.667 11.5 -56 11.5h-43v50h43c17.333 0 33.833 2.66699 49.5 8s29.334 13.166 41.001 23.499s21 23.166 28 38.499s10.5 33 10.5 53c0 23.333 -4.16699 43.666 -12.5 60.999s-19.333 31.666 -33 42.999s-29.167 20 -46.5 26s-35.333 9 -54 9
c-29.333 0 -57.5 -7.16699 -84.5 -21.5s-47.5 -36.166 -61.5 -65.499l-39 21c17.333 38 43.5 66.333 78.5 85s71.5 28 109.5 28c24.667 0 48.834 -4 72.501 -12s44.667 -19.833 63 -35.5s33.166 -35 44.499 -58s17 -49.833 17 -80.5c0 -14 -2.16699 -28.333 -6.5 -43
s-10.333 -28.667 -18 -42s-17 -25.666 -28 -36.999s-23.5 -20 -37.5 -26c36 -19.333 63 -44.5 81 -75.5s27 -66.167 27 -105.5c0 -32.667 -6.33301 -62 -19 -88s-29 -48 -49 -66s-42.833 -31.833 -68.5 -41.5s-51.834 -14.5 -78.501 -14.5c-20 0 -40.333 2.83301 -61 8.5
s-40.167 14 -58.5 25s-35.333 24.667 -51 41s-28.5 35.166 -38.5 56.499z" />
    <glyph glyph-name="uni0034" unicode="4" horiz-adv-x="546" 
d="M433 700h-65l-328 -496l44 -51h298v-153h51v153h62v48h-62v499zM382 201h-287l288 431z" />
    <glyph glyph-name="uni0035" unicode="5" horiz-adv-x="586" 
d="M68 118l40.0049 26c20.667 -34 46.667 -60.167 78 -78.5s65 -27.5 101 -27.5c29.333 0 55.166 5.83301 77.499 17.5s41 26.667 56 45s26.167 38.666 33.5 60.999s11 44.166 11 65.499s-3.66699 42.5 -11 63.5s-18.333 39.833 -33 56.5s-32.834 30.334 -54.501 41.001
s-47.167 16 -76.5 16c-32 0 -61.333 -3.66699 -88 -11s-54.334 -19 -83.001 -35h-12.5c-3.66699 0 -7.5 -0.333008 -11.5 -1l51 343h333v-46h-292l-36 -231c25.333 10 50.166 17.5 74.499 22.5s46.5 7.5 66.5 7.5c38 -0.666992 71 -7.66699 99 -21
s51.333 -30.666 70 -51.999s32.667 -45.333 42 -72s14 -54 14 -82c0 -28.667 -4.83301 -57 -14.5 -85s-24.334 -53.333 -44.001 -76s-44 -41 -73 -55s-62.5 -21 -100.5 -21c-21.333 0 -42.5 2.83301 -63.5 8.5s-41 14 -60 25s-36.5 24.5 -52.5 40.5s-29.667 34.333 -41 55z
" />
    <glyph glyph-name="uni0036" unicode="6" horiz-adv-x="607" 
d="M308 -9c-38 0 -71.3311 6.66699 -99.998 20s-52.667 31 -72 53s-33.833 46.833 -43.5 74.5s-14.5 55.834 -14.5 84.501c0 24 3.16699 48 9.5 72s15.833 45.667 28.5 65l212 340h60l-178 -275c23.333 14 43.666 22.333 60.999 25s29.666 4 36.999 4
c40 0 74.333 -6.83301 103 -20.5s52.5 -31.5 71.5 -53.5s33 -46.667 42 -74s13.5 -55 13.5 -83c0 -28.667 -4.83301 -56.834 -14.5 -84.501s-24.167 -52.5 -43.5 -74.5s-43.333 -39.667 -72 -53s-62 -20 -100 -20zM308.002 405c-24 0 -46.832 -4.83105 -68.499 -14.498
s-40.5 -22.667 -56.5 -39s-28.833 -35.5 -38.5 -57.5s-14.5 -45.333 -14.5 -70c0 -21.333 3.83301 -43 11.5 -65s19 -41.833 34 -59.5s33.667 -32.167 56 -43.5s47.833 -17 76.5 -17c29.333 0 55.166 5.66699 77.499 17s41 25.833 56 43.5s26.333 37.5 34 59.5
s11.5 43.667 11.5 65s-3.83301 42.666 -11.5 63.999s-19.167 40.666 -34.5 57.999s-34 31.5 -56 42.5s-47.667 16.5 -77 16.5z" />
    <glyph glyph-name="uni0037" unicode="7" horiz-adv-x="505" 
d="M412 652l-341 -652h56l343 660l-27 40h-398v-48h367z" />
    <glyph glyph-name="uni0038" unicode="8" horiz-adv-x="591" 
d="M293 -10c-26.667 0 -53.0029 4.66699 -79.0029 14s-49 22.833 -69 40.5s-36.333 39.5 -49 65.5s-19 55.667 -19 89c-0.666992 38 9.33301 72.833 30 104.5s47 57.5 79 77.5c-26 18.667 -46 40.834 -60 66.501s-21 52.5 -21 80.5c0 29.333 5.33301 55.166 16 77.499
s24.834 41.333 42.501 57s37.834 27.5 60.501 35.5s45.667 12 69 12c24 0 47.167 -4 69.5 -12s42.333 -19.833 60 -35.5s31.834 -34.667 42.501 -57s16 -48.166 16 -77.499c0 -26 -6.83301 -52.333 -20.5 -79s-33.5 -49.334 -59.5 -68.001
c35.333 -21.333 62.5 -47.5 81.5 -78.5s28.167 -65.5 27.5 -103.5c0 -33.333 -6.33301 -63 -19 -89s-29 -47.833 -49 -65.5s-43 -31.167 -69 -40.5s-52.667 -14 -80 -14zM292.997 356c-26.667 0 -50.167 -4.6709 -70.5 -14.0039s-37.333 -21.5 -51 -36.5
s-24 -31.833 -31 -50.5s-10.5 -37.667 -10.5 -57c0 -18.667 3.5 -37.667 10.5 -57s17.333 -36.666 31 -51.999s30.667 -27.666 51 -36.999s43.833 -14 70.5 -14c27.333 0 51.166 5 71.499 15s37.5 22.833 51.5 38.5s24.5 33 31.5 52s10.5 37.833 10.5 56.5
s-3.5 37.334 -10.5 56.001s-17.5 35.334 -31.5 50.001s-31.167 26.667 -51.5 36s-44.166 14 -71.499 14zM292.997 660.996c-22 0 -41.499 -3.99902 -58.499 -11.999s-31.5 -18.167 -43.5 -30.5s-21 -26.333 -27 -42s-9 -31.167 -9 -46.5s3.16699 -30.666 9.5 -45.999
s15.333 -29.333 27 -42s26 -22.834 43 -30.501s36.5 -11.5 58.5 -11.5s41.5 3.83301 58.5 11.5s31.167 17.667 42.5 30s20 26.166 26 41.499s9 30.666 9 45.999s-2.83301 30.833 -8.5 46.5s-14.334 29.834 -26.001 42.501s-26 23 -43 31s-36.5 12 -58.5 12z" />
    <glyph glyph-name="uni0039" unicode="9" horiz-adv-x="609" 
d="M301 709c38 0 71.333 -6.66797 100 -20.001s52.667 -31 72 -53s33.833 -46.833 43.5 -74.5s14.5 -55.834 14.5 -84.501c0 -24 -3.16699 -48 -9.5 -72s-15.833 -45.667 -28.5 -65l-212 -340h-60l178 275c-16 -9.33301 -31.667 -16.166 -47 -20.499s-32.333 -6.5 -51 -6.5
c-40 0 -74.333 6.66699 -103 20s-52.5 30.833 -71.5 52.5s-33 46.167 -42 73.5s-13.5 55 -13.5 83c0 28.667 4.83301 56.834 14.5 84.501s24.167 52.5 43.5 74.5s43.333 39.667 72 53s62 20 100 20zM301 294.999c24 0 46.832 4.83008 68.499 14.4971
s40.5 22.834 56.5 39.501s28.833 35.834 38.5 57.501s14.5 44.834 14.5 69.501c0 21.333 -3.83301 43 -11.5 65s-19 41.833 -34 59.5s-33.5 32.167 -55.5 43.5s-47.667 17 -77 17s-55.166 -5.66699 -77.499 -17s-41 -25.833 -56 -43.5s-26.333 -37.5 -34 -59.5
s-11.5 -43.667 -11.5 -65c0 -23.333 3.33301 -45.833 10 -67.5s17.167 -41 31.5 -58s32.833 -30.5 55.5 -40.5s50 -15 82 -15z" />
    <glyph glyph-name="uni003A" unicode=":" horiz-adv-x="306" 
d="M182 -1v80h-64v-80h64zM183 407v80h-65v-80h65z" />
    <glyph glyph-name="uni003B" unicode=";" horiz-adv-x="307" 
d="M183 407v80h-65v-80h65zM64 -130h40l80 196h-61z" />
    <glyph glyph-name="uni003C" unicode="&#x3c;" horiz-adv-x="509" 
d="M431 510l-375 -199v-50l375 -196v57l-323 164l323 166v58z" />
    <glyph glyph-name="uni003D" unicode="=" horiz-adv-x="639" 
d="M116 351h407v50h-407v-50zM116 153h407v51h-407v-51z" />
    <glyph glyph-name="uni003E" unicode="&#x3e;" horiz-adv-x="508" 
d="M79 452l323 -166l-323 -164v-57l375 196v50l-375 199v-58z" />
    <glyph glyph-name="uni003F" unicode="?" horiz-adv-x="534" 
d="M250 1h-57v73h57v-73zM44 621l3.00098 4c21.333 28 48.5 48.833 81.5 62.5s67.167 20.5 102.5 20.5c27.333 0 53.833 -4.33301 79.5 -13s48.5 -21.334 68.5 -38.001s36 -37.5 48 -62.5s18 -53.5 18 -85.5c0 -28.667 -5 -54.834 -15 -78.501s-23.833 -44.5 -41.5 -62.5
s-38.667 -32.833 -63 -44.5s-51.166 -20.167 -80.499 -25.5l-6 -143h-41l-6 181c26 2 51.167 7 75.5 15s46 19.333 65 34s34.167 32.334 45.5 53.001s16.666 44.667 15.999 72c-0.666992 25.333 -5.83398 47.333 -15.501 66s-22.167 34.167 -37.5 46.5
s-32.833 21.5 -52.5 27.5s-39.5 9 -59.5 9c-27.333 0 -54.333 -5.83301 -81 -17.5s-49 -27.167 -67 -46.5c-8 6.66699 -14.333 11.334 -19 14.001s-10.667 6.66699 -18 12z" />
    <glyph glyph-name="uni0040" unicode="@" horiz-adv-x="813" 
d="M658 429l2 -2zM433 533c-47.333 0 -89.8418 -9.33008 -127.509 -27.9971s-69.667 -43 -96 -73s-46.666 -63.833 -60.999 -101.5s-21.833 -75.834 -22.5 -114.501c-0.666992 -40.667 4.16602 -78.334 14.499 -113.001s26.833 -64.5 49.5 -89.5s52 -44.667 88 -59
s79.333 -21.5 130 -21.5c14.667 0 30.334 1 47.001 3s34.334 6.66699 53.001 14l21 -43c-22.667 -8 -43.667 -13.667 -63 -17s-38.666 -5 -57.999 -5c-59.333 0 -110 9.33301 -152 28s-76.5 43.5 -103.5 74.5s-46.667 66.5 -59 106.5s-18.166 81 -17.499 123
c0.666992 44.667 9.16699 88.834 25.5 132.501s39.666 82.667 69.999 117s67.333 62.166 111 83.499s93.167 32 148.5 32c46 0 88.5 -7.33301 127.5 -22s72.667 -34.667 101 -60s50.666 -55.5 66.999 -90.5s24.5 -72.5 24.5 -112.5c0 -38.667 -6.33301 -74.667 -19 -108
s-29.334 -62.333 -50.001 -87s-44.167 -43.834 -70.5 -57.501s-52.833 -20.5 -79.5 -20.5c-12 0 -23.833 6.16699 -35.5 18.5s-16.167 32.166 -13.5 59.499c-19.333 -30.667 -41.166 -51.334 -65.499 -62.001s-46.166 -16 -65.499 -16c-17.333 0 -33.5 3.83301 -48.5 11.5
s-28 18 -39 31s-19.667 27.667 -26 44s-9.5 33.166 -9.5 50.499c0 33.333 4.83301 66 14.5 98s23.834 60.5 42.501 85.5s41.334 45.333 68.001 61s57.334 23.5 92.001 23.5c8 0 17.333 -1.5 28 -4.5s21 -8 31 -15s18.667 -16.167 26 -27.5s12 -25.666 14 -42.999
c1.33301 4.66699 4.16602 13.5 8.49902 26.5l11.5 34.5h24h10.5c3.66699 0 8.16699 -0.333008 13.5 -1l-80 -261v-1c-2.66699 -6.66699 -5 -14 -7 -22s-2.66699 -15.167 -2 -21.5s3.33398 -11.666 8.00098 -15.999s12 -6.5 22 -6.5c20.667 0 40 7 58 21
s33.833 31.833 47.5 53.5s24.334 45.834 32.001 72.501s11.5 53 11.5 79c0 36 -7.83301 68.5 -23.5 97.5s-36.167 53.833 -61.5 74.5s-54.166 36.5 -86.499 47.5s-65.166 16.5 -98.499 16.5zM277.991 163.003c0 -25.333 7.50293 -47.333 22.5029 -66s34.833 -28 59.5 -28
c22 0 42.667 7.33301 62 22s36.166 33 50.499 55s25.666 45.5 33.999 70.5s12.5 47.5 12.5 67.5c0 29.333 -6.5 52.666 -19.5 69.999s-32.167 26 -57.5 26c-28 0.666992 -52.167 -5 -72.5 -17s-37.333 -28.167 -51 -48.5s-23.834 -43.666 -30.501 -69.999
s-10 -53.5 -10 -81.5z" />
    <glyph glyph-name="uni0041" unicode="A" horiz-adv-x="636" 
d="M28 0l248 707h81l126 -353.5l126 -353.5h-57l-84 234h-301l-81 -234h-58zM186 284h265l-134 388z" />
    <glyph glyph-name="uni0042" unicode="B" horiz-adv-x="613" 
d="M508 519c0 -12.667 -1.49805 -26 -4.49805 -40s-8.33301 -27.5 -16 -40.5s-18 -25.167 -31 -36.5s-29.5 -21 -49.5 -29c25.333 -8.66699 46.5 -19.667 63.5 -33s30.667 -27.666 41 -42.999s17.5 -31.5 21.5 -48.5s6 -33.833 6 -50.5c0 -33.333 -6 -62.333 -18 -87
s-28.333 -45.334 -49 -62.001s-44.834 -29 -72.501 -37s-56.834 -12 -87.501 -12h-196v700h197c26 0 50.833 -4.33301 74.5 -13s44.5 -20.834 62.5 -36.501s32.167 -34.667 42.5 -57s15.5 -47.166 15.5 -74.499zM313.002 347l-142.999 0.000976562v-299h143
c29.333 0 54.666 4.66699 75.999 14s39.333 21.333 54 36s25.5 31 32.5 49s10.5 35.667 10.5 53s-3.66699 34.666 -11 51.999s-18.166 33 -32.499 47s-32.333 25.5 -54 34.5s-46.834 13.5 -75.501 13.5zM170.003 395.001h143c24 0 45 3.66699 63 11s32.833 17 44.5 29
s20.5 25.5 26.5 40.5s9 29.833 9 44.5c0 15.333 -3 30.833 -9 46.5s-14.833 30 -26.5 43s-26.5 23.667 -44.5 32s-39 12.5 -63 12.5h-143v-259z" />
    <glyph glyph-name="uni0043" unicode="C" horiz-adv-x="733" 
d="M650 615l-36 -35.998c-28 26.667 -59 47 -93 61s-70.333 21 -109 21c-47.333 -0.666992 -89 -10.334 -125 -29.001s-66.333 -42.834 -91 -72.501s-43.167 -63 -55.5 -100s-18.5 -74.167 -18.5 -111.5c0 -36.667 6.33301 -73.5 19 -110.5s31.334 -70.167 56.001 -99.5
s55 -53.166 91 -71.499s77.333 -27.5 124 -27.5c40 0 79.833 9 119.5 27s73.5 41.333 101.5 70l38 -31c-32 -35.333 -70.5 -63.833 -115.5 -85.5s-92.833 -32.5 -143.5 -32.5c-56 0 -105.5 10.5 -148.5 31.5s-79 48.5 -108 82.5s-51 72.667 -66 116s-22.5 87 -22.5 131
s7.5 87.833 22.5 131.5s37 82.667 66 117s65 62.166 108 83.499s92.5 32 148.5 32c46.667 0 90.167 -8.66699 130.5 -26s76.166 -41 107.499 -71z" />
    <glyph glyph-name="uni0044" unicode="D" horiz-adv-x="729" 
d="M116 700h202.998c55.333 0.666992 103.833 -8.83301 145.5 -28.5s76.834 -45.5 105.501 -77.5s50.334 -68.5 65.001 -109.5s22.334 -82.833 23.001 -125.5c1.33301 -43.333 -5 -86.5 -19 -129.5s-35.167 -81.5 -63.5 -115.5s-63.833 -61.5 -106.5 -82.5
s-92.334 -31.5 -149.001 -31.5h-204v700zM170.998 51h147.997c48 -0.666992 90 8 126 26s65.833 41.667 89.5 71s41.334 62.5 53.001 99.5s16.834 73.833 15.501 110.5c-0.666992 35.333 -7.16699 70.5 -19.5 105.5s-30.166 66.333 -53.499 94s-52.5 50 -87.5 67
s-75.5 25.5 -121.5 25.5h-150v-599z" />
    <glyph glyph-name="uni0045" unicode="E" horiz-adv-x="531" 
d="M461 701h-349v-700h349v52h-295v273h291v51h-290v272h294v52z" />
    <glyph glyph-name="uni0046" unicode="F" horiz-adv-x="522" 
d="M465 700h-349v-700h53v319h292v52h-292v278h296v51z" />
    <glyph glyph-name="uni0047" unicode="G" horiz-adv-x="825" 
d="M413 713c51.333 0 99.1699 -10.1689 143.503 -30.502s82.5 -48.5 114.5 -84.5l-40 -33c-27.333 30 -60 53.5 -98 70.5s-78 25.5 -120 25.5c-46.667 0 -88 -9.5 -124 -28.5s-66.333 -43.5 -91 -73.5s-43.5 -63.5 -56.5 -100.5s-19.5 -73.5 -19.5 -109.5
c0 -36.667 6.5 -73.167 19.5 -109.5s31.833 -69 56.5 -98s55 -52.667 91 -71s77.333 -27.5 124 -27.5c32 0 63.667 6.16699 95 18.5s60 29.333 86 51s47.667 47.5 65 77.5s27.666 62.667 30.999 98h-314v52h377c-0.666992 -48 -9.33398 -93.333 -26.001 -136
s-39.834 -79.667 -69.501 -111s-65.167 -56.166 -106.5 -74.499s-87.333 -27.5 -138 -27.5c-56 0 -105.5 10.333 -148.5 31s-79 47.834 -108 81.501s-51 72 -66 115s-22.5 86.5 -22.5 130.5s7.5 87.667 22.5 131s37 82.333 66 117s65 62.667 108 84s92.5 32 148.5 32z" />
    <glyph glyph-name="uni0048" unicode="H" horiz-adv-x="688" 
d="M522 0h53v700h-53v-326h-354v326h-54v-700h54v323h354v-323z" />
    <glyph glyph-name="uni0049" unicode="I" horiz-adv-x="286" 
d="M116 0h54v700h-54v-700z" />
    <glyph glyph-name="uni004A" unicode="J" horiz-adv-x="549" 
d="M51 154l48.998 13c6 -23.333 14.333 -42.833 25 -58.5s22.834 -28.334 36.501 -38.001s28.334 -16.5 44.001 -20.5s31.5 -6 47.5 -6c18 0 35.333 3.33301 52 10s31.667 16.167 45 28.5s24 27.666 32 45.999s12 39.5 12 63.5v458h-135v50h189v-508
c0 -32.667 -5.5 -61.5 -16.5 -86.5s-25.5 -46 -43.5 -63s-38.667 -29.667 -62 -38s-47.333 -12.5 -72 -12.5c-22 0 -43.5 2.83301 -64.5 8.5s-40.5 14.834 -58.5 27.501s-34 29.334 -48 50.001s-24.667 46 -32 76z" />
    <glyph glyph-name="uni004B" unicode="K" horiz-adv-x="634" 
d="M116 700v-700h53v261l94 92l267 -353h64l-292 390l275 310h-61l-347 -375v375h-53z" />
    <glyph glyph-name="uni004C" unicode="L" horiz-adv-x="471" 
d="M426 52h-273v648h-54v-700h327v52z" />
    <glyph glyph-name="uni004D" unicode="M" horiz-adv-x="855" 
d="M455 107h-53l-233 533v-640h-53v701h82l230 -534l56 130l58 137l58 137l56 130h84v-701h-53l1 640z" />
    <glyph glyph-name="uni004E" unicode="N" horiz-adv-x="737" 
d="M116 700v-700h54v620l367 -620h84v700h-54v-648l-384 648h-67z" />
    <glyph glyph-name="uni004F" unicode="O" horiz-adv-x="824" 
d="M120 349c0 -50.667 8.33398 -95.1699 25.001 -133.503s38.5 -70.333 65.5 -96s57.833 -45 92.5 -58s70 -19.833 106 -20.5c36.667 -0.666992 72.667 5.33301 108 18s66.833 31.834 94.5 57.501s50 57.834 67 96.501s25.5 84 25.5 136s-8.33301 97.333 -25 136
s-38.667 70.834 -66 96.501s-58.333 45 -93 58s-70.334 19.5 -107.001 19.5s-72.5 -6.5 -107.5 -19.5s-66.167 -32.5 -93.5 -58.5s-49.5 -58.333 -66.5 -97s-25.5 -83.667 -25.5 -135zM412.001 710.997c51.333 0 98.167 -9.83301 140.5 -29.5s78.666 -46.167 108.999 -79.5
s54 -71.833 71 -115.5s25.5 -89.5 25.5 -137.5c0 -60 -10 -112.333 -30 -157s-46.167 -81.834 -78.5 -111.501s-69.333 -52 -111 -67s-84.167 -22.5 -127.5 -22.5s-85.666 7.5 -126.999 22.5s-78.166 37.333 -110.499 67s-58.333 66.834 -78 111.501s-29.5 97 -29.5 157
c0 48 8.16699 93.833 24.5 137.5s39.666 82.167 69.999 115.5s66.833 59.833 109.5 79.5s90 29.5 142 29.5z" />
    <glyph glyph-name="uni0050" unicode="P" horiz-adv-x="601" 
d="M169 267l0.00195312 -266.999h-53v701h197c37.333 -0.666992 70 -7.5 98 -20.5s51.333 -29.833 70 -50.5s32.5 -44.334 41.5 -71.001s13.5 -53.667 13.5 -81c0 -26.667 -4.66699 -52.667 -14 -78s-23.333 -47.833 -42 -67.5s-41.834 -35.5 -69.501 -47.5
s-59.834 -18 -96.501 -18h-145zM169.002 317.001h144c28.667 1.33301 53.667 6.83301 75 16.5s39.166 22 53.499 37s24.833 32.167 31.5 51.5s10 39 10 59s-3.66699 39.833 -11 59.5s-18.166 37.334 -32.499 53.001s-32 28.667 -53 39s-45.5 16.166 -73.5 17.499h-144v-333z
" />
    <glyph glyph-name="uni0051" unicode="Q" horiz-adv-x="833" 
d="M678 128l-6.00195 -7l66 -65l-37 -36l-63 63c-34 -30.667 -70.167 -53.5 -108.5 -68.5s-78.166 -22.5 -119.499 -22.5c-47.333 0 -92 9.5 -134 28.5s-78.5 44.833 -109.5 77.5s-55.5 70.5 -73.5 113.5s-27 88.5 -27 136.5s8.66699 93.667 26 137
s41.333 81.166 72 113.499s67 58.166 109 77.499s87.667 29 137 29c48.667 0 94 -9.66699 136 -29s78.333 -45.166 109 -77.499s54.834 -70.166 72.501 -113.499s26.5 -89 26.5 -137c0 -42 -6.66699 -81.667 -20 -119s-32 -71 -56 -101zM486.998 234l35.998 36l113 -113
c19.333 28 34.833 57.833 46.5 89.5s17.5 65.5 17.5 101.5c0 48.667 -8 91.834 -24 129.501s-37.5 69.5 -64.5 95.5s-58.167 45.833 -93.5 59.5s-72 20.5 -110 20.5c-37.333 0 -73.5 -6.83301 -108.5 -20.5s-65.833 -33.5 -92.5 -59.5s-48 -58 -64 -96s-24 -81 -24 -129
c0 -48.667 8.33301 -91.834 25 -129.501s38.834 -69.5 66.501 -95.5s58.834 -45.667 93.501 -59s70 -20 106 -20c34 0 66.833 6.83301 98.5 20.5s62.5 32.167 92.5 55.5z" />
    <glyph glyph-name="uni0052" unicode="R" horiz-adv-x="628" 
d="M331 297l232 -297h-68l-231 297h-95v-297h-53v700h210c32 0 61.667 -4.33301 89 -13s51 -21.5 71 -38.5s35.833 -38.167 47.5 -63.5s17.834 -54.666 18.501 -87.999c0 -32.667 -5.33301 -61.167 -16 -85.5s-25.834 -44.833 -45.501 -61.5s-43 -29.334 -70 -38.001
s-56.833 -13.667 -89.5 -15zM169 346h158c52 0 93.667 12.333 125 37s47 62.667 47 114c0 26 -4.33301 48.5 -13 67.5s-20.667 34.833 -36 47.5s-33.5 22 -54.5 28s-43.833 9 -68.5 9h-158v-303z" />
    <glyph glyph-name="uni0053" unicode="S" 
d="M131 529c-1.33301 -24 2.83398 -44.1719 12.501 -60.5049s22.167 -29.833 37.5 -40.5s32.166 -19 50.499 -25s35.166 -11 50.499 -15c24.667 -6 49.5 -14.333 74.5 -25s47.167 -24.667 66.5 -42s34.833 -38.333 46.5 -63s16.5 -54.667 14.5 -90
c-2.66699 -28.667 -10.667 -54 -24 -76s-30 -40.5 -50 -55.5s-42.167 -26.333 -66.5 -34s-48.833 -11.5 -73.5 -11.5c-20.667 0 -41.167 2.83301 -61.5 8.5s-39.833 14.334 -58.5 26.001s-35.5 26 -50.5 43s-27.167 36.5 -36.5 58.5
c7.33301 3.33301 14.833 7.16602 22.5 11.499l20.5 11.5c15.333 -32 37.5 -57.833 66.5 -77.5s61.833 -29.5 98.5 -29.5c45.333 -0.666992 82.666 10.833 111.999 34.5s45.333 55.167 48 94.5c2 27.333 -2 50.333 -12 69s-23.333 34.334 -40 47.001s-35 22.834 -55 30.501
s-39 13.834 -57 18.501c-22 6 -44.333 13.5 -67 22.5s-43.167 20.833 -61.5 35.5s-33.166 33 -44.499 55s-16.666 49.333 -15.999 82c1.33301 30 7.66602 56.167 18.999 78.5s26.166 41 44.499 56s39 26.167 62 33.5s46.5 11 70.5 11c20 0 39.833 -2.66699 59.5 -8
s38 -13 55 -23s32.333 -22.667 46 -38s24.834 -33 33.501 -53l-42 -21c-14.667 28 -35.834 50 -63.501 66s-57.167 24 -88.5 24c-17.333 0 -34.333 -2.66699 -51 -8s-31.667 -13.166 -45 -23.499s-24.166 -23.666 -32.499 -39.999s-13.166 -35.5 -14.499 -57.5z" />
    <glyph glyph-name="uni0054" unicode="T" horiz-adv-x="455" 
d="M25 700v-45h176v-655h53v655h176v45h-405z" />
    <glyph glyph-name="uni0055" unicode="U" horiz-adv-x="659" 
d="M106 700h54.001v-502c0 -25.333 4.83301 -47.666 14.5 -66.999s22.5 -35.5 38.5 -48.5s34.167 -22.833 54.5 -29.5s40.833 -10 61.5 -10s41.167 3.33301 61.5 10s38.666 16.5 54.999 29.5s29.5 29.167 39.5 48.5s15 41.666 15 66.999v502h53v-502
c0 -34.667 -6.33301 -64.834 -19 -90.501s-29.5 -47.167 -50.5 -64.5s-45 -30.333 -72 -39s-54.5 -13 -82.5 -13s-55.333 4.33301 -82 13s-50.5 21.667 -71.5 39s-37.833 38.833 -50.5 64.5s-19 55.834 -19 90.501v502z" />
    <glyph glyph-name="uni0056" unicode="V" horiz-adv-x="631" 
d="M358 -5h-81l-251 705h56l236 -669l232 669h56l-124 -352.5z" />
    <glyph glyph-name="uni0057" unicode="W" horiz-adv-x="958" 
d="M511 604l170 -574l174 670h57l-95.5 -353l-95.5 -352h-80l-157 526l-158 -525h-80l-96 352l-96 352h55l178 -670l41.5 138l43.5 148.5l44 149l42 138.5h53z" />
    <glyph glyph-name="uni0058" unicode="X" horiz-adv-x="647" 
d="M600 700h-63l-208 -312l-209 312h-62l237 -350l-241 -350h62l213 311l212 -311h62l-240 350z" />
    <glyph glyph-name="uni0059" unicode="Y" horiz-adv-x="593" 
d="M560 700h-59l-205 -370l-204 370h-59l236 -419v-281h53v280z" />
    <glyph glyph-name="uni005A" unicode="Z" horiz-adv-x="572" 
d="M67 0h437v48h-385l379 625v28h-413v-47h345l-363 -601v-53z" />
    <glyph glyph-name="uni005B" unicode="[" horiz-adv-x="315" 
d="M262 777v-49h-90l-1 -755h90v-48h-141c0 144.667 0.166992 286.667 0.5 426s0.5 281.333 0.5 426h141z" />
    <glyph glyph-name="uni005C" unicode="\" horiz-adv-x="420" 
d="M319 -55h53l-282 823h-51z" />
    <glyph glyph-name="uni005D" unicode="]" horiz-adv-x="316" 
d="M51 728h90l1 -755h-90v-48h141l-1 852h-141v-49z" />
    <glyph glyph-name="uni005E" unicode="^" horiz-adv-x="613" 
d="M91 323h52l164 328l160 -328h54l-197 379h-35z" />
    <glyph glyph-name="uni005F" unicode="_" horiz-adv-x="592" 
d="M54 -10v-48h485v48h-485z" />
    <glyph glyph-name="uni0060" unicode="`" horiz-adv-x="513" 
d="M279 762h46l-60 104h-62z" />
    <glyph glyph-name="uni0061" unicode="a" 
d="M478 0l-40 -0.000976562l-10 54c-23.333 -22.667 -48.833 -39 -76.5 -49s-53.5 -15.333 -77.5 -16c-36.667 0 -68.5 4.5 -95.5 13.5s-49.5 21.333 -67.5 37s-31.333 34.167 -40 55.5s-13 44.333 -13 69c0 22 4.83301 43.167 14.5 63.5s24 38.333 43 54
s42.5 28.167 70.5 37.5s60.333 14 97 14c21.333 0 44.833 -3.33301 70.5 -10s50.834 -17.334 75.501 -32.001v42c0 27.333 -4.5 49.666 -13.5 66.999s-21 31 -36 41s-32.167 17 -51.5 21s-39.333 6 -60 6c-29.333 0 -54.833 -3.66699 -76.5 -11
s-44.834 -18.666 -69.501 -33.999l-23 37c25.333 19.333 52.833 33.5 82.5 42.5s59.5 13.5 89.5 13.5c26 0 51.5 -3.16699 76.5 -9.5s47.167 -16.666 66.5 -30.999s34.833 -33.166 46.5 -56.499s17.5 -52 17.5 -86v-333zM429 104.999v139.001c-22 14 -46 24.167 -72 30.5
s-50.333 9.5 -73 9.5c-58.667 0 -102.5 -11.833 -131.5 -35.5s-43.5 -52.834 -43.5 -87.501c0 -36 13.5 -65.833 40.5 -89.5s68.5 -35.5 124.5 -35.5c26 0 53.667 6 83 18s53.333 29 72 51z" />
    <glyph glyph-name="uni0062" unicode="b" horiz-adv-x="583" 
d="M279 509c40 0 74.999 -7.33398 104.999 -22.001s54.833 -34.167 74.5 -58.5s34.5 -52.166 44.5 -83.499s15 -63 15 -95c0 -35.333 -5.33301 -68.5 -16 -99.5s-26.167 -58 -46.5 -81s-45.166 -41.167 -74.499 -54.5s-62.333 -20 -99 -20c-22 0 -45.5 4 -70.5 12
s-46.167 23.667 -63.5 47l-8 -54h-43v701h53v-242c19.333 19.333 40.333 32.5 63 39.5s44.667 10.5 66 10.5zM276.999 40.999c31.333 0.666992 58.666 7.00098 81.999 19.001s43 27.667 59 47s28 41.166 36 65.499s12.333 49.5 13 75.5s-2.66602 51.333 -9.99902 76
s-18.333 47 -33 67s-33.334 36.5 -56.001 49.5s-49 20.5 -79 22.5c-27.333 0 -53 -4 -77 -12s-45 -23 -63 -45v-294c18.667 -25.333 38.334 -43.5 59.001 -54.5s43.667 -16.5 69 -16.5z" />
    <glyph glyph-name="uni0063" unicode="c" horiz-adv-x="530" 
d="M467 454l-28 -33.998c-18.667 15.333 -39.5 26.666 -62.5 33.999s-46.833 11 -71.5 11s-48.834 -4.83301 -72.501 -14.5s-44.5 -23.834 -62.5 -42.501s-32.667 -41.334 -44 -68.001s-17 -56.667 -17 -90c0 -24.667 4.16699 -49.334 12.5 -74.001s20.833 -47 37.5 -67
s37.167 -36.167 61.5 -48.5s52.833 -18.5 85.5 -18.5c25.333 0 49.5 4.5 72.5 13.5s44.167 21.167 63.5 36.5c6 -7.33301 11.333 -13.5 16 -18.5s9.66699 -10.833 15 -17.5c-22 -20 -47.333 -35.667 -76 -47s-59 -17 -91 -17c-40.667 0 -76.5 7.5 -107.5 22.5
s-57 34.833 -78 59.5s-36.833 52.334 -47.5 83.001s-16 62 -16 94s5.5 63.667 16.5 95s27 59.333 48 84s47 44.834 78 60.501s66.5 23.5 106.5 23.5c32.667 0 61.834 -4.5 87.501 -13.5s50.167 -24.5 73.5 -46.5z" />
    <glyph glyph-name="uni0064" unicode="d" horiz-adv-x="582" 
d="M303 509c21.333 0 43.335 -3.50098 66.002 -10.501s43.667 -20.167 63 -39.5v242h53v-701h-43l-8 54c-16.667 -22 -37.334 -37.333 -62.001 -46s-50.334 -13 -77.001 -13c-51.333 0.666992 -94.333 13.834 -129 39.501s-60.5 57.5 -77.5 95.5s-25.333 79.167 -25 123.5
s9.5 85.5 27.5 123.5s44.667 69.5 80 94.5s79.333 37.5 132 37.5zM305.002 41.999c25.333 0 48.332 5.33301 68.999 16s40.334 28.667 59.001 54v294c-18 22 -39 37 -63 45s-49.667 12 -77 12c-40 -2.66699 -73.333 -14.667 -100 -36s-46.5 -47.5 -59.5 -78.5
s-19.167 -64.167 -18.5 -99.5s8.16699 -68.166 22.5 -98.499s35.5 -55.833 63.5 -76.5s62.667 -31.334 104 -32.001z" />
    <glyph glyph-name="uni0065" unicode="e" horiz-adv-x="603" 
d="M306 42c28.667 0 56.832 5.33398 84.499 16.001s50.5 27.334 68.5 50.001l39 -27c-24 -30 -52.5 -52.167 -85.5 -66.5s-68.5 -21.5 -106.5 -21.5c-40.667 0 -76.334 7.83301 -107.001 23.5s-56.334 36.167 -77.001 61.5s-36 53.833 -46 85.5s-15 63.167 -15 94.5
c0 32 5.33301 63.167 16 93.5s26.167 57.5 46.5 81.5s45.666 43.5 75.999 58.5s65.5 22.5 105.5 22.5c34.667 0 66.334 -6.16699 95.001 -18.5s53.334 -29.5 74.001 -51.5s36.834 -47.833 48.501 -77.5s17.5 -61.5 17.5 -95.5c0 -6 -0.166992 -11.333 -0.5 -16
s-0.833008 -10.334 -1.5 -17.001h-429c2 -24.667 7.66699 -48.834 17 -72.501s22.333 -44.667 39 -63s36.834 -33 60.501 -44s50.5 -16.5 80.5 -16.5zM108.998 282.001l385.001 0.000976562c-1.33301 27.333 -7 52.166 -17 74.499s-23.333 41.5 -40 57.5
s-36.334 28.5 -59.001 37.5s-47 13.833 -73 14.5c-29.333 0 -55.5 -4.83301 -78.5 -14.5s-42.5 -22.834 -58.5 -39.501s-29 -36.167 -39 -58.5s-16.667 -46.166 -20 -71.499z" />
    <glyph glyph-name="uni0066" unicode="f" horiz-adv-x="300" 
d="M162 559v-51.999h112v-45h-112v-462h-52v462h-87v45h87v52c0 45.333 12.667 80.666 38 105.999s61 38 107 38c4.66699 0 9.5 -0.166992 14.5 -0.5s10.167 -0.833008 15.5 -1.5v-44c-3.33301 0 -6.5 0.166992 -9.5 0.5s-6.16699 0.5 -9.5 0.5
c-20.667 0 -37.667 -2.5 -51 -7.5s-24 -12 -32 -21s-13.5 -19.5 -16.5 -31.5s-4.5 -25 -4.5 -39z" />
    <glyph glyph-name="uni0067" unicode="g" horiz-adv-x="584" 
d="M306 511c21.333 0 43.499 -3.83398 66.499 -11.501s44.167 -21.167 63.5 -40.5l9 48h43v-514c0 -35.333 -6 -65.166 -18 -89.499s-27.667 -44 -47 -59s-41.666 -25.667 -66.999 -32s-51.333 -9.5 -78 -9.5c-36 0.666992 -70.833 7.5 -104.5 20.5
s-62.167 32.833 -85.5 59.5l30 34c19.333 -20.667 43 -36.834 71 -48.501s56.667 -17.5 86 -17.5c22 0 42.833 2.16699 62.5 6.5s36.834 12 51.501 23s26.334 25.5 35.001 43.5s13 41 13 69v61c-16.667 -22 -37.334 -37.333 -62.001 -46s-50.334 -13 -77.001 -13
c-52 0.666992 -95.333 13.834 -130 39.501s-60.667 57.667 -78 96s-25.833 79.833 -25.5 124.5s9.5 86 27.5 124s44.833 69.5 80.5 94.5s80.167 37.5 133.5 37.5zM307.999 41.999c25.333 0 48.332 5.33496 68.999 16.002s40.334 28.667 59.001 54v294
c-18.667 22 -39.667 37.333 -63 46s-49 13 -77 13c-40.667 -2.66699 -74.5 -14.834 -101.5 -36.501s-47.167 -48 -60.5 -79s-19.666 -64.333 -18.999 -100s8.16699 -68.667 22.5 -99s35.666 -55.833 63.999 -76.5s63.833 -31.334 106.5 -32.001z" />
    <glyph glyph-name="uni0068" unicode="h" horiz-adv-x="610" 
d="M148 409l0.000976562 -409.002h-52v700h52v-239c18 17.333 39.667 30.5 65 39.5s50.666 13.5 75.999 13.5c32.667 -0.666992 63.167 -6 91.5 -16s52.833 -24.667 73.5 -44s37 -42.833 49 -70.5s18 -59.5 18 -95.5v-288h-52v288c0 26 -5 50 -15 72
s-23.333 40.833 -40 56.5s-36.167 27.834 -58.5 36.501s-46.5 13 -72.5 13c-28 0 -53.5 -4.66699 -76.5 -14s-42.5 -23.666 -58.5 -42.999z" />
    <glyph glyph-name="uni0069" unicode="i" horiz-adv-x="245" 
d="M148 0v508h-52v-508h52zM149 699h-54v-77h54v77z" />
    <glyph glyph-name="uni006A" unicode="j" horiz-adv-x="245" 
d="M-7 -189l0.000976562 45c34.667 0 60.5 8.83301 77.5 26.5s25.5 41.167 25.5 70.5v555h53v-555c0 -50 -14.333 -86.167 -43 -108.5s-66.334 -33.5 -113.001 -33.5zM148.001 700v-75h-55v75h55z" />
    <glyph glyph-name="uni006B" unicode="k" horiz-adv-x="522" 
d="M96 700h49v-460l264 267h62l-217 -220l114.5 -143l115.5 -144h-57l-206 252l-76 -69v-183h-49v700z" />
    <glyph glyph-name="uni006C" unicode="l" horiz-adv-x="276" 
d="M224 45l-0.000976562 -46c-47.333 0 -81.5 12 -102.5 36s-31.5 59.333 -31.5 106v559h53v-559c0 -30 5.33301 -53.5 16 -70.5s32.334 -25.5 65.001 -25.5z" />
    <glyph glyph-name="uni006D" unicode="m" horiz-adv-x="927" 
d="M283 469c-28 0 -53.5 -4.83203 -76.5 -14.499s-42.5 -24.167 -58.5 -43.5v-411h-52v507h45l7 -43c18 17.333 39.667 30.333 65 39s50.666 13 75.999 13c44 -2 80.5 -9.83301 109.5 -23.5s51.167 -39.5 66.5 -77.5c11.333 22 23.5 39.667 36.5 53s27 23.5 42 30.5
s30.667 11.5 47 13.5s32.833 3 49.5 3c27.333 0 53 -3.83301 77 -11.5s45 -20 63 -37s32.167 -39 42.5 -66s15.5 -59.833 15.5 -98.5v-302h-52v302c0 29.333 -4 54.5 -12 75.5s-18.667 38.167 -32 51.5s-28.833 23.166 -46.5 29.499s-36.167 9.5 -55.5 9.5
c-20 0 -38.833 -2.5 -56.5 -7.5s-33.167 -13.5 -46.5 -25.5s-24.166 -28 -32.499 -48s-12.5 -45 -12.5 -75v-312h-49l-2 312c-2 52 -15.667 91.167 -41 117.5s-64.333 39.5 -117 39.5z" />
    <glyph glyph-name="uni006E" unicode="n" horiz-adv-x="620" 
d="M148 411v-411.003h-52v507h45l7 -43c18 17.333 39.667 30.5 65 39.5s50.666 13.5 75.999 13.5c32.667 -0.666992 63.667 -6 93 -16s55 -24.667 77 -44s39.333 -42.833 52 -70.5s19 -59.5 19 -95.5v-291h-52v291c0 26.667 -5.5 50.834 -16.5 72.501
s-25.5 40.334 -43.5 56.001s-38.667 27.834 -62 36.501s-47.666 13 -72.999 13c-28 0 -53.5 -4.83301 -76.5 -14.5s-42.5 -24.167 -58.5 -43.5z" />
    <glyph glyph-name="uni006F" unicode="o" horiz-adv-x="614" 
d="M558 253c0 -35.333 -6.33301 -69 -19 -101s-30.167 -60.167 -52.5 -84.5s-49 -43.666 -80 -57.999s-64.5 -21.5 -100.5 -21.5s-69.333 7.16699 -100 21.5s-57.167 33.666 -79.5 57.999s-39.833 52.5 -52.5 84.5s-19 65.667 -19 101s6.33301 69 19 101
s30.167 60.167 52.5 84.5s48.833 43.666 79.5 57.999s64 21.5 100 21.5s69.5 -7.16699 100.5 -21.5s57.667 -33.666 80 -57.999s39.833 -52.5 52.5 -84.5s19 -65.667 19 -101zM107 253c0 -34.667 5.83301 -65.667 17.5 -93s26.834 -50.333 45.501 -69s39.834 -33 63.501 -43
s47.834 -15 72.501 -15s49 5 73 15s45.333 24.333 64 43s33.834 41.667 45.501 69s17.5 58.333 17.5 93s-5.83301 65.5 -17.5 92.5s-26.834 49.667 -45.501 68s-40 32.333 -64 42s-48.333 14.5 -73 14.5s-48.834 -4.83301 -72.501 -14.5s-44.834 -23.667 -63.501 -42
s-33.834 -41 -45.501 -68s-17.5 -57.833 -17.5 -92.5z" />
    <glyph glyph-name="uni0070" unicode="p" horiz-adv-x="583" 
d="M278 510c52.667 0 96.666 -12.499 131.999 -37.499s62 -56.5 80 -94.5s27.167 -79.167 27.5 -123.5s-8 -85.666 -25 -123.999s-42.833 -70.333 -77.5 -96s-77.667 -38.834 -129 -39.501c-26.667 0 -52.167 4 -76.5 12s-45.166 22.667 -62.499 44v-247h-51v703h44l8 -48
c19.333 19.333 40.5 32.666 63.5 39.999s45.167 11 66.5 11zM275.999 42.001c41.333 0.666992 75.999 11.333 103.999 32s49.167 46.167 63.5 76.5s21.833 63.333 22.5 99s-5.5 69 -18.5 100s-32.833 57.167 -59.5 78.5s-60 33.333 -100 36
c-27.333 0 -53 -4.16699 -77 -12.5s-45 -23.5 -63 -45.5v-294c18.667 -25.333 38.334 -43.333 59.001 -54s43.667 -16 69 -16z" />
    <glyph glyph-name="uni0071" unicode="q" horiz-adv-x="582" 
d="M305 510c21.333 0 43.5 -3.66797 66.5 -11.001s44.167 -20.666 63.5 -39.999l8 48h44v-703h-52v247c-17.333 -21.333 -38 -36 -62 -44s-49.333 -12 -76 -12c-51.333 0.666992 -94.333 13.834 -129 39.501s-60.5 57.667 -77.5 96s-25.333 79.666 -25 123.999
s9.5 85.5 27.5 123.5s44.667 69.5 80 94.5s79.333 37.5 132 37.5zM307 41.999c25.333 0 48.332 5.33398 68.999 16.001s40.334 28.667 59.001 54v294c-18 22 -39 37.167 -63 45.5s-49.667 12.5 -77 12.5c-40 -2.66699 -73.333 -14.667 -100 -36s-46.5 -47.5 -59.5 -78.5
s-19.167 -64.333 -18.5 -100s8.16699 -68.667 22.5 -99s35.5 -55.833 63.5 -76.5s62.667 -31.334 104 -32.001z" />
    <glyph glyph-name="uni0072" unicode="r" horiz-adv-x="408" 
d="M96 507l42.001 0.000976562l8 -66c17.333 28 38.5 47 63.5 57s50.167 15 75.5 15c19.333 0 37.5 -2 54.5 -6s31.833 -8.66699 44.5 -14l-21 -43c-24 11.333 -48 17 -72 17c-18.667 0 -36.834 -3.16699 -54.501 -9.5s-33.167 -15.5 -46.5 -27.5s-24 -26.833 -32 -44.5
s-11.667 -37.834 -11 -60.501v-325h-51v507z" />
    <glyph glyph-name="uni0073" unicode="s" horiz-adv-x="443" 
d="M229 279c20 -4 39.3301 -9.66992 57.9971 -17.0029s35.334 -16.666 50.001 -27.999s26.5 -25 35.5 -41s13.5 -34.667 13.5 -56c0 -24.667 -5.5 -46.167 -16.5 -64.5s-24.833 -33.5 -41.5 -45.5s-35 -21 -55 -27s-39.333 -9 -58 -9c-30 0 -58.667 6.16699 -86 18.5
s-50.333 30.5 -69 54.5l16.5 16.5c5.66699 5.66699 10.5 10.834 14.5 15.501c13.333 -18.667 31.5 -33 54.5 -43s46.167 -15 69.5 -15c14.667 0 29 2 43 6s26.5 10.167 37.5 18.5s20 18.833 27 31.5s11.167 27.334 12.5 44.001c0 14 -4 26.5 -12 37.5s-17.667 20.333 -29 28
s-23.833 14 -37.5 19s-26.167 8.5 -37.5 10.5c-19.333 3.33301 -37.833 8.5 -55.5 15.5s-33.5 16 -47.5 27s-25.167 24.333 -33.5 40s-12.5 33.834 -12.5 54.501c0 24 4.83301 45 14.5 63s22.167 33 37.5 45s33.166 21.167 53.499 27.5s40.833 9.5 61.5 9.5
c24 0 47.667 -4 71 -12s43.666 -20.333 60.999 -37l-31 -34c-12 11.333 -26.667 20 -44 26s-35 9 -53 9c-15.333 0 -30.166 -2 -44.499 -6s-27.166 -10 -38.499 -18s-20.333 -18.167 -27 -30.5s-10 -26.5 -10 -42.5c0 -14.667 3.66699 -27.334 11 -38.001
s16.333 -19.5 27 -26.5s22.334 -12.667 35.001 -17s24.334 -7.5 35.001 -9.5z" />
    <glyph glyph-name="uni0074" unicode="t" horiz-adv-x="317" 
d="M258 43v-47c-46.667 0 -84.167 11.167 -112.5 33.5s-42.5 58.5 -42.5 108.5v326h-75v43h75v124l51 11v-135h103v-43h-103v-326c0 -32.667 9.66699 -56.667 29 -72s44.333 -23 75 -23z" />
    <glyph glyph-name="uni0075" unicode="u" horiz-adv-x="619" 
d="M471 108v398.997h52v-507h-45l-7 59c-15.333 -20.667 -36.5 -37.167 -63.5 -49.5s-53.167 -18.5 -78.5 -18.5c-32.667 0.666992 -63.5 4.83398 -92.5 12.501s-54.5 20.334 -76.5 38.001s-39.333 40.334 -52 68.001s-19 61.834 -19 102.501v295h52v-295
c0 -31.333 4.66699 -58 14 -80s22.5 -39.833 39.5 -53.5s37.333 -23.667 61 -30s50.167 -9.5 79.5 -9.5c28 0 53.833 6.16699 77.5 18.5s43.167 29.166 58.5 50.499z" />
    <glyph glyph-name="uni0076" unicode="v" horiz-adv-x="488" 
d="M85 507h-54l178 -511h74l177 511h-55l-157 -469h-4z" />
    <glyph glyph-name="uni0077" unicode="w" horiz-adv-x="722" 
d="M325 504l-105 -460h-4l-125 463h-54l145 -508h74l103 453h3l104 -453h73l148 508h-56l-125 -463h-4l-107 460h-70z" />
    <glyph glyph-name="uni0078" unicode="x" horiz-adv-x="518" 
d="M257 286l146 221h62l-174 -253l89.5 -126.5l89.5 -127.5h-60l-153 224l-150 -224h-61l176 254l-87 126l-87 127h63z" />
    <glyph glyph-name="uni0079" unicode="y" horiz-adv-x="508" 
d="M104 -181l0.00195312 43c25.333 0 45.5 3.66699 60.5 11s27.167 23.333 36.5 48l29 77l-207 509h56l179 -455l171 455h56l-235 -603c-12.667 -34 -30.334 -56.667 -53.001 -68s-48.334 -17 -77.001 -17h-16z" />
    <glyph glyph-name="uni007A" unicode="z" horiz-adv-x="464" 
d="M411 45h-296l289 428v34h-338v-45h280l-290 -430v-32h355v45z" />
    <glyph glyph-name="uni007B" unicode="{" horiz-adv-x="316" 
d="M266 771l-0.000976562 -44.002h-1c-12.667 0 -23.834 -0.5 -33.501 -1.5s-17.834 -3.66699 -24.501 -8s-11.667 -10.666 -15 -18.999s-5 -19.833 -5 -34.5v-166c0 -12 -1 -24.667 -3 -38s-5.33301 -26.833 -10 -40.5s-11.167 -26.5 -19.5 -38.5
s-18.833 -22.667 -31.5 -32c12.667 -8.66699 23.167 -19.167 31.5 -31.5s14.833 -25.333 19.5 -39s7.83398 -27.167 9.50098 -40.5s2.5 -26 2.5 -38v-164c0 -29.333 6.66699 -47.833 20 -55.5s33 -11.5 59 -11.5h1v-42h-34c-30.667 0 -54.167 9.66699 -70.5 29
s-24.5 45 -24.5 77v148c0 16 -1.16699 31.833 -3.5 47.5s-6.16602 29.834 -11.499 42.501s-12.166 23.5 -20.499 32.5s-18.833 14.833 -31.5 17.5v56c14 1.33301 25.333 6.33301 34 15s15.5 19.5 20.5 32.5s8.33301 27.5 10 43.5s2.5 32.333 2.5 49v148
c0 32 8.16699 57.667 24.5 77s39.833 29 70.5 29h34z" />
    <glyph glyph-name="uni007C" unicode="|" horiz-adv-x="289" 
d="M118 -149h48v931h-48v-931z" />
    <glyph glyph-name="uni007D" unicode="}" horiz-adv-x="316" 
d="M47 727l-0.000976562 44.002h34c30.667 0 54.167 -9.66699 70.5 -29s24.5 -45 24.5 -77v-148c0 -16.667 0.833008 -33 2.5 -49s5 -30.5 10 -43.5s11.833 -23.833 20.5 -32.5s20 -13.667 34 -15v-56c-12.667 -2.66699 -23.167 -8.5 -31.5 -17.5
s-15.166 -19.833 -20.499 -32.5s-9.16602 -26.834 -11.499 -42.501s-3.5 -31.5 -3.5 -47.5v-148c0 -32 -8.16699 -57.667 -24.5 -77s-39.833 -29 -70.5 -29h-34v42h1c26 0 45.667 3.83301 59 11.5s20 26.167 20 55.5v164c0 12 0.833008 24.667 2.5 38
s4.83398 26.833 9.50098 40.5s11.167 26.667 19.5 39s18.833 22.833 31.5 31.5c-12.667 9.33301 -23.167 20 -31.5 32s-14.833 24.833 -19.5 38.5s-8 27.167 -10 40.5s-3 26 -3 38v166c0 14.667 -1.66699 26.167 -5 34.5s-8.33301 14.666 -15 18.999s-14.834 7 -24.501 8
s-20.834 1.5 -33.501 1.5h-1z" />
    <glyph glyph-name="uni007E" unicode="~" horiz-adv-x="600" 
d="M484 367l34.002 -21.001c-15.333 -30 -34 -52.333 -56 -67s-45.333 -22 -70 -22c-15.333 0 -31.833 3.5 -49.5 10.5s-34.834 15.833 -51.501 26.5s-31.667 18 -45 22s-26 6 -38 6c-18.667 0 -35.5 -5.16699 -50.5 -15.5s-30.5 -27.166 -46.5 -50.499
c-7.33301 6 -12.833 10 -16.5 12s-8.83398 5.66699 -15.501 11c36 62.667 79.333 94 130 94c15.333 0 32.833 -3.83301 52.5 -11.5s38.834 -17.5 57.501 -29.5c27.333 -17.333 51.333 -26 72 -26c19.333 0 36.166 5.16699 50.499 15.5s28.5 25.5 42.5 45.5z" />
    <glyph glyph-name="uni00A0" unicode="&#xa0;" horiz-adv-x="257" 
 />
    <glyph glyph-name="uni00A1" unicode="&#xa1;" horiz-adv-x="295" 
d="M120 343l-1 -544h53v544h-52zM116 495v-78h60v78h-60z" />
    <glyph glyph-name="uni00A2" unicode="&#xa2;" horiz-adv-x="561" 
d="M299 -1v87.998c-35.333 3.33301 -67 13.333 -95 30s-51.667 37.167 -71 61.5s-34 51.5 -44 81.5s-15 60 -15 90s5.5 60 16.5 90s26.333 57.333 46 82s43.334 45.5 71.001 62.5s58.5 27.167 92.5 30.5v85h40v-85c56.667 -6 103.667 -25.667 141 -59l-28 -35
c-19.333 16.667 -39.666 28.834 -60.999 36.501s-42.666 11.5 -63.999 11.5c-26 0 -51.167 -5.33301 -75.5 -16s-45.833 -25.667 -64.5 -45s-33.667 -42.5 -45 -69.5s-17 -57.167 -17 -90.5c0 -24.667 4 -49.667 12 -75s20 -48.5 36 -69.5s36.167 -38.167 60.5 -51.5
s52.833 -20 85.5 -20c25.333 0 49.666 5 72.999 15s44.666 22.667 63.999 38c6 -7.33301 11.167 -13.166 15.5 -17.499s9.16602 -9.83301 14.499 -16.5c-38 -34 -87 -55 -147 -63v-89h-41z" />
    <glyph glyph-name="uni00A3" unicode="&#xa3;" horiz-adv-x="596" 
d="M530 544l-42.999 -7.00098c-4.66699 19.333 -12.5 36.5 -23.5 51.5s-23.833 27.833 -38.5 38.5s-30.5 18.667 -47.5 24s-33.5 8 -49.5 8c-18 0 -35.667 -2.66699 -53 -8s-32.833 -14 -46.5 -26s-24.667 -27.667 -33 -47s-12.5 -42.666 -12.5 -69.999v-142h225v-43h-225
v-276h354v-47h-461v47h57v276h-55v43h55v142c0 32.667 5.5 61.5 16.5 86.5s25.5 45.833 43.5 62.5s38.5 29.167 61.5 37.5s46.833 12.5 71.5 12.5c22 0 43.667 -3.5 65 -10.5s41.166 -17.333 59.499 -31s34.5 -30.667 48.5 -51s24.333 -43.833 31 -70.5z" />
    <glyph glyph-name="uni00A5" unicode="&#xa5;" horiz-adv-x="617" 
d="M579 700h-57l-208 -376l-212 376h-55l176 -314h-91v-38h113l44 -72v-25h-157v-40h157v-211h49v211h157v40h-157v25l42 72h115v38h-91z" />
    <glyph glyph-name="uni00A6" unicode="&#xa6;" horiz-adv-x="287" 
d="M119 -149h48v390h-48v-390zM167 782h-48v-387h48v387z" />
    <glyph glyph-name="uni00A7" unicode="&#xa7;" horiz-adv-x="469" 
d="M142 458l-6.99805 4.99902c-13.333 10 -24.166 22.833 -32.499 38.5s-12.5 34.834 -12.5 57.501c0 23.333 4.66699 43.833 14 61.5s21.666 32.5 36.999 44.5s33 21.167 53 27.5s40.333 9.5 61 9.5c23.333 0 46.666 -3.83301 69.999 -11.5s44.666 -20.5 63.999 -38.5
l-29 -34c-33.333 24.667 -69.666 37 -108.999 37c-14 0 -27.833 -2.33301 -41.5 -7s-25.667 -11.167 -36 -19.5s-18.666 -18.333 -24.999 -30s-9.5 -24.834 -9.5 -39.501s3.66699 -27 11 -37s16.666 -18.333 27.999 -25s23.5 -12 36.5 -16s24.833 -7 35.5 -9
c19.333 -4 38.333 -9.5 57 -16.5s35.334 -16 50.001 -27s26.334 -24.167 35.001 -39.5s13 -33.333 13 -54c0 -21.333 -5 -40.833 -15 -58.5s-27.667 -32.167 -53 -43.5c18.667 -14 32.334 -28.167 41.001 -42.5s13 -33.166 13 -56.499c0 -24.667 -5.5 -46.167 -16.5 -64.5
s-25 -33.166 -42 -44.499s-35.5 -19.833 -55.5 -25.5s-39.333 -8.5 -58 -8.5c-30 0 -58.833 6.16699 -86.5 18.5s-50.834 30.5 -69.501 54.5l32 31c17.333 -18 36.5 -31.833 57.5 -41.5s44.167 -14.5 69.5 -14.5c13.333 0 26.833 2 40.5 6s26.167 9.83301 37.5 17.5
s20.5 17.5 27.5 29.5s10.5 26 10.5 42s-3.83301 29.5 -11.5 40.5s-17.334 20 -29.001 27s-24.334 12.5 -38.001 16.5s-26.167 7 -37.5 9c-19.333 3.33301 -37.833 8.16602 -55.5 14.499s-33.334 14.833 -47.001 25.5s-24.667 23.5 -33 38.5s-12.5 32.833 -12.5 53.5
c0 20 6.16699 39.5 18.5 58.5s28.833 32.5 49.5 40.5zM234.002 272.999l1 -0.00195312c9.33301 -1.33301 19.5 -3.33301 30.5 -6s22.833 -6.66699 35.5 -12c15.333 8.66699 28.166 19.667 38.499 33s15.5 29 15.5 47c0 21.333 -6.66699 37.833 -20 49.5
s-29.166 20.834 -47.499 27.501s-37.5 11.834 -57.5 15.501s-37 7.5 -51 11.5c-16.667 -8.66699 -30.5 -19.667 -41.5 -33s-16.167 -29 -15.5 -47c0 -14.667 3.83301 -27 11.5 -37s17 -18.167 28 -24.5s23.167 -11.5 36.5 -15.5s25.333 -7 36 -9z" />
    <glyph glyph-name="uni00A8" unicode="&#xa8;" horiz-adv-x="513" 
d="M202 792v62h-61v-62h61zM375 792v62h-61v-62h61z" />
    <glyph glyph-name="uni00A9" unicode="&#xa9;" horiz-adv-x="835" 
d="M74 350c0 49.333 8.83301 95.5 26.5 138.5s42 80.5 73 112.5s67.333 57.333 109 76s86.167 28 133.5 28c48 0 93 -9.33301 135 -28s78.5 -44 109.5 -76s55.5 -69.5 73.5 -112.5s27 -89.167 27 -138.5s-9 -95.5 -27 -138.5s-42.5 -80.5 -73.5 -112.5
s-67.5 -57.333 -109.5 -76s-87 -28 -135 -28c-47.333 0 -91.833 9.33301 -133.5 28s-78 44 -109 76s-55.333 69.5 -73 112.5s-26.5 89.167 -26.5 138.5zM123 350c0 -42.667 7.5 -82.667 22.5 -120s35.667 -69.666 62 -96.999s57.333 -48.833 93 -64.5
s74.167 -23.5 115.5 -23.5c42 0 81 7.83301 117 23.5s67.167 37.167 93.5 64.5s47.166 59.666 62.499 96.999s23 77.333 23 120c0 43.333 -7.66699 83.5 -23 120.5s-36.166 69.167 -62.499 96.5s-57.5 48.833 -93.5 64.5s-75 23.5 -117 23.5
c-41.333 0 -79.833 -7.83301 -115.5 -23.5s-66.667 -37.167 -93 -64.5s-47 -59.5 -62 -96.5s-22.5 -77.167 -22.5 -120.5zM425 208c17.333 0 33.999 2.66602 49.999 7.99902s30.333 13.333 43 24l28 -32c-34.667 -30.667 -75 -46 -121 -46c-32 0 -62.167 7.83301 -90.5 23.5
s-50.833 37.834 -67.5 66.501c-16 30 -24 62.667 -24 98s8 67.666 24 96.999c16.667 30.667 38.667 53.667 66 69s58 23 92 23c24.667 0 46.834 -3.66699 66.501 -11s38.167 -19.333 55.5 -36l-30 -31c-12.667 10 -27 17.833 -43 23.5s-32.333 8.5 -49 8.5
c-28 0 -51.5 -5.83301 -70.5 -17.5s-34.167 -27.5 -45.5 -47.5c-12.667 -22 -19 -48.167 -19 -78.5s7.66699 -58.166 23 -83.499c12 -18.667 28 -33 48 -43s41.333 -15 64 -15z" />
    <glyph glyph-name="uni00AA" unicode="&#xaa;" horiz-adv-x="481" 
d="M399 272l-1 -45h-307v45h308zM358 341l-5 42.998c-8 -8.66699 -16.833 -16 -26.5 -22s-19.5 -10.833 -29.5 -14.5s-19.5 -6.16699 -28.5 -7.5s-16.833 -2 -23.5 -2c-24.667 0 -47.5 5 -68.5 15s-39 23.333 -54 40s-26.833 36 -35.5 58s-13 45 -13 69
c0 25.333 4.66699 49.333 14 72s22.333 42.334 39 59.001s36 30 58 40s45.333 15.333 70 16c26 0 50.167 -1.66699 72.5 -5s45.5 -10.666 69.5 -21.999v-339h-39zM352 429.998l0.999023 227.997c-13.333 4.66699 -26.333 7.83398 -39 9.50098s-24.667 2.5 -36 2.5h-11.5
c-3.66699 0 -7.16699 -0.333008 -10.5 -1c-19.333 -2 -37.5 -7.16699 -54.5 -15.5s-31.667 -19.166 -44 -32.499s-22 -28.666 -29 -45.999s-10.5 -35.666 -10.5 -54.999c0 -18.667 3.5 -36.5 10.5 -53.5s16.667 -32 29 -45s26.833 -23.333 43.5 -31
s34.334 -11.5 53.001 -11.5c19.333 0 37.5 4.16699 54.5 12.5s31.5 21.166 43.5 38.499z" />
    <glyph glyph-name="uni00AB" unicode="&#xab;" horiz-adv-x="541" 
d="M222 87h57l-154 195l153 196h-56l-156 -196zM414 87h57l-154 195l153 196h-56l-156 -196z" />
    <glyph glyph-name="uni00AC" unicode="&#xac;" horiz-adv-x="628" 
d="M80 362h408v-201h43v247h-451v-46z" />
    <glyph glyph-name="uni00AD" unicode="&#xad;" horiz-adv-x="445" 
d="M83 263h280v48h-280v-48z" />
    <glyph glyph-name="uni00AE" unicode="&#xae;" horiz-adv-x="835" 
d="M75 348c0 49.333 8.83301 95.5 26.5 138.5s42 80.5 73 112.5s67.333 57.333 109 76s86.167 28 133.5 28c48 0 93 -9.33301 135 -28s78.5 -44 109.5 -76s55.5 -69.5 73.5 -112.5s27 -89.167 27 -138.5s-9 -95.5 -27 -138.5s-42.5 -80.5 -73.5 -112.5
s-67.5 -57.333 -109.5 -76s-87 -28 -135 -28c-47.333 0 -91.833 9.33301 -133.5 28s-78 44 -109 76s-55.333 69.5 -73 112.5s-26.5 89.167 -26.5 138.5zM122 348c0 -43.333 7.66699 -83.666 23 -120.999s36.166 -69.833 62.499 -97.5s57.5 -49.334 93.5 -65.001
s74.667 -23.5 116 -23.5c42 0 81.167 7.83301 117.5 23.5s67.833 37.334 94.5 65.001s47.667 60.167 63 97.5s23 77.666 23 120.999s-7.66699 83.666 -23 120.999s-36.333 69.833 -63 97.5s-58.167 49.334 -94.5 65.001s-75.5 23.5 -117.5 23.5
c-41.333 0 -80 -7.83301 -116 -23.5s-67.167 -37.334 -93.5 -65.001s-47.166 -60.167 -62.499 -97.5s-23 -77.666 -23 -120.999zM443 319l121 -154h-51l-114 150h-49v-150h-43v377h117c36.667 0 67 -10 91 -30s36.333 -48.333 37 -85c0 -30.667 -10 -55 -30 -73
s-46.333 -29.667 -79 -35zM350 503l0.000976562 -148.001h74c29.333 0.666992 51.166 8.83398 65.499 24.501s21.333 32.667 21 51s-7.83301 35 -22.5 50s-36 22.5 -64 22.5h-74z" />
    <glyph glyph-name="uni00AF" unicode="&#xaf;" horiz-adv-x="513" 
d="M132 767h247v41h-247v-41z" />
    <glyph glyph-name="uni00B0" unicode="&#xb0;" horiz-adv-x="396" 
d="M193 457c-17.333 0 -33.666 3.33301 -48.999 10s-28.666 15.667 -39.999 27s-20.333 24.666 -27 39.999s-10 31.666 -10 48.999s3.33301 33.666 10 48.999s15.667 28.666 27 39.999s24.666 20.333 39.999 27s31.666 10 48.999 10s33.833 -3.33301 49.5 -10
s29.167 -15.667 40.5 -27s20.333 -24.666 27 -39.999s10 -31.666 10 -48.999s-3.33301 -33.666 -10 -48.999s-15.667 -28.666 -27 -39.999s-24.833 -20.333 -40.5 -27s-32.167 -10 -49.5 -10zM193 501c24 0 44.167 7.83301 60.5 23.5s24.5 35.167 24.5 58.5
c0 22.667 -8.16699 42.167 -24.5 58.5s-36.5 24.5 -60.5 24.5s-44.167 -8.16699 -60.5 -24.5s-24.5 -35.833 -24.5 -58.5c0 -23.333 8.16699 -42.833 24.5 -58.5s36.5 -23.5 60.5 -23.5z" />
    <glyph glyph-name="uni00B1" unicode="&#xb1;" horiz-adv-x="695" 
d="M120 52v-46h455v46h-455zM113 355h206v-211h47v211h209v49h-209v209h-47v-209h-206v-49z" />
    <glyph glyph-name="uni00B2" unicode="&#xb2;" horiz-adv-x="409" 
d="M302 535l-184.002 -168.002h239v-42h-288l-17 36l219 206c15.333 13.333 26.833 28.833 34.5 46.5s6.16699 36.5 -4.5 56.5c-8 15.333 -21.333 26.333 -40 33s-36 10.334 -52 11.001h1c-22 0 -43 -3.5 -63 -10.5s-36 -20.833 -48 -41.5
c-8.66699 3.33301 -15.334 6.33301 -20.001 9s-10.667 5.66699 -18 9c6.66699 14 15.334 26 26.001 36s22.834 18.167 36.501 24.5s27.834 11.166 42.501 14.499s29.334 5 44.001 5c30.667 0 59.167 -7.66699 85.5 -23s44.166 -38 53.499 -68
c7.33301 -25.333 6 -49.666 -4 -72.999s-24.333 -43.666 -43 -60.999z" />
    <glyph glyph-name="uni00B3" unicode="&#xb3;" horiz-adv-x="426" 
d="M279 536l24.998 -6.99609c40.667 -20.667 61 -54.334 61 -101.001c0 -20.667 -4.5 -39.167 -13.5 -55.5s-20.667 -29.833 -35 -40.5s-30.5 -18.834 -48.5 -24.501s-36.667 -8.5 -56 -8.5c-28 0 -55.667 7 -83 21s-48.666 33.667 -63.999 59l31 24
c14.667 -19.333 32.167 -34 52.5 -44s42.166 -15 65.499 -15c12.667 0 25.167 1.83301 37.5 5.5s23.333 9.16699 33 16.5s17.5 16.166 23.5 26.499s9 22.5 9 36.5c0 25.333 -9.5 46.166 -28.5 62.499s-41.167 24.5 -66.5 24.5h-32v39h32c21.333 0 40.333 5.16699 57 15.5
s25 27.5 25 51.5c0 25.333 -9.16699 44 -27.5 56s-39.166 18 -62.499 18c-18 0 -35.667 -3.33301 -53 -10s-31.333 -17.667 -42 -33l-37 16c13.333 23.333 31.833 40.833 55.5 52.5s48.167 17.5 73.5 17.5c17.333 0 34.5 -2.66699 51.5 -8s32.167 -13 45.5 -23
s24 -22.333 32 -37s12 -31.667 12 -51c0 -16 -4.66699 -31.5 -14 -46.5s-20.666 -25.5 -33.999 -31.5z" />
    <glyph glyph-name="uni00B4" unicode="&#xb4;" horiz-adv-x="489" 
d="M316 866h-62l-60 -104h46z" />
    <glyph glyph-name="uni00B5" unicode="&#xb5;" horiz-adv-x="577" 
d="M476 507l0.00195312 -508.001h-43l-6 92c-22 -29.333 -47.333 -49.833 -76 -61.5s-54 -17.5 -76 -17.5c-18 0 -38.167 3.83301 -60.5 11.5s-41.833 23.834 -58.5 48.501v-257h-49v692h50v-310c0 -16.667 2.16699 -33.167 6.5 -49.5s11.166 -30.833 20.499 -43.5
s21.333 -22.834 36 -30.501s32.667 -11.5 54 -11.5c19.333 0 38.166 3.5 56.499 10.5s34.5 17.667 48.5 32s25.333 32.333 34 54s13 46.834 13 75.501v273h50z" />
    <glyph glyph-name="uni00B5" unicode="&#x3bc;" horiz-adv-x="577" 
d="M476 507l0.00195312 -508.001h-43l-6 92c-22 -29.333 -47.333 -49.833 -76 -61.5s-54 -17.5 -76 -17.5c-18 0 -38.167 3.83301 -60.5 11.5s-41.833 23.834 -58.5 48.501v-257h-49v692h50v-310c0 -16.667 2.16699 -33.167 6.5 -49.5s11.166 -30.833 20.499 -43.5
s21.333 -22.834 36 -30.501s32.667 -11.5 54 -11.5c19.333 0 38.166 3.5 56.499 10.5s34.5 17.667 48.5 32s25.333 32.333 34 54s13 46.834 13 75.501v273h50z" />
    <glyph glyph-name="uni00B6" unicode="&#xb6;" horiz-adv-x="604" 
d="M270 -95l0.000976562 386.998c-34.667 1.33301 -65 8.16602 -91 20.499s-47.667 27.833 -65 46.5s-30.333 39.834 -39 63.501s-13 47.5 -13 71.5c0 26 4.66699 51.333 14 76s23.166 46.834 41.499 66.501s41.5 35.334 69.5 47.001s60.333 17.5 97 17.5h207v-796h-48v747
h-124v-747h-49z" />
    <glyph glyph-name="uni00B7" unicode="&#xb7;" horiz-adv-x="274" 
d="M108 260h65v72h-65v-72z" />
    <glyph glyph-name="uni00B8" unicode="&#xb8;" horiz-adv-x="513" 
d="M286 5l-31 -57.001c32 -1.33301 54.667 -9.66602 68 -24.999s19 -31.833 17 -49.5s-11.167 -33.667 -27.5 -48s-38.5 -21.5 -66.5 -21.5c-10 0 -21.167 1.5 -33.5 4.5s-24.5 7.16699 -36.5 12.5l7 34c7.33301 -4.66699 16 -8.16699 26 -10.5s20.333 -3.5 31 -3.5
c14.667 0 27.667 2.83301 39 8.5s17 15.167 17 28.5c0 21.333 -19.333 32.666 -58 33.999c-4 0 -8 -0.166992 -12 -0.5s-8.33301 -1.16602 -13 -2.49902l-10 9l23 44c8 16 15.667 30.333 23 43h37z" />
    <glyph glyph-name="uni00B9" unicode="&#xb9;" horiz-adv-x="308" 
d="M133 269h46v431h-110v-43h64v-388z" />
    <glyph glyph-name="uni00BA" unicode="&#xba;" horiz-adv-x="481" 
d="M98 274v47h286v-47h-286zM240 409c-20.667 0 -40.166 3.66699 -58.499 11s-34.333 17.666 -48 30.999s-24.334 29.166 -32.001 47.499s-11.5 38.5 -11.5 60.5c0 21.333 3.83301 40.833 11.5 58.5s18.334 33.167 32.001 46.5s29.5 23.666 47.5 30.999s37.333 11 58 11
c21.333 0 41.166 -3.66699 59.499 -11s34.166 -17.666 47.499 -30.999s24 -28.833 32 -46.5s12 -37.167 12 -58.5c0 -22 -4 -42.167 -12 -60.5s-18.667 -34.166 -32 -47.499s-29.166 -23.666 -47.499 -30.999s-37.833 -11 -58.5 -11zM240.001 451
c29.333 0 54.166 10 74.499 30s30.5 46 30.5 78c0 31.333 -10.167 56.666 -30.5 75.999s-45.166 29 -74.499 29c-30 0 -55.167 -9.66699 -75.5 -29s-30.5 -44.666 -30.5 -75.999c0 -32 10.167 -58 30.5 -78s45.5 -30 75.5 -30z" />
    <glyph glyph-name="uni00BB" unicode="&#xbb;" horiz-adv-x="562" 
d="M295 282l-156 196h-56l153 -196l-154 -195h57zM487 282l-156 196h-56l153 -196l-154 -195h57z" />
    <glyph glyph-name="uni00BC" unicode="&#xbc;" horiz-adv-x="927" 
d="M169 301v356h-64v43h110v-399h-46zM283 -22h-47l366 766h47zM815 433v-300h39v-40h-39v-93h-43v93h-199l-31 43l111 148.5l110 148.5h52zM591 133h181v245z" />
    <glyph glyph-name="uni00BD" unicode="&#xbd;" horiz-adv-x="948" 
d="M241 -20h-48l367 760h47zM811 209l-184.002 -168.002h239v-42h-288l-17 36l219 206c15.333 13.333 26.833 28.833 34.5 46.5s6.16699 36.5 -4.5 56.5c-8 15.333 -21.333 26.333 -40 33s-36 10.334 -52 11.001h1c-22 0 -43 -3.5 -63 -10.5s-36 -20.833 -48 -41.5
c-8.66699 3.33301 -15.334 6.33301 -20.001 9s-10.667 5.66699 -18 9c6.66699 14 15.334 26 26.001 36s22.834 18.167 36.501 24.5s27.834 11.166 42.501 14.499s29.334 5 44.001 5c30.667 0 59.167 -7.66699 85.5 -23s44.166 -38 53.499 -68
c7.33301 -25.333 6 -49.666 -4 -72.999s-24.333 -43.666 -43 -60.999zM156.998 300.998v356h-64v43h110v-399h-46z" />
    <glyph glyph-name="uni00BE" unicode="&#xbe;" horiz-adv-x="993" 
d="M285 516l19 -6.99902c40.667 -20.667 61 -54.334 61 -101.001c0 -20.667 -4.5 -39.167 -13.5 -55.5s-20.667 -29.833 -35 -40.5s-30.5 -18.834 -48.5 -24.501s-36.667 -8.5 -56 -8.5c-28 0 -55.667 7 -83 21s-48.666 33.667 -63.999 59l31 24
c14.667 -19.333 32.167 -34 52.5 -44s42.166 -15 65.499 -15c12.667 0 25.167 1.83301 37.5 5.5s23.5 9.16699 33.5 16.5s18 16.166 24 26.499s9 22.5 9 36.5c0 12.667 -2.66699 24.334 -8 35.001s-12.5 19.834 -21.5 27.501s-19.167 13.667 -30.5 18s-23.333 6.5 -36 6.5
h-32v39h32c21.333 0 40.666 5.16699 57.999 15.5s26 27.5 26 51.5c0 12.667 -2.66699 23.667 -8 33s-12.333 17 -21 23s-18.5 10.5 -29.5 13.5s-22.167 4.5 -33.5 4.5c-18 0 -35.667 -3.33301 -53 -10s-31.333 -17.667 -42 -33l-37 16
c13.333 23.333 31.833 40.833 55.5 52.5s48.167 17.5 73.5 17.5c17.333 0 34.5 -2.66699 51.5 -8s32.167 -13 45.5 -23s24 -22.333 32 -37s12 -31.667 12 -51c0 -16 -4.66699 -31.5 -14 -46.5s-20.666 -25.5 -33.999 -31.5zM345 -25.999h-47l371 766h47zM850 433.001v-300
h39v-40h-39v-93h-43v93h-199l-31 43l111 148.5l110 148.5h52zM626 133.001h181v245z" />
    <glyph glyph-name="uni00BF" unicode="&#xbf;" horiz-adv-x="498" 
d="M457 -98l-3.00195 -3.99902c-21.333 -28 -48.5 -48.833 -81.5 -62.5s-67.167 -20.5 -102.5 -20.5c-26.667 0 -53 4.33301 -79 13s-49 21.334 -69 38.001s-36 37.5 -48 62.5s-18 53.5 -18 85.5c0 29.333 5 55.666 15 78.999s23.833 44 41.5 62s38.667 32.833 63 44.5
s51.166 20.167 80.499 25.5l6 143h41l6 -181c-26 -2 -51.167 -7 -75.5 -15s-46 -19.167 -65 -33.5s-34.167 -32 -45.5 -53s-16.666 -45.167 -15.999 -72.5c0.666992 -25.333 5.83398 -47.333 15.501 -66s22.334 -34.167 38.001 -46.5s33.167 -21.5 52.5 -27.5s39 -9 59 -9
c27.333 0 54.333 5.83301 81 17.5s49 27.167 67 46.5c8 -6.66699 14.333 -11.334 19 -14.001s10.667 -6.66699 18 -12zM250.998 522.001h57v-73h-57v73z" />
    <glyph glyph-name="uni00C0" unicode="&#xc0;" horiz-adv-x="636" 
d="M28 0l248 707h81l126 -353.5l126 -353.5h-57l-84 234h-301l-81 -234h-58zM186 284h265l-134 388zM294 748l-76 104h62l60 -104h-46z" />
    <glyph glyph-name="uni00C1" unicode="&#xc1;" horiz-adv-x="636" 
d="M451 284l-134 388l-131 -388h265zM276 707h81l126 -353.5l126 -353.5h-57l-84 234h-301l-81 -234h-58zM411 852l-76 -104h-46l60 104h62z" />
    <glyph glyph-name="uni00C2" unicode="&#xc2;" horiz-adv-x="636" 
d="M28 0l248 707h81l126 -353.5l126 -353.5h-57l-84 234h-301l-81 -234h-58zM186 284h265l-134 388zM198 742l84 100h69l82 -100h-48l-69 78l-70 -78h-48z" />
    <glyph glyph-name="uni00C3" unicode="&#xc3;" horiz-adv-x="636" 
d="M28 0l248 707h81l126 -353.5l126 -353.5h-57l-84 234h-301l-81 -234h-58zM186 284h265l-134 388zM416 820l22.001 -19.001c-8 -17.333 -18.167 -30.5 -30.5 -39.5s-25.5 -13.5 -39.5 -13.5c-8.66699 0 -17.334 1.33301 -26.001 4s-17 7.33398 -25 14.001
c-16 12.667 -31 19 -45 19c-20 0 -37.333 -11.667 -52 -35c-5.33301 3.33301 -9.83301 6.33301 -13.5 9s-7.16699 5.66699 -10.5 9c21.333 37.333 46.333 56 75 56c18 0 37 -8 57 -24c12.667 -9.33301 25 -14 37 -14c21.333 0 38.333 11.333 51 34z" />
    <glyph glyph-name="uni00C4" unicode="&#xc4;" horiz-adv-x="636" 
d="M28 0l248 707h81l126 -353.5l126 -353.5h-57l-84 234h-301l-81 -234h-58zM186 284h265l-134 388zM258 744h-61v62h61v-62zM431 744h-61v62h61v-62z" />
    <glyph glyph-name="uni00C5" unicode="&#xc5;" horiz-adv-x="636" 
d="M28 0l248 707h81l126 -353.5l126 -353.5h-57l-84 234h-301l-81 -234h-58zM186 284h265l-134 388zM248 813c-0.666992 22.667 5.83301 39.5 19.5 50.5s28.834 16.5 45.501 16.5c17.333 0 33 -5.5 47 -16.5s21 -27.833 21 -50.5s-7 -39.667 -21 -51s-29.667 -17 -47 -17
c-16.667 0 -31.834 5.66699 -45.501 17s-20.167 28.333 -19.5 51zM277 813c0 -13.333 3.83203 -23.333 11.499 -30s16.167 -10 25.5 -10c10 0 19 3.33301 27 10s12 16.667 12 30s-4.16699 23.333 -12.5 30s-17.166 10 -26.499 10s-17.833 -3.33301 -25.5 -10
s-11.5 -16.667 -11.5 -30z" />
    <glyph glyph-name="uni00C6" unicode="&#xc6;" horiz-adv-x="869" 
d="M26 0h60l131 247h235v-247h352v50h-300v278h297v49h-297v275h300v48h-405zM452 294h-211l187 362h24v-362z" />
    <glyph glyph-name="uni00C7" unicode="&#xc7;" horiz-adv-x="733" 
d="M426 -12l-22 -42.001c32 -1.33301 54.667 -9.66602 68 -24.999s19 -31.833 17 -49.5s-11.167 -33.667 -27.5 -48s-38.5 -21.5 -66.5 -21.5c-10 0 -21.167 1.5 -33.5 4.5s-24.5 7.16699 -36.5 12.5l7 34c7.33301 -4.66699 16 -8.16699 26 -10.5s20.333 -3.5 31 -3.5
c14.667 0 27.667 2.83301 39 8.5s17 15.167 17 28.5c0 21.333 -19.333 32.666 -58 33.999c-4 0 -8 -0.166992 -12 -0.5s-8.33301 -1.16602 -13 -2.49902l-10 9l38 72c-52.667 2.66699 -99.167 15 -139.5 37s-74 49.833 -101 83.5s-47.5 71.334 -61.5 113.001
s-21 83.834 -21 126.501c0 44 7.5 87.833 22.5 131.5s37 82.667 66 117s65 62.166 108 83.499s92.5 32 148.5 32c46.667 0 90.167 -8.66699 130.5 -26s76.166 -41 107.499 -71l-36 -36c-28 26.667 -59 47 -93 61s-70.333 21 -109 21
c-47.333 -0.666992 -89 -10.334 -125 -29.001s-66.333 -42.834 -91 -72.501s-43.167 -63 -55.5 -100s-18.5 -74.167 -18.5 -111.5c0 -36.667 6.33301 -73.5 19 -110.5s31.334 -70.167 56.001 -99.5s55 -53.166 91 -71.499s77.333 -27.5 124 -27.5c40 0 79.833 9 119.5 27
s73.5 41.333 101.5 70l38 -31c-30.667 -34 -67.167 -61.5 -109.5 -82.5s-87.5 -32.5 -135.5 -34.5z" />
    <glyph glyph-name="uni00C8" unicode="&#xc8;" horiz-adv-x="531" 
d="M461 701h-349v-700h349v52h-295v273h291v51h-290v272h294v52zM279 746h46l-60 104h-62z" />
    <glyph glyph-name="uni00C9" unicode="&#xc9;" horiz-adv-x="531" 
d="M386 849h-62l-60 -104h46zM461 649h-294v-272h290v-51h-291v-273h295v-52h-349v700h349v-52z" />
    <glyph glyph-name="uni00CA" unicode="&#xca;" horiz-adv-x="531" 
d="M461 701h-349v-700h349v52h-295v273h291v51h-290v273h294v51zM170 745h48l70 78l69 -78h48l-82 100h-69z" />
    <glyph glyph-name="uni00CB" unicode="&#xcb;" horiz-adv-x="531" 
d="M461 701h-349v-701h349v52h-295v274h291v51h-290v272h294v52zM241 750v62h-61v-62h61zM414 750v62h-61v-62h61z" />
    <glyph glyph-name="uni00CC" unicode="&#xcc;" horiz-adv-x="286" 
d="M116 0h54v700h-54v-700zM118 752h46l-60 104h-62z" />
    <glyph glyph-name="uni00CD" unicode="&#xcd;" horiz-adv-x="286" 
d="M240 853h-62l-60 -104h46zM116 700h54v-700h-54v700z" />
    <glyph glyph-name="uni00CE" unicode="&#xce;" horiz-adv-x="286" 
d="M116 0h54v700h-54v-700zM24 741h48l70 78l69 -78h48l-82 100h-69z" />
    <glyph glyph-name="uni00CF" unicode="&#xcf;" horiz-adv-x="286" 
d="M116 0h54v700h-54v-700zM87 743v62h-61v-62h61zM260 743v62h-61v-62h61z" />
    <glyph glyph-name="uni00D0" unicode="&#xd0;" horiz-adv-x="735" 
d="M61 326v45h61v329h203c55.333 0.666992 103.833 -8.83301 145.5 -28.5s76.667 -45.5 105 -77.5s49.833 -68.5 64.5 -109.5s22.334 -82.833 23.001 -125.5c1.33301 -43.333 -5 -86.5 -19 -129.5s-35 -81.5 -63 -115.5s-63.333 -61.5 -106 -82.5
s-92.334 -31.5 -149.001 -31.5h-204v326h-61zM174 48l150.998 0.000976562c48 -0.666992 90.167 8.16602 126.5 26.499s66.333 42.333 90 72s41.334 63.167 53.001 100.5s16.834 74.333 15.501 111c-0.666992 35.333 -7.16699 70.5 -19.5 105.5s-30.333 66.5 -54 94.5
s-53 50.667 -88 68s-75.5 26 -121.5 26h-153v-281h136v-45h-136v-278z" />
    <glyph glyph-name="uni00D1" unicode="&#xd1;" horiz-adv-x="737" 
d="M116 700h67l384 -648v648h54v-700h-84l-367 620v-620h-54v700zM476 824l25.001 -21.999c-9.33301 -18.667 -21 -33.167 -35 -43.5s-28.667 -15.5 -44 -15.5c-9.33301 0 -18.833 1.66699 -28.5 5s-18.834 8.66602 -27.501 15.999c-18.667 14.667 -36 22 -52 22
c-21.333 0 -40.333 -13.667 -57 -41c-5.33301 4 -10 7.66699 -14 11l-12 10c23.333 41.333 51 62 83 62c22 0 43.333 -9 64 -27c13.333 -10 27 -15 41 -15c22.667 0 41.667 12.667 57 38z" />
    <glyph glyph-name="uni00D2" unicode="&#xd2;" horiz-adv-x="824" 
d="M412 711c51.333 0 98.1689 -9.83301 140.502 -29.5s78.666 -46.167 108.999 -79.5s54 -71.833 71 -115.5s25.5 -89.5 25.5 -137.5c0 -60 -9.83301 -112.333 -29.5 -157s-45.834 -82 -78.501 -112s-69.667 -52.5 -111 -67.5s-83.666 -22.5 -126.999 -22.5
s-85.666 7.5 -126.999 22.5s-78.333 37.5 -111 67.5s-58.834 67.333 -78.501 112s-29.5 97 -29.5 157c0 48 8.16699 93.833 24.5 137.5s39.666 82.167 69.999 115.5s66.833 59.833 109.5 79.5s90 29.5 142 29.5zM120.003 349c0 -51.333 8.33398 -96.167 25.001 -134.5
s38.667 -70.333 66 -96s58.5 -45 93.5 -58s70.833 -19.5 107.5 -19.5s72.5 6.5 107.5 19.5s66.167 32.333 93.5 58s49.333 57.667 66 96s25 83.166 25 134.499c0 52 -8.33301 97.333 -25 136s-38.667 70.834 -66 96.501s-58.333 45 -93 58s-70.334 19.5 -107.001 19.5
s-72.5 -6.5 -107.5 -19.5s-66.167 -32.5 -93.5 -58.5s-49.5 -58.333 -66.5 -97s-25.5 -83.667 -25.5 -135zM393.004 747.999l-76 104h62l60 -104h-46z" />
    <glyph glyph-name="uni00D3" unicode="&#xd3;" horiz-adv-x="824" 
d="M120 349c0 -51.333 8.33398 -96.167 25.001 -134.5s38.667 -70.333 66 -96s58.5 -45 93.5 -58s70.833 -19.5 107.5 -19.5s72.5 6.5 107.5 19.5s66.167 32.333 93.5 58s49.333 57.667 66 96s25 83.166 25 134.499c0 52 -8.33301 97.333 -25 136s-38.667 70.834 -66 96.501
s-58.333 45 -93 58s-70.334 19.5 -107.001 19.5s-72.5 -6.5 -107.5 -19.5s-66.167 -32.5 -93.5 -58.5s-49.5 -58.333 -66.5 -97s-25.5 -83.667 -25.5 -135zM412.001 710.999c51.333 0 98.1689 -9.83301 140.502 -29.5s78.666 -46.167 108.999 -79.5s54 -71.833 71 -115.5
s25.5 -89.5 25.5 -137.5c0 -60 -9.83301 -112.333 -29.5 -157s-45.834 -82 -78.501 -112s-69.667 -52.5 -111 -67.5s-83.666 -22.5 -126.999 -22.5s-85.666 7.5 -126.999 22.5s-78.333 37.5 -111 67.5s-58.834 67.333 -78.501 112s-29.5 97 -29.5 157
c0 48 8.16699 93.833 24.5 137.5s39.666 82.167 69.999 115.5s66.833 59.833 109.5 79.5s90 29.5 142 29.5zM506.004 851.999l-76 -104h-46l60 104h62z" />
    <glyph glyph-name="uni00D4" unicode="&#xd4;" horiz-adv-x="824" 
d="M412 711c51.333 0 98.1689 -9.83301 140.502 -29.5s78.666 -46.167 108.999 -79.5s54 -71.833 71 -115.5s25.5 -89.5 25.5 -137.5c0 -60 -9.83301 -112.333 -29.5 -157s-45.834 -82 -78.501 -112s-69.667 -52.5 -111 -67.5s-83.666 -22.5 -126.999 -22.5
s-85.666 7.5 -126.999 22.5s-78.333 37.5 -111 67.5s-58.834 67.333 -78.501 112s-29.5 97 -29.5 157c0 48 8.16699 93.833 24.5 137.5s39.666 82.167 69.999 115.5s66.833 59.833 109.5 79.5s90 29.5 142 29.5zM120.003 349c0 -51.333 8.33398 -96.167 25.001 -134.5
s38.667 -70.333 66 -96s58.5 -45 93.5 -58s70.833 -19.5 107.5 -19.5s72.5 6.5 107.5 19.5s66.167 32.333 93.5 58s49.333 57.667 66 96s25 83.166 25 134.499c0 52 -8.33301 97.333 -25 136s-38.667 70.834 -66 96.501s-58.333 45 -93 58s-70.334 19.5 -107.001 19.5
s-72.5 -6.5 -107.5 -19.5s-66.167 -32.5 -93.5 -58.5s-49.5 -58.333 -66.5 -97s-25.5 -83.667 -25.5 -135zM292.004 745.999l84 100h69l82 -100h-48l-69 78l-70 -78h-48z" />
    <glyph glyph-name="uni00D5" unicode="&#xd5;" horiz-adv-x="824" 
d="M412 711c51.333 0 98.1689 -9.83301 140.502 -29.5s78.666 -46.167 108.999 -79.5s54 -71.833 71 -115.5s25.5 -89.5 25.5 -137.5c0 -60 -9.83301 -112.333 -29.5 -157s-45.834 -82 -78.501 -112s-69.667 -52.5 -111 -67.5s-83.666 -22.5 -126.999 -22.5
s-85.666 7.5 -126.999 22.5s-78.333 37.5 -111 67.5s-58.834 67.333 -78.501 112s-29.5 97 -29.5 157c0 48 8.16699 93.833 24.5 137.5s39.666 82.167 69.999 115.5s66.833 59.833 109.5 79.5s90 29.5 142 29.5zM120.003 349c0 -51.333 8.33398 -96.167 25.001 -134.5
s38.667 -70.333 66 -96s58.5 -45 93.5 -58s70.833 -19.5 107.5 -19.5s72.5 6.5 107.5 19.5s66.167 32.333 93.5 58s49.333 57.667 66 96s25 83.166 25 134.499c0 52 -8.33301 97.333 -25 136s-38.667 70.834 -66 96.501s-58.333 45 -93 58s-70.334 19.5 -107.001 19.5
s-72.5 -6.5 -107.5 -19.5s-66.167 -32.5 -93.5 -58.5s-49.5 -58.333 -66.5 -97s-25.5 -83.667 -25.5 -135zM524.004 823.999l25.001 -20c-9.33301 -17.333 -20.833 -30.833 -34.5 -40.5s-28.167 -14.5 -43.5 -14.5c-9.33301 0 -18.833 1.33301 -28.5 4
s-18.834 7.66699 -27.501 15c-18.667 13.333 -35.667 20 -51 20c-22 0 -41 -12.333 -57 -37c-5.33301 3.33301 -10 6.5 -14 9.5s-8 6.16699 -12 9.5c23.333 38.667 51 58 83 58c20 0 41 -8.33301 63 -25c12 -9.33301 25.667 -14 41 -14c22 0 40.667 11.667 56 35z" />
    <glyph glyph-name="uni00D6" unicode="&#xd6;" horiz-adv-x="824" 
d="M412 711c51.333 0 98.1689 -9.83301 140.502 -29.5s78.666 -46.167 108.999 -79.5s54 -71.833 71 -115.5s25.5 -89.5 25.5 -137.5c0 -60 -9.83301 -112.333 -29.5 -157s-45.834 -82 -78.501 -112s-69.667 -52.5 -111 -67.5s-83.666 -22.5 -126.999 -22.5
s-85.666 7.5 -126.999 22.5s-78.333 37.5 -111 67.5s-58.834 67.333 -78.501 112s-29.5 97 -29.5 157c0 48 8.16699 93.833 24.5 137.5s39.666 82.167 69.999 115.5s66.833 59.833 109.5 79.5s90 29.5 142 29.5zM120.003 349c0 -51.333 8.33398 -96.167 25.001 -134.5
s38.667 -70.333 66 -96s58.5 -45 93.5 -58s70.833 -19.5 107.5 -19.5s72.5 6.5 107.5 19.5s66.167 32.333 93.5 58s49.333 57.667 66 96s25 83.166 25 134.499c0 52 -8.33301 97.333 -25 136s-38.667 70.834 -66 96.501s-58.333 45 -93 58s-70.334 19.5 -107.001 19.5
s-72.5 -6.5 -107.5 -19.5s-66.167 -32.5 -93.5 -58.5s-49.5 -58.333 -66.5 -97s-25.5 -83.667 -25.5 -135zM353.004 751.999h-61v62h61v-62zM526.004 751.999h-61v62h61v-62z" />
    <glyph glyph-name="uni00D7" unicode="&#xd7;" horiz-adv-x="523" 
d="M84 442l152 -151l-154 -153l32 -34l154 154l150 -149l33 31l-152 150l147 145l-32 33l-146 -145l-152 151z" />
    <glyph glyph-name="uni00D8" unicode="&#xd8;" horiz-adv-x="824" 
d="M412 704c27.333 0 55.1689 -3.5 83.502 -10.5s55.166 -18.5 80.499 -34.5l49 82h49l-63 -105c44 -34.667 79.167 -77 105.5 -127s39.5 -103.333 39.5 -160c0 -48 -9 -93.5 -27 -136.5s-42.5 -80.5 -73.5 -112.5s-67.5 -57.333 -109.5 -76s-86.667 -28 -134 -28
c-26.667 0 -53.167 3.66699 -79.5 11s-52.833 17.666 -79.5 30.999c-6.66699 -11.333 -14.667 -24.166 -24 -38.499l-25 -39.5h-48l62 100c-44.667 34 -80.834 76 -108.501 126s-41.5 104.333 -41.5 163c0 48 9 93.5 27 136.5s42.5 80.667 73.5 113s67.5 58 109.5 77
s86.667 28.5 134 28.5zM120.003 349c0 -54 11.502 -102.167 34.502 -144.5s52.167 -77.5 87.5 -105.5l308 521c-23.333 14 -46.833 23.333 -70.5 28s-46.5 7 -68.5 7c-36 0 -71.333 -6.83301 -106 -20.5s-65.834 -33.5 -93.501 -59.5s-49.834 -58 -66.501 -96
s-25 -81.333 -25 -130zM704.005 349c0 52 -11 99.499 -33 142.499s-50 78.5 -84 106.5l-308 -521c23.333 -10 46.166 -17.833 68.499 -23.5s43.833 -8.5 64.5 -8.5c36 0 71.333 6.5 106 19.5s65.834 32.333 93.501 58s50 57.334 67 95.001s25.5 81.5 25.5 131.5z" />
    <glyph glyph-name="uni00D9" unicode="&#xd9;" horiz-adv-x="659" 
d="M106 700h54.001v-502c0 -25.333 4.83301 -47.666 14.5 -66.999s22.5 -35.5 38.5 -48.5s34.167 -22.833 54.5 -29.5s40.833 -10 61.5 -10s41.167 3.33301 61.5 10s38.666 16.5 54.999 29.5s29.5 29.167 39.5 48.5s15 41.666 15 66.999v502h53v-502
c0 -34.667 -6.33301 -64.834 -19 -90.501s-29.5 -47.167 -50.5 -64.5s-45 -30.333 -72 -39s-54.5 -13 -82.5 -13s-55.333 4.33301 -82 13s-50.5 21.667 -71.5 39s-37.833 38.833 -50.5 64.5s-19 55.834 -19 90.501v502zM313.001 746l-76 104h62l60 -104h-46z" />
    <glyph glyph-name="uni00DA" unicode="&#xda;" horiz-adv-x="659" 
d="M412 847l-76 -104h-46l60 104h62zM160 700l0.000976562 -502c0 -25.333 4.83301 -47.666 14.5 -66.999s22.5 -35.5 38.5 -48.5s34.167 -22.833 54.5 -29.5s40.833 -10 61.5 -10s41.167 3.33301 61.5 10s38.666 16.5 54.999 29.5s29.5 29.167 39.5 48.5
s15 41.666 15 66.999v502h53v-502c0 -34.667 -6.33301 -64.834 -19 -90.501s-29.5 -47.167 -50.5 -64.5s-45 -30.333 -72 -39s-54.5 -13 -82.5 -13s-55.333 4.33301 -82 13s-50.5 21.667 -71.5 39s-37.833 38.833 -50.5 64.5s-19 55.834 -19 90.501v502h54z" />
    <glyph glyph-name="uni00DB" unicode="&#xdb;" horiz-adv-x="659" 
d="M106 700h54.001v-502c0 -25.333 4.83301 -47.666 14.5 -66.999s22.5 -35.5 38.5 -48.5s34.167 -22.833 54.5 -29.5s40.833 -10 61.5 -10s41.167 3.33301 61.5 10s38.666 16.5 54.999 29.5s29.5 29.167 39.5 48.5s15 41.666 15 66.999v502h53v-502
c0 -34.667 -6.33301 -64.834 -19 -90.501s-29.5 -47.167 -50.5 -64.5s-45 -30.333 -72 -39s-54.5 -13 -82.5 -13s-55.333 4.33301 -82 13s-50.5 21.667 -71.5 39s-37.833 38.833 -50.5 64.5s-19 55.834 -19 90.501v502zM212.001 742l84 100h69l82 -100h-48l-69 78l-70 -78
h-48z" />
    <glyph glyph-name="uni00DC" unicode="&#xdc;" horiz-adv-x="659" 
d="M106 700h54.001v-502c0 -25.333 4.83301 -47.666 14.5 -66.999s22.5 -35.5 38.5 -48.5s34.167 -22.833 54.5 -29.5s40.833 -10 61.5 -10s41.167 3.33301 61.5 10s38.666 16.5 54.999 29.5s29.5 29.167 39.5 48.5s15 41.666 15 66.999v502h53v-502
c0 -34.667 -6.33301 -64.834 -19 -90.501s-29.5 -47.167 -50.5 -64.5s-45 -30.333 -72 -39s-54.5 -13 -82.5 -13s-55.333 4.33301 -82 13s-50.5 21.667 -71.5 39s-37.833 38.833 -50.5 64.5s-19 55.834 -19 90.501v502zM271.001 748h-61v62h61v-62zM444.001 748h-61v62h61
v-62z" />
    <glyph glyph-name="uni00DD" unicode="&#xdd;" horiz-adv-x="593" 
d="M381 851h-62l-60 -104h46zM322 280v-280h-53v281l-236 419h59l204 -370l205 370h59z" />
    <glyph glyph-name="uni00DE" unicode="&#xde;" horiz-adv-x="584" 
d="M165 153l0.000976562 -154h-52v701h52v-124h144c37.333 0 69.833 -6.16699 97.5 -18.5s50.834 -28.5 69.501 -48.5s32.667 -42.833 42 -68.5s14 -51.834 14 -78.501s-4.66699 -52.667 -14 -78s-23.333 -47.666 -42 -66.999s-41.834 -34.833 -69.501 -46.5
s-59.834 -17.5 -96.501 -17.5h-145zM165.001 202l144 0.000976562c28 0 52.667 4.83301 74 14.5s39.166 22.167 53.499 37.5s25.166 32.5 32.499 51.5s11 37.833 11 56.5c0 19.333 -3.66699 38.666 -11 57.999s-18.166 37 -32.499 53s-32.166 29 -53.499 39s-46 15 -74 15
h-144v-325z" />
    <glyph glyph-name="uni00DF" unicode="&#xdf;" horiz-adv-x="585" 
d="M145 533l-0.000976562 -534.001h-51v534c0 29.333 5.5 55.166 16.5 77.499s25.5 41 43.5 56s38.333 26.167 61 33.5s46 11 70 11c23.333 0 46.333 -3.66699 69 -11s42.667 -18.166 60 -32.499s31.333 -32.333 42 -54s16 -47.167 16 -76.5
c0 -12.667 -1.83301 -26.5 -5.5 -41.5s-9.5 -29.667 -17.5 -44s-18.5 -27.666 -31.5 -39.999s-28.833 -22.5 -47.5 -30.5c44.667 -16 80.334 -40.167 107.001 -72.5s39.667 -69.833 39 -112.5c0.666992 -33.333 -4.83301 -62.833 -16.5 -88.5s-27.167 -47.334 -46.5 -65.001
s-41.833 -31 -67.5 -40s-52.167 -13.5 -79.5 -13.5c-14.667 0 -29.5 1.16699 -44.5 3.5s-29.5 5.5 -43.5 9.5v44c12 -4 23.5 -6.66699 34.5 -8s23.833 -2 38.5 -2c31.333 0 57.833 4.66699 79.5 14s39.5 21.5 53.5 36.5s24.167 32.167 30.5 51.5s9.5 38.666 9.5 57.999
c0 18.667 -3.83301 37.167 -11.5 55.5s-18.667 35 -33 50s-32.333 27.167 -54 36.5s-46.5 14 -74.5 14h-46v49h46c21.333 0 40.333 4.33301 57 13s30.5 19.834 41.5 33.501s19.333 28.667 25 45s7.83398 32.166 6.50098 47.499c0 20.667 -3.66699 38.834 -11 54.501
s-17.333 28.667 -30 39s-26.834 18 -42.501 23s-32.167 7.5 -49.5 7.5s-34.5 -2.83301 -51.5 -8.5s-32.333 -14 -46 -25s-24.667 -24.667 -33 -41s-12.5 -35.166 -12.5 -56.499z" />
    <glyph glyph-name="uni00E0" unicode="&#xe0;" 
d="M478 0l-39.998 0.00292969l-10 54c-23.333 -22.667 -48.833 -39 -76.5 -49s-53.5 -15.333 -77.5 -16c-48 -0.666992 -88.167 7.5 -120.5 24.5s-56.5 38.167 -72.5 63.5s-23.833 52.833 -23.5 82.5s8.83301 57.167 25.5 82.5s41.667 46.666 75 63.999s75 26.333 125 27
c21.333 0 44.5 -3.33301 69.5 -10s49.833 -17.334 74.5 -32.001v21c0 27.333 -4.33301 50.5 -13 69.5s-20.334 34.333 -35.001 46s-31.667 20.167 -51 25.5s-39.333 8 -60 8c-27.333 0 -52.833 -3.83301 -76.5 -11.5s-46.834 -18.5 -69.501 -32.5l-26 36
c25.333 19.333 53.333 33.666 84 42.999s61 14 91 14c26 0 51.5 -4 76.5 -12s47.167 -20 66.5 -36s34.833 -36.5 46.5 -61.5s17.5 -54.5 17.5 -88.5v-312zM427.002 105.003l-0.00195312 138c-22 14 -45.667 24.167 -71 30.5s-49.333 9.5 -72 9.5
c-38.667 0 -71 -6.16699 -97 -18.5s-45.5 -27.5 -58.5 -45.5s-19.667 -37.833 -20 -59.5s5.66699 -41.5 18 -59.5s30.833 -33.167 55.5 -45.5s55.334 -18.5 92.001 -18.5c26 0 53.333 6 82 18s52.334 29 71.001 51zM259 588.003l-76 104h62l60 -104h-46z" />
    <glyph glyph-name="uni00E1" unicode="&#xe1;" 
d="M427 243c-22 14 -45.6689 24.167 -71.002 30.5s-49.333 9.5 -72 9.5c-38.667 0 -71 -6.16699 -97 -18.5s-45.5 -27.5 -58.5 -45.5s-19.667 -37.833 -20 -59.5s5.66699 -41.5 18 -59.5s30.833 -33.167 55.5 -45.5s55.334 -18.5 92.001 -18.5c26 0 53.333 6 82 18
s52.334 29 71.001 51v138zM437.998 0l-9.99805 54.0029c-23.333 -22.667 -48.833 -39 -76.5 -49s-53.5 -15.333 -77.5 -16c-48 -0.666992 -88.167 7.5 -120.5 24.5s-56.5 38.167 -72.5 63.5s-23.833 52.833 -23.5 82.5s8.83301 57.167 25.5 82.5s41.667 46.666 75 63.999
s75 26.333 125 27c21.333 0 44.5 -3.33301 69.5 -10s49.833 -17.334 74.5 -32.001v21c0 27.333 -4.33301 50.5 -13 69.5s-20.334 34.333 -35.001 46s-31.667 20.167 -51 25.5s-39.333 8 -60 8c-27.333 0 -52.833 -3.83301 -76.5 -11.5s-46.834 -18.5 -69.501 -32.5l-26 36
c25.333 19.333 53.333 33.666 84 42.999s61 14 91 14c26 0 51.5 -4 76.5 -12s47.167 -20 66.5 -36s34.833 -36.5 46.5 -61.5s17.5 -54.5 17.5 -88.5v-312h-40zM364 690.003l-76 -104h-46l60 104h62z" />
    <glyph glyph-name="uni00E2" unicode="&#xe2;" 
d="M478 0l-39.998 0.00292969l-10 54c-23.333 -22.667 -48.833 -39 -76.5 -49s-53.5 -15.333 -77.5 -16c-48 -0.666992 -88.167 7.5 -120.5 24.5s-56.5 38.167 -72.5 63.5s-23.833 52.833 -23.5 82.5s8.83301 57.167 25.5 82.5s41.667 46.666 75 63.999s75 26.333 125 27
c21.333 0 44.5 -3.33301 69.5 -10s49.833 -17.334 74.5 -32.001v21c0 27.333 -4.33301 50.5 -13 69.5s-20.334 34.333 -35.001 46s-31.667 20.167 -51 25.5s-39.333 8 -60 8c-27.333 0 -52.833 -3.83301 -76.5 -11.5s-46.834 -18.5 -69.501 -32.5l-26 36
c25.333 19.333 53.333 33.666 84 42.999s61 14 91 14c26 0 51.5 -4 76.5 -12s47.167 -20 66.5 -36s34.833 -36.5 46.5 -61.5s17.5 -54.5 17.5 -88.5v-312zM427.002 105.003l-0.00195312 138c-22 14 -45.667 24.167 -71 30.5s-49.333 9.5 -72 9.5
c-38.667 0 -71 -6.16699 -97 -18.5s-45.5 -27.5 -58.5 -45.5s-19.667 -37.833 -20 -59.5s5.66699 -41.5 18 -59.5s30.833 -33.167 55.5 -45.5s55.334 -18.5 92.001 -18.5c26 0 53.333 6 82 18s52.334 29 71.001 51zM161 587.003l84 100h69l82 -100h-48l-69 78l-70 -78h-48z
" />
    <glyph glyph-name="uni00E3" unicode="&#xe3;" 
d="M478 0l-39.998 0.00292969l-10 54c-23.333 -22.667 -48.833 -39 -76.5 -49s-53.5 -15.333 -77.5 -16c-48 -0.666992 -88.167 7.5 -120.5 24.5s-56.5 38.167 -72.5 63.5s-23.833 52.833 -23.5 82.5s8.83301 57.167 25.5 82.5s41.667 46.666 75 63.999s75 26.333 125 27
c21.333 0 44.5 -3.33301 69.5 -10s49.833 -17.334 74.5 -32.001v21c0 27.333 -4.33301 50.5 -13 69.5s-20.334 34.333 -35.001 46s-31.667 20.167 -51 25.5s-39.333 8 -60 8c-27.333 0 -52.833 -3.83301 -76.5 -11.5s-46.834 -18.5 -69.501 -32.5l-26 36
c25.333 19.333 53.333 33.666 84 42.999s61 14 91 14c26 0 51.5 -4 76.5 -12s47.167 -20 66.5 -36s34.833 -36.5 46.5 -61.5s17.5 -54.5 17.5 -88.5v-312zM427.002 105.003l-0.00195312 138c-22 14 -45.667 24.167 -71 30.5s-49.333 9.5 -72 9.5
c-38.667 0 -71 -6.16699 -97 -18.5s-45.5 -27.5 -58.5 -45.5s-19.667 -37.833 -20 -59.5s5.66699 -41.5 18 -59.5s30.833 -33.167 55.5 -45.5s55.334 -18.5 92.001 -18.5c26 0 53.333 6 82 18s52.334 29 71.001 51zM383 677.003l23.9971 -19
c-8.66699 -17.333 -19.667 -30.833 -33 -40.5s-27.666 -14.5 -42.999 -14.5c-9.33301 0 -18.666 1.33301 -27.999 4s-18 7.66699 -26 15c-17.333 13.333 -34 20 -50 20c-21.333 0 -39.666 -12.333 -54.999 -37c-5.33301 3.33301 -9.83301 6.5 -13.5 9.5l-11.5 9.5
c22 38 49 57 81 57c18 0 38.333 -8 61 -24c12 -9.33301 25.333 -14 40 -14c21.333 0 39.333 11.333 54 34z" />
    <glyph glyph-name="uni00E4" unicode="&#xe4;" 
d="M478 0l-39.998 0.00292969l-10 54c-23.333 -22.667 -48.833 -39 -76.5 -49s-53.5 -15.333 -77.5 -16c-48 -0.666992 -88.167 7.5 -120.5 24.5s-56.5 38.167 -72.5 63.5s-23.833 52.833 -23.5 82.5s8.83301 57.167 25.5 82.5s41.667 46.666 75 63.999s75 26.333 125 27
c21.333 0 44.5 -3.33301 69.5 -10s49.833 -17.334 74.5 -32.001v21c0 27.333 -4.33301 50.5 -13 69.5s-20.334 34.333 -35.001 46s-31.667 20.167 -51 25.5s-39.333 8 -60 8c-27.333 0 -52.833 -3.83301 -76.5 -11.5s-46.834 -18.5 -69.501 -32.5l-26 36
c25.333 19.333 53.333 33.666 84 42.999s61 14 91 14c26 0 51.5 -4 76.5 -12s47.167 -20 66.5 -36s34.833 -36.5 46.5 -61.5s17.5 -54.5 17.5 -88.5v-312zM427.002 105.003l-0.00195312 138c-22 14 -45.667 24.167 -71 30.5s-49.333 9.5 -72 9.5
c-38.667 0 -71 -6.16699 -97 -18.5s-45.5 -27.5 -58.5 -45.5s-19.667 -37.833 -20 -59.5s5.66699 -41.5 18 -59.5s30.833 -33.167 55.5 -45.5s55.334 -18.5 92.001 -18.5c26 0 53.333 6 82 18s52.334 29 71.001 51zM224 618.003h-61v62h61v-62zM397 618.003h-61v62h61v-62z
" />
    <glyph glyph-name="uni00E5" unicode="&#xe5;" 
d="M478 0l-39.998 0.00292969l-10 54c-23.333 -22.667 -48.833 -39 -76.5 -49s-53.5 -15.333 -77.5 -16c-48 -0.666992 -88.167 7.5 -120.5 24.5s-56.5 38.167 -72.5 63.5s-23.833 52.833 -23.5 82.5s8.83301 57.167 25.5 82.5s41.667 46.666 75 63.999s75 26.333 125 27
c21.333 0 44.5 -3.33301 69.5 -10s49.833 -17.334 74.5 -32.001v21c0 27.333 -4.33301 50.5 -13 69.5s-20.334 34.333 -35.001 46s-31.667 20.167 -51 25.5s-39.333 8 -60 8c-27.333 0 -52.833 -3.83301 -76.5 -11.5s-46.834 -18.5 -69.501 -32.5l-26 36
c25.333 19.333 53.333 33.666 84 42.999s61 14 91 14c26 0 51.5 -4 76.5 -12s47.167 -20 66.5 -36s34.833 -36.5 46.5 -61.5s17.5 -54.5 17.5 -88.5v-312zM427.002 105.003l-0.00195312 138c-22 14 -45.667 24.167 -71 30.5s-49.333 9.5 -72 9.5
c-38.667 0 -71 -6.16699 -97 -18.5s-45.5 -27.5 -58.5 -45.5s-19.667 -37.833 -20 -59.5s5.66699 -41.5 18 -59.5s30.833 -33.167 55.5 -45.5s55.334 -18.5 92.001 -18.5c26 0 53.333 6 82 18s52.334 29 71.001 51zM211 632.003c-0.666992 22.667 5.83301 39.5 19.5 50.5
s28.834 16.5 45.501 16.5c17.333 0 33 -5.5 47 -16.5s21 -27.833 21 -50.5s-7 -39.667 -21 -51s-29.667 -17 -47 -17c-16.667 0 -31.834 5.66699 -45.501 17s-20.167 28.333 -19.5 51zM240 632.003c0 -13.333 3.83203 -23.333 11.499 -30s16.167 -10 25.5 -10
c10 0 19 3.33301 27 10s12 16.667 12 30s-4.16699 23.333 -12.5 30s-17.166 10 -26.499 10s-17.833 -3.33301 -25.5 -10s-11.5 -16.667 -11.5 -30z" />
    <glyph glyph-name="uni00E6" unicode="&#xe6;" horiz-adv-x="979" 
d="M680 42c28.667 0 56.834 5.33789 84.501 16.0049s50.5 27.334 68.5 50.001l39 -27c-24 -30 -52.5 -52.167 -85.5 -66.5s-68.5 -21.5 -106.5 -21.5c-42 0 -78.667 8.5 -110 25.5s-57.333 38.833 -78 65.5c-20 -20.667 -39.5 -37.334 -58.5 -50.001
s-37.5 -22.334 -55.5 -29.001s-35.333 -11 -52 -13s-32.334 -3 -47.001 -3c-48 -0.666992 -88.167 7.5 -120.5 24.5s-56.5 38.167 -72.5 63.5s-23.833 52.833 -23.5 82.5s8.83301 57.167 25.5 82.5s41.667 46.666 75 63.999s75 26.333 125 27
c21.333 0 45.5 -3.33301 72.5 -10s52.833 -17.334 77.5 -32.001v21c0 27.333 -4.66699 50.666 -14 69.999s-21.833 35.333 -37.5 48s-33.334 21.834 -53.001 27.501s-39.834 8.5 -60.501 8.5c-27.333 0 -52.833 -4.16699 -76.5 -12.5s-46.834 -19.5 -69.501 -33.5l-26 36
c25.333 19.333 53.333 33.666 84 42.999s61 14 91 14c20.667 0 41.167 -2.33301 61.5 -7s39.166 -12.167 56.499 -22.5s32.5 -23.5 45.5 -39.5s22.5 -35.667 28.5 -59c18 42 45.667 73.833 83 95.5s80 32.834 128 33.501c34.667 0 66.334 -6.16699 95.001 -18.5
s53.334 -29.5 74.001 -51.5s36.834 -47.833 48.501 -77.5s17.5 -61.5 17.5 -95.5c0 -6 -0.166992 -11.333 -0.5 -16s-0.833008 -10.334 -1.5 -17.001h-429c2 -24.667 7.66699 -48.834 17 -72.501s22.333 -44.667 39 -63s36.834 -33 60.501 -44s50.5 -16.5 80.5 -16.5z
M289 283.005c-38.667 0 -71.002 -6.16699 -97.002 -18.5s-45.5 -27.5 -58.5 -45.5s-19.667 -37.833 -20 -59.5s5.66699 -41.5 18 -59.5s30.833 -33.167 55.5 -45.5s55.334 -18.5 92.001 -18.5c12 0 26.5 1.83301 43.5 5.5s34.5 9.16699 52.5 16.5s35.333 16.333 52 27
s30.334 23 41.001 37c-11.333 21.333 -18.833 40.833 -22.5 58.5s-6.16699 38.167 -7.5 61.5v1c-22 14 -46.667 24.167 -74 30.5s-52.333 9.5 -75 9.5zM482.998 282.005l385.001 -0.000976562c-1.33301 27.333 -7 52.166 -17 74.499s-23.333 41.5 -40 57.5
s-36.334 28.5 -59.001 37.5s-47 13.833 -73 14.5c-29.333 0 -55.666 -4.66699 -78.999 -14s-43.333 -22.166 -60 -38.499s-29.834 -35.666 -39.501 -57.999s-15.5 -46.833 -17.5 -73.5z" />
    <glyph glyph-name="uni00E7" unicode="&#xe7;" horiz-adv-x="530" 
d="M467 454l-28.001 -33.998c-18.667 15.333 -39.5 26.666 -62.5 33.999s-46.833 11 -71.5 11s-48.834 -4.83301 -72.501 -14.5s-44.5 -23.834 -62.5 -42.501s-32.667 -41.334 -44 -68.001s-17 -56.667 -17 -90c0 -24.667 4.16699 -49.334 12.5 -74.001s20.833 -47 37.5 -67
s37.167 -36.167 61.5 -48.5s52.833 -18.5 85.5 -18.5c25.333 0 49.5 4.5 72.5 13.5s44.167 21.167 63.5 36.5c6 -7.33301 11.333 -13.5 16 -18.5s9.66699 -10.833 15 -17.5c-20.667 -18.667 -44 -33.667 -70 -45s-53.667 -17.666 -83 -18.999l-21 -34
c32 -1.33301 54.833 -9.16602 68.5 -23.499s19.5 -29.666 17.5 -45.999s-11.167 -31.333 -27.5 -45s-38.5 -20.5 -66.5 -20.5c-10 0 -21.333 1.66699 -34 5s-25 7.66602 -37 12.999l9 34c7.33301 -4.66699 16.333 -8.16699 27 -10.5s21.334 -3.5 32.001 -3.5
c14 0 26.333 2.66699 37 8s16 13.666 16 24.999c0 20 -19.667 30.667 -59 32h-12c-4 0 -8.33301 -0.666992 -13 -2l-10 8l36 61c-36.667 2.66699 -69.167 12 -97.5 28s-52 36 -71 60s-33.333 50.833 -43 80.5s-14.5 59.5 -14.5 89.5c0 32 5.5 63.667 16.5 95
s27 59.333 48 84s47 44.834 78 60.501s66.5 23.5 106.5 23.5c32.667 0 61.834 -4.5 87.501 -13.5s50.167 -24.5 73.5 -46.5z" />
    <glyph glyph-name="uni00E8" unicode="&#xe8;" horiz-adv-x="603" 
d="M306 42c28.667 0 56.832 5.33398 84.499 16.001s50.5 27.334 68.5 50.001l39 -27c-24 -30 -52.5 -52.167 -85.5 -66.5s-68.5 -21.5 -106.5 -21.5c-40.667 0 -76.334 7.83301 -107.001 23.5s-56.334 36.167 -77.001 61.5s-36 53.833 -46 85.5s-15 63.167 -15 94.5
c0 32 5.33301 63.167 16 93.5s26.167 57.5 46.5 81.5s45.666 43.5 75.999 58.5s65.5 22.5 105.5 22.5c34.667 0 66.334 -6.16699 95.001 -18.5s53.334 -29.5 74.001 -51.5s36.834 -47.833 48.501 -77.5s17.5 -61.5 17.5 -95.5c0 -6 -0.166992 -11.333 -0.5 -16
s-0.833008 -10.334 -1.5 -17.001h-429c2 -24.667 7.66699 -48.834 17 -72.501s22.333 -44.667 39 -63s36.834 -33 60.501 -44s50.5 -16.5 80.5 -16.5zM108.998 282.001l385.001 0.000976562c-1.33301 27.333 -7 52.166 -17 74.499s-23.333 41.5 -40 57.5
s-36.334 28.5 -59.001 37.5s-47 13.833 -73 14.5c-29.333 0 -55.5 -4.83301 -78.5 -14.5s-42.5 -22.834 -58.5 -39.501s-29 -36.167 -39 -58.5s-16.667 -46.166 -20 -71.499zM288.999 590.002l-76 104h62l60 -104h-46z" />
    <glyph glyph-name="uni00E9" unicode="&#xe9;" horiz-adv-x="603" 
d="M494 282c-1.33301 27.333 -6.99902 52.167 -16.999 74.5s-23.333 41.5 -40 57.5s-36.334 28.5 -59.001 37.5s-47 13.833 -73 14.5c-29.333 0 -55.5 -4.83301 -78.5 -14.5s-42.5 -22.834 -58.5 -39.501s-29 -36.167 -39 -58.5s-16.667 -46.166 -20 -71.499h385z
M306.001 42.001c28.667 0 56.832 5.33398 84.499 16.001s50.5 27.334 68.5 50.001l39 -27c-24 -30 -52.5 -52.167 -85.5 -66.5s-68.5 -21.5 -106.5 -21.5c-40.667 0 -76.334 7.83301 -107.001 23.5s-56.334 36.167 -77.001 61.5s-36 53.833 -46 85.5s-15 63.167 -15 94.5
c0 32 5.33301 63.167 16 93.5s26.167 57.5 46.5 81.5s45.666 43.5 75.999 58.5s65.5 22.5 105.5 22.5c34.667 0 66.334 -6.16699 95.001 -18.5s53.334 -29.5 74.001 -51.5s36.834 -47.833 48.501 -77.5s17.5 -61.5 17.5 -95.5c0 -6 -0.166992 -11.333 -0.5 -16
s-0.833008 -10.334 -1.5 -17.001h-429c2 -24.667 7.66699 -48.834 17 -72.501s22.333 -44.667 39 -63s36.834 -33 60.501 -44s50.5 -16.5 80.5 -16.5zM388.999 692.002l-76 -104h-46l60 104h62z" />
    <glyph glyph-name="uni00EA" unicode="&#xea;" horiz-adv-x="603" 
d="M306 42c28.667 0 56.832 5.33398 84.499 16.001s50.5 27.334 68.5 50.001l39 -27c-24 -30 -52.5 -52.167 -85.5 -66.5s-68.5 -21.5 -106.5 -21.5c-40.667 0 -76.334 7.83301 -107.001 23.5s-56.334 36.167 -77.001 61.5s-36 53.833 -46 85.5s-15 63.167 -15 94.5
c0 32 5.33301 63.167 16 93.5s26.167 57.5 46.5 81.5s45.666 43.5 75.999 58.5s65.5 22.5 105.5 22.5c34.667 0 66.334 -6.16699 95.001 -18.5s53.334 -29.5 74.001 -51.5s36.834 -47.833 48.501 -77.5s17.5 -61.5 17.5 -95.5c0 -6 -0.166992 -11.333 -0.5 -16
s-0.833008 -10.334 -1.5 -17.001h-429c2 -24.667 7.66699 -48.834 17 -72.501s22.333 -44.667 39 -63s36.834 -33 60.501 -44s50.5 -16.5 80.5 -16.5zM108.998 282.001l385.001 0.000976562c-1.33301 27.333 -7 52.166 -17 74.499s-23.333 41.5 -40 57.5
s-36.334 28.5 -59.001 37.5s-47 13.833 -73 14.5c-29.333 0 -55.5 -4.83301 -78.5 -14.5s-42.5 -22.834 -58.5 -39.501s-29 -36.167 -39 -58.5s-16.667 -46.166 -20 -71.499zM187.999 587.002l84 100h69l82 -100h-48l-69 78l-70 -78h-48z" />
    <glyph glyph-name="uni00EB" unicode="&#xeb;" horiz-adv-x="603" 
d="M306 42c28.667 0 56.832 5.33398 84.499 16.001s50.5 27.334 68.5 50.001l39 -27c-24 -30 -52.5 -52.167 -85.5 -66.5s-68.5 -21.5 -106.5 -21.5c-40.667 0 -76.334 7.83301 -107.001 23.5s-56.334 36.167 -77.001 61.5s-36 53.833 -46 85.5s-15 63.167 -15 94.5
c0 32 5.33301 63.167 16 93.5s26.167 57.5 46.5 81.5s45.666 43.5 75.999 58.5s65.5 22.5 105.5 22.5c34.667 0 66.334 -6.16699 95.001 -18.5s53.334 -29.5 74.001 -51.5s36.834 -47.833 48.501 -77.5s17.5 -61.5 17.5 -95.5c0 -6 -0.166992 -11.333 -0.5 -16
s-0.833008 -10.334 -1.5 -17.001h-429c2 -24.667 7.66699 -48.834 17 -72.501s22.333 -44.667 39 -63s36.834 -33 60.501 -44s50.5 -16.5 80.5 -16.5zM108.998 282.001l385.001 0.000976562c-1.33301 27.333 -7 52.166 -17 74.499s-23.333 41.5 -40 57.5
s-36.334 28.5 -59.001 37.5s-47 13.833 -73 14.5c-29.333 0 -55.5 -4.83301 -78.5 -14.5s-42.5 -22.834 -58.5 -39.501s-29 -36.167 -39 -58.5s-16.667 -46.166 -20 -71.499zM252.999 621.002h-61v62h61v-62zM425.999 621.002h-61v62h61v-62z" />
    <glyph glyph-name="uni00EC" unicode="&#xec;" horiz-adv-x="244" 
d="M147 0v507h-51v-507h51zM105 589h46l-60 104h-62z" />
    <glyph glyph-name="uni00ED" unicode="&#xed;" horiz-adv-x="244" 
d="M218 695h-62l-60 -104h46zM96 0v507h51v-507h-51z" />
    <glyph glyph-name="uni00EE" unicode="&#xee;" horiz-adv-x="244" 
d="M147 0v507h-51v-507h51zM4 593h48l70 75l69 -75h48l-82 100h-69z" />
    <glyph glyph-name="uni00EF" unicode="&#xef;" horiz-adv-x="244" 
d="M147 0v507h-51v-507h51zM80 629v62h-61v-62h61zM229 629v62h-61v-62h61z" />
    <glyph glyph-name="uni00F0" unicode="&#xf0;" horiz-adv-x="617" 
d="M221 506l-21 29.998l114 71c-26.667 14.667 -53 24.5 -79 29.5s-54 7.5 -84 7.5l5 46c42 -1.33301 78.833 -5.66602 110.5 -12.999s64.167 -21.333 97.5 -42l96 60l21 -31l-87 -52c60 -42.667 100.833 -95.167 122.5 -157.5s31.167 -136.5 28.5 -222.5
c0 -30 -5 -59.5 -15 -88.5s-25 -54.833 -45 -77.5s-45 -40.834 -75 -54.501s-65.667 -20.5 -107 -20.5c-40.667 0 -76.334 7 -107.001 21s-56 32.333 -76 55s-34.833 48.334 -44.5 77.001s-14.167 57.334 -13.5 86.001c0.666992 28 6.33398 55.5 17.001 82.5
s26 51.333 46 73s44.833 39 74.5 52s64.167 19.5 103.5 19.5c34 -0.666992 67 -7.5 99 -20.5s60 -34.5 84 -64.5l7 1c-9.33301 51.333 -25 92.833 -47 124.5s-53.333 60.5 -94 86.5zM303 408.998c-31.333 0 -58.833 -5.33203 -82.5 -15.999s-43.167 -24.5 -58.5 -41.5
s-27 -36.333 -35 -58s-12.333 -43.167 -13 -64.5c-0.666992 -22 2.83301 -44.333 10.5 -67s19.167 -43 34.5 -61s35 -32.833 59 -44.5s52.333 -17.5 85 -17.5s61.167 5.83301 85.5 17.5s44.5 26.667 60.5 45s28 38.833 36 61.5s11.667 45 11 67
c-0.666992 21.333 -5.16699 42.666 -13.5 63.999s-20.5 40.5 -36.5 57.5s-35.833 30.833 -59.5 41.5s-51.5 16 -83.5 16z" />
    <glyph glyph-name="uni00F1" unicode="&#xf1;" horiz-adv-x="620" 
d="M148 411v-411.003h-52v507h45l7 -43c18 17.333 39.667 30.5 65 39.5s50.666 13.5 75.999 13.5c32.667 -0.666992 63.667 -6 93 -16s55 -24.667 77 -44s39.333 -42.833 52 -70.5s19 -59.5 19 -95.5v-291h-52v291c0 26.667 -5.5 50.834 -16.5 72.501
s-25.5 40.334 -43.5 56.001s-38.667 27.834 -62 36.501s-47.666 13 -72.999 13c-28 0 -53.5 -4.83301 -76.5 -14.5s-42.5 -24.167 -58.5 -43.5zM409 682.997l25.001 -20c-9.33301 -18.667 -21.833 -32.667 -37.5 -42s-31.834 -14 -48.501 -14
c-18.667 0 -34.667 5.33301 -48 16c-20 14.667 -38 22 -54 22c-10 0 -19.5 -2.66699 -28.5 -8s-17.5 -14.333 -25.5 -27c-5.33301 3.33301 -10 6.5 -14 9.5s-8 6.16699 -12 9.5c23.333 38.667 51 58 83 58c20 0 41 -8.33301 63 -25c12 -9.33301 25.667 -14 41 -14
c22 0 40.667 11.667 56 35z" />
    <glyph glyph-name="uni00F2" unicode="&#xf2;" horiz-adv-x="614" 
d="M558 253c0 -35.333 -6.33301 -69 -19 -101s-30.167 -60.167 -52.5 -84.5s-49 -43.666 -80 -57.999s-64.5 -21.5 -100.5 -21.5s-69.333 7.16699 -100 21.5s-57.167 33.666 -79.5 57.999s-39.833 52.5 -52.5 84.5s-19 65.667 -19 101s6.33301 69 19 101
s30.167 60.167 52.5 84.5s48.833 43.666 79.5 57.999s64 21.5 100 21.5s69.5 -7.16699 100.5 -21.5s57.667 -33.666 80 -57.999s39.833 -52.5 52.5 -84.5s19 -65.667 19 -101zM107 253c0 -34.667 5.83301 -65.667 17.5 -93s26.834 -50.333 45.501 -69s39.834 -33 63.501 -43
s47.834 -15 72.501 -15s49 5 73 15s45.333 24.333 64 43s33.834 41.667 45.501 69s17.5 58.333 17.5 93s-5.83301 65.5 -17.5 92.5s-26.834 49.667 -45.501 68s-40 32.333 -64 42s-48.333 14.5 -73 14.5s-48.834 -4.83301 -72.501 -14.5s-44.834 -23.667 -63.501 -42
s-33.834 -41 -45.501 -68s-17.5 -57.833 -17.5 -92.5zM296 588l-76 104h62l60 -104h-46z" />
    <glyph glyph-name="uni00F3" unicode="&#xf3;" horiz-adv-x="614" 
d="M107 253c0 -34.667 5.83301 -65.667 17.5 -93s26.834 -50.333 45.501 -69s39.834 -33 63.501 -43s47.834 -15 72.501 -15s49 5 73 15s45.333 24.333 64 43s33.834 41.667 45.501 69s17.5 58.333 17.5 93s-5.83301 65.5 -17.5 92.5s-26.834 49.667 -45.501 68
s-40 32.333 -64 42s-48.333 14.5 -73 14.5s-48.834 -4.83301 -72.501 -14.5s-44.834 -23.667 -63.501 -42s-33.834 -41 -45.501 -68s-17.5 -57.833 -17.5 -92.5zM558 253c0 -35.333 -6.33301 -69 -19 -101s-30.167 -60.167 -52.5 -84.5s-49 -43.666 -80 -57.999
s-64.5 -21.5 -100.5 -21.5s-69.333 7.16699 -100 21.5s-57.167 33.666 -79.5 57.999s-39.833 52.5 -52.5 84.5s-19 65.667 -19 101s6.33301 69 19 101s30.167 60.167 52.5 84.5s48.833 43.666 79.5 57.999s64 21.5 100 21.5s69.5 -7.16699 100.5 -21.5
s57.667 -33.666 80 -57.999s39.833 -52.5 52.5 -84.5s19 -65.667 19 -101zM406 691l-76 -104h-46l60 104h62z" />
    <glyph glyph-name="uni00F4" unicode="&#xf4;" horiz-adv-x="614" 
d="M558 253c0 -35.333 -6.33301 -69 -19 -101s-30.167 -60.167 -52.5 -84.5s-49 -43.666 -80 -57.999s-64.5 -21.5 -100.5 -21.5s-69.333 7.16699 -100 21.5s-57.167 33.666 -79.5 57.999s-39.833 52.5 -52.5 84.5s-19 65.667 -19 101s6.33301 69 19 101
s30.167 60.167 52.5 84.5s48.833 43.666 79.5 57.999s64 21.5 100 21.5s69.5 -7.16699 100.5 -21.5s57.667 -33.666 80 -57.999s39.833 -52.5 52.5 -84.5s19 -65.667 19 -101zM107 253c0 -34.667 5.83301 -65.667 17.5 -93s26.834 -50.333 45.501 -69s39.834 -33 63.501 -43
s47.834 -15 72.501 -15s49 5 73 15s45.333 24.333 64 43s33.834 41.667 45.501 69s17.5 58.333 17.5 93s-5.83301 65.5 -17.5 92.5s-26.834 49.667 -45.501 68s-40 32.333 -64 42s-48.333 14.5 -73 14.5s-48.834 -4.83301 -72.501 -14.5s-44.834 -23.667 -63.501 -42
s-33.834 -41 -45.501 -68s-17.5 -57.833 -17.5 -92.5zM193 589l84 100h69l82 -100h-48l-69 78l-70 -78h-48z" />
    <glyph glyph-name="uni00F5" unicode="&#xf5;" horiz-adv-x="614" 
d="M558 253c0 -35.333 -6.33301 -69 -19 -101s-30.167 -60.167 -52.5 -84.5s-49 -43.666 -80 -57.999s-64.5 -21.5 -100.5 -21.5s-69.333 7.16699 -100 21.5s-57.167 33.666 -79.5 57.999s-39.833 52.5 -52.5 84.5s-19 65.667 -19 101s6.33301 69 19 101
s30.167 60.167 52.5 84.5s48.833 43.666 79.5 57.999s64 21.5 100 21.5s69.5 -7.16699 100.5 -21.5s57.667 -33.666 80 -57.999s39.833 -52.5 52.5 -84.5s19 -65.667 19 -101zM107 253c0 -34.667 5.83301 -65.667 17.5 -93s26.834 -50.333 45.501 -69s39.834 -33 63.501 -43
s47.834 -15 72.501 -15s49 5 73 15s45.333 24.333 64 43s33.834 41.667 45.501 69s17.5 58.333 17.5 93s-5.83301 65.5 -17.5 92.5s-26.834 49.667 -45.501 68s-40 32.333 -64 42s-48.333 14.5 -73 14.5s-48.834 -4.83301 -72.501 -14.5s-44.834 -23.667 -63.501 -42
s-33.834 -41 -45.501 -68s-17.5 -57.833 -17.5 -92.5zM409 683l24.9961 -19c-9.33301 -18 -20.666 -31.833 -33.999 -41.5s-27.666 -14.5 -42.999 -14.5c-18 0 -35.667 6.66699 -53 20s-33.666 20 -48.999 20c-21.333 0 -39.666 -12.333 -54.999 -37
c-5.33301 3.33301 -10 6.5 -14 9.5s-7.66699 6.16699 -11 9.5c22.667 38.667 48.667 58 78 58c19.333 0 40.333 -8.33301 63 -25c12 -9.33301 25.333 -14 40 -14c21.333 0 39 11.333 53 34z" />
    <glyph glyph-name="uni00F6" unicode="&#xf6;" horiz-adv-x="614" 
d="M558 253c0 -35.333 -6.33301 -69 -19 -101s-30.167 -60.167 -52.5 -84.5s-49 -43.666 -80 -57.999s-64.5 -21.5 -100.5 -21.5s-69.333 7.16699 -100 21.5s-57.167 33.666 -79.5 57.999s-39.833 52.5 -52.5 84.5s-19 65.667 -19 101s6.33301 69 19 101
s30.167 60.167 52.5 84.5s48.833 43.666 79.5 57.999s64 21.5 100 21.5s69.5 -7.16699 100.5 -21.5s57.667 -33.666 80 -57.999s39.833 -52.5 52.5 -84.5s19 -65.667 19 -101zM107 253c0 -34.667 5.83301 -65.667 17.5 -93s26.834 -50.333 45.501 -69s39.834 -33 63.501 -43
s47.834 -15 72.501 -15s49 5 73 15s45.333 24.333 64 43s33.834 41.667 45.501 69s17.5 58.333 17.5 93s-5.83301 65.5 -17.5 92.5s-26.834 49.667 -45.501 68s-40 32.333 -64 42s-48.333 14.5 -73 14.5s-48.834 -4.83301 -72.501 -14.5s-44.834 -23.667 -63.501 -42
s-33.834 -41 -45.501 -68s-17.5 -57.833 -17.5 -92.5zM252 627h-61v62h61v-62zM425 627h-61v62h61v-62z" />
    <glyph glyph-name="uni00F7" unicode="&#xf7;" horiz-adv-x="619" 
d="M270 109h65v64h-65v-64zM270 492h64v62h-64v-62zM85 305h446v49h-446v-49z" />
    <glyph glyph-name="uni00F8" unicode="&#xf8;" horiz-adv-x="609" 
d="M144 -44l-49.001 -0.00195312l57 92c-29.333 24.667 -52 54.834 -68 90.501s-24 73.834 -24 114.501c0 35.333 6 68.5 18 99.5s28.667 58 50 81s47 41 77 54s63 19.5 99 19.5c38 0 76.667 -9.33301 116 -28l44 73h49l-59 -95c30 -24.667 53.333 -54.5 70 -89.5
s25 -73.167 25 -114.5c0 -35.333 -6 -68.5 -18 -99.5s-28.667 -58 -50 -81s-47.166 -41.167 -77.499 -54.5s-63.5 -20 -99.5 -20c-19.333 0 -38.833 2.5 -58.5 7.5s-39.167 11.5 -58.5 19.5zM111.999 252.998c0 -36 5 -66.668 15 -92.001s26.667 -49.666 50 -72.999l218 353
c-16 7.33301 -31.833 12.5 -47.5 15.5s-30.167 4.5 -43.5 4.5c-24.667 0 -48.5 -4.33301 -71.5 -13s-43.5 -21.667 -61.5 -39s-32.333 -39 -43 -65s-16 -56.333 -16 -91zM498.999 252.997c0 35.333 -5.66699 66.166 -17 92.499s-28.666 50.5 -51.999 72.5l-221 -355
c16 -7.33301 32.333 -12.666 49 -15.999s32 -5 46 -5c24.667 0 48.667 4.5 72 13.5s44.166 22.333 62.499 40s33 39.667 44 66s16.5 56.833 16.5 91.5z" />
    <glyph glyph-name="uni00F9" unicode="&#xf9;" horiz-adv-x="619" 
d="M471 97v410.001h52v-507h-45l-7 45c-18 -17.333 -39.833 -30.666 -65.5 -39.999s-51.167 -14 -76.5 -14c-32.667 0.666992 -63.5 5.83398 -92.5 15.501s-54.5 23.667 -76.5 42s-39.333 41.166 -52 68.499s-19 59 -19 95v295h52v-295c0 -27.333 5.33301 -51.833 16 -73.5
s25 -39.834 43 -54.501s38.667 -25.834 62 -33.501s48 -11.5 74 -11.5c28 0 53.5 4.83301 76.5 14.5s42.5 24.167 58.5 43.5zM301 591.001l-76 104h62l60 -104h-46z" />
    <glyph glyph-name="uni00FA" unicode="&#xfa;" horiz-adv-x="619" 
d="M389 693l-76 -104h-46l60 104h62zM471 97v410.001h52v-507h-45l-7 45c-18 -17.333 -39.833 -30.666 -65.5 -39.999s-51.167 -14 -76.5 -14c-32.667 0.666992 -63.5 5.83398 -92.5 15.501s-54.5 23.667 -76.5 42s-39.333 41.166 -52 68.499s-19 59 -19 95v295h52v-295
c0 -27.333 5.33301 -51.833 16 -73.5s25 -39.834 43 -54.501s38.667 -25.834 62 -33.501s48 -11.5 74 -11.5c28 0 53.5 4.83301 76.5 14.5s42.5 24.167 58.5 43.5z" />
    <glyph glyph-name="uni00FB" unicode="&#xfb;" horiz-adv-x="619" 
d="M471 97v410.001h52v-507h-45l-7 45c-18 -17.333 -39.833 -30.666 -65.5 -39.999s-51.167 -14 -76.5 -14c-32.667 0.666992 -63.5 5.83398 -92.5 15.501s-54.5 23.667 -76.5 42s-39.333 41.166 -52 68.499s-19 59 -19 95v295h52v-295c0 -27.333 5.33301 -51.833 16 -73.5
s25 -39.834 43 -54.501s38.667 -25.834 62 -33.501s48 -11.5 74 -11.5c28 0 53.5 4.83301 76.5 14.5s42.5 24.167 58.5 43.5zM189 591.001l84 100h69l82 -100h-48l-69 78l-70 -78h-48z" />
    <glyph glyph-name="uni00FC" unicode="&#xfc;" horiz-adv-x="619" 
d="M471 97v410.001h52v-507h-45l-7 45c-18 -17.333 -39.833 -30.666 -65.5 -39.999s-51.167 -14 -76.5 -14c-32.667 0.666992 -63.5 5.83398 -92.5 15.501s-54.5 23.667 -76.5 42s-39.333 41.166 -52 68.499s-19 59 -19 95v295h52v-295c0 -27.333 5.33301 -51.833 16 -73.5
s25 -39.834 43 -54.501s38.667 -25.834 62 -33.501s48 -11.5 74 -11.5c28 0 53.5 4.83301 76.5 14.5s42.5 24.167 58.5 43.5zM254 632.001h-61v62h61v-62zM427 632.001h-61v62h61v-62z" />
    <glyph glyph-name="uni00FD" unicode="&#xfd;" horiz-adv-x="508" 
d="M335 693l-76 -104h-46l60 104h62zM104 -138c25.333 0 45.502 3.66699 60.502 11s27.167 23.333 36.5 48l29 77l-207 509h56l179 -455l171 455h56l-235 -603c-12.667 -34 -30.334 -56.667 -53.001 -68s-48.334 -17 -77.001 -17h-16v43z" />
    <glyph glyph-name="uni00FE" unicode="&#xfe;" horiz-adv-x="575" 
d="M96 -196l-0.000976562 896.001h51v-235l1 -6c19.333 19.333 40.5 32.666 63.5 39.999s45.167 11 66.5 11c52.667 0 96.667 -12.5 132 -37.5s62 -56.5 80 -94.5s27.167 -79.167 27.5 -123.5s-8 -85.666 -25 -123.999s-42.833 -70.333 -77.5 -96
s-77.667 -38.834 -129 -39.501c-26.667 0 -52.167 4 -76.5 12s-45.166 22.667 -62.499 44v-247h-51zM275.999 42.001c41.333 0.666992 75.999 11.333 103.999 32s49.167 46.167 63.5 76.5s21.833 63.333 22.5 99s-5.5 69 -18.5 100s-32.833 57.167 -59.5 78.5
s-60 33.333 -100 36c-27.333 0 -53 -4.16699 -77 -12.5s-45 -23.5 -63 -45.5v-297c18.667 -25.333 38.334 -42.833 59.001 -52.5s43.667 -14.5 69 -14.5z" />
    <glyph glyph-name="uni00FF" unicode="&#xff;" horiz-adv-x="508" 
d="M104 -181l0.00195312 43c25.333 0 45.5 3.66699 60.5 11s27.167 23.333 36.5 48l29 77l-207 509h56l179 -455l171 455h56l-235 -603c-12.667 -34 -30.334 -56.667 -53.001 -68s-48.334 -17 -77.001 -17h-16zM207.002 623h-61v62h61v-62zM380.002 623h-61v62h61v-62z" />
    <glyph glyph-name="uni0100" unicode="&#x100;" horiz-adv-x="636" 
d="M28 0l248 707h81l126 -353.5l126 -353.5h-57l-84 234h-301l-81 -234h-58zM186 284h265l-134 388zM203 764v45h226v-45h-226z" />
    <glyph glyph-name="uni0101" unicode="&#x101;" 
d="M478 0l-39.998 0.00195312l-10 54c-23.333 -22.667 -48.833 -39 -76.5 -49s-53.5 -15.333 -77.5 -16c-48 -0.666992 -88.167 7.5 -120.5 24.5s-56.5 38.167 -72.5 63.5s-23.833 52.833 -23.5 82.5s8.83301 57.167 25.5 82.5s41.667 46.666 75 63.999s75 26.333 125 27
c21.333 0 44.5 -3.33301 69.5 -10s49.833 -17.334 74.5 -32.001v24c0 27.333 -4.33301 50.666 -13 69.999s-20.334 35 -35.001 47s-31.667 20.833 -51 26.5s-39.333 8.5 -60 8.5c-27.333 0 -52.833 -3.83301 -76.5 -11.5s-46.834 -18.5 -69.501 -32.5l-26 36
c25.333 19.333 53.333 33.666 84 42.999s61 14 91 14c26 0 51.5 -4.16699 76.5 -12.5s47.167 -20.666 66.5 -36.999s34.833 -37.166 46.5 -62.499s17.5 -55 17.5 -89v-315zM427.002 105.002l-0.00195312 138c-22 14 -45.667 24.167 -71 30.5s-49.333 9.5 -72 9.5
c-38.667 0 -71 -6.16699 -97 -18.5s-45.5 -27.5 -58.5 -45.5s-19.667 -37.833 -20 -59.5s5.66699 -41.5 18 -59.5s30.833 -33.167 55.5 -45.5s55.334 -18.5 92.001 -18.5c26 0 53.333 6 82 18s52.334 29 71.001 51zM165 617.002v40h219v-40h-219z" />
    <glyph glyph-name="uni0102" unicode="&#x102;" horiz-adv-x="636" 
d="M28 0l248 707h81l126 -353.5l126 -353.5h-57l-84 234h-301l-81 -234h-58zM186 284h265l-134 388zM315 754c-34 0 -61 8.99902 -81 26.999s-32.333 42 -37 72h40c2 -19.333 11 -33.833 27 -43.5s33.333 -14.5 52 -14.5s35.834 4.83301 51.501 14.5
s24.167 24.167 25.5 43.5h41c-0.666992 -16.667 -4.83398 -31.167 -12.501 -43.5s-17.167 -22.666 -28.5 -30.999s-23.833 -14.5 -37.5 -18.5s-27.167 -6 -40.5 -6z" />
    <glyph glyph-name="uni0103" unicode="&#x103;" horiz-adv-x="563" 
d="M478 0l-39.998 0.00195312l-10 54c-23.333 -22.667 -48.833 -39 -76.5 -49s-53.5 -15.333 -77.5 -16c-48 -0.666992 -88.167 7.5 -120.5 24.5s-56.5 38.167 -72.5 63.5s-23.833 52.833 -23.5 82.5s8.83301 57.167 25.5 82.5s41.667 46.666 75 63.999s75 26.333 125 27
c21.333 0 44.5 -3.33301 69.5 -10s49.833 -17.334 74.5 -32.001v24c0 27.333 -4.33301 50.666 -13 69.999s-20.334 35 -35.001 47s-31.667 20.833 -51 26.5s-39.333 8.5 -60 8.5c-27.333 0 -52.833 -3.83301 -76.5 -11.5s-46.834 -18.5 -69.501 -32.5l-26 36
c25.333 19.333 53.333 33.666 84 42.999s61 14 91 14c26 0 51.5 -4.16699 76.5 -12.5s47.167 -20.666 66.5 -36.999s34.833 -37.166 46.5 -62.499s17.5 -55 17.5 -89v-315zM427.002 105.002l-0.00195312 138c-22 14 -45.667 24.167 -71 30.5s-49.333 9.5 -72 9.5
c-38.667 0 -71 -6.16699 -97 -18.5s-45.5 -27.5 -58.5 -45.5s-19.667 -37.833 -20 -59.5s5.66699 -41.5 18 -59.5s30.833 -33.167 55.5 -45.5s55.334 -18.5 92.001 -18.5c26 0 53.333 6 82 18s52.334 29 71.001 51zM276 589.002c-34 0 -60.9971 8.99902 -80.9971 26.999
s-32.333 42 -37 72h40c3.33301 -20 12.166 -34.833 26.499 -44.5s31.166 -14.5 50.499 -14.5s37 4.5 53 13.5s24.667 24.167 26 45.5h41c-0.666992 -16.667 -4.83398 -31.167 -12.501 -43.5s-17.167 -22.666 -28.5 -30.999s-23.833 -14.5 -37.5 -18.5s-27.167 -6 -40.5 -6z
" />
    <glyph glyph-name="uni0104" unicode="&#x104;" horiz-adv-x="636" 
d="M28 0l248 706.997h81l126 -353.5l126 -353.5c-6 -4.66699 -13.333 -11 -22 -19s-17 -16.5 -25 -25.5s-14.833 -18.167 -20.5 -27.5s-8.5 -17.666 -8.5 -24.999c0 -16 7 -28.5 21 -37.5s31 -14.167 51 -15.5l-17 -31c-18 0.666992 -34.667 3.33398 -50 8.00098
c-14 4 -26.333 10.5 -37 19.5s-17.334 21.833 -20.001 38.5v1c-1.33301 10 -0.166016 20.5 3.50098 31.5s9 21.5 16 31.5s15 19.333 24 28s18.167 16.334 27.5 23.001l-84 234h-301l-81 -234h-58zM186 283.997h265l-134 388z" />
    <glyph glyph-name="uni0105" unicode="&#x105;" horiz-adv-x="563" 
d="M438 0l-9.99707 53.999c-23.333 -22.667 -48.833 -39 -76.5 -49s-53.5 -15.333 -77.5 -16c-48 -0.666992 -88.167 7.5 -120.5 24.5s-56.5 38.167 -72.5 63.5s-23.833 52.833 -23.5 82.5s8.83301 57.167 25.5 82.5s41.667 46.666 75 63.999s75 26.333 125 27
c21.333 0 44.5 -3.33301 69.5 -10s49.833 -17.334 74.5 -32.001v24c0 27.333 -4.33301 50.666 -13 69.999s-20.334 35 -35.001 47s-31.667 20.833 -51 26.5s-39.333 8.5 -60 8.5c-27.333 0 -52.833 -3.83301 -76.5 -11.5s-46.834 -18.5 -69.501 -32.5l-26 36
c25.333 19.333 53.333 33.666 84 42.999s61 14 91 14c26 0 51.5 -4.16699 76.5 -12.5s47.167 -20.666 66.5 -36.999s34.833 -37.166 46.5 -62.499s17.5 -55 17.5 -89v-315c-15.333 -9.33301 -29 -21.333 -41 -36s-19.5 -29.167 -22.5 -43.5s0 -27.166 9 -38.499
s26.833 -18.333 53.5 -21c-3.33301 -6 -6.16602 -11.667 -8.49902 -17s-4.83301 -10.333 -7.5 -15c-16 0 -30.333 2.33301 -43 7c-12 4.66699 -22.833 11.334 -32.5 20.001s-15.834 21.334 -18.501 38.001v1c-2 13.333 -0.666992 25.5 4 36.5s10.667 21 18 30
s15.666 16.667 24.999 23s17.333 11.5 24 15.5zM427.003 104.999l-0.00195312 138c-22 14 -45.667 24.167 -71 30.5s-49.333 9.5 -72 9.5c-38.667 0 -71 -6.16699 -97 -18.5s-45.5 -27.5 -58.5 -45.5s-19.667 -37.833 -20 -59.5s5.66699 -41.5 18 -59.5
s30.833 -33.167 55.5 -45.5s55.334 -18.5 92.001 -18.5c26 0 53.333 6 82 18s52.334 29 71.001 51z" />
    <glyph glyph-name="uni0106" unicode="&#x106;" horiz-adv-x="732" 
d="M650 615l-36 -35.998c-28 26.667 -59 47 -93 61s-70.333 21 -109 21c-47.333 -0.666992 -89 -10.334 -125 -29.001s-66.333 -42.834 -91 -72.501s-43.167 -63 -55.5 -100s-18.5 -74.167 -18.5 -111.5c0 -36.667 6.33301 -73.5 19 -110.5s31.334 -70.167 56.001 -99.5
s55 -53.166 91 -71.499s77.333 -27.5 124 -27.5c40 0 79.833 9 119.5 27s73.5 41.333 101.5 70l38 -31c-32 -35.333 -70.5 -63.833 -115.5 -85.5s-92.833 -32.5 -143.5 -32.5c-56 0 -105.5 10.5 -148.5 31.5s-79 48.5 -108 82.5s-51 72.667 -66 116s-22.5 87 -22.5 131
s7.5 87.833 22.5 131.5s37 82.667 66 117s65 62.166 108 83.499s92.5 32 148.5 32c46.667 0 90.167 -8.66699 130.5 -26s76.166 -41 107.499 -71zM507 866.002l-74 -105h-44l27.5 53c8.33301 16.667 17.5 34 27.5 52h63z" />
    <glyph glyph-name="uni0107" unicode="&#x107;" horiz-adv-x="530" 
d="M467 454l-28 -33.998c-18.667 15.333 -39.5 26.666 -62.5 33.999s-46.833 11 -71.5 11s-48.834 -4.83301 -72.501 -14.5s-44.5 -23.834 -62.5 -42.501s-32.667 -41.334 -44 -68.001s-17 -56.667 -17 -90c0 -24.667 4.16699 -49.334 12.5 -74.001s20.833 -47 37.5 -67
s37.167 -36.167 61.5 -48.5s52.833 -18.5 85.5 -18.5c25.333 0 49.5 4.5 72.5 13.5s44.167 21.167 63.5 36.5c6 -7.33301 11.333 -13.5 16 -18.5s9.66699 -10.833 15 -17.5c-22 -20 -47.333 -35.667 -76 -47s-59 -17 -91 -17c-40.667 0 -76.5 7.5 -107.5 22.5
s-57 34.833 -78 59.5s-36.833 52.334 -47.5 83.001s-16 62 -16 94s5.5 63.667 16.5 95s27 59.333 48 84s47 44.834 78 60.501s66.5 23.5 106.5 23.5c32.667 0 61.834 -4.5 87.501 -13.5s50.167 -24.5 73.5 -46.5zM388 700.002l-69 -103h-46l27 52c8 16 17 33 27 51h61z" />
    <glyph glyph-name="uni0108" unicode="&#x108;" horiz-adv-x="732" 
d="M650 615l-36 -35.998c-28 26.667 -59 47 -93 61s-70.333 21 -109 21c-47.333 -0.666992 -89 -10.334 -125 -29.001s-66.333 -42.834 -91 -72.501s-43.167 -63 -55.5 -100s-18.5 -74.167 -18.5 -111.5c0 -36.667 6.33301 -73.5 19 -110.5s31.334 -70.167 56.001 -99.5
s55 -53.166 91 -71.499s77.333 -27.5 124 -27.5c40 0 79.833 9 119.5 27s73.5 41.333 101.5 70l38 -31c-32 -35.333 -70.5 -63.833 -115.5 -85.5s-92.833 -32.5 -143.5 -32.5c-56 0 -105.5 10.5 -148.5 31.5s-79 48.5 -108 82.5s-51 72.667 -66 116s-22.5 87 -22.5 131
s7.5 87.833 22.5 131.5s37 82.667 66 117s65 62.166 108 83.499s92.5 32 148.5 32c46.667 0 90.167 -8.66699 130.5 -26s76.166 -41 107.499 -71zM291 755.002l80 97h76l79 -97h-50l-67 73l-70 -73h-48z" />
    <glyph glyph-name="uni0109" unicode="&#x109;" horiz-adv-x="529" 
d="M467 454l-28 -33.998c-18.667 15.333 -39.5 26.666 -62.5 33.999s-46.833 11 -71.5 11s-48.834 -4.83301 -72.501 -14.5s-44.5 -23.834 -62.5 -42.501s-32.667 -41.334 -44 -68.001s-17 -56.667 -17 -90c0 -24.667 4.16699 -49.334 12.5 -74.001s20.833 -47 37.5 -67
s37.167 -36.167 61.5 -48.5s52.833 -18.5 85.5 -18.5c25.333 0 49.5 4.5 72.5 13.5s44.167 21.167 63.5 36.5c6 -7.33301 11.333 -13.5 16 -18.5s9.66699 -10.833 15 -17.5c-22 -20 -47.333 -35.667 -76 -47s-59 -17 -91 -17c-40.667 0 -76.5 7.5 -107.5 22.5
s-57 34.833 -78 59.5s-36.833 52.334 -47.5 83.001s-16 62 -16 94s5.5 63.667 16.5 95s27 59.333 48 84s47 44.834 78 60.501s66.5 23.5 106.5 23.5c32.667 0 61.834 -4.5 87.501 -13.5s50.167 -24.5 73.5 -46.5zM184 589.002l80 97h76l79 -97h-50l-67 73l-70 -73h-48z" />
    <glyph glyph-name="uni010A" unicode="&#x10a;" horiz-adv-x="730" 
d="M650 615l-36 -35.998c-28 26.667 -59 47 -93 61s-70.333 21 -109 21c-47.333 -0.666992 -89 -10.334 -125 -29.001s-66.333 -42.834 -91 -72.501s-43.167 -63 -55.5 -100s-18.5 -74.167 -18.5 -111.5c0 -36.667 6.33301 -73.5 19 -110.5s31.334 -70.167 56.001 -99.5
s55 -53.166 91 -71.499s77.333 -27.5 124 -27.5c40 0 79.833 9 119.5 27s73.5 41.333 101.5 70l38 -31c-32 -35.333 -70.5 -63.833 -115.5 -85.5s-92.833 -32.5 -143.5 -32.5c-56 0 -105.5 10.5 -148.5 31.5s-79 48.5 -108 82.5s-51 72.667 -66 116s-22.5 87 -22.5 131
s7.5 87.833 22.5 131.5s37 82.667 66 117s65 62.166 108 83.499s92.5 32 148.5 32c46.667 0 90.167 -8.66699 130.5 -26s76.166 -41 107.499 -71zM380 785.002v65h61v-65h-61z" />
    <glyph glyph-name="uni010B" unicode="&#x10b;" horiz-adv-x="529" 
d="M467 454l-28 -33.998c-18.667 15.333 -39.5 26.666 -62.5 33.999s-46.833 11 -71.5 11s-48.834 -4.83301 -72.501 -14.5s-44.5 -23.834 -62.5 -42.501s-32.667 -41.334 -44 -68.001s-17 -56.667 -17 -90c0 -24.667 4.16699 -49.334 12.5 -74.001s20.833 -47 37.5 -67
s37.167 -36.167 61.5 -48.5s52.833 -18.5 85.5 -18.5c25.333 0 49.5 4.5 72.5 13.5s44.167 21.167 63.5 36.5c6 -7.33301 11.333 -13.5 16 -18.5s9.66699 -10.833 15 -17.5c-22 -20 -47.333 -35.667 -76 -47s-59 -17 -91 -17c-40.667 0 -76.5 7.5 -107.5 22.5
s-57 34.833 -78 59.5s-36.833 52.334 -47.5 83.001s-16 62 -16 94s5.5 63.667 16.5 95s27 59.333 48 84s47 44.834 78 60.501s66.5 23.5 106.5 23.5c32.667 0 61.834 -4.5 87.501 -13.5s50.167 -24.5 73.5 -46.5zM269 622.002v69h61v-69h-61z" />
    <glyph glyph-name="uni010C" unicode="&#x10c;" horiz-adv-x="732" 
d="M650 615l-36 -35.998c-28 26.667 -59 47 -93 61s-70.333 21 -109 21c-47.333 -0.666992 -89 -10.334 -125 -29.001s-66.333 -42.834 -91 -72.501s-43.167 -63 -55.5 -100s-18.5 -74.167 -18.5 -111.5c0 -36.667 6.33301 -73.5 19 -110.5s31.334 -70.167 56.001 -99.5
s55 -53.166 91 -71.499s77.333 -27.5 124 -27.5c40 0 79.833 9 119.5 27s73.5 41.333 101.5 70l38 -31c-32 -35.333 -70.5 -63.833 -115.5 -85.5s-92.833 -32.5 -143.5 -32.5c-56 0 -105.5 10.5 -148.5 31.5s-79 48.5 -108 82.5s-51 72.667 -66 116s-22.5 87 -22.5 131
s7.5 87.833 22.5 131.5s37 82.667 66 117s65 62.166 108 83.499s92.5 32 148.5 32c46.667 0 90.167 -8.66699 130.5 -26s76.166 -41 107.499 -71zM532 852.002l-80 -97h-76l-79 97h50l67 -73l70 73h48z" />
    <glyph glyph-name="uni010D" unicode="&#x10d;" horiz-adv-x="529" 
d="M467 454l-28 -33.998c-18.667 15.333 -39.5 26.666 -62.5 33.999s-46.833 11 -71.5 11s-48.834 -4.83301 -72.501 -14.5s-44.5 -23.834 -62.5 -42.501s-32.667 -41.334 -44 -68.001s-17 -56.667 -17 -90c0 -24.667 4.16699 -49.334 12.5 -74.001s20.833 -47 37.5 -67
s37.167 -36.167 61.5 -48.5s52.833 -18.5 85.5 -18.5c25.333 0 49.5 4.5 72.5 13.5s44.167 21.167 63.5 36.5c6 -7.33301 11.333 -13.5 16 -18.5s9.66699 -10.833 15 -17.5c-22 -20 -47.333 -35.667 -76 -47s-59 -17 -91 -17c-40.667 0 -76.5 7.5 -107.5 22.5
s-57 34.833 -78 59.5s-36.833 52.334 -47.5 83.001s-16 62 -16 94s5.5 63.667 16.5 95s27 59.333 48 84s47 44.834 78 60.501s66.5 23.5 106.5 23.5c32.667 0 61.834 -4.5 87.501 -13.5s50.167 -24.5 73.5 -46.5zM424 680.002l-82 -97h-73l-80 97h50l67 -72l70 72h48z" />
    <glyph glyph-name="uni010E" unicode="&#x10e;" horiz-adv-x="730" 
d="M116 700h202.998c55.333 0.666992 103.833 -8.83301 145.5 -28.5s76.834 -45.5 105.501 -77.5s50.334 -68.5 65.001 -109.5s22.334 -82.833 23.001 -125.5c1.33301 -43.333 -5 -86.5 -19 -129.5s-35.167 -81.5 -63.5 -115.5s-63.833 -61.5 -106.5 -82.5
s-92.334 -31.5 -149.001 -31.5h-204v700zM170.998 51h147.997c48 -0.666992 90 8 126 26s65.833 41.667 89.5 71s41.334 62.5 53.001 99.5s16.834 73.833 15.501 110.5c-0.666992 35.333 -7.16699 70.5 -19.5 105.5s-30.166 66.333 -53.499 94s-52.5 50 -87.5 67
s-75.5 25.5 -121.5 25.5h-150v-599zM448.995 852l-80 -97h-76l-79 97h50l67 -73l70 73h48z" />
    <glyph glyph-name="uni010F" unicode="&#x10f;" horiz-adv-x="616" 
d="M303 509c21.333 0 43.335 -3.50098 66.002 -10.501s43.667 -20.167 63 -39.5v242h53v-701h-43l-8 54c-16.667 -22 -37.334 -37.333 -62.001 -46s-50.334 -13 -77.001 -13c-51.333 0.666992 -94.333 13.834 -129 39.501s-60.5 57.5 -77.5 95.5s-25.333 79.167 -25 123.5
s9.5 85.5 27.5 123.5s44.667 69.5 80 94.5s79.333 37.5 132 37.5zM305.002 41.999c25.333 0 48.332 5.33301 68.999 16s40.334 28.667 59.001 54v294c-18 22 -39 37 -63 45s-49.667 12 -77 12c-40 -2.66699 -73.333 -14.667 -100 -36s-46.5 -47.5 -59.5 -78.5
s-19.167 -64.167 -18.5 -99.5s8.16699 -68.166 22.5 -98.499s35.5 -55.833 63.5 -76.5s62.667 -31.334 104 -32.001zM622.001 699.999c7.33301 -22.667 8.5 -44.832 3.5 -66.499s-14.167 -42.5 -27.5 -62.5h-29c8 24 13 45.667 15 65s-0.666992 40.666 -8 63.999h46z" />
    <glyph glyph-name="uni0110" unicode="&#x110;" horiz-adv-x="734" 
d="M62 330l-0.00195312 44h54v326h203c55.333 0.666992 103.833 -8.83301 145.5 -28.5s76.834 -45.5 105.501 -77.5s50.334 -68.5 65.001 -109.5s22.334 -82.833 23.001 -125.5c1.33301 -43.333 -5 -86.5 -19 -129.5s-35.167 -81.5 -63.5 -115.5s-63.833 -61.5 -106.5 -82.5
s-92.334 -31.5 -149.001 -31.5h-204v330h-54zM170.998 51h147.997c48 -0.666992 90 8 126 26s65.833 41.667 89.5 71s41.334 62.5 53.001 99.5s16.834 73.833 15.501 110.5c-0.666992 35.333 -7.16699 70.5 -19.5 105.5s-30.166 66.333 -53.499 94s-52.5 50 -87.5 67
s-75.5 25.5 -121.5 25.5h-150v-276h138v-44h-138v-279z" />
    <glyph glyph-name="uni0111" unicode="&#x111;" horiz-adv-x="587" 
d="M324 589l0.00195312 38.999h108v73h53v-73h80v-39h-80v-589h-43l-8 54c-16.667 -22 -37.334 -37.333 -62.001 -46s-50.334 -13 -77.001 -13c-51.333 0.666992 -94.333 13.834 -129 39.501s-60.5 57.5 -77.5 95.5s-25.333 79.167 -25 123.5s9.5 85.5 27.5 123.5
s44.667 69.5 80 94.5s79.333 37.5 132 37.5c21.333 0 43.333 -3.5 66 -10.5s43.667 -20.167 63 -39.5v130h-108zM305.002 41.999c25.333 0 48.332 5.33301 68.999 16s40.334 28.667 59.001 54v294c-18 22 -39 37 -63 45s-49.667 12 -77 12
c-40 -2.66699 -73.333 -14.667 -100 -36s-46.5 -47.5 -59.5 -78.5s-19.167 -64.167 -18.5 -99.5s8.16699 -68.166 22.5 -98.499s35.5 -55.833 63.5 -76.5s62.667 -31.334 104 -32.001z" />
    <glyph glyph-name="uni0112" unicode="&#x112;" horiz-adv-x="534" 
d="M464 700h-352v-700h352v52h-298v274h294v51h-293v271h297v52zM189 773h217v44h-217v-44z" />
    <glyph glyph-name="uni0113" unicode="&#x113;" horiz-adv-x="604" 
d="M306 42c28.667 0 56.832 5.33398 84.499 16.001s50.5 27.334 68.5 50.001l39 -27c-24 -30 -52.5 -52.167 -85.5 -66.5s-68.5 -21.5 -106.5 -21.5c-40.667 0 -76.334 7.83301 -107.001 23.5s-56.334 36.167 -77.001 61.5s-36 53.833 -46 85.5s-15 63.167 -15 94.5
c0 32 5.33301 63.167 16 93.5s26.167 57.5 46.5 81.5s45.666 43.5 75.999 58.5s65.5 22.5 105.5 22.5c34.667 0 66.334 -6.16699 95.001 -18.5s53.334 -29.5 74.001 -51.5s36.834 -47.833 48.501 -77.5s17.5 -61.5 17.5 -95.5c0 -6 -0.166992 -11.333 -0.5 -16
s-0.833008 -10.334 -1.5 -17.001h-429c2 -24.667 7.66699 -48.834 17 -72.501s22.333 -44.667 39 -63s36.834 -33 60.501 -44s50.5 -16.5 80.5 -16.5zM108.998 282.001l385.001 0.000976562c-1.33301 27.333 -7 52.166 -17 74.499s-23.333 41.5 -40 57.5
s-36.334 28.5 -59.001 37.5s-47 13.833 -73 14.5c-29.333 0 -55.5 -4.83301 -78.5 -14.5s-42.5 -22.834 -58.5 -39.501s-29 -36.167 -39 -58.5s-16.667 -46.166 -20 -71.499zM189.999 622.002v43h226v-43h-226z" />
    <glyph glyph-name="uni0114" unicode="&#x114;" horiz-adv-x="534" 
d="M464 700v-52h-297v-272h293v-51h-294v-273h298v-52h-352v700h352zM298 755c-31.333 0 -57.833 9.33203 -79.5 27.999s-34.834 43 -39.501 73h43c2.66699 -20 11.834 -35 27.501 -45s32.834 -15 51.501 -15c17.333 0 33.666 4.83301 48.999 14.5s24 24.834 26 45.501h40
c-0.666992 -16.667 -4.5 -31.334 -11.5 -44.001s-15.833 -23.167 -26.5 -31.5s-23 -14.666 -37 -18.999s-28.333 -6.5 -43 -6.5z" />
    <glyph glyph-name="uni0115" unicode="&#x115;" horiz-adv-x="604" 
d="M306 42c28.667 0 56.832 5.33398 84.499 16.001s50.5 27.334 68.5 50.001l39 -27c-24 -30 -52.5 -52.167 -85.5 -66.5s-68.5 -21.5 -106.5 -21.5c-40.667 0 -76.334 7.83301 -107.001 23.5s-56.334 36.167 -77.001 61.5s-36 53.833 -46 85.5s-15 63.167 -15 94.5
c0 32 5.33301 63.167 16 93.5s26.167 57.5 46.5 81.5s45.666 43.5 75.999 58.5s65.5 22.5 105.5 22.5c34.667 0 66.334 -6.16699 95.001 -18.5s53.334 -29.5 74.001 -51.5s36.834 -47.833 48.501 -77.5s17.5 -61.5 17.5 -95.5c0 -6 -0.166992 -11.333 -0.5 -16
s-0.833008 -10.334 -1.5 -17.001h-429c2 -24.667 7.66699 -48.834 17 -72.501s22.333 -44.667 39 -63s36.834 -33 60.501 -44s50.5 -16.5 80.5 -16.5zM108.998 282.001l385.001 0.000976562c-1.33301 27.333 -7 52.166 -17 74.499s-23.333 41.5 -40 57.5
s-36.334 28.5 -59.001 37.5s-47 13.833 -73 14.5c-29.333 0 -55.5 -4.83301 -78.5 -14.5s-42.5 -22.834 -58.5 -39.501s-29 -36.167 -39 -58.5s-16.667 -46.166 -20 -71.499zM303.999 585.002c-33.333 0 -60.333 9.16797 -81 27.501s-33.334 42.5 -38.001 72.5h38
c4 -20 13.833 -35 29.5 -45s32.834 -15 51.501 -15c18 0 35 5 51 15s25.667 25 29 45h38c-0.666992 -16.667 -4.66699 -31.334 -12 -44.001s-16.5 -23.167 -27.5 -31.5s-23.333 -14.5 -37 -18.5s-27.5 -6 -41.5 -6z" />
    <glyph glyph-name="uni0116" unicode="&#x116;" horiz-adv-x="532" 
d="M464 700h-352v-700h352v52h-300v273h296v51h-295v272h299v52zM271 762h61v70h-61v-70z" />
    <glyph glyph-name="uni0117" unicode="&#x117;" horiz-adv-x="604" 
d="M306 42c28.667 0 56.832 5.33398 84.499 16.001s50.5 27.334 68.5 50.001l39 -27c-24 -30 -52.5 -52.167 -85.5 -66.5s-68.5 -21.5 -106.5 -21.5c-40.667 0 -76.334 7.83301 -107.001 23.5s-56.334 36.167 -77.001 61.5s-36 53.833 -46 85.5s-15 63.167 -15 94.5
c0 32 5.33301 63.167 16 93.5s26.167 57.5 46.5 81.5s45.666 43.5 75.999 58.5s65.5 22.5 105.5 22.5c34.667 0 66.334 -6.16699 95.001 -18.5s53.334 -29.5 74.001 -51.5s36.834 -47.833 48.501 -77.5s17.5 -61.5 17.5 -95.5c0 -6 -0.166992 -11.333 -0.5 -16
s-0.833008 -10.334 -1.5 -17.001h-429c2 -24.667 7.66699 -48.834 17 -72.501s22.333 -44.667 39 -63s36.834 -33 60.501 -44s50.5 -16.5 80.5 -16.5zM108.998 282.001l385.001 0.000976562c-1.33301 27.333 -7 52.166 -17 74.499s-23.333 41.5 -40 57.5
s-36.334 28.5 -59.001 37.5s-47 13.833 -73 14.5c-29.333 0 -55.5 -4.83301 -78.5 -14.5s-42.5 -22.834 -58.5 -39.501s-29 -36.167 -39 -58.5s-16.667 -46.166 -20 -71.499zM273.999 613.002v61h61v-61h-61z" />
    <glyph glyph-name="uni0118" unicode="&#x118;" horiz-adv-x="534" 
d="M464 700l0.00195312 -52h-297v-272h293v-51h-294v-273h298v-56c-17.333 -7.33301 -32.333 -18.333 -45 -33s-20.5 -30 -23.5 -46s0.166992 -30.5 9.5 -43.5s27 -21.167 53 -24.5l-14 -31c-2.66699 -0.666992 -8.33398 -1 -17.001 -1
c-6.66699 0 -14.334 0.666992 -23.001 2s-17 4.33301 -25 9s-15.167 11 -21.5 19s-10.833 18.667 -13.5 32c-2 12 -1.16699 24 2.5 36s9.16699 23.333 16.5 34s16 20.5 26 29.5s20.333 16.167 31 21.5h-308v700h352z" />
    <glyph glyph-name="uni0119" unicode="&#x119;" horiz-adv-x="604" 
d="M306 42c28.667 0 56.833 5.33105 84.5 15.998s50.5 27.334 68.5 50.001l39 -27c-8 -14 -19.333 -25.667 -34 -35l-43 -28c-14 -9.33301 -26.333 -19.666 -37 -30.999s-16 -26.333 -16 -45c0 -7.33301 2.33301 -14.166 7 -20.499s10.5 -11.666 17.5 -15.999
s14.167 -8.16602 21.5 -11.499s13.666 -5.66602 18.999 -6.99902c-3.33301 -6 -5.83301 -10.833 -7.5 -14.5s-3.83398 -7.83398 -6.50098 -12.501c-16.667 0.666992 -32 3.66699 -46 9c-13.333 4 -25.166 10.167 -35.499 18.5s-16.833 20.166 -19.5 35.499
c-2.66699 10.667 -0.666992 22.5 6 35.5s15.667 25.833 27 38.5c-13.333 -2.66699 -28.333 -4 -45 -4c-40.667 0 -76.334 7.83301 -107.001 23.5s-56.334 36.167 -77.001 61.5s-36 53.833 -46 85.5s-15 63.167 -15 94.5c0 32 5.33301 63.167 16 93.5s26.167 57.5 46.5 81.5
s45.666 43.5 75.999 58.5s65.5 22.5 105.5 22.5c34.667 0 66.334 -6.16699 95.001 -18.5s53.334 -29.5 74.001 -51.5s36.834 -47.833 48.501 -77.5s17.5 -61.5 17.5 -95.5c0 -6 -0.166992 -11.333 -0.5 -16s-0.833008 -10.334 -1.5 -17.001h-429
c2 -24.667 7.66699 -48.834 17 -72.501s22.333 -44.667 39 -63s36.834 -33 60.501 -44s50.5 -16.5 80.5 -16.5zM108.999 281.998l385.001 0.000976562c-1.33301 27.333 -7 52.166 -17 74.499s-23.333 41.5 -40 57.5s-36.334 28.5 -59.001 37.5s-47 13.833 -73 14.5
c-29.333 0 -55.5 -4.83301 -78.5 -14.5s-42.5 -22.834 -58.5 -39.501s-29 -36.167 -39 -58.5s-16.667 -46.166 -20 -71.499z" />
    <glyph glyph-name="uni011A" unicode="&#x11a;" horiz-adv-x="534" 
d="M464 700h-352v-700h352v52h-298v273h294v51h-293v272h297v52zM409 852h-48l-70 -73l-67 73h-50l79 -97h76z" />
    <glyph glyph-name="uni011B" unicode="&#x11b;" horiz-adv-x="604" 
d="M306 42c28.667 0 56.832 5.33398 84.499 16.001s50.5 27.334 68.5 50.001l39 -27c-24 -30 -52.5 -52.167 -85.5 -66.5s-68.5 -21.5 -106.5 -21.5c-40.667 0 -76.334 7.83301 -107.001 23.5s-56.334 36.167 -77.001 61.5s-36 53.833 -46 85.5s-15 63.167 -15 94.5
c0 32 5.33301 63.167 16 93.5s26.167 57.5 46.5 81.5s45.666 43.5 75.999 58.5s65.5 22.5 105.5 22.5c34.667 0 66.334 -6.16699 95.001 -18.5s53.334 -29.5 74.001 -51.5s36.834 -47.833 48.501 -77.5s17.5 -61.5 17.5 -95.5c0 -6 -0.166992 -11.333 -0.5 -16
s-0.833008 -10.334 -1.5 -17.001h-429c2 -24.667 7.66699 -48.834 17 -72.501s22.333 -44.667 39 -63s36.834 -33 60.501 -44s50.5 -16.5 80.5 -16.5zM108.998 282.001l385.001 0.000976562c-1.33301 27.333 -7 52.166 -17 74.499s-23.333 41.5 -40 57.5
s-36.334 28.5 -59.001 37.5s-47 13.833 -73 14.5c-29.333 0 -55.5 -4.83301 -78.5 -14.5s-42.5 -22.834 -58.5 -39.501s-29 -36.167 -39 -58.5s-16.667 -46.166 -20 -71.499zM424.999 687.002l-80 -97h-76l-79 97h50l67 -73l70 73h48z" />
    <glyph glyph-name="uni011C" unicode="&#x11c;" horiz-adv-x="826" 
d="M413 713c51.333 0 99.1699 -10.1689 143.503 -30.502s82.5 -48.5 114.5 -84.5l-40 -33c-27.333 30 -60 53.5 -98 70.5s-78 25.5 -120 25.5c-46.667 0 -88 -9.5 -124 -28.5s-66.333 -43.5 -91 -73.5s-43.5 -63.5 -56.5 -100.5s-19.5 -73.5 -19.5 -109.5
c0 -36.667 6.5 -73.167 19.5 -109.5s31.833 -69 56.5 -98s55 -52.667 91 -71s77.333 -27.5 124 -27.5c32 0 63.667 6.16699 95 18.5s60 29.333 86 51s47.667 47.5 65 77.5s27.666 62.667 30.999 98h-314v52h377c-0.666992 -48 -9.33398 -93.333 -26.001 -136
s-39.834 -79.667 -69.501 -111s-65.167 -56.166 -106.5 -74.499s-87.333 -27.5 -138 -27.5c-56 0 -105.5 10.333 -148.5 31s-79 47.834 -108 81.501s-51 72 -66 115s-22.5 86.5 -22.5 130.5s7.5 87.667 22.5 131s37 82.333 66 117s65 62.667 108 84s92.5 32 148.5 32z
M295.004 757.998l80 97h76l79 -97h-50l-67 73l-70 -73h-48z" />
    <glyph glyph-name="uni011D" unicode="&#x11d;" horiz-adv-x="585" 
d="M306 511c21.333 0 43.502 -3.83594 66.502 -11.5029s44.167 -21.167 63.5 -40.5l9 48h43v-502c0 -35.333 -5.83301 -65.666 -17.5 -90.999s-27 -46.333 -46 -63s-40.833 -29 -65.5 -37s-50 -12 -76 -12c-36 0 -71.5 7 -106.5 21s-64.5 34.667 -88.5 62l30 34
c20 -21.333 44.667 -37.833 74 -49.5s59 -17.5 89 -17.5c20 0 39.5 2.83301 58.5 8.5s35.667 14.834 50 27.501s25.833 28.5 34.5 47.5s13 42.167 13 69.5v49c-16.667 -22 -37.334 -37.333 -62.001 -46s-50.334 -13 -77.001 -13c-52 0.666992 -95.333 13.834 -130 39.501
s-60.667 57.667 -78 96s-25.833 79.833 -25.5 124.5s9.5 86 27.5 124s44.833 69.5 80.5 94.5s80.167 37.5 133.5 37.5zM308.002 41.9971c25.333 0 48.332 5.33496 68.999 16.002s40.334 28.667 59.001 54v294c-18.667 22 -39.667 37.333 -63 46s-49 13 -77 13
c-40.667 -2.66699 -74.5 -14.834 -101.5 -36.501s-47.167 -48 -60.5 -79s-19.666 -64.333 -18.999 -100s8.16699 -68.667 22.5 -99s35.666 -55.833 63.999 -76.5s63.833 -31.334 106.5 -32.001zM201.001 591.999l80 97h76l79 -97h-50l-67 73l-70 -73h-48z" />
    <glyph glyph-name="uni011E" unicode="&#x11e;" horiz-adv-x="826" 
d="M413 713c51.333 0 99.1699 -10.1689 143.503 -30.502s82.5 -48.5 114.5 -84.5l-40 -33c-27.333 30 -60 53.5 -98 70.5s-78 25.5 -120 25.5c-46.667 0 -88 -9.5 -124 -28.5s-66.333 -43.5 -91 -73.5s-43.5 -63.5 -56.5 -100.5s-19.5 -73.5 -19.5 -109.5
c0 -36.667 6.5 -73.167 19.5 -109.5s31.833 -69 56.5 -98s55 -52.667 91 -71s77.333 -27.5 124 -27.5c32 0 63.667 6.16699 95 18.5s60 29.333 86 51s47.667 47.5 65 77.5s27.666 62.667 30.999 98h-314v52h377c-0.666992 -48 -9.33398 -93.333 -26.001 -136
s-39.834 -79.667 -69.501 -111s-65.167 -56.166 -106.5 -74.499s-87.333 -27.5 -138 -27.5c-56 0 -105.5 10.333 -148.5 31s-79 47.834 -108 81.501s-51 72 -66 115s-22.5 86.5 -22.5 130.5s7.5 87.667 22.5 131s37 82.333 66 117s65 62.667 108 84s92.5 32 148.5 32z
M415.004 757.998c-31.333 0 -57.833 9.33203 -79.5 27.999s-34.834 43 -39.501 73h43c2.66699 -20 11.834 -35 27.501 -45s32.834 -15 51.501 -15c17.333 0 33.666 4.83301 48.999 14.5s24 24.834 26 45.501h40c-0.666992 -16.667 -4.5 -31.334 -11.5 -44.001
s-15.833 -23.167 -26.5 -31.5s-23 -14.666 -37 -18.999s-28.333 -6.5 -43 -6.5z" />
    <glyph glyph-name="uni011F" unicode="&#x11f;" horiz-adv-x="585" 
d="M306 511c21.333 0 43.502 -3.83594 66.502 -11.5029s44.167 -21.167 63.5 -40.5l9 48h43v-502c0 -35.333 -5.83301 -65.666 -17.5 -90.999s-27 -46.333 -46 -63s-40.833 -29 -65.5 -37s-50 -12 -76 -12c-36 0 -71.5 7 -106.5 21s-64.5 34.667 -88.5 62l30 34
c20 -21.333 44.667 -37.833 74 -49.5s59 -17.5 89 -17.5c20 0 39.5 2.83301 58.5 8.5s35.667 14.834 50 27.501s25.833 28.5 34.5 47.5s13 42.167 13 69.5v49c-16.667 -22 -37.334 -37.333 -62.001 -46s-50.334 -13 -77.001 -13c-52 0.666992 -95.333 13.834 -130 39.501
s-60.667 57.667 -78 96s-25.833 79.833 -25.5 124.5s9.5 86 27.5 124s44.833 69.5 80.5 94.5s80.167 37.5 133.5 37.5zM308.002 41.9971c25.333 0 48.332 5.33496 68.999 16.002s40.334 28.667 59.001 54v294c-18.667 22 -39.667 37.333 -63 46s-49 13 -77 13
c-40.667 -2.66699 -74.5 -14.834 -101.5 -36.501s-47.167 -48 -60.5 -79s-19.666 -64.333 -18.999 -100s8.16699 -68.667 22.5 -99s35.666 -55.833 63.999 -76.5s63.833 -31.334 106.5 -32.001zM316.001 588.999c-31.333 0 -57.833 9.33203 -79.5 27.999
s-34.834 43 -39.501 73h43c2.66699 -20 11.834 -35 27.501 -45s32.834 -15 51.501 -15c17.333 0 33.666 4.83301 48.999 14.5s24 24.834 26 45.501h40c-0.666992 -16.667 -4.5 -31.334 -11.5 -44.001s-15.833 -23.167 -26.5 -31.5s-23 -14.666 -37 -18.999
s-28.333 -6.5 -43 -6.5z" />
    <glyph glyph-name="uni0120" unicode="&#x120;" horiz-adv-x="826" 
d="M413 713c51.333 0 99.1699 -10.1689 143.503 -30.502s82.5 -48.5 114.5 -84.5l-40 -33c-27.333 30 -60 53.5 -98 70.5s-78 25.5 -120 25.5c-46.667 0 -88 -9.5 -124 -28.5s-66.333 -43.5 -91 -73.5s-43.5 -63.5 -56.5 -100.5s-19.5 -73.5 -19.5 -109.5
c0 -36.667 6.5 -73.167 19.5 -109.5s31.833 -69 56.5 -98s55 -52.667 91 -71s77.333 -27.5 124 -27.5c32 0 63.667 6.16699 95 18.5s60 29.333 86 51s47.667 47.5 65 77.5s27.666 62.667 30.999 98h-314v52h377c-0.666992 -48 -9.33398 -93.333 -26.001 -136
s-39.834 -79.667 -69.501 -111s-65.167 -56.166 -106.5 -74.499s-87.333 -27.5 -138 -27.5c-56 0 -105.5 10.333 -148.5 31s-79 47.834 -108 81.501s-51 72 -66 115s-22.5 86.5 -22.5 130.5s7.5 87.667 22.5 131s37 82.333 66 117s65 62.667 108 84s92.5 32 148.5 32z
M375.004 786.998v75h61v-75h-61z" />
    <glyph glyph-name="uni0121" unicode="&#x121;" horiz-adv-x="585" 
d="M306 511c21.333 0 43.502 -3.83594 66.502 -11.5029s44.167 -21.167 63.5 -40.5l9 48h43v-502c0 -35.333 -5.83301 -65.666 -17.5 -90.999s-27 -46.333 -46 -63s-40.833 -29 -65.5 -37s-50 -12 -76 -12c-36 0 -71.5 7 -106.5 21s-64.5 34.667 -88.5 62l30 34
c20 -21.333 44.667 -37.833 74 -49.5s59 -17.5 89 -17.5c20 0 39.5 2.83301 58.5 8.5s35.667 14.834 50 27.501s25.833 28.5 34.5 47.5s13 42.167 13 69.5v49c-16.667 -22 -37.334 -37.333 -62.001 -46s-50.334 -13 -77.001 -13c-52 0.666992 -95.333 13.834 -130 39.501
s-60.667 57.667 -78 96s-25.833 79.833 -25.5 124.5s9.5 86 27.5 124s44.833 69.5 80.5 94.5s80.167 37.5 133.5 37.5zM308.002 41.9971c25.333 0 48.332 5.33496 68.999 16.002s40.334 28.667 59.001 54v294c-18.667 22 -39.667 37.333 -63 46s-49 13 -77 13
c-40.667 -2.66699 -74.5 -14.834 -101.5 -36.501s-47.167 -48 -60.5 -79s-19.666 -64.333 -18.999 -100s8.16699 -68.667 22.5 -99s35.666 -55.833 63.999 -76.5s63.833 -31.334 106.5 -32.001zM280.001 613.999v77h61v-77h-61z" />
    <glyph glyph-name="uni0122" unicode="&#x122;" horiz-adv-x="826" 
d="M413 713c51.333 0 99.1699 -10.1689 143.503 -30.502s82.5 -48.5 114.5 -84.5l-40 -33c-27.333 30 -60 53.5 -98 70.5s-78 25.5 -120 25.5c-46.667 0 -88 -9.5 -124 -28.5s-66.333 -43.5 -91 -73.5s-43.5 -63.5 -56.5 -100.5s-19.5 -73.5 -19.5 -109.5
c0 -36.667 6.5 -73.167 19.5 -109.5s31.833 -69 56.5 -98s55 -52.667 91 -71s77.333 -27.5 124 -27.5c32 0 63.667 6.16699 95 18.5s60 29.333 86 51s47.667 47.5 65 77.5s27.666 62.667 30.999 98h-314v52h377c-0.666992 -48 -9.33398 -93.333 -26.001 -136
s-39.834 -79.667 -69.501 -111s-65.167 -56.166 -106.5 -74.499s-87.333 -27.5 -138 -27.5c-56 0 -105.5 10.333 -148.5 31s-79 47.834 -108 81.501s-51 72 -66 115s-22.5 86.5 -22.5 130.5s7.5 87.667 22.5 131s37 82.333 66 117s65 62.667 108 84s92.5 32 148.5 32z
M375.004 -60.002l57 0.000976562c6 -22 7.5 -45.333 4.5 -70s-11.5 -46.334 -25.5 -65.001c-7.33301 0 -14.833 0.166992 -22.5 0.5s-14.5 0.5 -20.5 0.5c8 24 13 46.5 15 67.5s-0.666992 43.167 -8 66.5z" />
    <glyph glyph-name="uni0123" unicode="&#x123;" horiz-adv-x="585" 
d="M306 511c21.333 0 43.502 -3.83594 66.502 -11.5029s44.167 -21.167 63.5 -40.5l9 48h43v-502c0 -35.333 -5.83301 -65.666 -17.5 -90.999s-27 -46.333 -46 -63s-40.833 -29 -65.5 -37s-50 -12 -76 -12c-36 0 -71.5 7 -106.5 21s-64.5 34.667 -88.5 62l30 34
c20 -21.333 44.667 -37.833 74 -49.5s59 -17.5 89 -17.5c20 0 39.5 2.83301 58.5 8.5s35.667 14.834 50 27.501s25.833 28.5 34.5 47.5s13 42.167 13 69.5v49c-16.667 -22 -37.334 -37.333 -62.001 -46s-50.334 -13 -77.001 -13c-52 0.666992 -95.333 13.834 -130 39.501
s-60.667 57.667 -78 96s-25.833 79.833 -25.5 124.5s9.5 86 27.5 124s44.833 69.5 80.5 94.5s80.167 37.5 133.5 37.5zM308.002 41.9971c25.333 0 48.332 5.33496 68.999 16.002s40.334 28.667 59.001 54v294c-18.667 22 -39.667 37.333 -63 46s-49 13 -77 13
c-40.667 -2.66699 -74.5 -14.834 -101.5 -36.501s-47.167 -48 -60.5 -79s-19.666 -64.333 -18.999 -100s8.16699 -68.667 22.5 -99s35.666 -55.833 63.999 -76.5s63.833 -31.334 106.5 -32.001zM336.001 574.999l-52.001 -0.000976562
c-5.33301 22.667 -6.5 43.334 -3.5 62.001s9.5 39.667 19.5 63h43c-7.33301 -20 -12.166 -40 -14.499 -60s0.166992 -41.667 7.5 -65z" />
    <glyph glyph-name="uni0124" unicode="&#x124;" horiz-adv-x="692" 
d="M522 0h53v700h-53v-326h-354v326h-54v-700h54v323h354v-323zM228 755h48l70 73l67 -73h50l-79 97h-76z" />
    <glyph glyph-name="uni0125" unicode="&#x125;" horiz-adv-x="611" 
d="M148 409l0.000976562 -409.002h-52v700h52v-239c18 17.333 39.667 30.5 65 39.5s50.666 13.5 75.999 13.5c32.667 -0.666992 63.167 -6 91.5 -16s52.833 -24.667 73.5 -44s37 -42.833 49 -70.5s18 -59.5 18 -95.5v-288h-52v288c0 26 -5 50 -15 72
s-23.333 40.833 -40 56.5s-36.167 27.834 -58.5 36.501s-46.5 13 -72.5 13c-28 0 -53.5 -4.66699 -76.5 -14s-42.5 -23.666 -58.5 -42.999zM8.00098 752.998l80 97h76l79 -97h-50l-67 73l-70 -73h-48z" />
    <glyph glyph-name="uni0126" unicode="&#x126;" horiz-adv-x="692" 
d="M61 530h53v-530h54v323h354v-323h53v530h55v42h-55v128h-53v-128h-354v128h-54v-128h-53v-42zM168 374v156h354v-156h-354z" />
    <glyph glyph-name="uni0127" unicode="&#x127;" horiz-adv-x="617" 
d="M148 409l0.000976562 -409.002h-52v584h-64v38h64v78h52v-78h121v-38h-121v-123c18 17.333 39.667 30.5 65 39.5s50.666 13.5 75.999 13.5c32.667 -0.666992 63.167 -6 91.5 -16s52.833 -24.667 73.5 -44s37 -42.833 49 -70.5s18 -59.5 18 -95.5v-288h-52v288
c0 26 -5 50 -15 72s-23.333 40.833 -40 56.5s-36.167 27.834 -58.5 36.501s-46.5 13 -72.5 13c-28 0 -53.5 -4.66699 -76.5 -14s-42.5 -23.666 -58.5 -42.999z" />
    <glyph glyph-name="uni0128" unicode="&#x128;" horiz-adv-x="287" 
d="M116 0v700h54v-700h-54zM249 835l22.999 -17.999c-19.333 -36 -45.333 -54 -78 -54c-16.667 0 -33.334 5.33301 -50.001 16c-18 12 -34.333 18 -49 18c-18.667 0 -36.667 -9.66699 -54 -29c-5.33301 3.33301 -9.66602 6.16602 -12.999 8.49902
s-6.66602 4.83301 -9.99902 7.5c22.667 36.667 48.667 55 78 55c18 0 38 -7.33301 60 -22c14.667 -9.33301 28 -14 40 -14c20 0 37.667 10.667 53 32z" />
    <glyph glyph-name="uni0129" unicode="&#x129;" horiz-adv-x="244" 
d="M147 0h-51v507h51v-507zM226 679l20.998 -17.999c-19.333 -35.333 -44.333 -53 -75 -53c-16.667 0 -32.667 5.33301 -48 16c-18 12 -34 18 -48 18c-16.667 0 -34 -10 -52 -30c-5.33301 3.33301 -9.66602 6.16602 -12.999 8.49902s-6.66602 4.83301 -9.99902 7.5
c22.667 36.667 48 55 76 55c17.333 0 37 -7.33301 59 -22c14.667 -9.33301 27.667 -14 39 -14c18.667 0 35.667 10.667 51 32z" />
    <glyph glyph-name="uni012A" unicode="&#x12a;" horiz-adv-x="287" 
d="M116 0h54v700h-54v-700zM35 787h224v43h-224v-43z" />
    <glyph glyph-name="uni012B" unicode="&#x12b;" horiz-adv-x="244" 
d="M147 0v507h-51v-507h51zM19 627h222v41h-222v-41z" />
    <glyph glyph-name="uni012C" unicode="&#x12c;" horiz-adv-x="287" 
d="M116 0v700h54v-700h-54zM140 761c-37.333 0 -64.8359 8.66699 -82.5029 26s-28.167 41 -31.5 71h38c2.66699 -20 11.667 -35 27 -45s32.333 -15 51 -15s36 5 52 15s25.667 25 29 45h40c-0.666992 -17.333 -4.66699 -32 -12 -44s-16.666 -22 -27.999 -30
s-24.166 -13.833 -38.499 -17.5s-29.166 -5.5 -44.499 -5.5z" />
    <glyph glyph-name="uni012D" unicode="&#x12d;" horiz-adv-x="244" 
d="M147 0h-51v507h51v-507zM123 584c-36 0 -64 8.5 -84 25.5s-30.667 41.167 -32 72.5h37c4 -20 13.833 -35.167 29.5 -45.5s32.5 -15.5 50.5 -15.5s34.833 5 50.5 15s25.167 25.333 28.5 46h38c-0.666992 -16.667 -4.5 -31.167 -11.5 -43.5s-15.833 -22.5 -26.5 -30.5
s-23 -14 -37 -18s-28.333 -6 -43 -6z" />
    <glyph glyph-name="uni012E" unicode="&#x12e;" horiz-adv-x="289" 
d="M116 -8l0.000976562 708.004h54v-700l-21.5 -20c-7.66699 -7.33301 -14.667 -15 -21 -23s-11.666 -16 -15.999 -24s-6.5 -16 -6.5 -24s2.16699 -14.833 6.5 -20.5s9.66602 -10.834 15.999 -15.501s13.166 -8.33398 20.499 -11.001l20 -7
c-3.33301 -6 -5.83301 -11.167 -7.5 -15.5s-3.83398 -8.83301 -6.50098 -13.5c-23.333 0 -44.5 4.66699 -63.5 14s-30.833 27 -35.5 53c-1.33301 10 -0.166016 19.833 3.50098 29.5s8.5 18.667 14.5 27s12.833 16.166 20.5 23.499s15.167 13.666 22.5 18.999z" />
    <glyph glyph-name="uni012F" unicode="&#x12f;" horiz-adv-x="244" 
d="M100 0l-4.00098 -0.000976562v507h51v-5h1l-1 -502c-11.333 -11.333 -22.333 -25.333 -33 -42s-16 -31.667 -16 -45c0 -8.66699 1.83301 -16.167 5.5 -22.5s8 -11.666 13 -15.999s10.333 -7.83301 16 -10.5s10.834 -4.66699 15.501 -6l-15 -25
c-14 0.666992 -26.667 3.33398 -38 8.00098c-10.667 4 -20.334 10.167 -29.001 18.5s-14 20.166 -16 35.499c-3.33301 19.333 0.333984 38.333 11.001 57s23.667 34.667 39 48zM94.999 616.999v79h60v-79h-60z" />
    <glyph glyph-name="uni0130" unicode="&#x130;" horiz-adv-x="287" 
d="M116 0h54v700h-54v-700zM116 781h55v68h-55v-68z" />
    <glyph glyph-name="uni0131" unicode="&#x131;" horiz-adv-x="244" 
d="M147 0v507h-51v-507h51z" />
    <glyph glyph-name="uni0132" unicode="&#x132;" horiz-adv-x="607" 
d="M115 0v700h54v-700h-54zM279 -7l-0.000976562 49c3.33301 -0.666992 6.66602 -1 9.99902 -1h10c18.667 0 36.667 3.33301 54 10s32.833 16.5 46.5 29.5s24.5 28.833 32.5 47.5s12 40 12 64v458h-135v50h189v-508c0 -33.333 -5.5 -62.5 -16.5 -87.5
s-25.667 -45.833 -44 -62.5s-39.166 -29.167 -62.499 -37.5s-47.666 -12.5 -72.999 -12.5h-11.5c-3.66699 0 -7.5 0.333008 -11.5 1z" />
    <glyph glyph-name="uni0133" unicode="&#x133;" horiz-adv-x="513" 
d="M153 0h-53v507h53v-507zM245 -189l0.000976562 45c34.667 0 60.5 8.83301 77.5 26.5s25.5 41.167 25.5 70.5v554h53v-554c0 -50 -14.333 -86.167 -43 -108.5s-66.334 -33.5 -113.001 -33.5zM154.001 699v-75h-55v75h55zM400.001 700v-75h-55v75h55z" />
    <glyph glyph-name="uni0134" unicode="&#x134;" horiz-adv-x="549" 
d="M51 154l49 13.0029c5.33301 -18.667 13.333 -35.667 24 -51s23 -28.333 37 -39s28.833 -18.834 44.5 -24.501s31.5 -8.5 47.5 -8.5c18 0 35.333 3.33301 52 10s31.667 16.167 45 28.5s24 27.666 32 45.999s12 39.5 12 63.5v458h-135v50h189v-508
c0 -32.667 -5.5 -61.5 -16.5 -86.5s-25.5 -46 -43.5 -63s-38.667 -29.667 -62 -38s-47.333 -12.5 -72 -12.5c-22 0 -43.5 3.5 -64.5 10.5s-40.667 17.167 -59 30.5s-34.333 30.166 -48 50.499s-24.167 43.833 -31.5 70.5zM199 756.003l80 97h76l79 -97h-50l-67 73l-70 -73
h-48z" />
    <glyph glyph-name="uni0135" unicode="&#x135;" horiz-adv-x="244" 
d="M-7 -189l0.000976562 45c34.667 0 60.5 8.83301 77.5 26.5s25.5 41.167 25.5 70.5v555h53v-555c0 -50 -14.333 -86.167 -43 -108.5s-66.334 -33.5 -113.001 -33.5zM1.00098 586l80 97h76l79 -97h-50l-67 73l-70 -73h-48z" />
    <glyph glyph-name="uni0136" unicode="&#x136;" horiz-adv-x="638" 
d="M116 700h53v-375l347 375h61l-275 -310l292 -390h-64l-267 353l-94 -92v-261h-53v700zM315 -38h52.002c5.33301 -23.333 6.16602 -46.333 2.49902 -69s-13.167 -43.667 -28.5 -63h-39c8.66699 25.333 14.667 47.5 18 66.5s1.66602 40.833 -5.00098 65.5z" />
    <glyph glyph-name="uni0137" unicode="&#x137;" horiz-adv-x="521" 
d="M96 700h49v-460l264 267h62l-217 -220l114.5 -143l115.5 -144h-57l-206 252l-76 -69v-183h-49v700zM255 -43h52.001c5.33301 -24 7 -46.333 5 -67s-10.667 -42 -26 -64h-38c8.66699 24 13.667 45.667 15 65s-1.33398 41.333 -8.00098 66z" />
    <glyph glyph-name="uni0138" unicode="&#x138;" horiz-adv-x="521" 
d="M96 507h49v-267l264 267h62l-217 -220l114.5 -143l115.5 -144h-57l-206 252l-76 -69v-183h-49v507z" />
    <glyph glyph-name="uni0139" unicode="&#x139;" horiz-adv-x="483" 
d="M443 52h-273v648h-54v-700h327v52zM245 860h-63l-59 -102h48z" />
    <glyph glyph-name="uni013A" unicode="&#x13a;" horiz-adv-x="271" 
d="M224 45l-0.000976562 -46c-47.333 0 -81.5 12 -102.5 36s-31.5 59.333 -31.5 106v559h53v-559c0 -30 5.33301 -53.5 16 -70.5s32.334 -25.5 65.001 -25.5zM214.999 859l-75 -104h-47c10 18.667 20 36.167 30 52.5l30 51.5h62z" />
    <glyph glyph-name="uni013B" unicode="&#x13b;" horiz-adv-x="483" 
d="M443 52v-52h-327v700h54v-648h273zM265 -58l57 0.000976562c4.66699 -24.667 5.16699 -46.834 1.5 -66.501s-11.167 -41.167 -22.5 -64.5h-45c8.66699 24 14 45.667 16 65s-0.333008 41.333 -7 66z" />
    <glyph glyph-name="uni013C" unicode="&#x13c;" horiz-adv-x="271" 
d="M224 45l-0.000976562 -46c-47.333 0 -81.5 12 -102.5 36s-31.5 59.333 -31.5 106v559h53v-559c0 -30 5.33301 -53.5 16 -70.5s32.334 -25.5 65.001 -25.5zM139.999 -71l53.001 -0.00195312c5.33301 -21.333 6.83301 -42.166 4.5 -62.499s-8.83301 -40.166 -19.5 -59.499
h-44c8 21.333 12.667 41.5 14 60.5s-1.33398 39.5 -8.00098 61.5z" />
    <glyph glyph-name="uni013D" unicode="&#x13d;" horiz-adv-x="483" 
d="M443 52v-52h-327v700h54v-648h273zM304 701h52c6 -23.333 7 -45.5 3 -66.5s-11.667 -42.167 -23 -63.5h-39c8 24 12.833 45.5 14.5 64.5s-0.833008 40.833 -7.5 65.5z" />
    <glyph glyph-name="uni013E" unicode="&#x13e;" horiz-adv-x="302" 
d="M224 45l-0.000976562 -46c-47.333 0 -81.5 12 -102.5 36s-31.5 59.333 -31.5 106v559h53v-559c0 -30 5.33301 -53.5 16 -70.5s32.334 -25.5 65.001 -25.5zM251.999 700h46.999c5.33301 -22.667 6.33301 -43.5 3 -62.5s-10.666 -39.833 -21.999 -62.5h-35
c7.33301 22.667 11.833 43.5 13.5 62.5s-0.5 39.833 -6.5 62.5z" />
    <glyph glyph-name="uni013F" unicode="&#x13f;" horiz-adv-x="483" 
d="M443 52h-273v648h-54v-700h327v52zM296 340h64v75h-64v-75z" />
    <glyph glyph-name="uni0140" unicode="&#x140;" horiz-adv-x="308" 
d="M224 45l-0.000976562 -46c-47.333 0 -81.5 12 -102.5 36s-31.5 59.333 -31.5 106v559h53v-559c0 -30 5.33301 -53.5 16 -70.5s32.334 -25.5 65.001 -25.5zM224.999 349v72h61v-72h-61z" />
    <glyph glyph-name="uni0141" unicode="&#x141;" horiz-adv-x="483" 
d="M443 52h-273v300l121 69v52l-121 -70v297h-54v-329l-66 -38v-49l66 37v-321h327v52z" />
    <glyph glyph-name="uni0142" unicode="&#x142;" horiz-adv-x="271" 
d="M224 45l-0.000976562 -46c-47.333 0 -81.5 12 -102.5 36s-31.5 59.333 -31.5 106v168l-41 -23v46l41 23v345h53v-314l84 49v-49l-84 -47v-198c0 -30 5.33301 -53.5 16 -70.5s32.334 -25.5 65.001 -25.5z" />
    <glyph glyph-name="uni0143" unicode="&#x143;" horiz-adv-x="736" 
d="M116 700h67l384 -648v648h54v-700h-84l-367 620v-620h-54v700zM472 855l-76 -102.001h-48c10 18.667 20.167 35.834 30.5 51.501s20.5 32.5 30.5 50.5h63z" />
    <glyph glyph-name="uni0144" unicode="&#x144;" horiz-adv-x="620" 
d="M148 411v-411.003h-52v507h45l7 -43c18 17.333 39.667 30.5 65 39.5s50.666 13.5 75.999 13.5c32.667 -0.666992 63.667 -6 93 -16s55 -24.667 77 -44s39.333 -42.833 52 -70.5s19 -59.5 19 -95.5v-291h-52v291c0 26.667 -5.5 50.834 -16.5 72.501
s-25.5 40.334 -43.5 56.001s-38.667 27.834 -62 36.501s-47.666 13 -72.999 13c-28 0 -53.5 -4.83301 -76.5 -14.5s-42.5 -24.167 -58.5 -43.5zM396 686.997l-71 -101h-48l28 51l28 50h63z" />
    <glyph glyph-name="uni0145" unicode="&#x145;" horiz-adv-x="736" 
d="M116 700h67l384 -648v648h54v-700h-84l-367 620v-620h-54v700zM347 -39l58.001 -0.000976562c4.66699 -24.667 6 -46.667 4 -66s-8.66699 -41 -20 -65h-49c8.66699 25.333 13.667 47.333 15 66s-1.33398 40.334 -8.00098 65.001z" />
    <glyph glyph-name="uni0146" unicode="&#x146;" horiz-adv-x="620" 
d="M148 411v-411.003h-52v507h45l7 -43c18 17.333 39.667 30.5 65 39.5s50.666 13.5 75.999 13.5c32.667 -0.666992 63.667 -6 93 -16s55 -24.667 77 -44s39.333 -42.833 52 -70.5s19 -59.5 19 -95.5v-291h-52v291c0 26.667 -5.5 50.834 -16.5 72.501
s-25.5 40.334 -43.5 56.001s-38.667 27.834 -62 36.501s-47.666 13 -72.999 13c-28 0 -53.5 -4.83301 -76.5 -14.5s-42.5 -24.167 -58.5 -43.5zM291 -28.0029h51.001c3.33301 -16.667 5 -30.334 5 -41.001c0 -14 -2 -27.667 -6 -41s-9.66699 -27.666 -17 -42.999h-40
c5.33301 14.667 9.16602 28 11.499 40s3.5 24 3.5 36c0 7.33301 -0.5 15 -1.5 23s-3.16699 16.667 -6.5 26z" />
    <glyph glyph-name="uni0147" unicode="&#x147;" horiz-adv-x="736" 
d="M116 700v-700h54v620l367 -620h84v700h-54v-648l-384 648h-67zM491 853h-48l-70 -73l-67 73h-50l79 -97h76z" />
    <glyph glyph-name="uni0148" unicode="&#x148;" horiz-adv-x="620" 
d="M148 411v-411.003h-52v507h45l7 -43c18 17.333 39.667 30.5 65 39.5s50.666 13.5 75.999 13.5c32.667 -0.666992 63.667 -6 93 -16s55 -24.667 77 -44s39.333 -42.833 52 -70.5s19 -59.5 19 -95.5v-291h-52v291c0 26.667 -5.5 50.834 -16.5 72.501
s-25.5 40.334 -43.5 56.001s-38.667 27.834 -62 36.501s-47.666 13 -72.999 13c-28 0 -53.5 -4.83301 -76.5 -14.5s-42.5 -24.167 -58.5 -43.5zM415 685.997l-80 -97h-76l-79 97h50l67 -73l70 73h48z" />
    <glyph glyph-name="uni0149" unicode="&#x149;" horiz-adv-x="613" 
d="M148 411v-411.003h-52v507h45l7 -43c18 17.333 39.667 30.5 65 39.5s50.666 13.5 75.999 13.5c32.667 -0.666992 63.667 -6 93 -16s55 -24.667 77 -44s39.333 -42.833 52 -70.5s19 -59.5 19 -95.5v-291h-52v291c0 26.667 -5.5 50.834 -16.5 72.501
s-25.5 40.334 -43.5 56.001s-38.667 27.834 -62 36.501s-47.666 13 -72.999 13c-28 0 -53.5 -4.83301 -76.5 -14.5s-42.5 -24.167 -58.5 -43.5zM30 695.997h53.001c6 -23.333 7 -44.5 3 -63.5s-11.667 -39.5 -23 -61.5h-40c7.33301 20 12.166 41 14.499 63
s-0.166992 42.667 -7.5 62z" />
    <glyph glyph-name="uni014A" unicode="&#x14a;" horiz-adv-x="736" 
d="M116 700h67l384 -626v626h53v-749c0 -50 -14.167 -86.167 -42.5 -108.5s-65.833 -33.5 -112.5 -33.5v50c32 0 54.667 7.83301 68 23.5s20 38.5 20 68.5v49l-383 620v-620h-54v700z" />
    <glyph glyph-name="uni014B" unicode="&#x14b;" horiz-adv-x="617" 
d="M148 411v-411.003h-52v507h45l7 -43c18 17.333 39.667 30.5 65 39.5s50.666 13.5 75.999 13.5c32.667 -0.666992 63.667 -6 93 -16s55 -24.667 77 -44s39.333 -42.833 52 -70.5s19 -59.5 19 -95.5v-340c0 -49.333 -13 -85.333 -39 -108s-62.667 -34 -110 -34v46
c32 0 56.167 8.5 72.5 25.5s24.5 40.5 24.5 70.5v340c0 26.667 -5.5 50.834 -16.5 72.501s-25.5 40.334 -43.5 56.001s-38.667 27.834 -62 36.501s-47.666 13 -72.999 13c-28 0 -53.5 -4.83301 -76.5 -14.5s-42.5 -24.167 -58.5 -43.5z" />
    <glyph glyph-name="uni014C" unicode="&#x14c;" horiz-adv-x="824" 
d="M412 711c51.333 0 98.1689 -9.83301 140.502 -29.5s78.666 -46.167 108.999 -79.5s54 -71.833 71 -115.5s25.5 -89.5 25.5 -137.5c0 -60 -9.83301 -112.333 -29.5 -157s-45.834 -82 -78.501 -112s-69.667 -52.5 -111 -67.5s-83.666 -22.5 -126.999 -22.5
s-85.666 7.5 -126.999 22.5s-78.333 37.5 -111 67.5s-58.834 67.333 -78.501 112s-29.5 97 -29.5 157c0 48 8.16699 93.833 24.5 137.5s39.666 82.167 69.999 115.5s66.833 59.833 109.5 79.5s90 29.5 142 29.5zM120.003 349c0 -51.333 8.33398 -96.167 25.001 -134.5
s38.667 -70.333 66 -96s58.5 -45 93.5 -58s70.833 -19.5 107.5 -19.5s72.5 6.5 107.5 19.5s66.167 32.333 93.5 58s49.333 57.667 66 96s25 83.166 25 134.499c0 52 -8.33301 97.333 -25 136s-38.667 70.834 -66 96.501s-58.333 45 -93 58s-70.334 19.5 -107.001 19.5
s-72.5 -6.5 -107.5 -19.5s-66.167 -32.5 -93.5 -58.5s-49.5 -58.333 -66.5 -97s-25.5 -83.667 -25.5 -135zM298.004 793.999v43h229v-43h-229z" />
    <glyph glyph-name="uni014D" unicode="&#x14d;" horiz-adv-x="609" 
d="M558 253c0 -35.333 -6.33301 -69 -19 -101s-30.167 -60.167 -52.5 -84.5s-49 -43.666 -80 -57.999s-64.5 -21.5 -100.5 -21.5s-69.333 7.16699 -100 21.5s-57.167 33.666 -79.5 57.999s-39.833 52.5 -52.5 84.5s-19 65.667 -19 101s6.33301 69 19 101
s30.167 60.167 52.5 84.5s48.833 43.666 79.5 57.999s64 21.5 100 21.5s69.5 -7.16699 100.5 -21.5s57.667 -33.666 80 -57.999s39.833 -52.5 52.5 -84.5s19 -65.667 19 -101zM107 253c0 -34.667 5.83301 -65.667 17.5 -93s26.834 -50.333 45.501 -69s39.834 -33 63.501 -43
s47.834 -15 72.501 -15s49 5 73 15s45.333 24.333 64 43s33.834 41.667 45.501 69s17.5 58.333 17.5 93s-5.83301 65.5 -17.5 92.5s-26.834 49.667 -45.501 68s-40 32.333 -64 42s-48.333 14.5 -73 14.5s-48.834 -4.83301 -72.501 -14.5s-44.834 -23.667 -63.501 -42
s-33.834 -41 -45.501 -68s-17.5 -57.833 -17.5 -92.5zM187 620v43h229v-43h-229z" />
    <glyph glyph-name="uni014E" unicode="&#x14e;" horiz-adv-x="824" 
d="M412 711c51.333 0 98.1689 -9.83301 140.502 -29.5s78.666 -46.167 108.999 -79.5s54 -71.833 71 -115.5s25.5 -89.5 25.5 -137.5c0 -60 -9.83301 -112.333 -29.5 -157s-45.834 -82 -78.501 -112s-69.667 -52.5 -111 -67.5s-83.666 -22.5 -126.999 -22.5
s-85.666 7.5 -126.999 22.5s-78.333 37.5 -111 67.5s-58.834 67.333 -78.501 112s-29.5 97 -29.5 157c0 48 8.16699 93.833 24.5 137.5s39.666 82.167 69.999 115.5s66.833 59.833 109.5 79.5s90 29.5 142 29.5zM120.003 349c0 -51.333 8.33398 -96.167 25.001 -134.5
s38.667 -70.333 66 -96s58.5 -45 93.5 -58s70.833 -19.5 107.5 -19.5s72.5 6.5 107.5 19.5s66.167 32.333 93.5 58s49.333 57.667 66 96s25 83.166 25 134.499c0 52 -8.33301 97.333 -25 136s-38.667 70.834 -66 96.501s-58.333 45 -93 58s-70.334 19.5 -107.001 19.5
s-72.5 -6.5 -107.5 -19.5s-66.167 -32.5 -93.5 -58.5s-49.5 -58.333 -66.5 -97s-25.5 -83.667 -25.5 -135zM410.004 760.999c-37.333 0 -64.8359 8.66699 -82.5029 26s-28.167 41 -31.5 71h38c2.66699 -20 11.667 -35 27 -45s32.333 -15 51 -15s36 5 52 15s25.667 25 29 45
h40c-0.666992 -17.333 -4.66699 -32 -12 -44s-16.666 -22 -27.999 -30s-24.166 -13.833 -38.499 -17.5s-29.166 -5.5 -44.499 -5.5z" />
    <glyph glyph-name="uni014F" unicode="&#x14f;" horiz-adv-x="609" 
d="M557 253c0 -35.333 -6.33301 -69 -19 -101s-30.167 -60.167 -52.5 -84.5s-49 -43.666 -80 -57.999s-64.5 -21.5 -100.5 -21.5s-69.333 7.16699 -100 21.5s-57.167 33.666 -79.5 57.999s-39.833 52.5 -52.5 84.5s-19 65.667 -19 101s6.33301 69 19 101
s30.167 60.167 52.5 84.5s48.833 43.666 79.5 57.999s64 21.5 100 21.5s69.5 -7.16699 100.5 -21.5s57.667 -33.666 80 -57.999s39.833 -52.5 52.5 -84.5s19 -65.667 19 -101zM106 253c0 -34.667 5.83301 -65.667 17.5 -93s26.834 -50.333 45.501 -69s39.834 -33 63.501 -43
s47.834 -15 72.501 -15s49 5 73 15s45.333 24.333 64 43s33.834 41.667 45.501 69s17.5 58.333 17.5 93s-5.83301 65.5 -17.5 92.5s-26.834 49.667 -45.501 68s-40 32.333 -64 42s-48.333 14.5 -73 14.5s-48.834 -4.83301 -72.501 -14.5s-44.834 -23.667 -63.501 -42
s-33.834 -41 -45.501 -68s-17.5 -57.833 -17.5 -92.5zM304 584c-38 0 -66.167 8.66699 -84.5 26s-29.833 41 -34.5 71h41c2.66699 -21.333 12 -36.5 28 -45.5s32.667 -13.5 50 -13.5c16.667 0 33.167 4.5 49.5 13.5s25.833 24.167 28.5 45.5h40
c-0.666992 -16.667 -4.5 -31.167 -11.5 -43.5s-15.833 -22.5 -26.5 -30.5s-23 -13.833 -37 -17.5s-28.333 -5.5 -43 -5.5z" />
    <glyph glyph-name="uni0150" unicode="&#x150;" horiz-adv-x="824" 
d="M412 711c51.333 0 98.1689 -9.83301 140.502 -29.5s78.666 -46.167 108.999 -79.5s54 -71.833 71 -115.5s25.5 -89.5 25.5 -137.5c0 -60 -9.83301 -112.333 -29.5 -157s-45.834 -82 -78.501 -112s-69.667 -52.5 -111 -67.5s-83.666 -22.5 -126.999 -22.5
s-85.666 7.5 -126.999 22.5s-78.333 37.5 -111 67.5s-58.834 67.333 -78.501 112s-29.5 97 -29.5 157c0 48 8.16699 93.833 24.5 137.5s39.666 82.167 69.999 115.5s66.833 59.833 109.5 79.5s90 29.5 142 29.5zM120.003 349c0 -51.333 8.33398 -96.167 25.001 -134.5
s38.667 -70.333 66 -96s58.5 -45 93.5 -58s70.833 -19.5 107.5 -19.5s72.5 6.5 107.5 19.5s66.167 32.333 93.5 58s49.333 57.667 66 96s25 83.166 25 134.499c0 52 -8.33301 97.333 -25 136s-38.667 70.834 -66 96.501s-58.333 45 -93 58s-70.334 19.5 -107.001 19.5
s-72.5 -6.5 -107.5 -19.5s-66.167 -32.5 -93.5 -58.5s-49.5 -58.333 -66.5 -97s-25.5 -83.667 -25.5 -135zM315.004 761.999l51 93h52l-62 -93h-41zM457.004 761.999l56 93h55l-69 -93h-42z" />
    <glyph glyph-name="uni0151" unicode="&#x151;" horiz-adv-x="609" 
d="M558 253c0 -35.333 -6.33301 -69 -19 -101s-30.167 -60.167 -52.5 -84.5s-49 -43.666 -80 -57.999s-64.5 -21.5 -100.5 -21.5s-69.333 7.16699 -100 21.5s-57.167 33.666 -79.5 57.999s-39.833 52.5 -52.5 84.5s-19 65.667 -19 101s6.33301 69 19 101
s30.167 60.167 52.5 84.5s48.833 43.666 79.5 57.999s64 21.5 100 21.5s69.5 -7.16699 100.5 -21.5s57.667 -33.666 80 -57.999s39.833 -52.5 52.5 -84.5s19 -65.667 19 -101zM107 253c0 -34.667 5.83301 -65.667 17.5 -93s26.834 -50.333 45.501 -69s39.834 -33 63.501 -43
s47.834 -15 72.501 -15s49 5 73 15s45.333 24.333 64 43s33.834 41.667 45.501 69s17.5 58.333 17.5 93s-5.83301 65.5 -17.5 92.5s-26.834 49.667 -45.501 68s-40 32.333 -64 42s-48.333 14.5 -73 14.5s-48.834 -4.83301 -72.501 -14.5s-44.834 -23.667 -63.501 -42
s-33.834 -41 -45.501 -68s-17.5 -57.833 -17.5 -92.5zM209 594l52 93h53c-11.333 -17.333 -22.333 -33 -33 -47s-21.667 -29.333 -33 -46h-39zM336 594l57 93h55l-35.5 -47l-35.5 -46h-41z" />
    <glyph glyph-name="uni0152" unicode="&#x152;" horiz-adv-x="947" 
d="M872 701l0.00195312 -52h-310v-272h306v-51h-307v-273h311v-52h-365c-30.667 -7.33301 -60 -11 -88 -11c-43.333 0 -85.666 7.5 -126.999 22.5s-78.333 37.5 -111 67.5s-58.834 67.333 -78.501 112s-29.5 97 -29.5 157c0 48 8.16699 93.833 24.5 137.5
s39.666 82.167 69.999 115.5s66.833 59.833 109.5 79.5s90 29.5 142 29.5c29.333 0 58.666 -3.66699 87.999 -11v1h365zM127.002 349c0 -51.333 8.33398 -96.167 25.001 -134.5s38.667 -70.333 66 -96s58.5 -45 93.5 -58s70.833 -19.5 107.5 -19.5
c15.333 0 30.166 1.16699 44.499 3.5s28.833 5.5 43.5 9.5v592c-28 8.66699 -57.333 13 -88 13c-36.667 0 -72.5 -6.5 -107.5 -19.5s-66.167 -32.5 -93.5 -58.5s-49.333 -58.333 -66 -97s-25 -83.667 -25 -135z" />
    <glyph glyph-name="uni0153" unicode="&#x153;" horiz-adv-x="1051" 
d="M758 40c28.667 0 56.8281 5.33496 84.4951 16.002s50.5 27.334 68.5 50.001l39 -27c-24 -30 -52.5 -52.167 -85.5 -66.5s-68.5 -21.5 -106.5 -21.5c-28 0 -53.5 4.16699 -76.5 12.5s-43.833 19.666 -62.5 33.999s-34.667 31.166 -48 50.499s-24.333 40 -33 62
c-9.33301 -24 -21.666 -45.833 -36.999 -65.5s-33 -36.667 -53 -51s-41.667 -25.5 -65 -33.5s-48 -12 -74 -12c-36 0 -69.5 7.16699 -100.5 21.5s-57.667 33.666 -80 57.999s-40 52.5 -53 84.5s-19.5 65.667 -19.5 101s6.5 69 19.5 101s30.667 60.167 53 84.5
s49 43.666 80 57.999s64.5 21.5 100.5 21.5c25.333 0 49.833 -3.83301 73.5 -11.5s45.334 -18.5 65.001 -32.5s37.167 -30.667 52.5 -50s27.666 -40.666 36.999 -63.999c15.333 44 42 80.5 80 109.5s84.667 43.833 140 44.5c34.667 0 66.334 -6.16699 95.001 -18.5
s53.334 -29.5 74.001 -51.5s36.834 -47.833 48.501 -77.5s17.5 -61.5 17.5 -95.5c0 -6 -0.166992 -11.333 -0.5 -16s-0.833008 -10.334 -1.5 -17.001h-429v-3c2 -24.667 7.83301 -48.667 17.5 -72s22.834 -44.166 39.501 -62.499s36.667 -33 60 -44s50 -16.5 80 -16.5z
M107.994 253.002c0 -34.667 5.83301 -65.668 17.5 -93.001s27 -50.333 46 -69s40.5 -33 64.5 -43s48.333 -15 73 -15s49.334 5 74.001 15s46.667 24.333 66 43s35.166 41.667 47.499 69s18.5 58.333 18.5 93v10c-1.33301 33.333 -8.33301 62.833 -21 88.5
s-28.667 47.334 -48 65.001s-41 31 -65 40s-48 13.5 -72 13.5c-24.667 0 -49 -4.83301 -73 -14.5s-45.5 -23.667 -64.5 -42s-34.333 -41 -46 -68s-17.5 -57.833 -17.5 -92.5zM559.994 282.001l386.001 0.000976562c-1.33301 27.333 -7 52.166 -17 74.499
s-23.333 41.5 -40 57.5s-36.334 28.5 -59.001 37.5s-47 13.833 -73 14.5c-29.333 0 -55.5 -4.83301 -78.5 -14.5s-42.667 -22.834 -59 -39.501s-29.5 -36.167 -39.5 -58.5s-16.667 -46.166 -20 -71.499z" />
    <glyph glyph-name="uni0154" unicode="&#x154;" horiz-adv-x="620" 
d="M331 297l232 -297h-68l-231 297h-95v-297h-53v700h210c32 0 61.667 -4.33301 89 -13s51 -21.5 71 -38.5s35.833 -38.167 47.5 -63.5s17.834 -54.666 18.501 -87.999c0 -32.667 -5.33301 -61.167 -16 -85.5s-25.834 -44.833 -45.501 -61.5s-43 -29.334 -70 -38.001
s-56.833 -13.667 -89.5 -15zM169 346h158c52 0 93.667 12.333 125 37s47 62.667 47 114c0 26 -4.33301 48.5 -13 67.5s-20.667 34.833 -36 47.5s-33.5 22 -54.5 28s-43.833 9 -68.5 9h-158v-303zM385 855l-74 -101h-48c10 18.667 19.833 35.667 29.5 51s19.5 32 29.5 50h63z
" />
    <glyph glyph-name="uni0155" unicode="&#x155;" horiz-adv-x="405" 
d="M96 507l42.001 0.000976562l8 -66c17.333 28 38.5 47 63.5 57s50.167 15 75.5 15c19.333 0 37.5 -2 54.5 -6s31.833 -8.66699 44.5 -14l-21 -43c-24 11.333 -48 17 -72 17c-18.667 0 -36.834 -3.16699 -54.501 -9.5s-33.167 -15.5 -46.5 -27.5s-24 -26.833 -32 -44.5
s-11.667 -37.834 -11 -60.501v-325h-51v507zM320.001 691.001l-70 -98h-46l27.5 49.5l27.5 48.5h61z" />
    <glyph glyph-name="uni0156" unicode="&#x156;" horiz-adv-x="620" 
d="M331 297l232 -297h-68l-231 297h-95v-297h-53v700h210c32 0 61.667 -4.33301 89 -13s51 -21.5 71 -38.5s35.833 -38.167 47.5 -63.5s17.834 -54.666 18.501 -87.999c0 -32.667 -5.33301 -61.167 -16 -85.5s-25.834 -44.833 -45.501 -61.5s-43 -29.334 -70 -38.001
s-56.833 -13.667 -89.5 -15zM169 346h158c52 0 93.667 12.333 125 37s47 62.667 47 114c0 26 -4.33301 48.5 -13 67.5s-20.667 34.833 -36 47.5s-33.5 22 -54.5 28s-43.833 9 -68.5 9h-158v-303zM307 -41l53 0.00292969c6 -23.333 7.5 -44.333 4.5 -63
s-9.83301 -39.334 -20.5 -62.001h-44c8 23.333 13.167 44.166 15.5 62.499s-0.5 39.166 -8.5 62.499z" />
    <glyph glyph-name="uni0157" unicode="&#x157;" horiz-adv-x="405" 
d="M96 507l42.001 0.000976562l8 -66c17.333 28 38.5 47 63.5 57s50.167 15 75.5 15c19.333 0 37.5 -2 54.5 -6s31.833 -8.66699 44.5 -14l-21 -43c-24 11.333 -48 17 -72 17c-18.667 0 -36.834 -3.16699 -54.501 -9.5s-33.167 -15.5 -46.5 -27.5s-24 -26.833 -32 -44.5
s-11.667 -37.834 -11 -60.501v-325h-51v507zM99.001 -49.999h49c6.66699 -19.333 8 -40.666 4 -63.999s-11.667 -43.666 -23 -60.999h-37c9.33301 23.333 14.833 44.166 16.5 62.499s-1.5 39.166 -9.5 62.499z" />
    <glyph glyph-name="uni0158" unicode="&#x158;" horiz-adv-x="618" 
d="M331 297l232 -297h-68l-231 297h-95v-297h-53v700h210c32 0 61.667 -4.33301 89 -13s51 -21.5 71 -38.5s35.833 -38.167 47.5 -63.5s17.834 -54.666 18.501 -87.999c0 -32.667 -5.33301 -61.167 -16 -85.5s-25.834 -44.833 -45.501 -61.5s-43 -29.334 -70 -38.001
s-56.833 -13.667 -89.5 -15zM169 346h158c52 0 93.667 12.333 125 37s47 62.667 47 114c0 26 -4.33301 48.5 -13 67.5s-20.667 34.833 -36 47.5s-33.5 22 -54.5 28s-43.833 9 -68.5 9h-158v-303zM414 852l-80 -97h-76l-79 97h50l67 -73l70 73h48z" />
    <glyph glyph-name="uni0159" unicode="&#x159;" horiz-adv-x="405" 
d="M96 507l42.001 0.000976562l8 -66c17.333 28 38.5 47 63.5 57s50.167 15 75.5 15c19.333 0 37.5 -2 54.5 -6s31.833 -8.66699 44.5 -14l-21 -43c-24 11.333 -48 17 -72 17c-18.667 0 -36.834 -3.16699 -54.501 -9.5s-33.167 -15.5 -46.5 -27.5s-24 -26.833 -32 -44.5
s-11.667 -37.834 -11 -60.501v-325h-51v507zM351.001 684.001l-82 -97h-72l-81 97h50l67 -73l70 73h48z" />
    <glyph glyph-name="uni015A" unicode="&#x15a;" horiz-adv-x="562" 
d="M131 529c-1.33301 -24 2.83398 -44.1719 12.501 -60.5049s22.167 -29.833 37.5 -40.5s32.166 -19 50.499 -25s35.166 -11 50.499 -15c24.667 -6 49.5 -14.333 74.5 -25s47.167 -24.667 66.5 -42s34.833 -38.333 46.5 -63s16.5 -54.667 14.5 -90
c-2.66699 -28.667 -10.667 -54 -24 -76s-30 -40.5 -50 -55.5s-42.167 -26.333 -66.5 -34s-48.833 -11.5 -73.5 -11.5c-20.667 0 -41.167 2.83301 -61.5 8.5s-39.833 14.334 -58.5 26.001s-35.5 26 -50.5 43s-27.167 36.5 -36.5 58.5
c7.33301 3.33301 14.833 7.16602 22.5 11.499l20.5 11.5c15.333 -32 37.5 -57.833 66.5 -77.5s61.833 -29.5 98.5 -29.5c45.333 -0.666992 82.666 10.833 111.999 34.5s45.333 55.167 48 94.5c2 27.333 -2 50.333 -12 69s-23.333 34.334 -40 47.001s-35 22.834 -55 30.501
s-39 13.834 -57 18.501c-22 6 -44.333 13.5 -67 22.5s-43.167 20.833 -61.5 35.5s-33.166 33 -44.499 55s-16.666 49.333 -15.999 82c1.33301 30 7.66602 56.167 18.999 78.5s26.166 41 44.499 56s39 26.167 62 33.5s46.5 11 70.5 11c20 0 39.833 -2.66699 59.5 -8
s38 -13 55 -23s32.333 -22.667 46 -38s24.834 -33 33.501 -53l-42 -21c-14.667 28 -35.834 50 -63.501 66s-57.167 24 -88.5 24c-17.333 0 -34.333 -2.66699 -51 -8s-31.667 -13.166 -45 -23.499s-24.166 -23.666 -32.499 -39.999s-13.166 -35.5 -14.499 -57.5zM376 860.995
l-75 -105.001h-48c10 18.667 20 36.334 30 53.001l30 52h63z" />
    <glyph glyph-name="uni015B" unicode="&#x15b;" horiz-adv-x="443" 
d="M229 279c20 -4 39.3301 -9.66992 57.9971 -17.0029s35.334 -16.666 50.001 -27.999s26.5 -25 35.5 -41s13.5 -34.667 13.5 -56c0 -24.667 -5.5 -46.167 -16.5 -64.5s-24.833 -33.5 -41.5 -45.5s-35 -21 -55 -27s-39.333 -9 -58 -9c-30 0 -58.667 6.16699 -86 18.5
s-50.333 30.5 -69 54.5l16.5 16.5c5.66699 5.66699 10.5 10.834 14.5 15.501c13.333 -18.667 31.5 -33 54.5 -43s46.167 -15 69.5 -15c14.667 0 29 2 43 6s26.5 10.167 37.5 18.5s20 18.833 27 31.5s11.167 27.334 12.5 44.001c0 14 -4 26.5 -12 37.5s-17.667 20.333 -29 28
s-23.833 14 -37.5 19s-26.167 8.5 -37.5 10.5c-19.333 3.33301 -37.833 8.5 -55.5 15.5s-33.5 16 -47.5 27s-25.167 24.333 -33.5 40s-12.5 33.834 -12.5 54.501c0 24 4.83301 45 14.5 63s22.167 33 37.5 45s33.166 21.167 53.499 27.5s40.833 9.5 61.5 9.5
c24 0 47.667 -4 71 -12s43.666 -20.333 60.999 -37l-31 -34c-12 11.333 -26.667 20 -44 26s-35 9 -53 9c-15.333 0 -30.166 -2 -44.499 -6s-27.166 -10 -38.499 -18s-20.333 -18.167 -27 -30.5s-10 -26.5 -10 -42.5c0 -14.667 3.66699 -27.334 11 -38.001
s16.333 -19.5 27 -26.5s22.334 -12.667 35.001 -17s24.334 -7.5 35.001 -9.5zM320.997 686.997l-73 -101h-44l28.5 51l28.5 50h60z" />
    <glyph glyph-name="uni015C" unicode="&#x15c;" horiz-adv-x="562" 
d="M131 529c-1.33301 -24 2.83398 -44.1719 12.501 -60.5049s22.167 -29.833 37.5 -40.5s32.166 -19 50.499 -25s35.166 -11 50.499 -15c24.667 -6 49.5 -14.333 74.5 -25s47.167 -24.667 66.5 -42s34.833 -38.333 46.5 -63s16.5 -54.667 14.5 -90
c-2.66699 -28.667 -10.667 -54 -24 -76s-30 -40.5 -50 -55.5s-42.167 -26.333 -66.5 -34s-48.833 -11.5 -73.5 -11.5c-20.667 0 -41.167 2.83301 -61.5 8.5s-39.833 14.334 -58.5 26.001s-35.5 26 -50.5 43s-27.167 36.5 -36.5 58.5
c7.33301 3.33301 14.833 7.16602 22.5 11.499l20.5 11.5c15.333 -32 37.5 -57.833 66.5 -77.5s61.833 -29.5 98.5 -29.5c45.333 -0.666992 82.666 10.833 111.999 34.5s45.333 55.167 48 94.5c2 27.333 -2 50.333 -12 69s-23.333 34.334 -40 47.001s-35 22.834 -55 30.501
s-39 13.834 -57 18.501c-22 6 -44.333 13.5 -67 22.5s-43.167 20.833 -61.5 35.5s-33.166 33 -44.499 55s-16.666 49.333 -15.999 82c1.33301 30 7.66602 56.167 18.999 78.5s26.166 41 44.499 56s39 26.167 62 33.5s46.5 11 70.5 11c20 0 39.833 -2.66699 59.5 -8
s38 -13 55 -23s32.333 -22.667 46 -38s24.834 -33 33.501 -53l-42 -21c-14.667 28 -35.834 50 -63.501 66s-57.167 24 -88.5 24c-17.333 0 -34.333 -2.66699 -51 -8s-31.667 -13.166 -45 -23.499s-24.166 -23.666 -32.499 -39.999s-13.166 -35.5 -14.499 -57.5zM158 753.995
l80 97h76l79 -97h-50l-67 73l-70 -73h-48z" />
    <glyph glyph-name="uni015D" unicode="&#x15d;" horiz-adv-x="443" 
d="M229 279c20 -4 39.3301 -9.66992 57.9971 -17.0029s35.334 -16.666 50.001 -27.999s26.5 -25 35.5 -41s13.5 -34.667 13.5 -56c0 -24.667 -5.5 -46.167 -16.5 -64.5s-24.833 -33.5 -41.5 -45.5s-35 -21 -55 -27s-39.333 -9 -58 -9c-30 0 -58.667 6.16699 -86 18.5
s-50.333 30.5 -69 54.5l16.5 16.5c5.66699 5.66699 10.5 10.834 14.5 15.501c13.333 -18.667 31.5 -33 54.5 -43s46.167 -15 69.5 -15c14.667 0 29 2 43 6s26.5 10.167 37.5 18.5s20 18.833 27 31.5s11.167 27.334 12.5 44.001c0 14 -4 26.5 -12 37.5s-17.667 20.333 -29 28
s-23.833 14 -37.5 19s-26.167 8.5 -37.5 10.5c-19.333 3.33301 -37.833 8.5 -55.5 15.5s-33.5 16 -47.5 27s-25.167 24.333 -33.5 40s-12.5 33.834 -12.5 54.501c0 24 4.83301 45 14.5 63s22.167 33 37.5 45s33.166 21.167 53.499 27.5s40.833 9.5 61.5 9.5
c24 0 47.667 -4 71 -12s43.666 -20.333 60.999 -37l-31 -34c-12 11.333 -26.667 20 -44 26s-35 9 -53 9c-15.333 0 -30.166 -2 -44.499 -6s-27.166 -10 -38.499 -18s-20.333 -18.167 -27 -30.5s-10 -26.5 -10 -42.5c0 -14.667 3.66699 -27.334 11 -38.001
s16.333 -19.5 27 -26.5s22.334 -12.667 35.001 -17s24.334 -7.5 35.001 -9.5zM115.997 581.997l80 97h76l79 -97h-50l-67 76l-70 -76h-48z" />
    <glyph glyph-name="uni015E" unicode="&#x15e;" horiz-adv-x="562" 
d="M298 -7l-19.002 -35.0029c32 -1.33301 54.667 -9.66602 68 -24.999s19 -31.833 17 -49.5s-11.167 -33.667 -27.5 -48s-38.5 -21.5 -66.5 -21.5c-10 0 -21.167 1.5 -33.5 4.5s-24.5 7.16699 -36.5 12.5l7 34c7.33301 -4.66699 16 -8.16699 26 -10.5s20.333 -3.5 31 -3.5
c14.667 0 27.667 2.83301 39 8.5s17 15.167 17 28.5c0 21.333 -19.333 32.666 -58 33.999c-4 0 -8 -0.166992 -12 -0.5s-8.33301 -1.16602 -13 -2.49902l-10 9l33 64c-20 0.666992 -39.667 4 -59 10s-37.833 14.667 -55.5 26s-33.5 25.333 -47.5 42s-25.667 35.667 -35 57
l43 23c15.333 -32 37.5 -57.833 66.5 -77.5s61.833 -29.5 98.5 -29.5c45.333 -0.666992 82.666 10.833 111.999 34.5s45.333 55.167 48 94.5c2 27.333 -2 50.333 -12 69s-23.333 34.334 -40 47.001s-35 22.834 -55 30.501s-39 13.834 -57 18.501
c-22 6 -44.333 13.5 -67 22.5s-43.167 20.833 -61.5 35.5s-33.166 33 -44.499 55s-16.666 49.333 -15.999 82c1.33301 30 7.66602 56.167 18.999 78.5s26.166 41 44.499 56s39 26.167 62 33.5s46.5 11 70.5 11c20 0 39.833 -2.66699 59.5 -8s38 -13 55 -23
s32.333 -22.667 46 -38s24.834 -33 33.501 -53l-42 -21c-14.667 28 -35.834 50 -63.501 66s-57.167 24 -88.5 24c-17.333 0 -34.333 -2.66699 -51 -8s-31.667 -13.166 -45 -23.499s-24.166 -23.666 -32.499 -39.999s-13.166 -35.5 -14.499 -57.5
c-1.33301 -24 2.83398 -44.167 12.501 -60.5s22.167 -29.833 37.5 -40.5s32.166 -19 50.499 -25s35.166 -11 50.499 -15c24.667 -6 49.5 -14.333 74.5 -25s47.167 -24.667 66.5 -42s34.833 -38.333 46.5 -63s16.5 -54.667 14.5 -90c-2 -26 -8.66699 -49.333 -20 -70
s-25.666 -38.334 -42.999 -53.001s-36.666 -26.334 -57.999 -35.001s-43 -14.334 -65 -17.001z" />
    <glyph glyph-name="uni015F" unicode="&#x15f;" horiz-adv-x="442" 
d="M229 279c20 -4 39.3301 -9.66992 57.9971 -17.0029s35.334 -16.666 50.001 -27.999s26.5 -25 35.5 -41s13.5 -34.667 13.5 -56c0 -22.667 -4.5 -42.667 -13.5 -60s-20.667 -31.833 -35 -43.5s-30.5 -20.834 -48.5 -27.501s-35.667 -11 -53 -13l-13 -26
c29.333 -1.33301 50.166 -8.33301 62.499 -21s17.5 -26.5 15.5 -41.5s-10.5 -28.5 -25.5 -40.5s-35.5 -18 -61.5 -18c-9.33301 0 -19.5 1.5 -30.5 4.5s-22.167 6.83301 -33.5 11.5l6 29c6.66699 -4 14.5 -7 23.5 -9s18.167 -3 27.5 -3c13.333 0 25.5 2.33301 36.5 7
s16.5 12 16.5 22c0 18 -17.667 27.667 -53 29c-3.33301 0 -7 -0.166992 -11 -0.5s-8 -1.16602 -12 -2.49902l-10 8l27 50c-28 1.33301 -54.167 8 -78.5 20s-45.166 29.333 -62.499 52l16.5 16.5c5.66699 5.66699 10.5 10.834 14.5 15.501c13.333 -18.667 31.5 -33 54.5 -43
s46.167 -15 69.5 -15c14.667 0 29 2 43 6s26.5 10.167 37.5 18.5s20 18.833 27 31.5s11.167 27.334 12.5 44.001c0 14 -4 26.5 -12 37.5s-17.667 20.333 -29 28s-23.833 14 -37.5 19s-26.167 8.5 -37.5 10.5c-19.333 3.33301 -37.833 8.5 -55.5 15.5s-33.5 16 -47.5 27
s-25.167 24.333 -33.5 40s-12.5 33.834 -12.5 54.501c0 24 4.83301 45 14.5 63s22.167 33 37.5 45s33.166 21.167 53.499 27.5s40.833 9.5 61.5 9.5c24 0 47.667 -4 71 -12s43.666 -20.333 60.999 -37l-31 -34c-12 11.333 -26.667 20 -44 26s-35 9 -53 9
c-15.333 0 -30.166 -2 -44.499 -6s-27.166 -10 -38.499 -18s-20.333 -18.167 -27 -30.5s-10 -26.5 -10 -42.5c0 -14.667 3.66699 -27.334 11 -38.001s16.333 -19.5 27 -26.5s22.334 -12.667 35.001 -17s24.334 -7.5 35.001 -9.5z" />
    <glyph glyph-name="uni0160" unicode="&#x160;" 
d="M131 529c-1.33301 -24 2.83398 -44.1719 12.501 -60.5049s22.167 -29.833 37.5 -40.5s32.166 -19 50.499 -25s35.166 -11 50.499 -15c24.667 -6 49.5 -14.333 74.5 -25s47.167 -24.667 66.5 -42s34.833 -38.333 46.5 -63s16.5 -54.667 14.5 -90
c-2.66699 -28.667 -10.667 -54 -24 -76s-30 -40.5 -50 -55.5s-42.167 -26.333 -66.5 -34s-48.833 -11.5 -73.5 -11.5c-20.667 0 -41.167 2.83301 -61.5 8.5s-39.833 14.334 -58.5 26.001s-35.5 26 -50.5 43s-27.167 36.5 -36.5 58.5
c7.33301 3.33301 14.833 7.16602 22.5 11.499l20.5 11.5c15.333 -32 37.5 -57.833 66.5 -77.5s61.833 -29.5 98.5 -29.5c45.333 -0.666992 82.666 10.833 111.999 34.5s45.333 55.167 48 94.5c2 27.333 -2 50.333 -12 69s-23.333 34.334 -40 47.001s-35 22.834 -55 30.501
s-39 13.834 -57 18.501c-22 6 -44.333 13.5 -67 22.5s-43.167 20.833 -61.5 35.5s-33.166 33 -44.499 55s-16.666 49.333 -15.999 82c1.33301 30 7.66602 56.167 18.999 78.5s26.166 41 44.499 56s39 26.167 62 33.5s46.5 11 70.5 11c20 0 39.833 -2.66699 59.5 -8
s38 -13 55 -23s32.333 -22.667 46 -38s24.834 -33 33.501 -53l-42 -21c-14.667 28 -35.834 50 -63.501 66s-57.167 24 -88.5 24c-17.333 0 -34.333 -2.66699 -51 -8s-31.667 -13.166 -45 -23.499s-24.166 -23.666 -32.499 -39.999s-13.166 -35.5 -14.499 -57.5zM399 883.995
l-84 -100h-69l-82 100h48l69 -78l70 78h48z" />
    <glyph glyph-name="uni0161" unicode="&#x161;" horiz-adv-x="443" 
d="M229 279c20 -4 39.3301 -9.66992 57.9971 -17.0029s35.334 -16.666 50.001 -27.999s26.5 -25 35.5 -41s13.5 -34.667 13.5 -56c0 -24.667 -5.5 -46.167 -16.5 -64.5s-24.833 -33.5 -41.5 -45.5s-35 -21 -55 -27s-39.333 -9 -58 -9c-30 0 -58.667 6.16699 -86 18.5
s-50.333 30.5 -69 54.5l16.5 16.5c5.66699 5.66699 10.5 10.834 14.5 15.501c13.333 -18.667 31.5 -33 54.5 -43s46.167 -15 69.5 -15c14.667 0 29 2 43 6s26.5 10.167 37.5 18.5s20 18.833 27 31.5s11.167 27.334 12.5 44.001c0 14 -4 26.5 -12 37.5s-17.667 20.333 -29 28
s-23.833 14 -37.5 19s-26.167 8.5 -37.5 10.5c-19.333 3.33301 -37.833 8.5 -55.5 15.5s-33.5 16 -47.5 27s-25.167 24.333 -33.5 40s-12.5 33.834 -12.5 54.501c0 24 4.83301 45 14.5 63s22.167 33 37.5 45s33.166 21.167 53.499 27.5s40.833 9.5 61.5 9.5
c24 0 47.667 -4 71 -12s43.666 -20.333 60.999 -37l-31 -34c-12 11.333 -26.667 20 -44 26s-35 9 -53 9c-15.333 0 -30.166 -2 -44.499 -6s-27.166 -10 -38.499 -18s-20.333 -18.167 -27 -30.5s-10 -26.5 -10 -42.5c0 -14.667 3.66699 -27.334 11 -38.001
s16.333 -19.5 27 -26.5s22.334 -12.667 35.001 -17s24.334 -7.5 35.001 -9.5zM350.997 710.997l-84 -100h-69l-82 100h48l69 -78l70 78h48z" />
    <glyph glyph-name="uni0162" unicode="&#x162;" horiz-adv-x="455" 
d="M253 0l-1.00098 -28.001c29.333 -2.66699 50.333 -11.667 63 -27s17.667 -31.666 15 -48.999s-12.167 -33 -28.5 -47s-38.5 -21 -66.5 -21c-10 0 -21.167 1.5 -33.5 4.5s-24.5 7.16699 -36.5 12.5l7 34c7.33301 -4.66699 16 -8.16699 26 -10.5s20.333 -3.5 31 -3.5
c14.667 0 27.667 2.83301 39 8.5s17 15.167 17 28.5c0 10.667 -5 19.167 -15 25.5s-22 9.5 -36 9.5c-7.33301 0 -14.666 -1 -21.999 -3l-8 8l8 58h-11v648h-176v52h405v-52h-176v-648h-1z" />
    <glyph glyph-name="uni0163" unicode="&#x163;" horiz-adv-x="311" 
d="M190 7l-3 -35.001c29.333 -2.66699 50.5 -11.5 63.5 -26.5s18.667 -31 17 -48s-10.334 -32.333 -26.001 -46s-37.5 -20.5 -65.5 -20.5c-20.667 0 -43.334 5.66699 -68.001 17l7 34c7.33301 -5.33301 16.333 -9.33301 27 -12s21.334 -4 32.001 -4
c13.333 0 25.166 2.83301 35.499 8.5s15.5 14.834 15.5 27.501c0 10.667 -5 19.167 -15 25.5s-21.667 9.5 -35 9.5c-7.33301 0 -14.666 -1 -21.999 -3l-8 8l12 81c-17.333 11.333 -30.666 26.833 -39.999 46.5s-14 43.5 -14 71.5v323h-52v43h52v193h52v-193h103v-43h-103
v-323c0 -32.667 9.5 -56.667 28.5 -72s43.833 -23 74.5 -23v-47c-12 0 -23.5 0.5 -34.5 1.5s-22.167 3.16699 -33.5 6.5z" />
    <glyph glyph-name="uni0164" unicode="&#x164;" horiz-adv-x="455" 
d="M25 700v-52h176v-648h53v648h176v52h-405zM343 850h-48l-70 -74l-67 74h-50l79 -97h76z" />
    <glyph glyph-name="uni0165" unicode="&#x165;" horiz-adv-x="311" 
d="M258 46v-47c-46.667 0 -84.167 11.167 -112.5 33.5s-42.5 58.5 -42.5 108.5v323h-52v43h52v193h52v-193h103v-43h-103v-323c0 -32.667 9.5 -56.667 28.5 -72s43.833 -23 74.5 -23zM256 699l47 -0.000976562c5.33301 -22.667 6.5 -43.667 3.5 -63
s-9.83301 -39.666 -20.5 -60.999h-38c8.66699 23.333 14 44 16 62s-0.666992 38.667 -8 62z" />
    <glyph glyph-name="uni0166" unicode="&#x166;" horiz-adv-x="454" 
d="M73 325h128v-325h53v325h131v43h-131v280h176v52h-405v-52h176v-280h-128v-43z" />
    <glyph glyph-name="uni0167" unicode="&#x167;" horiz-adv-x="311" 
d="M258 46v-47c-46.667 0 -84.167 11.167 -112.5 33.5s-42.5 58.5 -42.5 108.5v119h-47v36h47v168h-52v43h52v193h52v-193h103v-43h-103v-168h100v-36h-100v-119c0 -32.667 9.5 -56.667 28.5 -72s43.833 -23 74.5 -23z" />
    <glyph glyph-name="uni0168" unicode="&#x168;" horiz-adv-x="658" 
d="M106 700h54.001v-502c0 -25.333 4.83301 -47.666 14.5 -66.999s22.5 -35.5 38.5 -48.5s34.167 -22.833 54.5 -29.5s40.833 -10 61.5 -10s41.167 3.33301 61.5 10s38.666 16.5 54.999 29.5s29.5 29.167 39.5 48.5s15 41.666 15 66.999v502h53v-502
c0 -34.667 -6.33301 -64.834 -19 -90.501s-29.5 -47.167 -50.5 -64.5s-45 -30.333 -72 -39s-54.5 -13 -82.5 -13s-55.333 4.33301 -82 13s-50.5 21.667 -71.5 39s-37.833 38.833 -50.5 64.5s-19 55.834 -19 90.501v502zM441.001 847l25.998 -16
c-10 -18.667 -22.667 -33 -38 -43s-31.666 -15 -48.999 -15c-18 0 -35.333 5.33301 -52 16c-19.333 13.333 -37.666 20 -54.999 20c-21.333 0 -39.666 -10 -54.999 -30l-28 17c23.333 37.333 51.666 56 84.999 56c22 0 44.333 -8 67 -24c12.667 -8.66699 26.667 -13 42 -13
c11.333 0 22 2.66699 32 8s18.333 13.333 25 24z" />
    <glyph glyph-name="uni0169" unicode="&#x169;" horiz-adv-x="618" 
d="M471 97v410.001h52v-507h-45l-7 45c-18 -17.333 -39.833 -30.666 -65.5 -39.999s-51.167 -14 -76.5 -14c-32.667 0.666992 -63.5 5.83398 -92.5 15.501s-54.5 23.667 -76.5 42s-39.333 41.166 -52 68.499s-19 59 -19 95v295h52v-295c0 -27.333 5.33301 -51.833 16 -73.5
s25 -39.834 43 -54.501s38.667 -25.834 62 -33.501s48 -11.5 74 -11.5c28 0 53.5 4.83301 76.5 14.5s42.5 24.167 58.5 43.5zM423 682.001l25.998 -16c-10 -18.667 -22.667 -33 -38 -43s-31.666 -15 -48.999 -15c-18 0 -35.333 5.33301 -52 16
c-19.333 13.333 -37.666 20 -54.999 20c-21.333 0 -39.666 -10 -54.999 -30l-28 17c23.333 37.333 51.666 56 84.999 56c22 0 44.333 -8 67 -24c12.667 -8.66699 26.667 -13 42 -13c11.333 0 22 2.66699 32 8s18.333 13.333 25 24z" />
    <glyph glyph-name="uni016A" unicode="&#x16a;" horiz-adv-x="658" 
d="M106 700h54.001v-502c0 -25.333 4.83301 -47.666 14.5 -66.999s22.5 -35.5 38.5 -48.5s34.167 -22.833 54.5 -29.5s40.833 -10 61.5 -10s41.167 3.33301 61.5 10s38.666 16.5 54.999 29.5s29.5 29.167 39.5 48.5s15 41.666 15 66.999v502h53v-502
c0 -34.667 -6.33301 -64.834 -19 -90.501s-29.5 -47.167 -50.5 -64.5s-45 -30.333 -72 -39s-54.5 -13 -82.5 -13s-55.333 4.33301 -82 13s-50.5 21.667 -71.5 39s-37.833 38.833 -50.5 64.5s-19 55.834 -19 90.501v502zM217.001 788v45h229v-45h-229z" />
    <glyph glyph-name="uni016B" unicode="&#x16b;" horiz-adv-x="618" 
d="M471 97v410.001h52v-507h-45l-7 45c-18 -17.333 -39.833 -30.666 -65.5 -39.999s-51.167 -14 -76.5 -14c-32.667 0.666992 -63.5 5.83398 -92.5 15.501s-54.5 23.667 -76.5 42s-39.333 41.166 -52 68.499s-19 59 -19 95v295h52v-295c0 -27.333 5.33301 -51.833 16 -73.5
s25 -39.834 43 -54.501s38.667 -25.834 62 -33.501s48 -11.5 74 -11.5c28 0 53.5 4.83301 76.5 14.5s42.5 24.167 58.5 43.5zM199 629.001v45h225v-45h-225z" />
    <glyph glyph-name="uni016C" unicode="&#x16c;" horiz-adv-x="658" 
d="M106 700h54.001v-502c0 -25.333 4.83301 -47.666 14.5 -66.999s22.5 -35.5 38.5 -48.5s34.167 -22.833 54.5 -29.5s40.833 -10 61.5 -10s41.167 3.33301 61.5 10s38.666 16.5 54.999 29.5s29.5 29.167 39.5 48.5s15 41.666 15 66.999v502h53v-502
c0 -34.667 -6.33301 -64.834 -19 -90.501s-29.5 -47.167 -50.5 -64.5s-45 -30.333 -72 -39s-54.5 -13 -82.5 -13s-55.333 4.33301 -82 13s-50.5 21.667 -71.5 39s-37.833 38.833 -50.5 64.5s-19 55.834 -19 90.501v502zM331.001 754c-36 0 -63.665 8.66699 -82.998 26
s-31.333 41 -36 71h42c3.33301 -20 12.666 -35 27.999 -45s31.666 -15 48.999 -15c18 0 34.667 5 50 15s24.666 25 27.999 45h40c-0.666992 -16.667 -4.66699 -31.167 -12 -43.5s-16.666 -22.5 -27.999 -30.5s-23.833 -13.833 -37.5 -17.5s-27.167 -5.5 -40.5 -5.5z" />
    <glyph glyph-name="uni016D" unicode="&#x16d;" horiz-adv-x="618" 
d="M471 97v410.001h52v-507h-45l-7 45c-18 -17.333 -39.833 -30.666 -65.5 -39.999s-51.167 -14 -76.5 -14c-32.667 0.666992 -63.5 5.83398 -92.5 15.501s-54.5 23.667 -76.5 42s-39.333 41.166 -52 68.499s-19 59 -19 95v295h52v-295c0 -27.333 5.33301 -51.833 16 -73.5
s25 -39.834 43 -54.501s38.667 -25.834 62 -33.501s48 -11.5 74 -11.5c28 0 53.5 4.83301 76.5 14.5s42.5 24.167 58.5 43.5zM193 683.001l39 -0.000976562c6 -20 16.667 -35.167 32 -45.5s31.666 -15.5 48.999 -15.5s33.333 5.16699 48 15.5s24.334 25.5 29.001 45.5h40
c-0.666992 -16 -4.33398 -30.167 -11.001 -42.5s-15.167 -22.666 -25.5 -30.999s-22.166 -14.5 -35.499 -18.5s-27 -6 -41 -6c-33.333 0 -61 7.83301 -83 23.5s-35.667 40.5 -41 74.5z" />
    <glyph glyph-name="uni016E" unicode="&#x16e;" horiz-adv-x="658" 
d="M106 700h54.001v-502c0 -25.333 4.83301 -47.666 14.5 -66.999s22.5 -35.5 38.5 -48.5s34.167 -22.833 54.5 -29.5s40.833 -10 61.5 -10s41.167 3.33301 61.5 10s38.666 16.5 54.999 29.5s29.5 29.167 39.5 48.5s15 41.666 15 66.999v502h53v-502
c0 -34.667 -6.33301 -64.834 -19 -90.501s-29.5 -47.167 -50.5 -64.5s-45 -30.333 -72 -39s-54.5 -13 -82.5 -13s-55.333 4.33301 -82 13s-50.5 21.667 -71.5 39s-37.833 38.833 -50.5 64.5s-19 55.834 -19 90.501v502zM333.001 875
c23.333 0.666992 40.668 -5.66602 52.001 -18.999s17 -28 17 -44s-5.83301 -30.833 -17.5 -44.5s-28.834 -20.5 -51.501 -20.5c-23.333 0 -40.833 6.83301 -52.5 20.5s-17.5 28.5 -17.5 44.5s5.83301 30.667 17.5 44s29.167 19.666 52.5 18.999zM333.003 848
c-13.333 0 -23.333 -3.83301 -30 -11.5s-10 -16.167 -10 -25.5s3.33301 -18 10 -26s16.667 -12 30 -12s23.333 4 30 12s10 16.667 10 26s-3.33301 17.833 -10 25.5s-16.667 11.5 -30 11.5z" />
    <glyph glyph-name="uni016F" unicode="&#x16f;" horiz-adv-x="618" 
d="M471 97v410.001h52v-507h-45l-7 45c-18 -17.333 -39.833 -30.666 -65.5 -39.999s-51.167 -14 -76.5 -14c-32.667 0.666992 -63.5 5.83398 -92.5 15.501s-54.5 23.667 -76.5 42s-39.333 41.166 -52 68.499s-19 59 -19 95v295h52v-295c0 -27.333 5.33301 -51.833 16 -73.5
s25 -39.834 43 -54.501s38.667 -25.834 62 -33.501s48 -11.5 74 -11.5c28 0 53.5 4.83301 76.5 14.5s42.5 24.167 58.5 43.5zM307 693.001c23.333 0.666992 40.668 -5.5 52.001 -18.5s17 -27.333 17 -43s-5.83301 -30.167 -17.5 -43.5s-28.834 -20 -51.501 -20
c-23.333 0 -40.833 6.66699 -52.5 20s-17.5 27.833 -17.5 43.5s5.83301 30 17.5 43s29.167 19.167 52.5 18.5zM307.002 666.001c-12.667 0 -22.334 -3.66699 -29.001 -11s-10 -15.5 -10 -24.5s3.33301 -17.167 10 -24.5s16.334 -11 29.001 -11s22.167 3.66699 28.5 11
s9.5 15.5 9.5 24.5s-3 17.167 -9 24.5s-15.667 11 -29 11z" />
    <glyph glyph-name="uni0170" unicode="&#x170;" horiz-adv-x="658" 
d="M106 700h54.001v-502c0 -25.333 4.83301 -47.666 14.5 -66.999s22.5 -35.5 38.5 -48.5s34.167 -22.833 54.5 -29.5s40.833 -10 61.5 -10s41.167 3.33301 61.5 10s38.666 16.5 54.999 29.5s29.5 29.167 39.5 48.5s15 41.666 15 66.999v502h53v-502
c0 -34.667 -6.33301 -64.834 -19 -90.501s-29.5 -47.167 -50.5 -64.5s-45 -30.333 -72 -39s-54.5 -13 -82.5 -13s-55.333 4.33301 -82 13s-50.5 21.667 -71.5 39s-37.833 38.833 -50.5 64.5s-19 55.834 -19 90.501v502zM236.001 758l49 87h51l-61 -87h-39zM368.001 758
l54 87h55l-68 -87h-41z" />
    <glyph glyph-name="uni0171" unicode="&#x171;" horiz-adv-x="620" 
d="M471 97v410.001h52v-507h-45l-7 45c-18 -17.333 -39.833 -30.666 -65.5 -39.999s-51.167 -14 -76.5 -14c-32.667 0.666992 -63.5 5.83398 -92.5 15.501s-54.5 23.667 -76.5 42s-39.333 41.166 -52 68.499s-19 59 -19 95v295h52v-295c0 -27.333 5.33301 -51.833 16 -73.5
s25 -39.834 43 -54.501s38.667 -25.834 62 -33.501s48 -11.5 74 -11.5c28 0 53.5 4.83301 76.5 14.5s42.5 24.167 58.5 43.5zM208 595.001l53 95h52l-66 -95h-39zM346 595.001l58 95h55l-72 -95h-41z" />
    <glyph glyph-name="uni0172" unicode="&#x172;" horiz-adv-x="658" 
d="M106 700l53.999 -0.00292969v-502c0 -25.333 4.83301 -47.666 14.5 -66.999s22.5 -35.5 38.5 -48.5s34.167 -22.833 54.5 -29.5s40.833 -10 61.5 -10s41.167 3.33301 61.5 10s38.666 16.5 54.999 29.5s29.5 29.167 39.5 48.5s15 41.666 15 66.999v502h53v-502
c0 -41.333 -8.83301 -76.166 -26.5 -104.499s-40.5 -51.166 -68.5 -68.499l2 1c-22.667 -12 -39.167 -25.667 -49.5 -41s-15.5 -28.666 -15.5 -39.999c0 -9.33301 2.5 -17.833 7.5 -25.5s11 -14.167 18 -19.5s14.333 -9.83301 22 -13.5s13.834 -6.5 18.501 -8.5l-18 -45
c-18 5.33301 -34 12.333 -48 21c-13.333 8 -24.666 17.667 -33.999 29s-14 25.666 -14 42.999c0 10 2 20.333 6 31s12.667 23.667 26 39c-8.66699 -1.33301 -17 -2.5 -25 -3.5s-16.333 -1.5 -25 -1.5c-28 0 -55.333 4.33301 -82 13s-50.5 21.667 -71.5 39
s-37.833 38.833 -50.5 64.5s-19 55.834 -19 90.501v502z" />
    <glyph glyph-name="uni0173" unicode="&#x173;" horiz-adv-x="618" 
d="M471 97l-0.000976562 410.002h52v-507c-20 -7.33301 -35.333 -17.666 -46 -30.999s-16.167 -26.833 -16.5 -40.5s4.5 -25.834 14.5 -36.501s25.667 -17 47 -19l-14 -39c-24 2 -44.167 9.33301 -60.5 22s-26.666 27.667 -30.999 45s-2 35.333 7 54s26.833 35 53.5 49
l-6 43c-18 -17.333 -39.833 -31 -65.5 -41s-51.167 -15 -76.5 -15c-32.667 0.666992 -63.5 5.83398 -92.5 15.501s-54.5 23.667 -76.5 42s-39.333 41.166 -52 68.499s-19 59 -19 95v295h52v-295c0 -27.333 5.33301 -51.833 16 -73.5s25 -39.834 43 -54.501
s38.667 -25.834 62 -33.501s48 -11.5 74 -11.5c28 0 53.5 4.83301 76.5 14.5s42.5 24.167 58.5 43.5z" />
    <glyph glyph-name="uni0174" unicode="&#x174;" horiz-adv-x="962" 
d="M511 604l170 -574l174 670h57l-95.5 -353l-95.5 -352h-80l-157 526l-158 -525h-80l-96 352l-96 352h55l178 -670l41.5 138l43.5 148.5l44 149l42 138.5h53zM365 754l80 97h76l79 -97h-50l-67 75l-70 -75h-48z" />
    <glyph glyph-name="uni0175" unicode="&#x175;" horiz-adv-x="724" 
d="M325 504l-105 -460h-4l-125 463h-54l145 -508h74l103 453h3l104 -453h73l148 508h-56l-125 -463h-4l-107 460h-70zM242 592h48l70 78l67 -78h50l-79 97h-76z" />
    <glyph glyph-name="uni0176" unicode="&#x176;" horiz-adv-x="590" 
d="M557 700h-59l-205 -370l-204 370h-59l236 -419v-281h53v280zM181 754h48l70 75l67 -75h50l-79 97h-76z" />
    <glyph glyph-name="uni0177" unicode="&#x177;" horiz-adv-x="509" 
d="M103 -181l0.00195312 43c25.333 0 45.5 3.66699 60.5 11s27.167 23.333 36.5 48l29 77l-207 509h56l179 -455l171 455h56l-235 -603c-12.667 -34 -30.334 -56.667 -53.001 -68s-48.334 -17 -77.001 -17h-16zM129.002 592l80 97h76l79 -97h-50l-67 75l-70 -75h-48z" />
    <glyph glyph-name="uni0178" unicode="&#x178;" horiz-adv-x="593" 
d="M560 700h-59l-205 -370l-204 370h-59l236 -419v-281h53v280zM241 754v62h-61v-62h61zM414 754v62h-61v-62h61z" />
    <glyph glyph-name="uni0179" unicode="&#x179;" horiz-adv-x="573" 
d="M67 0v53l363 601h-345v47h413v-28l-379 -625h385v-48h-437zM396 866l-70 -98h-48l27.5 49.5l27.5 48.5h63z" />
    <glyph glyph-name="uni017A" unicode="&#x17a;" horiz-adv-x="473" 
d="M411 45h-296l289 428v34h-338v-45h280l-290 -430v-32h355v45zM324 685h-63l-54 -95h44z" />
    <glyph glyph-name="uni017B" unicode="&#x17b;" horiz-adv-x="572" 
d="M67 0h437v48h-385l379 625v28h-413v-47h345l-363 -601v-53zM273 777h61v65h-61v-65z" />
    <glyph glyph-name="uni017C" unicode="&#x17c;" horiz-adv-x="473" 
d="M411 45h-296l289 428v34h-338v-45h280l-290 -430v-32h355v45zM215 607h61v63h-61v-63z" />
    <glyph glyph-name="uni017D" unicode="&#x17d;" horiz-adv-x="572" 
d="M67 0h437v48h-385l379 625v28h-413v-47h345l-363 -601v-53zM424 875h-48l-70 -78l-69 78h-48l82 -100h69z" />
    <glyph glyph-name="uni017E" unicode="&#x17e;" horiz-adv-x="464" 
d="M411 45h-296l289 428v34h-338v-45h280l-290 -430v-32h355v45zM367 716h-48l-70 -78l-69 78h-48l82 -100h69z" />
    <glyph glyph-name="uni017F" unicode="&#x17f;" horiz-adv-x="254" 
d="M266 703l-0.000976562 -45c-3.33301 0.666992 -8.33301 1 -15 1c-26 0 -47.5 -8.66699 -64.5 -26s-25.5 -41.333 -25.5 -72v-560h-51v453h-55v52h55v55c0 50 14.333 86.167 43 108.5s66.334 33.5 113.001 33.5z" />
    <glyph glyph-name="uni0192" unicode="&#x192;" horiz-adv-x="538" 
d="M505 704l-3.99609 -44c-26 0 -48 -5.33301 -66 -16s-32.833 -24.667 -44.5 -42s-20.667 -36.833 -27 -58.5s-10.833 -43.5 -13.5 -65.5h115c-1.33301 -10.667 -2.5 -18.334 -3.5 -23.001s-2.16699 -11.667 -3.5 -21h-114c-6.66699 -37.333 -14 -76.333 -22 -117
l-24.5 -123l-24 -123.5l-22.5 -117.5c-4.66699 -22.667 -11 -43.667 -19 -63s-19 -36.166 -33 -50.499s-31.5 -25.5 -52.5 -33.5s-46.5 -12 -76.5 -12c-12 0 -24 1 -36 3l8 41c5.33301 -0.666992 10.5 -1 15.5 -1h14.5c41.333 0 71.166 11.167 89.499 33.5
s31.5 53.166 39.5 92.499l91 471h-95c1.33301 10.667 2.66602 18.334 3.99902 23.001s2.66602 11.667 3.99902 21h95l8 40c4.66699 24.667 12.167 48.167 22.5 70.5s23.666 42 39.999 59s35.5 30.667 57.5 41s47 15.5 75 15.5h2z" />
    <glyph glyph-name="uni0218" unicode="&#x218;" horiz-adv-x="562" 
d="M131 529c-1.33301 -24 2.83398 -44.1719 12.501 -60.5049s22.167 -29.833 37.5 -40.5s32.166 -19 50.499 -25s35.166 -11 50.499 -15c24.667 -6 49.5 -14.333 74.5 -25s47.167 -24.667 66.5 -42s34.833 -38.333 46.5 -63s16.5 -54.667 14.5 -90
c-2.66699 -28.667 -10.667 -54 -24 -76s-30 -40.5 -50 -55.5s-42.167 -26.333 -66.5 -34s-48.833 -11.5 -73.5 -11.5c-20.667 0 -41.167 2.83301 -61.5 8.5s-39.833 14.334 -58.5 26.001s-35.5 26 -50.5 43s-27.167 36.5 -36.5 58.5
c7.33301 3.33301 14.833 7.16602 22.5 11.499l20.5 11.5c15.333 -32 37.5 -57.833 66.5 -77.5s61.833 -29.5 98.5 -29.5c45.333 -0.666992 82.666 10.833 111.999 34.5s45.333 55.167 48 94.5c2 27.333 -2 50.333 -12 69s-23.333 34.334 -40 47.001s-35 22.834 -55 30.501
s-39 13.834 -57 18.501c-22 6 -44.333 13.5 -67 22.5s-43.167 20.833 -61.5 35.5s-33.166 33 -44.499 55s-16.666 49.333 -15.999 82c1.33301 30 7.66602 56.167 18.999 78.5s26.166 41 44.499 56s39 26.167 62 33.5s46.5 11 70.5 11c20 0 39.833 -2.66699 59.5 -8
s38 -13 55 -23s32.333 -22.667 46 -38s24.834 -33 33.501 -53l-42 -21c-14.667 28 -35.834 50 -63.501 66s-57.167 24 -88.5 24c-17.333 0 -34.333 -2.66699 -51 -8s-31.667 -13.166 -45 -23.499s-24.166 -23.666 -32.499 -39.999s-13.166 -35.5 -14.499 -57.5z
M250 -63.0049l52.999 0.000976562c3.33301 -15.333 5 -28.333 5 -39c0 -14 -1.66699 -27.333 -5 -40s-8.66602 -26.334 -15.999 -41.001h-43c9.33301 24 14 47.667 14 71c0 7.33301 -0.5 15 -1.5 23s-3.16699 16.667 -6.5 26z" />
    <glyph glyph-name="uni0219" unicode="&#x219;" horiz-adv-x="443" 
d="M229 279c20 -4 39.3301 -9.66992 57.9971 -17.0029s35.334 -16.666 50.001 -27.999s26.5 -25 35.5 -41s13.5 -34.667 13.5 -56c0 -24.667 -5.5 -46.167 -16.5 -64.5s-24.833 -33.5 -41.5 -45.5s-35 -21 -55 -27s-39.333 -9 -58 -9c-30 0 -58.667 6.16699 -86 18.5
s-50.333 30.5 -69 54.5l16.5 16.5c5.66699 5.66699 10.5 10.834 14.5 15.501c13.333 -18.667 31.5 -33 54.5 -43s46.167 -15 69.5 -15c14.667 0 29 2 43 6s26.5 10.167 37.5 18.5s20 18.833 27 31.5s11.167 27.334 12.5 44.001c0 14 -4 26.5 -12 37.5s-17.667 20.333 -29 28
s-23.833 14 -37.5 19s-26.167 8.5 -37.5 10.5c-19.333 3.33301 -37.833 8.5 -55.5 15.5s-33.5 16 -47.5 27s-25.167 24.333 -33.5 40s-12.5 33.834 -12.5 54.501c0 24 4.83301 45 14.5 63s22.167 33 37.5 45s33.166 21.167 53.499 27.5s40.833 9.5 61.5 9.5
c24 0 47.667 -4 71 -12s43.666 -20.333 60.999 -37l-31 -34c-12 11.333 -26.667 20 -44 26s-35 9 -53 9c-15.333 0 -30.166 -2 -44.499 -6s-27.166 -10 -38.499 -18s-20.333 -18.167 -27 -30.5s-10 -26.5 -10 -42.5c0 -14.667 3.66699 -27.334 11 -38.001
s16.333 -19.5 27 -26.5s22.334 -12.667 35.001 -17s24.334 -7.5 35.001 -9.5zM197.997 -64.0029l51.999 0.00292969c4 -19.333 4 -38.833 0 -58.5s-10.333 -38.834 -19 -57.501h-39c8.66699 21.333 13.334 40.666 14.001 57.999s-2 36.666 -8 57.999z" />
    <glyph glyph-name="uni021A" unicode="&#x21a;" horiz-adv-x="455" 
d="M25 700h405v-52h-176v-648h-53v648h-176v52zM202 -55h54.999c5.33301 -23.333 6.33301 -45 3 -65s-10.666 -40.667 -21.999 -62h-43c8 23.333 13 44.5 15 63.5s-0.666992 40.167 -8 63.5z" />
    <glyph glyph-name="uni021B" unicode="&#x21b;" horiz-adv-x="311" 
d="M258 46v-47c-46.667 0 -84.167 11.167 -112.5 33.5s-42.5 58.5 -42.5 108.5v323h-52v43h52v193h52v-193h103v-43h-103v-323c0 -32.667 9.5 -56.667 28.5 -72s43.833 -23 74.5 -23zM177 -67l52.002 -0.00195312c5.33301 -23.333 6.16602 -44.166 2.49902 -62.499
s-10.834 -39.166 -21.501 -62.499h-40c8 24 13 45 15 63s-0.666992 38.667 -8 62z" />
    <glyph glyph-name="uni02C6" unicode="&#x2c6;" horiz-adv-x="513" 
d="M140 755h48l70 78l69 -78h48l-82 100h-69z" />
    <glyph glyph-name="uni02C7" unicode="&#x2c7;" horiz-adv-x="513" 
d="M374 874h-48l-70 -78l-69 78h-48l82 -100h69z" />
    <glyph glyph-name="uni02D8" unicode="&#x2d8;" horiz-adv-x="513" 
d="M258 759c-14 0 -27.832 2.33105 -41.499 6.99805s-25.834 11.334 -36.501 20.001s-19.834 19.167 -27.501 31.5s-12.5 25.833 -14.5 40.5h40c3.33301 -20.667 12.833 -36 28.5 -46s32.834 -15 51.501 -15c18 0 35 5 51 15s25.667 25.333 29 46h37
c-0.666992 -16.667 -4.83398 -31.167 -12.501 -43.5s-17.167 -22.666 -28.5 -30.999s-23.666 -14.5 -36.999 -18.5s-26.333 -6 -39 -6z" />
    <glyph glyph-name="uni02D9" unicode="&#x2d9;" horiz-adv-x="514" 
d="M226 777h61v66h-61v-66z" />
    <glyph glyph-name="uni02DA" unicode="&#x2da;" horiz-adv-x="514" 
d="M192 814c-0.666992 22.667 5.83301 39.5 19.5 50.5s28.834 16.5 45.501 16.5c17.333 0 33 -5.5 47 -16.5s21 -27.833 21 -50.5s-7 -39.667 -21 -51s-29.667 -17 -47 -17c-16.667 0 -31.834 5.66699 -45.501 17s-20.167 28.333 -19.5 51zM221 814
c0 -13.333 3.83203 -23.333 11.499 -30s16.167 -10 25.5 -10c10 0 19 3.33301 27 10s12 16.667 12 30s-4.16699 23.333 -12.5 30s-17.166 10 -26.499 10s-17.833 -3.33301 -25.5 -10s-11.5 -16.667 -11.5 -30z" />
    <glyph glyph-name="uni02DB" unicode="&#x2db;" horiz-adv-x="513" 
d="M184 -104l-0.000976562 0.998047c-2.66699 14.667 -0.666992 28.5 6 41.5s15 24.667 25 35s20.167 18.833 30.5 25.5s17.833 11.334 22.5 14.001l37 -6c-14 -11.333 -26.333 -22.333 -37 -33c-10.667 -10 -19.667 -20.333 -27 -31s-11 -20.667 -11 -30
c0 -10 2.5 -18.167 7.5 -24.5s11.167 -11.5 18.5 -15.5s15 -7.16699 23 -9.5s15 -4.5 21 -6.5l-13 -27c-17.333 0.666992 -33.333 3.33398 -48 8.00098c-13.333 4 -25.166 10.5 -35.499 19.5s-16.833 21.833 -19.5 38.5z" />
    <glyph glyph-name="uni02DC" unicode="&#x2dc;" horiz-adv-x="494" 
d="M351 842l25.001 -20c-9.33301 -17.333 -20.833 -30.833 -34.5 -40.5s-28.167 -14.5 -43.5 -14.5c-9.33301 0 -18.833 1.33301 -28.5 4s-18.834 7.66699 -27.501 15c-18.667 13.333 -35.667 20 -51 20c-22 0 -41 -12.333 -57 -37c-5.33301 3.33301 -10 6.5 -14 9.5
s-8 6.16699 -12 9.5c23.333 38.667 51 58 83 58c20 0 41 -8.33301 63 -25c12 -9.33301 25.667 -14 41 -14c22 0 40.667 11.667 56 35z" />
    <glyph glyph-name="uni02DD" unicode="&#x2dd;" horiz-adv-x="437" 
d="M105 751h41l71 107h-53zM228 751h42l76 107h-54z" />
    <glyph glyph-name="uni0384" unicode="&#x384;" horiz-adv-x="489" 
d="M316 866h-62l-60 -104h46z" />
    <glyph glyph-name="uni0385" unicode="&#x385;" horiz-adv-x="513" 
d="M303 854h-53l-56 -97h38zM126 796v58h57v-58h-57zM326 796v58h57v-58h-57z" />
    <glyph glyph-name="uni0386" unicode="&#x386;" horiz-adv-x="636" 
d="M28 0l248 707h81l126 -353.5l126 -353.5h-57l-84 234h-301l-81 -234h-58zM186 284h265l-134 388zM122 703l-76 -104h-43l60 104h59z" />
    <glyph glyph-name="uni0388" unicode="&#x388;" horiz-adv-x="531" 
d="M461 701h-349v-700h349v52h-295v273h291v51h-290v272h294v52zM68 700h-59l-60 -104h43z" />
    <glyph glyph-name="uni0389" unicode="&#x389;" horiz-adv-x="688" 
d="M522 0h53v700h-53v-326h-354v326h-54v-700h54v323h354v-323zM68 700h-59l-60 -104h43z" />
    <glyph glyph-name="uni038A" unicode="&#x38a;" horiz-adv-x="286" 
d="M116 0h54v700h-54v-700zM76 700h-59l-60 -104h43z" />
    <glyph glyph-name="uni038C" unicode="&#x38c;" horiz-adv-x="824" 
d="M120 349c0 -51.333 8.33398 -96.167 25.001 -134.5s38.667 -70.333 66 -96s58.5 -45 93.5 -58s70.833 -19.5 107.5 -19.5s72.5 6.5 107.5 19.5s66.167 32.333 93.5 58s49.333 57.667 66 96s25 83.166 25 134.499c0 52 -8.33301 97.333 -25 136s-38.667 70.834 -66 96.501
s-58.333 45 -93 58s-70.334 19.5 -107.001 19.5s-72.5 -6.5 -107.5 -19.5s-66.167 -32.5 -93.5 -58.5s-49.5 -58.333 -66.5 -97s-25.5 -83.667 -25.5 -135zM412.001 710.999c51.333 0 98.1689 -9.83301 140.502 -29.5s78.666 -46.167 108.999 -79.5s54 -71.833 71 -115.5
s25.5 -89.5 25.5 -137.5c0 -60 -9.83301 -112.333 -29.5 -157s-45.834 -82 -78.501 -112s-69.667 -52.5 -111 -67.5s-83.666 -22.5 -126.999 -22.5s-85.666 7.5 -126.999 22.5s-78.333 37.5 -111 67.5s-58.834 67.333 -78.501 112s-29.5 97 -29.5 157
c0 48 8.16699 93.833 24.5 137.5s39.666 82.167 69.999 115.5s66.833 59.833 109.5 79.5s90 29.5 142 29.5zM111.004 699.999l-76 -104h-43l60 104h59z" />
    <glyph glyph-name="uni038E" unicode="&#x38e;" horiz-adv-x="618" 
d="M585 700h-59l-205 -370l-201 370h-58l232 -419v-281h53v280zM47 700h-57l-60 -104h43z" />
    <glyph glyph-name="uni038F" unicode="&#x38f;" horiz-adv-x="847" 
d="M415 663c-44.667 0 -85.4971 -7.83008 -122.497 -23.4971s-68.833 -37.167 -95.5 -64.5s-47.334 -59.833 -62.001 -97.5s-22 -78.167 -22 -121.5c0 -40 5.16699 -76.167 15.5 -108.5s24.833 -61.166 43.5 -86.499s41 -47.5 67 -66.5s54.667 -34.833 86 -47.5l-15 -47
h-271v47h192c-52 25.333 -93.5 65 -124.5 119s-46.5 117.333 -46.5 190c0 51.333 8.66699 98.666 26 141.999s41.666 80.666 72.999 111.999s68.833 56 112.5 74s91.5 27 143.5 27c52.667 0 100.667 -9 144 -27s80.5 -42.833 111.5 -74.5s55.167 -69.167 72.5 -112.5
s26 -90.333 26 -141c0 -36 -4.16699 -70.333 -12.5 -103s-20 -62.334 -35 -89.001s-33 -50 -54 -70s-43.833 -36 -68.5 -48h193v-46h-265l-12 47c30.667 14 58.5 30.333 83.5 49s46.167 40.334 63.5 65.001s30.833 53.167 40.5 85.5s14.5 68.833 14.5 109.5
c0 43.333 -7.33301 83.666 -22 120.999s-35.334 69.666 -62.001 96.999s-58.5 49 -95.5 65s-77.833 24 -122.5 24zM94.0029 700.003l-76 -104h-43l60 104h59z" />
    <glyph glyph-name="uni0390" unicode="&#x390;" horiz-adv-x="266" 
d="M191 694l-71 -97h-38l56 97h53zM215 -1c-18.667 0 -35.333 1.16699 -50 3.5s-27.167 7.33301 -37.5 15s-18.166 18.5 -23.499 32.5s-8 33 -8 57v400h53v-400c0 -25.333 4.66699 -42.5 14 -51.5s26.666 -13.5 51.999 -13.5v-43zM14.001 636v58h57v-58h-57zM214.001 636v58
h57v-58h-57z" />
    <glyph glyph-name="uni0391" unicode="&#x391;" horiz-adv-x="636" 
d="M28 0l248 707h81l126 -353.5l126 -353.5h-57l-84 234h-301l-81 -234h-58zM186 284h265l-134 388z" />
    <glyph glyph-name="uni0392" unicode="&#x392;" horiz-adv-x="613" 
d="M508 519c0 -12.667 -1.49805 -26 -4.49805 -40s-8.33301 -27.5 -16 -40.5s-18 -25.167 -31 -36.5s-29.5 -21 -49.5 -29c25.333 -8.66699 46.5 -19.667 63.5 -33s30.667 -27.666 41 -42.999s17.5 -31.5 21.5 -48.5s6 -33.833 6 -50.5c0 -33.333 -6 -62.333 -18 -87
s-28.333 -45.334 -49 -62.001s-44.834 -29 -72.501 -37s-56.834 -12 -87.501 -12h-196v700h197c26 0 50.833 -4.33301 74.5 -13s44.5 -20.834 62.5 -36.501s32.167 -34.667 42.5 -57s15.5 -47.166 15.5 -74.499zM313.002 347l-142.999 0.000976562v-301h143
c29.333 0 54.666 4.83301 75.999 14.5s39.333 22 54 37s25.5 31.5 32.5 49.5s10.5 35.667 10.5 53s-3.66699 34.666 -11 51.999s-18.166 33 -32.499 47s-32.333 25.5 -54 34.5s-46.834 13.5 -75.501 13.5zM170.003 395.001h143c24 0 45 3.66699 63 11s32.833 17 44.5 29
s20.5 25.5 26.5 40.5s9 29.833 9 44.5c0 15.333 -3 31 -9 47s-14.833 30.5 -26.5 43.5s-26.5 23.833 -44.5 32.5s-39 13 -63 13h-143v-261z" />
    <glyph glyph-name="uni0393" unicode="&#x393;" horiz-adv-x="522" 
d="M473 700h-356v-700h53v655h303v45z" />
    <glyph glyph-name="uni0394" unicode="&#x394;" horiz-adv-x="635" 
d="M609 0h-581l248 707h81l126 -353.5zM535 47l-218 625l-215 -625h433z" />
    <glyph glyph-name="uni0395" unicode="&#x395;" horiz-adv-x="531" 
d="M461 701h-349v-700h349v52h-295v273h291v51h-290v272h294v52z" />
    <glyph glyph-name="uni0396" unicode="&#x396;" horiz-adv-x="572" 
d="M67 0h437v48h-385l379 625v28h-413v-47h345l-363 -601v-53z" />
    <glyph glyph-name="uni0397" unicode="&#x397;" horiz-adv-x="688" 
d="M522 0h53v700h-53v-326h-354v326h-54v-700h54v323h354v-323z" />
    <glyph glyph-name="uni0398" unicode="&#x398;" horiz-adv-x="824" 
d="M120 349c0 -51.333 8.33398 -96.167 25.001 -134.5s38.667 -70.333 66 -96s58.5 -45 93.5 -58s70.833 -19.5 107.5 -19.5s72.5 6.5 107.5 19.5s66.167 32.333 93.5 58s49.333 57.667 66 96s25 83.166 25 134.499c0 52 -8.33301 97.333 -25 136s-38.667 70.834 -66 96.501
s-58.333 45 -93 58s-70.334 19.5 -107.001 19.5s-72.5 -6.5 -107.5 -19.5s-66.167 -32.5 -93.5 -58.5s-49.5 -58.333 -66.5 -97s-25.5 -83.667 -25.5 -135zM412.001 710.999c51.333 0 98.1689 -9.5 140.502 -28.5s78.666 -45 108.999 -78s54 -71.5 71 -115.5
s25.5 -90.667 25.5 -140c0 -60 -9.83301 -112.333 -29.5 -157s-45.834 -82 -78.501 -112s-69.667 -52.5 -111 -67.5s-83.666 -22.5 -126.999 -22.5s-85.666 7.5 -126.999 22.5s-78.333 37.5 -111 67.5s-58.834 67.333 -78.501 112s-29.5 97 -29.5 157
c0 48 8.16699 93.833 24.5 137.5s39.666 82.167 69.999 115.5s66.833 59.833 109.5 79.5s90 29.5 142 29.5zM195.004 328.999v49h434v-49h-434z" />
    <glyph glyph-name="uni0399" unicode="&#x399;" horiz-adv-x="286" 
d="M116 0h54v700h-54v-700z" />
    <glyph glyph-name="uni039A" unicode="&#x39a;" horiz-adv-x="634" 
d="M116 700v-700h53v261l94 92l267 -353h64l-292 390l275 310h-61l-347 -375v375h-53z" />
    <glyph glyph-name="uni039B" unicode="&#x39b;" horiz-adv-x="631" 
d="M274 705h81l251 -705h-56l-236 669l-232 -669h-56l124 352.5z" />
    <glyph glyph-name="uni039C" unicode="&#x39c;" horiz-adv-x="855" 
d="M455 107h-53l-233 533v-640h-53v701h82l230 -534l56 130l58 137l58 137l56 130h84v-701h-53l1 640z" />
    <glyph glyph-name="uni039D" unicode="&#x39d;" horiz-adv-x="737" 
d="M116 700v-700h54v620l367 -620h84v700h-54v-648l-384 648h-67z" />
    <glyph glyph-name="uni039E" unicode="&#x39e;" horiz-adv-x="553" 
d="M50 49v-49h450v49h-450zM93 328h362v48h-362v-48zM494 652v48h-438v-48h438z" />
    <glyph glyph-name="uni039F" unicode="&#x39f;" horiz-adv-x="824" 
d="M120 349c0 -51.333 8.33398 -96.167 25.001 -134.5s38.667 -70.333 66 -96s58.5 -45 93.5 -58s70.833 -19.5 107.5 -19.5s72.5 6.5 107.5 19.5s66.167 32.333 93.5 58s49.333 57.667 66 96s25 83.166 25 134.499c0 52 -8.33301 97.333 -25 136s-38.667 70.834 -66 96.501
s-58.333 45 -93 58s-70.334 19.5 -107.001 19.5s-72.5 -6.5 -107.5 -19.5s-66.167 -32.5 -93.5 -58.5s-49.5 -58.333 -66.5 -97s-25.5 -83.667 -25.5 -135zM412.001 710.999c51.333 0 98.1689 -9.83301 140.502 -29.5s78.666 -46.167 108.999 -79.5s54 -71.833 71 -115.5
s25.5 -89.5 25.5 -137.5c0 -60 -9.83301 -112.333 -29.5 -157s-45.834 -82 -78.501 -112s-69.667 -52.5 -111 -67.5s-83.666 -22.5 -126.999 -22.5s-85.666 7.5 -126.999 22.5s-78.333 37.5 -111 67.5s-58.834 67.333 -78.501 112s-29.5 97 -29.5 157
c0 48 8.16699 93.833 24.5 137.5s39.666 82.167 69.999 115.5s66.833 59.833 109.5 79.5s90 29.5 142 29.5z" />
    <glyph glyph-name="uni03A0" unicode="&#x3a0;" horiz-adv-x="675" 
d="M559 0v700h-443v-700h53v655h337v-655h53z" />
    <glyph glyph-name="uni03A1" unicode="&#x3a1;" horiz-adv-x="587" 
d="M169 267l-0.000976562 -266.999h-53v701h197c49.333 -0.666992 90.333 -11.834 123 -33.501s57.334 -48.5 74.001 -80.5s25.167 -66.833 25.5 -104.5s-7.5 -72.5 -23.5 -104.5s-40.5 -58.5 -73.5 -79.5s-74.5 -31.5 -124.5 -31.5h-145zM168.999 317.001l144 0.000976562
c38.667 1.33301 70.5 10.166 95.5 26.499s43.667 36.5 56 60.5s18.333 50 18 78s-7 54 -20 78s-32 44.5 -57 61.5s-55.833 26.5 -92.5 28.5h-144v-333z" />
    <glyph glyph-name="uni03A3" unicode="&#x3a3;" 
d="M323 371l-193 282h373v47h-419l-23 -33l209 -308l-218 -326l27 -33h432v48h-391l203 301v22z" />
    <glyph glyph-name="uni03A4" unicode="&#x3a4;" horiz-adv-x="455" 
d="M25 700v-45h176v-655h53v655h176v45h-405z" />
    <glyph glyph-name="uni03A5" unicode="&#x3a5;" horiz-adv-x="593" 
d="M560 700h-59l-205 -370l-204 370h-59l236 -419v-281h53v280z" />
    <glyph glyph-name="uni03A6" unicode="&#x3a6;" horiz-adv-x="822" 
d="M384 640v61h52v-61c52.667 -2 99 -11.333 139 -28s73.333 -38.334 100 -65.001s46.667 -57 60 -91s20 -68.667 20 -104s-6.66699 -70 -20 -104s-33.333 -64.5 -60 -91.5s-60 -49.167 -100 -66.5s-86.333 -26.666 -139 -27.999v-63h-52v63
c-52.667 1.33301 -99.167 10.5 -139.5 27.5s-74 39 -101 66s-47.333 57.5 -61 91.5s-20.5 68.667 -20.5 104s6.83301 70 20.5 104s34 64.333 61 91s60.667 48.5 101 65.5s86.833 26.5 139.5 28.5zM116 352c0 -30.667 5.66699 -60.5 17 -89.5s28.166 -55 50.499 -78
s50.333 -41.667 84 -56s72.5 -22.166 116.5 -23.499v491c-44 -2 -82.667 -10 -116 -24s-61.166 -32.333 -83.499 -55s-39.333 -48.334 -51 -77.001s-17.5 -58 -17.5 -88zM436 596l-0.000976562 -490.999c44 1.33301 82.5 9.16602 115.5 23.499s60.5 32.833 82.5 55.5
s38.667 48.5 50 77.5s17 58.833 17 89.5c0 31.333 -5.66699 61.333 -17 90s-28.166 54.167 -50.499 76.5s-50 40.5 -83 54.5s-71.167 22 -114.5 24z" />
    <glyph glyph-name="uni03A7" unicode="&#x3a7;" horiz-adv-x="647" 
d="M600 700h-63l-208 -312l-209 312h-62l237 -350l-241 -350h62l213 311l212 -311h62l-240 350z" />
    <glyph glyph-name="uni03A8" unicode="&#x3a8;" horiz-adv-x="791" 
d="M361 194l-0.00195312 505.999h54v-506c43.333 2 80.166 9.66699 110.499 23s55.333 30.833 75 52.5s34 46.667 43 75s13.5 58.5 13.5 90.5v265h53v-265c0 -35.333 -5.5 -69.833 -16.5 -103.5s-28.333 -64 -52 -91s-54.167 -49 -91.5 -66s-82.333 -26.167 -135 -27.5v-147
h-54v147c-53.333 1.33301 -98.666 10.5 -135.999 27.5s-68 38.833 -92 65.5s-41.5 56.834 -52.5 90.501s-16.5 68.167 -16.5 103.5v266h54v-265c0 -30.667 4.66699 -60.167 14 -88.5s23.833 -53.5 43.5 -75.5s44.834 -39.833 75.501 -53.5s67.334 -21.5 110.001 -23.5z" />
    <glyph glyph-name="uni03A9" unicode="&#x3a9;" horiz-adv-x="847" 
d="M415 663c-44.667 0 -85.4971 -7.83105 -122.497 -23.498s-68.833 -37.167 -95.5 -64.5s-47.334 -59.833 -62.001 -97.5s-22 -78.167 -22 -121.5c0 -79.333 19.167 -144.666 57.5 -195.999s88.833 -89.666 151.5 -114.999l-12 -45h-271v45h192
c-52 25.333 -93.5 65.333 -124.5 120s-46.5 118.334 -46.5 191.001c0 51.333 8.66699 98.666 26 141.999s41.666 80.666 72.999 111.999s68.833 56 112.5 74s91.5 27 143.5 27c52.667 0 100.667 -9 144 -27s80.5 -42.833 111.5 -74.5s55.167 -69.167 72.5 -112.5
s26 -90.333 26 -141c0 -36 -4.16699 -70.333 -12.5 -103s-20 -62.5 -35 -89.5s-33 -50.667 -54 -71s-43.833 -36.5 -68.5 -48.5h193v-44h-265l-10 45c30.667 14 58.334 30.333 83.001 49s45.667 40.667 63 66s30.666 54.166 39.999 86.499s14 68.833 14 109.5
c0 43.333 -7.33301 83.666 -22 120.999s-35.334 69.666 -62.001 96.999s-58.5 49 -95.5 65s-77.833 24 -122.5 24z" />
    <glyph glyph-name="uni03AA" unicode="&#x3aa;" horiz-adv-x="286" 
d="M116 0h54v700h-54v-700zM87 747v62h-61v-62h61zM260 747v62h-61v-62h61z" />
    </font>
</defs>
</svg>
