<svg width="50" height="38" viewBox="0 0 50 38" fill="none" xmlns="http://www.w3.org/2000/svg">
<path d="M9.178 37.983C6.49067 37.983 4.35933 37.01 2.784 35.064C1.20867 33.118 0.421 30.477 0.421 27.141C0.421 23.805 1.06967 20.608 2.367 17.55C3.757 14.3993 5.37867 11.851 7.232 9.905C9.178 7.95899 11.2167 6.24466 13.348 4.762C17.24 2.16733 19.9737 0.869998 21.549 0.869998C21.9197 0.869998 22.383 1.426 22.939 2.53799C23.495 3.55733 23.773 4.43766 23.773 5.17899C17.1937 8.237 13.6723 12.9167 13.209 19.218L19.186 27.836C19.186 30.9867 18.1667 33.4887 16.128 35.342C14.182 37.1027 11.8653 37.983 9.178 37.983ZM35.31 37.983C32.6227 37.983 30.4913 37.01 28.916 35.064C27.3407 33.118 26.553 30.477 26.553 27.141C26.553 23.805 27.2017 20.608 28.499 17.55C29.889 14.3993 31.5107 11.851 33.364 9.905C35.31 7.95899 37.3487 6.24466 39.48 4.762C43.372 2.16733 46.1057 0.869998 47.681 0.869998C48.0517 0.869998 48.515 1.426 49.071 2.53799C49.627 3.55733 49.905 4.43766 49.905 5.17899C43.3257 8.237 39.8043 12.9167 39.341 19.218L45.318 27.836C45.318 30.9867 44.2987 33.4887 42.26 35.342C40.314 37.1027 37.9973 37.983 35.31 37.983Z" fill="white" fill-opacity="0.5"/>
</svg>
