<svg width="23" height="23" viewBox="0 0 23 23" fill="none" xmlns="http://www.w3.org/2000/svg">
<path d="M8.60354 11.6381C9.00443 12.1459 9.44095 12.6314 9.9131 13.0723L9.92647 13.0857C10.3674 13.5578 10.853 13.9987 11.3608 14.3996C11.8953 14.8183 12.4521 15.1924 13.0222 15.5176C13.5834 15.8383 13.9977 15.8516 14.3362 15.7135C14.6926 15.5666 14.9955 15.2503 15.285 14.9385C15.4543 14.7559 15.6324 14.5733 15.8151 14.3818C15.9977 14.1947 16.1714 14.0121 16.3496 13.8339C16.6703 13.5044 16.9019 13.3529 17.2093 13.3975C17.481 13.4375 17.7527 13.6424 18.1714 14.0344L21.9085 17.5085C21.9843 17.5709 22.0199 17.6733 21.9887 17.7758C21.7571 18.5463 21.5522 19.1609 21.2003 19.7222C20.8484 20.2878 20.3584 20.7822 19.5567 21.3078L19.5478 21.3122C19.0311 21.6196 18.648 21.8334 18.1981 21.9313C17.7482 22.0338 17.2582 22.0249 16.5411 21.8824C14.7906 21.5349 13.1202 20.7154 11.5434 19.6331C9.97992 18.5597 8.51 17.2235 7.1648 15.8338C5.77506 14.4887 4.44322 13.0189 3.36973 11.4555C2.28734 9.88324 1.46774 8.20853 1.12031 6.4581C0.977771 5.74546 0.964408 5.25552 1.06686 4.80121C1.16931 4.35581 1.3742 3.97722 1.6771 3.46946L1.69046 3.44719C2.21607 2.64547 2.71049 2.15553 3.27619 1.80366C3.84189 1.45179 4.45658 1.24691 5.22718 1.01084C5.31626 0.98412 5.41426 1.00639 5.48553 1.08211L8.97325 4.83239C9.36522 5.25106 9.57012 5.51831 9.61021 5.79C9.65475 6.09733 9.50331 6.32894 9.17369 6.64963C8.99552 6.82333 8.81289 7.00149 8.62581 7.18411C8.43873 7.36672 8.25165 7.54488 8.06902 7.71413C7.75722 8.00364 7.44097 8.30652 7.29397 8.66284C7.15589 9.00134 7.16925 9.42002 7.48996 9.97677C7.81067 10.5469 8.18483 11.1081 8.60354 11.6381Z" stroke="white" stroke-miterlimit="10"/>
</svg>
